<svg width="120" height="244" viewBox="0 0 120 244" fill="none" xmlns="http://www.w3.org/2000/svg">
<path d="M21.5567 149.375C21.5567 149.375 7.76893 163.614 7.01264 196.853C6.76054 208.004 10.3626 243.506 10.3626 243.506L91 244L75.9178 148.844L50.548 140L21.5567 149.375Z" fill="#458DFC"/>
<path d="M52.3216 152.508C52.4084 153.004 52.4571 153.505 52.4673 154.008C52.5304 155.018 52.6081 156.261 52.6955 157.64C52.7828 159.018 52.8314 160.344 52.8508 161.271C52.8837 161.774 52.8723 162.279 52.8168 162.781C52.7301 162.285 52.6814 161.784 52.6712 161.281C52.6081 160.276 52.5304 159.028 52.443 157.654C52.3556 156.28 52.3071 154.95 52.2925 154.018C52.2568 153.515 52.2666 153.009 52.3216 152.508Z" fill="#263238"/>
<path d="M57.3023 157.567C57.3023 157.591 57.1227 157.63 56.8168 157.8C56.416 158.04 56.0964 158.395 55.8993 158.819C55.7467 159.124 55.6754 159.463 55.6924 159.803C55.7094 160.143 55.8141 160.473 55.9964 160.761C56.2049 161.122 56.5179 161.411 56.8941 161.59C57.2703 161.769 57.6919 161.829 58.1033 161.764C58.5147 161.698 58.8964 161.509 59.1981 161.221C59.4997 160.934 59.7071 160.562 59.7928 160.154C59.8786 159.828 59.879 159.485 59.794 159.159C59.709 158.832 59.5414 158.533 59.3073 158.29C58.9885 157.948 58.5741 157.709 58.1179 157.606C57.7975 157.533 57.6324 157.552 57.6033 157.528C57.5741 157.504 57.6518 157.528 57.7392 157.499C57.8712 157.48 58.0053 157.48 58.1373 157.499C58.6291 157.571 59.0842 157.801 59.4335 158.154C59.6801 158.397 59.8691 158.693 59.987 159.018C60.1173 159.4 60.1358 159.811 60.0404 160.203C59.9459 160.657 59.7154 161.072 59.3795 161.393C59.0436 161.713 58.6182 161.923 58.1598 161.996C57.7014 162.069 57.2318 162 56.8133 161.8C56.3947 161.599 56.0472 161.276 55.8167 160.873C55.6052 160.53 55.4957 160.135 55.5012 159.732C55.5153 159.394 55.6031 159.062 55.7585 158.761C55.9809 158.315 56.3421 157.954 56.7877 157.732C56.9054 157.67 57.0312 157.626 57.1615 157.601C57.2537 157.562 57.2974 157.557 57.3023 157.567Z" fill="#263238"/>
<path d="M66.1046 182.622C66.1046 182.622 65.9249 182.69 65.6191 182.855C65.2199 183.096 64.902 183.451 64.7064 183.875C64.5538 184.179 64.4825 184.518 64.4996 184.858C64.5166 185.199 64.6213 185.529 64.8035 185.817C65.012 186.177 65.325 186.466 65.7012 186.645C66.0774 186.824 66.4991 186.885 66.9104 186.819C67.3218 186.753 67.7035 186.564 68.0052 186.277C68.3068 185.99 68.5142 185.617 68.5999 185.21C68.6853 184.883 68.6854 184.541 68.6004 184.214C68.5154 183.888 68.3481 183.589 68.1144 183.346C67.7973 183.004 67.3846 182.765 66.9299 182.661C66.6046 182.588 66.4153 182.608 66.4153 182.583C66.4581 182.564 66.5044 182.554 66.5512 182.554C66.6818 182.538 66.8139 182.538 66.9444 182.554C67.4384 182.627 67.8951 182.859 68.2455 183.215C68.4915 183.455 68.6792 183.749 68.7941 184.074C68.9292 184.455 68.9477 184.867 68.8475 185.258C68.7567 185.715 68.5282 186.132 68.1928 186.455C67.8574 186.778 67.4311 186.99 66.9715 187.063C66.5118 187.136 66.0409 187.066 65.622 186.863C65.2031 186.661 64.8565 186.334 64.6287 185.928C64.4128 185.588 64.3029 185.191 64.3132 184.787C64.3251 184.449 64.413 184.117 64.5705 183.816C64.7928 183.371 65.1541 183.01 65.5997 182.787C65.718 182.727 65.8437 182.683 65.9735 182.656C66.0154 182.639 66.0595 182.627 66.1046 182.622Z" fill="#263238"/>
<path d="M37.5527 164.427C37.5021 164.504 37.4435 164.575 37.3779 164.64C37.2614 164.776 37.0866 164.975 36.8487 165.223C36.1678 165.918 35.4412 166.567 34.6738 167.165C32.1183 169.124 29.171 170.509 26.0323 171.228C24.3091 171.642 22.5322 171.786 20.7649 171.655C19.3073 171.55 17.9067 171.046 16.716 170.199C15.9207 169.618 15.2819 168.849 14.8566 167.961C14.7498 167.719 14.6622 167.469 14.5945 167.213C14.5671 167.125 14.5524 167.034 14.5508 166.941C14.5751 166.941 14.6479 167.31 14.9489 167.912C15.3948 168.762 16.0372 169.493 16.8228 170.044C17.9961 170.85 19.3639 171.328 20.7843 171.427C22.5284 171.538 24.2793 171.387 25.9789 170.981C29.0849 170.269 32.0093 168.92 34.567 167.019C35.3374 166.441 36.0749 165.82 36.7759 165.16L37.3439 164.611C37.475 164.48 37.543 164.427 37.5527 164.427Z" fill="#263238"/>
<path d="M37.5527 168.971C37.5021 169.048 37.4435 169.119 37.3779 169.184C37.2614 169.32 37.0866 169.524 36.8487 169.772C33.896 172.77 30.14 174.852 26.0323 175.767C24.3093 176.182 22.5325 176.328 20.7649 176.199C19.3078 176.092 17.9078 175.588 16.716 174.743C15.9201 174.165 15.281 173.397 14.8566 172.51C14.7489 172.266 14.6612 172.015 14.5945 171.757C14.5666 171.669 14.5519 171.578 14.5508 171.485C14.5751 171.485 14.6479 171.854 14.9489 172.456C15.3944 173.308 16.0369 174.04 16.8228 174.592C17.9966 175.397 19.3644 175.874 20.7843 175.971C22.5284 176.084 24.2797 175.934 25.9789 175.525C29.0838 174.812 32.0077 173.465 34.567 171.568C35.3377 170.989 36.0752 170.366 36.7759 169.704L37.3439 169.155C37.406 169.086 37.4761 169.024 37.5527 168.971Z" fill="#263238"/>
<path d="M38.2669 167.597C38.2843 167.66 38.2957 167.725 38.3008 167.791C38.3008 167.932 38.3348 168.126 38.364 168.369C38.4222 168.893 38.5047 169.641 38.6067 170.597C38.8106 172.539 39.199 175.321 39.3737 178.802C39.4735 180.7 39.433 182.604 39.2524 184.496C39.0536 186.676 38.5637 188.82 37.7959 190.87C36.9495 193.151 35.6082 195.215 33.8684 196.915C32.945 197.809 31.9067 198.576 30.7808 199.196C29.6161 199.831 28.3573 200.275 27.0523 200.512C24.45 200.935 21.7815 200.441 19.5032 199.114C17.3785 197.91 15.588 196.194 14.294 194.123C13.1531 192.251 12.3327 190.202 11.8666 188.06C11.4518 186.197 11.2273 184.297 11.1967 182.389C11.1864 179.639 11.3811 176.892 11.7793 174.17C11.92 173.199 12.0268 172.471 12.0997 171.951C12.1385 171.709 12.1725 171.519 12.1919 171.374C12.2009 171.308 12.2155 171.243 12.2356 171.18C12.2421 171.246 12.2421 171.312 12.2356 171.379C12.2356 171.524 12.1968 171.714 12.1676 171.956C12.1045 172.481 12.0123 173.228 11.8909 174.18C11.536 176.9 11.3738 179.641 11.4054 182.384C11.4463 184.275 11.6773 186.157 12.0948 188.001C12.5683 190.115 13.3885 192.136 14.5222 193.982C15.7904 196.02 17.5476 197.709 19.6343 198.895C21.8629 200.193 24.4733 200.675 27.0184 200.26C28.297 200.032 29.53 199.597 30.6691 198.973C31.7769 198.365 32.7989 197.613 33.7082 196.735C35.4257 195.063 36.752 193.033 37.592 190.788C38.3555 188.758 38.8453 186.636 39.0485 184.477C39.238 182.595 39.2883 180.701 39.199 178.811C39.0485 175.34 38.7135 172.544 38.5145 170.607C38.4174 169.636 38.3542 168.883 38.3154 168.374C38.3154 168.131 38.2863 167.937 38.2766 167.791C38.2669 167.645 38.2669 167.597 38.2669 167.597Z" fill="#263238"/>
<g opacity="0.2">
<path d="M13.0019 191.642C13.8757 194.604 14.2495 195.371 15.8856 197.735C17.3964 199.976 19.6074 201.652 22.1725 202.503C24.0064 203.136 25.9716 203.289 27.8816 202.95C29.7916 202.61 31.5831 201.787 33.086 200.561C36.0523 198.08 37.1009 194.249 37.6155 191.652C36.3242 193.39 34.9503 195.861 33.3239 197.293C31.6976 198.726 29.5469 199.978 27.4011 200.352C24.4882 200.837 21.0171 199.963 18.5266 198.381C16.0361 196.798 14.5311 193.963 12.9873 191.647" fill="black"/>
</g>
<g opacity="0.2">
<path d="M15.0811 172.811C15.6348 174.045 16.4805 175.127 17.5454 175.961C18.6102 176.796 19.8622 177.359 21.1932 177.602C23.8196 178.088 27.2228 177.258 28.8637 174.791C23.0866 176.821 17.3434 176.869 15.0811 172.811Z" fill="black"/>
</g>
<path d="M62.5559 165.65C62.4322 165.671 62.3058 165.671 62.1821 165.65C61.8533 165.605 61.5286 165.533 61.2112 165.436C59.0476 164.795 57.1922 163.386 55.9923 161.475C55.8093 161.189 55.6471 160.891 55.5068 160.582C55.4146 160.358 55.3709 160.237 55.3903 160.227C55.4097 160.217 55.6524 160.684 56.1282 161.378C56.7546 162.273 57.5143 163.067 58.3808 163.732C59.2537 164.389 60.2232 164.907 61.2548 165.266C62.0462 165.514 62.5608 165.606 62.5559 165.65Z" fill="#263238"/>
<g opacity="0.2">
<path d="M55.8379 160.543C56.435 162.572 58.6876 164.465 60.6927 165.131C61.0848 165.277 61.5034 165.338 61.9209 165.31C62.1296 165.296 62.3325 165.236 62.5154 165.134C62.6983 165.033 62.8567 164.892 62.9792 164.723C63.4016 164.077 63.0375 163.159 62.4161 162.703C61.755 162.3 61.0179 162.037 60.2509 161.931C58.7022 161.572 57.304 162.354 56.0224 161.053" fill="black"/>
</g>
<g opacity="0.2">
<path d="M17 155.802C20.0786 158.323 24.4282 158.431 28.3446 157.349C32.2609 156.266 35.6738 154.228 39 152C35.3725 152.677 32.2774 154.228 28.617 154.734C25.1216 155.218 21.4858 155.268 18.0482 154.173" fill="black"/>
</g>
<path d="M82.3536 205.411C82.3265 205.434 82.2952 205.452 82.2613 205.464C82.1687 205.514 82.073 205.557 81.9749 205.595C81.5974 205.747 81.2002 205.846 80.7952 205.886C79.2935 206.011 77.7952 205.609 76.557 204.75C74.9452 203.726 73.479 202.002 71.911 200.09C70.2287 197.99 68.7173 195.76 67.3912 193.419C64.9846 189.161 63.1421 184.608 61.9101 179.874C61.4247 178.059 61.1431 176.573 60.9635 175.539C60.8858 175.054 60.8227 174.641 60.7741 174.35C60.7501 174.212 60.7339 174.072 60.7256 173.932C60.7724 174.065 60.8066 174.201 60.8275 174.34L61.0606 175.52C61.2693 176.544 61.5946 178.025 62.0801 179.826C63.3591 184.526 65.2165 189.05 67.6096 193.293C68.9314 195.622 70.4311 197.846 72.0954 199.944C73.6441 201.857 75.0908 203.58 76.6541 204.6C77.8619 205.457 79.3262 205.877 80.8049 205.789C81.3359 205.734 81.8569 205.606 82.3536 205.411Z" fill="#263238"/>
<g opacity="0.2">
<path d="M64.8945 187.496C64.8945 187.496 72.0602 196.507 77.2888 198.716C79.0607 199.468 81.0124 200.08 82.2212 201.575C82.5233 201.918 82.7471 202.322 82.877 202.759C83.007 203.197 83.04 203.658 82.9737 204.109C82.9535 204.216 82.9209 204.321 82.8766 204.42C82.1241 206.338 78.5073 206.071 76.8518 204.857C76.1284 204.328 76.5557 204.668 75.9731 204.231C74.2982 202.969 65.3315 192.584 64.8945 187.496Z" fill="black"/>
</g>
<path d="M33.2619 65.8845L37.8351 64.9767L60.4535 65.2437L71.9447 67.7682L76.3286 131.938L25.5234 134.312L33.2619 65.8845Z" fill="#E0E0E0"/>
<path d="M66.1628 128.987L67.2455 99.7999L65.4443 65.9573C72.5906 67.7973 82.3632 69.8412 87.7763 76.0116C91.2863 80.0167 94.7283 85.1385 96.0294 93.3868C97.5246 103.096 99.4957 121.666 100.729 132.055" fill="#458DFC"/>
<path d="M73.3479 124.2L38.2237 129.904L36.9808 108.213L35.0389 65.3311C24.8439 65.7486 13.241 74.1716 9.76016 80.7353C7.33278 85.289 5.29863 90.5807 4.66266 95.7025C3.44411 105.412 1.38083 122.049 0.147722 132.443C-0.225248 135.602 0.110187 138.805 1.12965 141.818C2.14912 144.831 3.82701 147.579 6.04141 149.862C11.1389 155.12 19.1202 156.941 26.2955 155.455L79.7756 140.405L73.3479 124.2Z" fill="#458DFC"/>
<path d="M69.6392 123.812C69.6421 123.77 69.6502 123.729 69.6634 123.69C69.6926 123.603 69.7266 123.486 69.7654 123.341C69.8674 123.015 70.0033 122.564 70.1829 121.986C70.5616 120.792 71.1005 119.073 71.7704 116.947L77.2806 99.7417L77.3534 99.8922L71.6588 97.5376L71.4354 97.4454L71.6345 97.3143L72.9501 96.4501L77.2466 93.6441L77.1981 93.78C75.0134 86.1969 73.0909 79.507 71.7073 74.6959C71.0325 72.3074 70.4888 70.3849 70.1052 69.045C69.9305 68.3896 69.7897 67.8798 69.6877 67.5157C69.6457 67.3571 69.6117 67.2261 69.5858 67.1225C69.57 67.0787 69.5602 67.033 69.5566 66.9865C69.5566 66.9865 69.5566 67.0254 69.6052 67.1128L69.7314 67.506C69.8431 67.8653 69.9984 68.3702 70.1926 69.0207L71.8675 74.6474L77.4359 93.712L77.4602 93.7994L77.3825 93.8528L73.0909 96.6637L71.7753 97.523V97.2997L77.4651 99.664L77.5719 99.7077L77.5379 99.8145C75.295 106.703 73.3385 112.699 71.9403 116.995C71.2364 119.122 70.6781 120.826 70.2849 122.01C70.0907 122.583 69.9353 123.035 69.8285 123.355C69.78 123.496 69.7363 123.608 69.7072 123.7C69.6889 123.74 69.6661 123.777 69.6392 123.812Z" fill="#263238"/>
<g opacity="0.2">
<path d="M77.407 93.8188C77.1204 94.8717 76.5004 95.8034 75.6399 96.4744C74.9699 96.8579 75.3535 97.3677 75.9069 97.9017C76.572 98.5425 77.64 98.7173 78.1304 99.4941C78.6207 100.271 78.344 101.159 78.0915 101.975C75.6595 109.713 72.7076 117.278 69.2559 124.617L77.407 99.7756L71.7221 97.4308L77.407 93.8188Z" fill="black"/>
</g>
<path d="M35.3006 124.414C35.2766 124.382 35.257 124.348 35.2424 124.312C35.2084 124.234 35.1598 124.137 35.1064 124.011L34.5821 122.826C34.1258 121.777 33.4752 120.268 32.6402 118.384L26.0911 103.033L26.0523 102.946L26.1348 102.888L30.6255 99.6737V99.8582L27.6495 97.4988L26.329 96.4598L25.6736 95.9744L25.5134 95.8433C25.4797 95.8193 25.4488 95.7916 25.4212 95.7607C25.3899 95.7203 25.3668 95.6741 25.3532 95.6248C25.3175 95.4803 25.2995 95.3319 25.2998 95.183C25.3297 94.0967 25.4303 93.0134 25.6008 91.94C25.8969 89.8379 26.2465 87.8184 26.5718 85.8959C27.2611 82.0557 27.9457 78.6137 28.5137 75.7009C29.0817 72.788 29.5914 70.4723 29.9361 68.8605C30.1109 68.0643 30.2517 67.4429 30.3488 67.0011L30.4604 66.5156C30.4688 66.4602 30.4852 66.4062 30.509 66.3554C30.5063 66.4127 30.4982 66.4696 30.4847 66.5253C30.4847 66.6467 30.4313 66.8069 30.3973 67.0108C30.3099 67.4542 30.1886 68.0756 30.0332 68.875C29.7128 70.5062 29.2564 72.8463 28.6933 75.73C28.1301 78.6137 27.4699 82.0752 26.7902 85.925C26.4552 87.8426 26.1106 89.8622 25.8193 91.9595C25.6519 93.0201 25.553 94.0903 25.5231 95.1636C25.5219 95.288 25.5366 95.412 25.5668 95.5326C25.5668 95.5908 25.7076 95.6782 25.8096 95.7656L26.4601 96.2802L27.7757 97.324L30.7469 99.6785L30.8779 99.7854L30.742 99.8824L26.2465 103.087L26.2853 102.936L32.7956 118.306C33.5869 120.204 34.218 121.705 34.6549 122.778C34.8637 123.287 35.0288 123.685 35.1404 123.977L35.2569 124.287C35.275 124.328 35.2896 124.37 35.3006 124.414Z" fill="#263238"/>
<path d="M77.7701 103.35L42.38 97.8907C41.7413 97.7922 41.1438 98.23 41.0452 98.8686L33.4123 148.346C33.3138 148.984 33.7516 149.582 34.3903 149.68L69.7804 155.14C70.419 155.239 71.0165 154.801 71.115 154.162L78.748 104.685C78.8465 104.047 78.4087 103.449 77.7701 103.35Z" fill="#458DFC"/>
<g opacity="0.2">
<path d="M77.7701 103.35L42.38 97.8907C41.7413 97.7922 41.1438 98.23 41.0452 98.8686L33.4123 148.346C33.3138 148.984 33.7516 149.582 34.3903 149.68L69.7804 155.14C70.419 155.239 71.0165 154.801 71.115 154.162L78.748 104.685C78.8465 104.046 78.4087 103.449 77.7701 103.35Z" fill="black"/>
</g>
<path d="M76.6521 104.305L43.1572 99.1376L35.7197 147.348L69.2146 152.515L76.6521 104.305Z" fill="#EBEBEB"/>
<path d="M66.5896 103.514C66.352 102.78 65.9152 102.127 65.328 101.627C64.7408 101.128 64.0262 100.801 63.264 100.683L63.5456 98.6202C63.66 97.8729 63.4733 97.1107 63.0264 96.5009C62.5795 95.8912 61.909 95.4835 61.1619 95.3675C60.4139 95.2517 59.6504 95.4378 59.0396 95.8848C58.4287 96.3318 58.0203 97.0032 57.9044 97.7512L57.5743 99.8873L56.8558 99.7902C56.102 99.6855 55.334 99.7905 54.636 100.094C53.938 100.397 53.337 100.886 52.8991 101.509L52.3408 102.286L66.9051 104.538L66.5896 103.514ZM60.5697 99.7465C60.2696 99.7007 59.9899 99.5668 59.7659 99.362C59.5419 99.1571 59.3837 98.8903 59.3114 98.5955C59.2391 98.3007 59.2559 97.9911 59.3596 97.7058C59.4633 97.4205 59.6493 97.1724 59.8941 96.9929C60.1389 96.8134 60.4315 96.7105 60.7347 96.6974C61.038 96.6842 61.3384 96.7613 61.5978 96.9188C61.8572 97.0764 62.0641 97.3075 62.1922 97.5827C62.3203 97.8579 62.3638 98.1649 62.3174 98.4649C62.254 98.8658 62.0347 99.2255 61.7074 99.4655C61.38 99.7056 60.9711 99.8066 60.5697 99.7465Z" fill="#263238"/>
<path d="M54.5061 107.893C52.9755 107.787 51.452 107.596 49.9426 107.32C48.4223 107.126 46.9136 106.851 45.4229 106.495C46.9519 106.601 48.4738 106.792 49.9815 107.068C51.5034 107.261 53.0138 107.537 54.5061 107.893Z" fill="#263238"/>
<path d="M49.5645 108.699C48.8224 108.715 48.0809 108.643 47.3556 108.485C46.6172 108.414 45.8892 108.259 45.1855 108.024C45.9275 108.014 46.6683 108.085 47.3945 108.238C48.1329 108.309 48.8609 108.464 49.5645 108.699Z" fill="#263238"/>
<path d="M70.2407 116.262C70.2407 116.33 64.5606 115.51 57.5843 114.437C50.608 113.364 44.9619 112.427 44.9619 112.359C44.9619 112.291 50.6371 113.107 57.6183 114.185C64.5994 115.262 70.2504 116.19 70.2407 116.262Z" fill="#263238"/>
<path d="M69.8667 118.67C69.8667 118.738 64.1914 117.923 57.2103 116.845C50.2291 115.767 44.5879 114.84 44.5879 114.772C44.5879 114.704 50.2631 115.52 57.2443 116.597C64.2254 117.675 69.8764 118.602 69.8667 118.67Z" fill="#263238"/>
<path d="M69.4985 121.083C69.4985 121.151 63.8184 120.331 56.8421 119.258C49.8658 118.185 44.2197 117.248 44.2197 117.18C44.2197 117.112 49.8998 117.928 56.881 119.005C63.8621 120.083 69.5082 121.01 69.4985 121.083Z" fill="#263238"/>
<path d="M69.1245 123.491C69.1245 123.559 63.4493 122.744 56.4681 121.666C49.4869 120.588 43.8457 119.661 43.8457 119.588C43.8457 119.515 49.5209 120.34 56.5021 121.418C63.4832 122.496 69.1536 123.423 69.1245 123.491Z" fill="#263238"/>
<path d="M68.7505 125.899C68.7505 125.972 63.0752 125.152 56.0941 124.074C49.1129 122.996 43.4717 122.069 43.4717 122.001C43.4717 121.933 49.1469 122.748 56.1281 123.826C63.1092 124.904 68.765 125.831 68.7505 125.899Z" fill="#263238"/>
<path d="M68.3813 128.312C68.3813 128.38 62.7012 127.564 55.7249 126.487C48.7486 125.409 43.1025 124.482 43.1025 124.409C43.1025 124.336 48.7778 125.156 55.7589 126.234C62.7401 127.312 68.391 128.244 68.3813 128.312Z" fill="#263238"/>
<path d="M55.4095 128.535C55.2471 128.544 55.0843 128.534 54.9241 128.506C54.5988 128.472 54.1376 128.414 53.5647 128.336C52.4141 128.181 50.8315 127.953 49.0886 127.686C47.3458 127.419 45.768 127.157 44.6271 126.957C44.0542 126.86 43.5979 126.773 43.2775 126.71C43.1107 126.69 42.9473 126.648 42.792 126.584C42.9544 126.573 43.1176 126.582 43.2775 126.613C43.6027 126.647 44.0639 126.705 44.6368 126.783C45.7874 126.933 47.37 127.166 49.1129 127.433C50.8558 127.7 52.4336 127.962 53.5744 128.161C54.1473 128.259 54.6036 128.346 54.9241 128.409C55.0909 128.429 55.2542 128.471 55.4095 128.535Z" fill="#263238"/>
<path d="M72.2647 110.412C71.5782 110.433 70.8918 110.37 70.2208 110.223C69.537 110.161 68.8635 110.014 68.2158 109.786C69.5859 109.829 70.9457 110.039 72.2647 110.412Z" fill="#263238"/>
<path d="M48.8507 132.9C47.7422 132.855 46.6387 132.727 45.5495 132.516C44.4475 132.389 43.3569 132.178 42.2871 131.885C43.3956 131.929 44.4992 132.058 45.5884 132.269C46.6901 132.397 47.7806 132.608 48.8507 132.9Z" fill="#263238"/>
<path d="M48.7339 135.123C47.6059 135.075 46.483 134.944 45.3744 134.73C44.2541 134.603 43.1455 134.389 42.0586 134.089C43.185 134.137 44.3063 134.268 45.4132 134.482C46.5351 134.609 47.6454 134.823 48.7339 135.123Z" fill="#263238"/>
<path d="M67.9397 135.512C66.8642 135.515 65.7946 135.351 64.7695 135.026C65.308 134.983 65.8498 135.023 66.3765 135.143C66.9141 135.18 67.4421 135.305 67.9397 135.512Z" fill="#263238"/>
<path d="M67.7454 137.497C66.6698 137.501 65.6003 137.337 64.5752 137.012C65.6507 137.008 66.7202 137.172 67.7454 137.497Z" fill="#263238"/>
<path d="M45.3163 136.949C44.7958 136.992 44.2718 136.954 43.7628 136.837C43.2431 136.798 42.7332 136.675 42.2529 136.473C42.7718 136.427 43.2947 136.464 43.8016 136.584C44.3231 136.622 44.8348 136.745 45.3163 136.949Z" fill="#263238"/>
<path d="M67.5033 139.813C67.1138 139.877 66.7154 139.858 66.3333 139.76C65.9393 139.74 65.5539 139.637 65.2021 139.459C65.591 139.389 65.9904 139.405 66.3721 139.507C66.7667 139.527 67.1525 139.631 67.5033 139.813Z" fill="#263238"/>
<path d="M41.248 141.633C41.4386 141.617 41.6303 141.617 41.8209 141.633L43.4327 141.682L49.1904 141.91H49.3215L49.2924 142.036C49.1481 142.661 48.7911 143.215 48.2826 143.604C48.0132 143.82 47.6986 143.971 47.3623 144.048C47.026 144.124 46.6767 144.124 46.3407 144.046C45.982 143.963 45.649 143.794 45.3706 143.552C45.0923 143.311 44.877 143.006 44.7435 142.663C44.6211 142.294 44.6121 141.897 44.7177 141.523C44.8233 141.149 45.0386 140.816 45.3358 140.565C45.5539 140.368 45.8174 140.228 46.1028 140.158C46.1744 140.139 46.2475 140.128 46.3213 140.124C46.4003 140.114 46.4802 140.114 46.5592 140.124C46.6122 140.132 46.6624 140.154 46.7055 140.186C46.7486 140.218 46.7833 140.26 46.8068 140.308C46.8389 140.392 46.8489 140.482 46.8359 140.57C46.772 141.114 46.5915 141.637 46.3067 142.104C46.0297 142.552 45.6647 142.938 45.2338 143.24C44.8136 143.555 44.3026 143.726 43.7774 143.726C43.5243 143.708 43.2812 143.62 43.0753 143.472C42.8695 143.323 42.7091 143.12 42.6122 142.886C42.4264 142.459 42.3922 141.981 42.5151 141.531C42.8026 140.783 43.2694 140.116 43.8745 139.59L44.0056 139.459V139.643C44.0832 140.313 43.9544 140.99 43.6366 141.585C43.4002 142.034 43.0689 142.427 42.6656 142.735C42.4145 142.93 42.1343 143.084 41.8355 143.192C41.7328 143.233 41.625 143.259 41.5151 143.27C41.9096 143.126 42.2785 142.919 42.6074 142.658C42.982 142.345 43.2878 141.958 43.5055 141.522C43.7976 140.947 43.9076 140.297 43.8211 139.658L43.9764 139.706C43.4022 140.221 42.9609 140.867 42.6899 141.59C42.584 141.992 42.6182 142.418 42.787 142.799C42.8678 142.994 43.0015 143.163 43.173 143.286C43.3445 143.41 43.5471 143.483 43.758 143.498C44.2217 143.493 44.6714 143.338 45.0396 143.056C45.4501 142.769 45.7951 142.398 46.052 141.968C46.3089 141.538 46.4718 141.058 46.53 140.561C46.5409 140.518 46.5409 140.472 46.53 140.429C46.53 140.405 46.53 140.395 46.4621 140.386C46.3445 140.379 46.2266 140.391 46.1125 140.42C45.8677 140.482 45.6413 140.602 45.4523 140.769C45.1955 140.989 45.0092 141.279 44.9168 141.604C44.8244 141.928 44.8299 142.273 44.9328 142.595C45.0497 142.891 45.2345 143.155 45.4723 143.366C45.7101 143.578 45.9943 143.73 46.3019 143.811C46.6095 143.893 46.9319 143.9 47.2431 143.834C47.5543 143.768 47.8455 143.629 48.0933 143.43C48.5628 143.078 48.8943 142.573 49.0302 142.002L49.1322 142.133L43.423 141.799L41.8112 141.692C41.6224 141.684 41.4344 141.665 41.248 141.633Z" fill="#263238"/>
<path d="M65.24 145.25C65.1627 145.36 65.0694 145.459 64.9633 145.542C64.8388 145.648 64.6999 145.736 64.5506 145.804C64.3407 145.897 64.1039 145.909 63.8855 145.838C63.7478 145.795 63.6282 145.708 63.5457 145.59C63.4638 145.462 63.4169 145.315 63.4098 145.163C63.4138 144.853 63.4365 144.543 63.4777 144.236C63.5408 143.575 63.6137 142.852 63.6913 142.07L63.9001 142.153L62.0456 144.663L61.5844 145.284L61.2834 145.692L61.3562 145.207C61.5552 143.91 61.7349 142.701 61.8951 141.638L62.0747 141.735C61.3174 142.374 60.6466 143.108 60.0794 143.92C59.6716 144.507 59.4774 144.891 59.4531 144.862C59.4769 144.765 59.5145 144.672 59.5648 144.585C59.6894 144.334 59.8272 144.089 59.9774 143.852C60.5102 143.001 61.1644 142.232 61.9194 141.57L62.1378 141.381L62.0941 141.672C61.9485 142.731 61.7737 143.944 61.6086 145.245L61.3805 145.148L61.8659 144.527C62.5262 143.643 63.1525 142.799 63.735 142.027L63.9923 141.677L63.9438 142.109C63.8515 142.891 63.769 143.614 63.6913 144.27C63.646 144.567 63.6168 144.867 63.604 145.168C63.5961 145.284 63.6258 145.401 63.6886 145.499C63.7515 145.598 63.8443 145.674 63.9535 145.716C64.1212 145.762 64.2976 145.765 64.4669 145.726C64.6362 145.687 64.7934 145.607 64.9245 145.493C65.0228 145.404 65.1284 145.322 65.24 145.25Z" fill="#263238"/>
<path d="M66.0954 143.93C64.5108 144.047 62.9211 144.081 61.3329 144.032C59.7455 144.067 58.1574 144.018 56.5752 143.886C58.158 143.765 59.7462 143.73 61.3329 143.779C62.9219 143.744 64.5117 143.794 66.0954 143.93Z" fill="#263238"/>
<path d="M67.6424 145.44C66.3866 145.701 65.1153 145.881 63.8363 145.978C62.567 146.157 61.2876 146.254 60.0059 146.27C61.2606 146.001 62.5323 145.82 63.812 145.726C65.0809 145.544 66.3606 145.449 67.6424 145.44Z" fill="#263238"/>
<g opacity="0.2">
<path d="M25.4267 95.4549C25.3685 96.9113 25.7617 98.3969 26.9754 99.2174C25.4559 99.9553 24.6451 101.722 24.5966 103.412C24.548 105.101 25.1354 106.742 25.7714 108.31C27.7376 113.131 31.9321 119.918 35.1314 124.025C35.1314 124.025 33.5099 119.656 33.0439 118.632C30.9369 114.024 29.0775 109.408 26.9657 104.786C26.7327 104.3 26.3151 102.883 26.3151 102.883C26.545 102.769 26.7575 102.624 26.9463 102.451C28.1308 101.48 30.699 99.7757 30.699 99.7757C30.699 99.7757 25.4267 95.6006 25.4267 95.4549Z" fill="black"/>
</g>
<path d="M25.3535 105.359C25.4215 105.359 25.3001 110.966 25.0768 117.874C24.8535 124.783 24.6205 130.385 24.5525 130.38C24.4845 130.375 24.601 124.778 24.8244 117.865C25.0477 110.951 25.2807 105.354 25.3535 105.359Z" fill="#263238"/>
<path d="M33.713 90.6341H33.2275C33.2275 90.4496 33.9315 72.0841 34.4801 64.7728C34.498 64.2596 34.6205 63.7556 34.84 63.2914C35.0596 62.8273 35.3716 62.4129 35.7569 62.0735C37.2716 60.7773 39.5387 60.9472 39.6407 60.9521L39.6019 61.4376C39.5776 61.4376 37.4366 61.2822 36.0773 62.4425C35.7416 62.7418 35.47 63.1061 35.279 63.5133C35.0879 63.9204 34.9813 64.3621 34.9655 64.8116C34.4315 72.0695 33.7373 90.4302 33.713 90.6341Z" fill="#263238"/>
<path d="M38.2626 121.355H37.4033V120.384H38.2626C39.1639 120.384 40.0283 120.026 40.6656 119.389C41.3029 118.751 41.6609 117.887 41.6609 116.986V106.703H42.6319V116.986C42.6319 118.145 42.1716 119.256 41.3522 120.075C40.5328 120.895 39.4214 121.355 38.2626 121.355Z" fill="#455A64"/>
<path d="M38.6128 120.986C38.5926 121.192 38.512 121.386 38.3811 121.546C38.2501 121.706 38.0748 121.823 37.8773 121.883C37.6798 121.943 37.4689 121.943 37.2714 121.883C37.0738 121.823 36.8984 121.706 36.7674 121.546C36.6364 121.387 36.5557 121.192 36.5353 120.987C36.515 120.781 36.5561 120.574 36.6533 120.392C36.7505 120.21 36.8996 120.061 37.0816 119.964C37.2636 119.866 37.4704 119.825 37.6759 119.845C37.9509 119.873 38.2036 120.009 38.3791 120.223C38.5546 120.437 38.6386 120.711 38.6128 120.986Z" fill="#263238"/>
<path d="M29.8634 121.331H29.0041C27.8452 121.331 26.7339 120.87 25.9145 120.051C25.0951 119.232 24.6348 118.12 24.6348 116.962L24.6736 106.679H25.6446L25.6057 116.962C25.6057 117.863 25.9638 118.727 26.6011 119.364C27.2384 120.002 28.1028 120.36 29.0041 120.36H29.8634V121.331Z" fill="#455A64"/>
<path d="M28.6603 120.957C28.6803 121.161 28.7605 121.355 28.8906 121.514C29.0207 121.673 29.1949 121.789 29.3913 121.849C29.5877 121.909 29.7973 121.909 29.9939 121.85C30.1905 121.791 30.3651 121.675 30.4957 121.516C30.6263 121.358 30.7071 121.165 30.7278 120.96C30.7485 120.756 30.7083 120.55 30.6122 120.369C30.5161 120.188 30.3684 120.039 30.1877 119.941C30.0071 119.844 29.8016 119.802 29.5972 119.821C29.461 119.834 29.3286 119.873 29.2077 119.937C29.0868 120.001 28.9798 120.089 28.8927 120.194C28.8057 120.3 28.7403 120.422 28.7004 120.552C28.6605 120.683 28.6469 120.821 28.6603 120.957Z" fill="#263238"/>
<path d="M24.3876 107.864L24.2662 100.533C24.1739 94.9452 28.2568 90.338 33.3689 90.2457C34.6139 90.2346 35.8474 90.4857 36.9891 90.9825C38.1308 91.4793 39.1552 92.2108 39.9956 93.1295C41.7818 95.062 42.784 97.5908 42.8065 100.222L42.9279 107.558L41.4715 107.582L41.3501 100.247C41.3324 97.9747 40.4667 95.7914 38.9227 94.1247C38.2232 93.3518 37.368 92.7359 36.4132 92.3175C35.4584 91.8991 34.4258 91.6877 33.3834 91.6973C29.0724 91.7701 25.6158 95.7171 25.7129 100.504L25.8343 107.835L24.3876 107.864Z" fill="#263238"/>
<path d="M65.8571 90.906C65.8571 90.7118 63.6287 71.6277 62.9879 65.5107L62.9442 65.0641C62.7452 62.9862 62.5121 60.6365 60.2158 60.0151L60.342 59.5296C62.9636 60.2384 63.2209 62.8794 63.4297 65.0009L63.4734 65.4427C64.1093 71.5597 66.3183 90.6438 66.3377 90.838L65.8571 90.906Z" fill="#263238"/>
<path d="M69.7847 91.3187C71.819 89.2844 71.819 85.9862 69.7847 83.9519C67.7504 81.9176 64.4521 81.9176 62.4178 83.9519C60.3835 85.9862 60.3835 89.2844 62.4178 91.3187C64.4521 93.353 67.7504 93.353 69.7847 91.3187Z" fill="#263238"/>
<path d="M68.6135 87.6339C68.6135 88.1324 68.4656 88.6197 68.1885 89.0342C67.9114 89.4487 67.5176 89.7716 67.0569 89.9622C66.5962 90.1527 66.0894 90.2023 65.6005 90.1047C65.1116 90.0071 64.6627 89.7666 64.3105 89.4138C63.9583 89.0609 63.7187 88.6115 63.622 88.1224C63.5254 87.6334 63.576 87.1266 63.7674 86.6663C63.9589 86.206 64.2826 85.8128 64.6976 85.5365C65.1125 85.2602 65.6002 85.1133 66.0987 85.1142C66.4293 85.1142 66.7568 85.1794 67.0622 85.3061C67.3676 85.4328 67.645 85.6185 67.8786 85.8525C68.1122 86.0866 68.2973 86.3643 68.4234 86.67C68.5495 86.9757 68.6141 87.3032 68.6135 87.6339Z" fill="#455A64"/>
<path d="M35.3011 124.414L28.7617 140.497L80.9262 154.96C83.3109 155.624 85.8133 155.751 88.2529 155.331C90.6926 154.912 93.0086 153.956 95.0341 152.532C100.491 148.683 101.831 141.949 101.166 135.283L100.224 128.195L35.3011 124.414Z" fill="#458DFC"/>
<path d="M90.5674 141.871C90.514 141.871 90.4024 140.774 89.8635 139.08C89.7252 138.617 89.5631 138.162 89.378 137.716C89.1935 137.23 88.9362 136.745 88.6789 136.201C88.0802 135.077 87.3764 134.012 86.5768 133.021C85.7628 132.042 84.8592 131.142 83.8776 130.332C83.3921 129.977 82.9746 129.623 82.5328 129.361C82.1335 129.085 81.7203 128.831 81.2948 128.598C79.7413 127.739 78.6781 127.409 78.6975 127.356C78.9519 127.408 79.2006 127.484 79.4403 127.584C79.7301 127.678 80.0139 127.79 80.2899 127.919C80.6152 128.069 80.9938 128.22 81.3822 128.443C81.8184 128.666 82.2414 128.914 82.6493 129.186C83.1008 129.458 83.5474 129.812 84.0232 130.157C85.0271 130.968 85.949 131.875 86.7759 132.866C87.584 133.871 88.2898 134.954 88.8828 136.099C89.1401 136.638 89.3926 137.143 89.5722 137.643C89.7606 138.096 89.9227 138.56 90.0577 139.031C90.1797 139.417 90.2786 139.809 90.3538 140.206C90.4309 140.507 90.4845 140.814 90.514 141.124C90.5545 141.371 90.5724 141.621 90.5674 141.871Z" fill="#263238"/>
<g opacity="0.2">
<path d="M27.596 131.259C23.6151 131.589 20.5421 131.953 16.4301 132.458C13.8619 132.773 11.1966 132.594 10.3568 130.152C9.5169 127.71 10.0509 124.914 11.4297 122.724C12.8084 120.535 14.9737 115.442 26.5668 119.326L27.596 131.259Z" fill="black"/>
</g>
<path d="M32.9658 130.555L32.9949 130.448L33.1066 130.128L33.5435 128.904L35.2184 124.384L35.2427 124.321H35.3058L53.05 125.928L70.2164 127.559L75.4159 128.079L76.8286 128.234L77.1927 128.283C77.2358 128.284 77.2785 128.292 77.319 128.307H77.1927H76.8238L75.4062 128.2L70.197 127.754L53.0257 126.2L35.2912 124.516L35.3786 124.457L33.6309 128.953L33.1454 130.157L33.0144 130.467C32.9901 130.526 32.9707 130.56 32.9658 130.555Z" fill="#263238"/>
<g opacity="0.2">
<path d="M54.4297 147.144C61.8381 149.129 66.3433 147.979 73.072 144.299C74.4504 143.491 75.7738 142.592 77.0335 141.609C77.9929 140.825 78.8463 139.919 79.5725 138.915C70.9068 142.231 63.7071 144.74 54.7744 147.236" fill="black"/>
</g>
<path d="M32.9893 130.38L34.6836 125.647L30.7464 119.491C30.4056 118.957 29.9593 118.499 29.4351 118.144C28.9108 117.79 28.3195 117.546 27.6976 117.428L13.211 114.694C13.0308 115.237 13.0558 115.826 13.2813 116.352C13.5068 116.877 13.917 117.301 14.4344 117.544C16.3326 118.627 24.8721 120.612 24.8721 120.612L11.7205 120.389C11.7205 120.389 11.3127 122.287 12.8032 122.967C14.2936 123.647 23.6633 123.991 23.6633 123.991L11.6671 125.681C11.6671 125.681 11.5992 127.584 14.3421 127.623C17.0434 127.59 19.7413 127.42 22.4253 127.113C22.5364 127.097 22.6492 127.126 22.7398 127.192C22.8304 127.258 22.8917 127.357 22.9108 127.467C22.9272 127.574 22.9029 127.683 22.8427 127.773C22.7824 127.863 22.6907 127.927 22.5855 127.953L14.6091 129.836C14.3793 129.888 14.173 130.014 14.0225 130.196C13.8719 130.377 13.7854 130.603 13.7766 130.838C13.7677 131.074 13.8369 131.305 13.9735 131.497C14.11 131.689 14.3062 131.831 14.5315 131.9C14.676 131.934 14.8254 131.944 14.9732 131.929C16.3326 131.793 24.4497 130.764 24.4497 130.764L24.8721 131.71L32.9893 130.39" fill="#FFDCCF"/>
<path d="M27.0339 128.919C26.9236 128.657 26.7728 128.415 26.5873 128.2C26.3727 127.981 26.1101 127.815 25.8202 127.715C25.4621 127.605 25.0866 127.564 24.7133 127.593C23.9074 127.652 23.1792 127.885 22.6355 127.953C22.342 128.024 22.0357 128.024 21.7422 127.953C22.0247 127.873 22.3116 127.81 22.6015 127.763C23.2874 127.561 23.9889 127.414 24.6987 127.326C25.1065 127.295 25.5164 127.347 25.9027 127.482C26.2171 127.604 26.4971 127.8 26.7183 128.055C26.8347 128.164 26.9238 128.299 26.9786 128.449C27.0334 128.599 27.0523 128.76 27.0339 128.919Z" fill="#AA6550"/>
<path d="M28.3433 125.312C28.3191 125.312 28.3045 125.181 28.1977 124.972C28.0401 124.682 27.8002 124.446 27.5083 124.292C26.7753 123.865 25.5373 124.006 24.2362 124.093C22.9351 124.181 21.7409 124.375 20.8816 124.486C20.4205 124.574 19.9527 124.621 19.4834 124.627C19.9281 124.477 20.3867 124.371 20.8524 124.312C21.9634 124.093 23.0847 123.931 24.2119 123.826C24.8349 123.77 25.4604 123.745 26.0859 123.753C26.6129 123.741 27.1339 123.868 27.5957 124.122C27.9082 124.303 28.1509 124.583 28.2851 124.918C28.3457 125.04 28.3661 125.178 28.3433 125.312Z" fill="#AA6550"/>
<path d="M29.3444 123.214C29.3332 122.829 29.2282 122.453 29.0386 122.117C28.8221 121.766 28.5219 121.474 28.1647 121.268C27.7121 121.031 27.2171 120.886 26.7083 120.84C25.6208 120.739 24.6013 120.84 23.8585 120.782C23.4549 120.782 23.0572 120.685 22.6982 120.501C22.6982 120.462 23.1449 120.593 23.8682 120.607C24.5916 120.622 25.5965 120.486 26.7374 120.607C27.2802 120.652 27.806 120.818 28.2764 121.093C28.6627 121.328 28.9781 121.664 29.1891 122.064C29.3356 122.328 29.4108 122.626 29.4075 122.928C29.3978 123.108 29.3444 123.214 29.3444 123.214Z" fill="#AA6550"/>
<path d="M76.373 123.2C76.3741 122.936 76.3985 122.673 76.4459 122.413C76.509 121.928 76.6304 121.18 76.8003 120.287C77.1352 118.5 77.7275 116.059 78.3538 113.364C78.9076 111.069 79.3306 108.745 79.6209 106.402C79.6791 105.951 79.7034 105.543 79.7374 105.184C79.7714 104.825 79.7908 104.519 79.8005 104.261C79.7982 103.998 79.8209 103.734 79.8685 103.475C79.8999 103.738 79.9096 104.002 79.8976 104.266C79.8976 104.519 79.8976 104.834 79.8976 105.194C79.8976 105.553 79.8685 105.965 79.8151 106.417C79.579 108.777 79.18 111.118 78.6208 113.422C77.9897 116.122 77.3731 118.549 76.9945 120.326C76.8051 121.209 76.6546 121.933 76.5624 122.428C76.5203 122.69 76.457 122.948 76.373 123.2Z" fill="#263238"/>
<path d="M81.4067 155.047C81.3093 155.045 81.2128 155.029 81.1203 154.999L80.3144 154.819L77.3627 154.091C74.8722 153.465 71.4399 152.557 67.6532 151.508C63.8665 150.459 60.473 149.454 58.0213 148.702L55.1085 147.799L54.322 147.537C54.2457 147.511 54.1724 147.477 54.1035 147.435C54.1996 147.441 54.2943 147.461 54.3851 147.493L55.1861 147.707L58.099 148.537L67.7503 151.27L77.4064 153.921L80.3193 154.722L81.1154 154.95C81.2157 154.972 81.3133 155.005 81.4067 155.047Z" fill="#263238"/>
<path d="M31.4326 14.2347C32.5007 10.9383 37.972 7.96229 40.9722 6.234C45.4629 3.65612 49.6234 4.17072 52.1867 6.46703C56.8182 2.58321 62.9206 -1.15496 68.7706 0.374293C74.6206 1.90354 79.3734 7.89432 78.3054 13.8511C77.6791 17.3611 75.2469 20.507 75.3925 24.0461C75.4896 26.4735 76.7761 28.6679 77.8199 30.8719C78.8637 33.076 79.6307 35.6393 78.718 37.8919C77.8685 39.9843 75.7469 41.2903 74.6061 43.2322C73.6739 44.8245 73.4603 46.7179 72.8632 48.4608C70.6591 54.9176 63.0372 58.5393 56.3084 57.4032C49.5797 56.2672 43.9725 51.2037 40.7732 45.1644C37.5739 39.125 36.5447 32.1924 36.1757 25.3812" fill="#263238"/>
<path d="M36.3896 18.7836L37.7344 72.6229C38.2199 78.7933 43.9048 83.3034 50.5073 82.7306C57.1729 82.1577 62.2656 76.6378 61.882 70.3946C61.4791 63.8455 61.1781 56.9372 61.1781 56.9372C61.1781 56.9372 69.5234 54.9953 70.5624 43.8681C71.0915 38.1687 70.1691 28.8184 69.203 21.41C69.0136 19.933 68.5273 18.5096 67.7735 17.2254C67.0196 15.9412 66.0137 14.8228 64.8164 13.9375C63.6191 13.0522 62.255 12.4183 60.8063 12.0739C59.3575 11.7295 57.8541 11.6817 56.3864 11.9335" fill="#FFDCCF"/>
<path d="M66.7269 29.367C66.7553 29.7344 66.6386 30.0983 66.4017 30.3806C66.1648 30.6629 65.8266 30.841 65.4598 30.8768C65.2813 30.9034 65.0992 30.8939 64.9244 30.8489C64.7495 30.8038 64.5855 30.7242 64.442 30.6147C64.2985 30.5051 64.1785 30.3679 64.0889 30.2111C63.9994 30.0543 63.9423 29.8812 63.9209 29.7019C63.8936 29.3343 64.0107 28.9704 64.2473 28.6877C64.4838 28.4049 64.8213 28.2254 65.188 28.1873C65.3668 28.1614 65.549 28.1715 65.7238 28.2171C65.8987 28.2627 66.0626 28.3428 66.206 28.4528C66.3495 28.5627 66.4694 28.7002 66.5589 28.8572C66.6483 29.0142 66.7055 29.1875 66.7269 29.367Z" fill="#263238"/>
<path d="M68.1288 27.9299C67.9637 28.1241 66.8423 27.4008 65.3227 27.5027C63.8032 27.6047 62.74 28.4348 62.5652 28.2601C62.4778 28.1824 62.6332 27.8426 63.0944 27.4542C63.7235 26.9552 64.4918 26.6635 65.2936 26.6192C66.0824 26.5672 66.8675 26.766 67.5365 27.1872C68.0269 27.5221 68.2065 27.8377 68.1288 27.9299Z" fill="#263238"/>
<path d="M52.1625 30.8914C52.1922 31.2596 52.0761 31.6247 51.839 31.9081C51.602 32.1915 51.2631 32.3703 50.8954 32.406C50.7165 32.4319 50.5343 32.4218 50.3595 32.3762C50.1846 32.3306 50.0207 32.2504 49.8773 32.1405C49.7339 32.0306 49.6139 31.8931 49.5245 31.7361C49.435 31.5791 49.3779 31.4057 49.3564 31.2263C49.3292 30.8587 49.4463 30.4948 49.6828 30.2121C49.9194 29.9293 50.2568 29.7498 50.6235 29.7116C50.8023 29.6858 50.9845 29.6959 51.1594 29.7415C51.3342 29.7871 51.4982 29.8672 51.6416 29.9772C51.785 30.0871 51.905 30.2246 51.9944 30.3816C52.0839 30.5386 52.141 30.7119 52.1625 30.8914Z" fill="#263238"/>
<path d="M53.2098 29.1776C53.0448 29.3718 51.9233 28.6485 50.4038 28.7504C48.8842 28.8524 47.821 29.6825 47.6463 29.5077C47.5589 29.4301 47.7142 29.0902 48.1803 28.7019C48.8081 28.2038 49.5746 27.9121 50.3746 27.8668C51.1635 27.8149 51.9485 28.0137 52.6175 28.4348C53.1321 28.765 53.2875 29.0854 53.2098 29.1776Z" fill="#263238"/>
<path d="M59.4441 40.0863C59.4441 40.0037 60.3616 39.7804 61.8714 39.4843C62.255 39.4212 62.6191 39.3192 62.6676 39.0474C62.6744 38.6449 62.5575 38.2501 62.3326 37.9162C61.9103 36.9987 61.4636 36.0423 60.9976 35.0373C59.1334 30.9302 57.7546 27.5464 57.9197 27.4736C58.0847 27.4008 59.7305 30.668 61.5996 34.7557C62.0462 35.7655 62.4783 36.7316 62.8861 37.6686C63.1634 38.1198 63.2702 38.6554 63.1871 39.1784C63.1397 39.3188 63.0608 39.4465 62.9565 39.5517C62.8521 39.6569 62.7251 39.7368 62.5851 39.7853C62.3753 39.8586 62.1564 39.9027 61.9346 39.9164C60.415 40.1057 59.4441 40.1737 59.4441 40.0863Z" fill="#263238"/>
<path d="M61.1819 56.9178C56.002 57.3318 50.8088 56.2999 46.1807 53.9369C46.1807 53.9369 50.3509 61.3502 61.3033 59.6073L61.1819 56.9178Z" fill="#AA6550"/>
<path d="M53.2195 23.1966C53.0932 23.6189 51.564 23.5218 49.7969 23.852C48.0297 24.1821 46.617 24.7598 46.3548 24.4054C46.2383 24.2355 46.4665 23.8277 47.0199 23.3907C47.7593 22.8436 48.6178 22.4792 49.525 22.3276C50.4313 22.1605 51.3642 22.2088 52.2485 22.4683C52.9185 22.6917 53.268 22.9975 53.2195 23.1966Z" fill="#263238"/>
<path d="M67.2845 23.5655C67.0418 23.9296 65.9689 23.6383 64.7115 23.7014C63.4541 23.7646 62.4006 24.085 62.1336 23.7403C62.0122 23.5704 62.1336 23.216 62.6191 22.8567C63.2195 22.425 63.9347 22.1815 64.6738 22.1573C65.4129 22.1331 66.1426 22.3292 66.7699 22.7208C67.2117 23.0461 67.3913 23.3907 67.2845 23.5655Z" fill="#263238"/>
<path d="M57.0939 42.9457C58.2833 42.9457 58.8756 43.2953 59.8854 43.9167C60.1896 44.0769 60.4396 44.3235 60.6039 44.6255C60.6816 44.8424 60.7084 45.0743 60.6823 45.3032C60.6562 45.5322 60.5779 45.7521 60.4534 45.946C60.2052 46.3869 59.8361 46.7477 59.3898 46.9859C58.9434 47.2242 58.4382 47.3299 57.9338 47.2908C57.431 47.2379 56.9572 47.0294 56.5786 46.6944C56.2 46.3593 55.9355 45.9143 55.822 45.4217C55.7279 44.9249 55.8019 44.411 56.0322 43.961C56.2625 43.5109 56.636 43.1503 57.0939 42.936" fill="#AA6550"/>
<path d="M61.1291 45.4848C61.1291 45.6013 60.7504 45.7761 60.0853 45.7372C59.2443 45.6592 58.4315 45.3938 57.7065 44.9605C56.9752 44.5535 56.3278 44.0115 55.7986 43.3633C55.4053 42.8778 55.284 42.4506 55.3859 42.3923C55.585 42.2612 56.585 43.3098 58.158 44.174C58.8085 44.5494 59.4928 44.8631 60.2018 45.111C60.7456 45.2954 61.1145 45.3586 61.1291 45.4848Z" fill="#263238"/>
<path d="M53.6275 36.0083C53.8501 36.0083 54.0305 35.8279 54.0305 35.6053C54.0305 35.3828 53.8501 35.2024 53.6275 35.2024C53.405 35.2024 53.2246 35.3828 53.2246 35.6053C53.2246 35.8279 53.405 36.0083 53.6275 36.0083Z" fill="#AA6550"/>
<path d="M65.4397 33.6294C65.4397 33.7091 65.416 33.787 65.3718 33.8533C65.3275 33.9196 65.2646 33.9712 65.1909 34.0017C65.1173 34.0322 65.0363 34.0402 64.9581 34.0246C64.8799 34.0091 64.8082 33.9707 64.7518 33.9144C64.6955 33.858 64.6571 33.7862 64.6415 33.7081C64.626 33.6299 64.634 33.5489 64.6645 33.4752C64.695 33.4016 64.7466 33.3387 64.8129 33.2944C64.8791 33.2501 64.957 33.2265 65.0367 33.2265C65.1436 33.2265 65.2461 33.269 65.3217 33.3445C65.3972 33.4201 65.4397 33.5226 65.4397 33.6294Z" fill="#AA6550"/>
<path d="M67.6677 34.6781C67.6739 34.735 67.6681 34.7927 67.6506 34.8472C67.633 34.9018 67.6042 34.952 67.566 34.9947C67.5277 35.0374 67.4809 35.0715 67.4286 35.0949C67.3763 35.1182 67.3196 35.1303 67.2623 35.1303C67.205 35.1303 67.1483 35.1182 67.096 35.0949C67.0437 35.0715 66.9969 35.0374 66.9586 34.9947C66.9204 34.952 66.8916 34.9018 66.874 34.8472C66.8565 34.7927 66.8507 34.735 66.8569 34.6781C66.8679 34.5782 66.9153 34.4859 66.9901 34.4188C67.0649 34.3518 67.1618 34.3147 67.2623 34.3147C67.3628 34.3147 67.4597 34.3518 67.5345 34.4188C67.6093 34.4859 67.6567 34.5782 67.6677 34.6781Z" fill="#AA6550"/>
<path d="M68.342 32.9935C68.342 33.0732 68.3184 33.1511 68.2741 33.2173C68.2298 33.2836 68.1669 33.3352 68.0933 33.3657C68.0197 33.3962 67.9386 33.4042 67.8605 33.3887C67.7823 33.3731 67.7105 33.3347 67.6542 33.2784C67.5978 33.222 67.5594 33.1502 67.5439 33.0721C67.5283 32.9939 67.5363 32.9129 67.5668 32.8393C67.5973 32.7656 67.649 32.7027 67.7152 32.6584C67.7815 32.6142 67.8594 32.5905 67.9391 32.5905C68.0459 32.5905 68.1484 32.633 68.224 32.7085C68.2996 32.7841 68.342 32.8866 68.342 32.9935Z" fill="#AA6550"/>
<path d="M52.1857 37.387C52.1866 37.4679 52.1636 37.5472 52.1193 37.6149C52.0751 37.6826 52.0118 37.7356 51.9373 37.7672C51.8629 37.7988 51.7808 37.8076 51.7013 37.7924C51.6219 37.7772 51.5488 37.7388 51.4913 37.682C51.4338 37.6251 51.3944 37.5525 51.3783 37.4732C51.3622 37.394 51.37 37.3118 51.4007 37.237C51.4314 37.1622 51.4837 37.0982 51.5508 37.0532C51.618 37.0081 51.697 36.9841 51.7779 36.9841C51.8852 36.9841 51.9882 37.0264 52.0645 37.1018C52.1409 37.1772 52.1844 37.2797 52.1857 37.387Z" fill="#AA6550"/>
<path d="M50.6721 35.7753C50.6721 35.855 50.6485 35.9329 50.6042 35.9991C50.5599 36.0654 50.497 36.117 50.4234 36.1475C50.3497 36.178 50.2687 36.186 50.1905 36.1705C50.1124 36.1549 50.0406 36.1165 49.9842 36.0602C49.9279 36.0038 49.8895 35.932 49.874 35.8539C49.8584 35.7757 49.8664 35.6947 49.8969 35.6211C49.9274 35.5474 49.979 35.4845 50.0453 35.4402C50.1116 35.3959 50.1895 35.3723 50.2692 35.3723C50.376 35.3723 50.4785 35.4148 50.5541 35.4903C50.6297 35.5659 50.6721 35.6684 50.6721 35.7753Z" fill="#AA6550"/>
<path d="M57.2742 30.8914C57.2292 30.3189 57.1399 29.7508 57.0072 29.1922C56.608 27.6739 55.7083 26.3346 54.4536 25.3909C53.5971 24.7403 52.5991 24.3012 51.5408 24.1092C50.3278 23.8873 49.0776 23.9929 47.9191 24.4151C47.2948 24.6379 46.7086 24.9556 46.1811 25.3569C45.6224 25.7632 45.131 26.2547 44.7247 26.8134C43.8575 27.9934 43.3898 29.4196 43.3898 30.8841C43.3898 32.3485 43.8575 33.7747 44.7247 34.9548C45.529 36.0591 46.6397 36.903 47.9191 37.3822C49.0776 37.8044 50.3278 37.91 51.5408 37.688C52.5991 37.4961 53.5971 37.057 54.4536 36.4064C55.7068 35.4634 56.6063 34.1262 57.0072 32.6099C57.1392 32.0511 57.2284 31.4831 57.2742 30.9108C57.2814 30.9477 57.2814 30.9856 57.2742 31.0224V31.3574C57.274 31.5395 57.2594 31.7213 57.2305 31.9011C57.2058 32.1469 57.162 32.3904 57.0995 32.6294C56.9464 33.2958 56.6909 33.9345 56.3421 34.5227C55.5084 35.9498 54.2007 37.0393 52.6466 37.6017C51.0925 38.1641 49.3904 38.1637 47.8366 37.6006C47.1889 37.3702 46.58 37.0428 46.0306 36.6297C45.4493 36.211 44.9394 35.7012 44.5208 35.1199C43.6162 33.9002 43.1279 32.422 43.1279 30.9035C43.1279 29.385 43.6162 27.9068 44.5208 26.6871C44.9394 26.1058 45.4493 25.596 46.0306 25.1773C46.58 24.7642 47.1889 24.4368 47.8366 24.2063C49.0341 23.7766 50.3251 23.676 51.5747 23.9151C52.5628 24.1065 53.4989 24.506 54.3209 25.0868C55.1428 25.6677 55.8318 26.4168 56.3421 27.2843C56.6901 27.8728 56.9456 28.5114 57.0995 29.1776C57.1625 29.4181 57.2063 29.6633 57.2305 29.9107C57.2595 30.0889 57.2742 30.2691 57.2742 30.4496V30.7846C57.2804 30.8199 57.2804 30.856 57.2742 30.8914Z" fill="white"/>
<path d="M60.3172 28.7698C59.7768 28.6212 59.2169 28.5557 58.6569 28.5756C58.1046 28.6756 57.5698 28.8555 57.0693 29.1097C57.0693 29.1097 57.1713 28.9252 57.4432 28.7407C57.7998 28.5105 58.2056 28.3675 58.6277 28.3232C59.0525 28.2751 59.4825 28.3317 59.8803 28.4882C60.1812 28.6096 60.3317 28.7407 60.3172 28.7698Z" fill="white"/>
<path d="M55.8811 10.3606C54.9101 19.1331 48.3853 27.0318 39.9672 29.6922C42.681 33.6052 40.9721 41.0524 41.0401 47.2665C41.108 53.0437 41.1032 54.6943 37.3602 57.6411C34.2677 58.3839 32.5054 49.9123 30.1848 47.5432C27.8642 45.1741 25.6844 42.2564 25.8544 38.9648C25.9369 37.421 26.5389 35.9452 26.6214 34.4062C26.7185 32.6973 26.1699 31.0079 25.8689 29.3427C24.529 21.8906 28.374 13.8754 34.8842 9.97702C41.3945 6.07865 50.0408 6.3408 56.4831 10.3266" fill="#263238"/>
<path d="M37.3012 46.4266C36.4943 43.5928 35.1073 40.9575 33.2281 38.6881L33.3689 38.9891C32.7883 37.6652 31.9142 36.4907 30.8126 35.5545C29.711 34.6184 28.4109 33.9451 27.0107 33.5857C25.6105 33.2262 24.1468 33.19 22.7306 33.4799C21.3143 33.7697 19.9825 34.378 18.8361 35.2586C17.6896 36.1392 16.7585 37.2691 16.1133 38.5627C15.468 39.8563 15.1256 41.2798 15.1118 42.7254C15.098 44.1709 15.4132 45.6007 16.0337 46.9064C16.6541 48.2121 17.5635 49.3595 18.6929 50.2619C17.6006 50.0191 16.4937 50.961 16.2655 52.0533C16.1808 52.6089 16.2099 53.176 16.3509 53.7201C16.492 54.2642 16.742 54.774 17.086 55.2186C19.3629 58.549 24.5235 59.4277 27.7665 57.0391C30.3395 58.782 34.1408 57.7673 36.0487 55.3157C37.9566 52.864 38.1799 49.4074 37.3012 46.4266Z" fill="#263238"/>
<path d="M26.8778 33.576C26.7767 33.4808 26.6841 33.3768 26.6011 33.2653C26.3751 32.9403 26.2106 32.5767 26.1156 32.1924C25.8195 31.1875 25.9603 29.6 26.7564 27.9202C27.1891 27.0006 27.7845 26.1667 28.5139 25.4589C29.3127 24.6188 30.1979 23.8654 31.1549 23.2111C32.2137 22.4817 33.3689 21.9033 34.5872 21.4925C35.8446 21.0605 37.1796 20.7255 38.539 20.3856C39.8983 20.0458 41.2285 19.7108 42.4713 19.2739C43.6695 18.861 44.8334 18.3545 45.9522 17.7592C47.8447 16.7516 49.6043 15.5122 51.1905 14.0696C52.2597 13.0921 53.2469 12.0286 54.1422 10.8897C54.4626 10.4868 54.6956 10.1615 54.8558 9.91877C54.9315 9.80426 55.0177 9.697 55.1131 9.59835C55.0501 9.71966 54.9787 9.83646 54.8995 9.94789C54.749 10.1761 54.5306 10.511 54.2199 10.9188C53.3492 12.0889 52.3743 13.1776 51.307 14.1715C49.7193 15.645 47.951 16.9109 46.0444 17.9388C44.9166 18.5432 43.743 19.0577 42.5344 19.4778C41.2771 19.9196 39.942 20.2594 38.5827 20.6041C37.2233 20.9488 35.8931 21.2741 34.6454 21.6964C33.4415 22.0969 32.2981 22.6605 31.2471 23.3713C30.3014 24.0161 29.4231 24.7545 28.6255 25.5754C27.915 26.2774 27.3362 27.1012 26.9167 28.0076C26.1156 29.6437 25.9457 31.1924 26.2127 32.1779C26.3364 32.6845 26.5628 33.1604 26.8778 33.576Z" fill="#455A64"/>
<path d="M55.1028 9.62262C55.0332 9.71998 54.9569 9.81244 54.8746 9.89934C54.7193 10.079 54.4814 10.3314 54.1755 10.6567C53.2949 11.5629 52.3594 12.4141 51.3743 13.2054C49.9175 14.403 48.2955 15.3841 46.5584 16.1183C45.5153 16.5037 44.4397 16.7945 43.3446 16.9873C42.2134 17.2155 41.0337 17.3902 39.8297 17.5747C37.5614 17.8459 35.3213 18.3153 33.135 18.9778C31.3611 19.5567 29.7136 20.4678 28.2802 21.6624C27.3166 22.4704 26.5214 23.4602 25.9402 24.5753C25.7888 24.8817 25.6543 25.1961 25.5373 25.5171C25.5029 25.6321 25.4557 25.7429 25.3965 25.8473C25.4191 25.7303 25.45 25.6152 25.4887 25.5026C25.5856 25.1703 25.7073 24.8457 25.8528 24.5316C26.4083 23.3831 27.195 22.3616 28.1637 21.5314C29.5983 20.3004 31.2587 19.3606 33.0525 18.7641C35.2473 18.0784 37.4992 17.591 39.7812 17.3077C40.99 17.1281 42.1649 16.9485 43.2863 16.73C44.369 16.5425 45.4331 16.2598 46.4662 15.8853C48.1864 15.1705 49.7977 14.2177 51.253 13.0549C52.2463 12.2826 53.1975 11.4578 54.1027 10.5839L54.8358 9.86536C54.9164 9.77566 55.0059 9.69434 55.1028 9.62262Z" fill="#455A64"/>
<path d="M67.43 0.0198916C67.43 0.073294 66.4833 0.107277 65.0026 0.505368C64.6011 0.609878 64.2057 0.736292 63.818 0.884041C63.3957 1.02483 62.9684 1.23358 62.5072 1.43748C60.5438 2.38565 58.8158 3.75873 57.4486 5.45723C57.1476 5.86018 56.8466 6.22914 56.6135 6.61267C56.3813 6.95455 56.1689 7.30953 55.9776 7.67586C55.2639 9.01578 55.0066 9.93818 54.9678 9.91876C55 9.69993 55.0554 9.48512 55.1328 9.27793C55.2027 9.02608 55.2903 8.77949 55.395 8.54001C55.5181 8.20822 55.6608 7.884 55.8222 7.56906C56.0034 7.19016 56.2093 6.82363 56.4388 6.47188C56.6669 6.0835 56.9631 5.69997 57.2641 5.28732C57.9586 4.42646 58.7413 3.64057 59.5992 2.94246C60.4717 2.26483 61.414 1.6822 62.4101 1.20446C62.8462 0.999492 63.2935 0.819572 63.75 0.665576C64.4723 0.412188 65.2167 0.2269 65.9735 0.112133C66.2299 0.0624394 66.4895 0.0316087 66.7503 0.0198916C66.9761 -0.00663052 67.2042 -0.00663052 67.43 0.0198916Z" fill="#455A64"/>
<path d="M75.2513 41.936C75.2513 41.936 75.2513 41.902 75.3241 41.8389L75.5523 41.5718C75.7562 41.334 76.062 40.9893 76.4067 40.5086C76.8407 39.9423 77.1695 39.3026 77.3777 38.6201C77.496 38.1956 77.5306 37.752 77.4796 37.3142C77.4108 36.8255 77.2458 36.3552 76.9941 35.9306C76.4698 35.0228 75.6105 34.2314 74.824 33.2508C73.0556 31.0379 71.9198 28.3871 71.5374 25.5802C71.3811 24.0075 71.3422 22.4253 71.4209 20.8468C71.499 19.2823 71.3535 17.7146 70.9888 16.1911C70.6008 14.8625 69.9294 13.6337 69.0209 12.5895C68.1124 11.5452 66.9884 10.7102 65.7262 10.1421C64.6797 9.67297 63.5518 9.41242 62.4056 9.37503C60.2723 9.28891 58.1702 9.90829 56.4245 11.1373L56.1332 11.3412C56.0701 11.3849 56.0361 11.4092 56.0312 11.4043C56.4852 10.9859 56.9929 10.63 57.5411 10.346C59.0315 9.54613 60.705 9.14951 62.3958 9.1954C63.5666 9.22421 64.7207 9.47975 65.7942 9.94789C67.0928 10.5214 68.2505 11.3716 69.1863 12.4391C70.1221 13.5065 70.8135 14.7655 71.2121 16.128C71.5835 17.6735 71.7322 19.2641 71.6539 20.8517C71.5757 22.4188 71.613 23.9895 71.7656 25.5511C72.1348 28.3176 73.2453 30.9328 74.9794 33.1197C75.7465 34.0906 76.6106 34.8965 77.1446 35.8432C77.4033 36.2908 77.5685 36.7863 77.6301 37.2996C77.6786 37.7583 77.6357 38.2219 77.5039 38.6638C77.2805 39.3584 76.9298 40.0054 76.4698 40.5718C76.1921 40.9348 75.8939 41.2817 75.5765 41.6107L75.3241 41.8631C75.3029 41.8903 75.2784 41.9147 75.2513 41.936Z" fill="#455A64"/>
<path d="M74.1244 29.1776C74.079 28.6052 73.9897 28.0372 73.8574 27.4785C73.4582 25.9601 72.5585 24.6208 71.3038 23.6772C70.3818 22.9836 69.301 22.5315 68.1598 22.362C67.0186 22.1924 65.8531 22.3107 64.7693 22.7062C63.4899 23.1854 62.3792 24.0293 61.5749 25.1336C60.7074 26.3126 60.2394 27.7381 60.2394 29.2019C60.2394 30.6657 60.7074 32.0912 61.5749 33.2702C61.9788 33.8309 62.4706 34.3227 63.0313 34.7266C63.5601 35.1247 64.1461 35.4406 64.7693 35.6636C65.6774 35.9935 66.6444 36.1303 67.6084 36.0651C68.5724 35.9999 69.5121 35.7342 70.3676 35.285C71.223 34.8359 71.9752 34.2131 72.5762 33.4565C73.1771 32.6999 73.6135 31.8262 73.8574 30.8914C73.9897 30.3326 74.079 29.7646 74.1244 29.1922C74.1318 29.2307 74.1318 29.2702 74.1244 29.3087C74.1244 29.3961 74.1244 29.5077 74.1244 29.6388C74.1245 29.8209 74.1098 30.0028 74.0807 30.1826C74.0557 30.4299 74.0119 30.6749 73.9497 30.9156C73.7957 31.5818 73.5403 32.2204 73.1923 32.809C72.7332 33.5914 72.1284 34.2786 71.4106 34.8334C70.4686 35.5599 69.3585 36.0368 68.1832 36.2201C67.0078 36.4035 65.8052 36.2872 64.6868 35.8821C64.038 35.6541 63.4287 35.3266 62.8808 34.9111C62.3007 34.489 61.7911 33.9778 61.371 33.3964C60.4661 32.1778 59.9775 30.7003 59.9775 29.1825C59.9775 27.6647 60.4661 26.1871 61.371 24.9685C61.7896 24.3872 62.2995 23.8774 62.8808 23.4587C63.4302 23.0456 64.0391 22.7182 64.6868 22.4878C65.8839 22.0566 67.1748 21.9544 68.4249 22.1916C69.416 22.3852 70.3542 22.7886 71.1765 23.3748C71.9987 23.9609 72.6861 24.7162 73.1923 25.5899C73.541 26.1765 73.7965 26.8136 73.9497 27.4785C74.0119 27.7191 74.0557 27.9642 74.0807 28.2115C74.1098 28.3913 74.1245 28.5731 74.1244 28.7553C74.1244 28.8863 74.1244 28.998 74.1244 29.0902C74.1288 29.1192 74.1288 29.1487 74.1244 29.1776Z" fill="white"/>
<path d="M37.292 57.8207C37.2059 57.7781 37.1259 57.7243 37.0541 57.6605C36.9036 57.5489 36.69 57.379 36.4084 57.1751C35.6235 56.5464 34.8868 55.86 34.2043 55.1215C33.151 54.0317 32.4303 52.6643 32.1265 51.1794C32.0258 50.3029 31.9869 49.4204 32.01 48.5384C32.0265 47.6144 31.7625 46.7071 31.2526 45.9363C30.6813 45.1959 30.0462 44.5071 29.3544 43.8779C28.713 43.2567 28.1841 42.529 27.7912 41.7272C27.4434 41.0016 27.1889 40.235 27.0338 39.4455C26.8877 38.7612 26.821 38.0623 26.8348 37.3628C26.8348 36.7171 26.9853 36.1539 27.0435 35.6587C27.1004 35.2355 27.1102 34.8073 27.0727 34.3819C26.9901 33.6828 26.8542 33.309 26.8785 33.2993C26.9232 33.3844 26.959 33.4739 26.9853 33.5663C27.0663 33.8285 27.1279 34.0962 27.1698 34.3674C27.222 34.8011 27.222 35.2396 27.1698 35.6733C27.1261 36.1588 27.0096 36.7413 26.995 37.3676C27.0023 38.8409 27.3338 40.2945 27.966 41.6252C28.3523 42.4007 28.8696 43.1037 29.4952 43.7031C30.2045 44.3386 30.8545 45.0373 31.4371 45.7906C31.7191 46.1962 31.9278 46.648 32.0537 47.1257C32.165 47.5853 32.2252 48.0559 32.2333 48.5287C32.2093 49.4006 32.2433 50.2732 32.3352 51.1406C32.6169 52.5948 33.3016 53.9405 34.3111 55.0244C34.9777 55.7684 35.693 56.4674 36.4521 57.1168L37.1123 57.6217C37.1785 57.682 37.2387 57.7487 37.292 57.8207Z" fill="#455A64"/>
<path d="M31.7715 46.514C31.78 46.5801 31.78 46.647 31.7715 46.713C31.7715 46.8441 31.7715 47.0335 31.7327 47.2811C31.6506 47.9788 31.4877 48.6647 31.2472 49.3249C30.4801 51.5407 28.957 53.4156 26.9453 54.6203C24.9336 55.825 22.5618 56.2826 20.2463 55.9128C19.5527 55.808 18.8735 55.624 18.2219 55.3642C17.9889 55.2769 17.8189 55.1798 17.7024 55.1264C17.5859 55.073 17.5277 55.0341 17.5325 55.0244C18.4195 55.3519 19.3366 55.5909 20.2706 55.7381C21.2856 55.8691 22.3144 55.8511 23.3242 55.6846C25.8251 55.3015 28.0766 53.9544 29.5966 51.9319C30.2191 51.1207 30.7196 50.2227 31.0822 49.2666C31.3988 48.3731 31.6296 47.4513 31.7715 46.514Z" fill="#455A64"/>
<path d="M29.9026 44.2323C29.8824 44.4588 29.8352 44.6821 29.7619 44.8974C29.5898 45.4925 29.3605 46.0697 29.0773 46.6208C28.1325 48.4506 26.7012 49.9843 24.9411 51.0532C23.1766 52.1101 21.1712 52.6984 19.1154 52.7621C18.4972 52.781 17.8785 52.7485 17.2657 52.665C17.0396 52.6445 16.8165 52.5989 16.6006 52.529C17.4358 52.5891 18.2735 52.6069 19.1105 52.5824C21.1255 52.4711 23.0833 51.8713 24.8148 50.8347C26.5369 49.7853 27.9532 48.3021 28.922 46.5334C29.2989 45.7887 29.6265 45.0199 29.9026 44.2323Z" fill="#455A64"/>
<path d="M15.7021 39.3969C15.8354 39.293 15.9825 39.208 16.1391 39.1445C16.3127 39.0508 16.4928 38.9697 16.678 38.9017C16.9203 38.8002 17.1683 38.7126 17.4207 38.6396C18.0744 38.4433 18.7461 38.3132 19.4258 38.2512C20.2585 38.1785 21.0967 38.1948 21.926 38.2997C22.7541 38.4166 23.5677 38.62 24.3533 38.9066C24.9914 39.1516 25.603 39.4606 26.1787 39.829C26.3998 39.968 26.6122 40.1204 26.8147 40.2853C26.9755 40.4005 27.1265 40.5288 27.2662 40.6689C27.3956 40.7774 27.5113 40.9013 27.6109 41.0378C27.5769 41.0767 27.0672 40.5523 26.0816 39.9795C25.5054 39.64 24.8992 39.354 24.2708 39.125C23.4974 38.8605 22.701 38.6687 21.892 38.5522C21.087 38.451 20.2742 38.4267 19.4646 38.4794C18.7972 38.5312 18.1359 38.6433 17.4887 38.8143C16.3624 39.1056 15.7507 39.4406 15.7021 39.3969Z" fill="#455A64"/>
<path d="M26.8775 38.4988C26.8338 38.5522 23.7704 35.95 20.042 32.6731C16.3135 29.3961 13.323 26.7308 13.3667 26.6774C13.4104 26.624 16.4737 29.231 20.207 32.5031C23.9404 35.7752 26.9163 38.4502 26.8775 38.4988Z" fill="#458DFC"/>
<path d="M40.8643 33.1828C41.0961 32.7282 41.4403 32.3405 41.8643 32.0565C42.2343 31.7039 42.6892 31.453 43.1848 31.3283C42.8229 31.6677 42.4331 31.9763 42.0197 32.2507C41.6592 32.5907 41.2729 32.9024 40.8643 33.1828Z" fill="white"/>
<path d="M27.2328 35.916C27.2086 35.8858 27.1875 35.8533 27.1696 35.8189C27.126 35.7364 27.0725 35.6393 27.0046 35.5228C26.8163 35.13 26.6886 34.711 26.6259 34.28C26.4465 32.6653 26.9066 31.0446 27.9076 29.765C28.2237 29.3359 28.5868 28.9435 28.9902 28.595C29.4324 28.2246 29.9105 27.8994 30.4175 27.6241C31.5427 27.0346 32.7507 26.6189 34.0003 26.391C36.6267 25.8424 39.5833 25.9735 42.5932 25.5268C44.0661 25.332 45.4956 24.8906 46.8217 24.2209C48.0334 23.5622 49.1289 22.7094 50.0647 21.6964C51.6531 19.971 52.9251 17.9792 53.8223 15.8124C54.6185 13.9725 55.1185 12.4141 55.4826 11.3655L55.8953 10.1372L56.007 9.82166C56.0184 9.78485 56.033 9.74911 56.0507 9.71486C56.0507 9.71486 56.0507 9.7537 56.0507 9.82652L55.9633 10.1518L55.5603 11.414C55.1108 12.9363 54.5809 14.4337 53.9728 15.8998C53.0891 18.1002 51.8181 20.1243 50.2201 21.8761C49.2655 22.9074 48.1467 23.7736 46.9091 24.4394C45.5649 25.1261 44.1137 25.5792 42.6175 25.7793C39.5687 26.2356 36.6267 26.09 34.0294 26.624C31.4321 27.158 29.2038 28.2406 28.0338 29.8719C27.0518 31.1062 26.5793 32.6695 26.7133 34.2411C26.7971 34.8233 26.9724 35.3886 27.2328 35.916Z" fill="#FAFAFA"/>
<path d="M30.3161 55.1943C30.2145 55.8659 30.0183 56.5196 29.7335 57.1362C29.4055 57.8776 28.9793 58.5716 28.4664 59.1995C27.7862 60.0384 26.9525 60.7403 26.0099 61.2676C24.8555 61.8933 23.5654 62.2267 22.2523 62.2386C20.7367 62.2735 19.2475 61.8376 17.9898 60.9909C16.6066 60.0337 15.6059 58.6186 15.1644 56.9954C14.9285 56.1405 14.8788 55.2448 15.0187 54.369C15.1725 53.4676 15.5186 52.6099 16.0334 51.8542C16.8727 50.5806 18.1603 49.6691 19.6405 49.3006V49.5434C18.1389 49.3111 16.7124 48.7309 15.4751 47.8491C14.328 47.0398 13.4139 45.9432 12.8244 44.6692C12.3056 43.5242 12.0836 42.267 12.1787 41.0135C12.2589 39.9305 12.6222 38.8875 13.2322 37.989C13.7453 37.2598 14.4072 36.6476 15.1741 36.1928C15.7439 35.8563 16.3657 35.6167 17.014 35.484C17.4198 35.4034 17.8339 35.3725 18.2471 35.3917L18.5627 35.4257C18.5981 35.4204 18.6341 35.4204 18.6695 35.4257C18.1194 35.3972 17.5679 35.4397 17.0286 35.5519C16.3968 35.6964 15.7932 35.9441 15.242 36.285C14.5064 36.7411 13.8747 37.3464 13.3875 38.0618C12.804 38.9403 12.4608 39.9563 12.3923 41.0087C12.3111 42.2273 12.5347 43.4469 13.0428 44.5575C13.6224 45.7915 14.5144 46.8525 15.6304 47.6354C16.8423 48.4889 18.2343 49.052 19.6987 49.2812L20.325 49.3783L19.7084 49.524C18.2885 49.8795 17.0545 50.7565 16.2518 51.9805C15.757 52.7102 15.4258 53.5382 15.2809 54.4078C15.1479 55.2495 15.1942 56.1098 15.4168 56.9323C15.8378 58.5078 16.8026 59.8836 18.1403 60.8161C19.3567 61.6403 20.7978 62.0692 22.2669 62.0444C23.5492 62.0397 24.8109 61.7214 25.942 61.1171C26.8695 60.6108 27.693 59.9338 28.3693 59.1218C28.8846 58.5086 29.3186 57.8314 29.6607 57.1071C29.8729 56.6476 30.053 56.1739 30.1996 55.6895C30.2433 55.5342 30.2773 55.4079 30.3015 55.306L30.3161 55.1943Z" fill="#263238"/>
<path d="M27.4552 34.1975C27.414 34.1853 27.3748 34.1674 27.3387 34.144L26.9989 33.9644C26.574 33.7211 26.1697 33.4434 25.7901 33.1343C24.3795 31.9823 23.3033 30.4736 22.6733 28.765C21.9421 26.7396 21.8774 24.5336 22.4888 22.4689C23.1002 20.4042 24.3555 18.589 26.0716 17.2883C27.4448 16.2763 28.989 15.5199 30.6303 15.0551C32.2713 14.5918 33.9546 14.2942 35.6549 14.1667C37.2862 14.0113 38.8591 13.9385 40.3544 13.8366C41.7697 13.7475 43.1794 13.5855 44.578 13.3511C45.7926 13.1423 46.9843 12.8171 48.1366 12.3801C49.8093 11.763 51.3341 10.8022 52.6126 9.55951C52.9493 9.21012 53.2623 8.83872 53.5496 8.44777L53.7729 8.14192C53.796 8.10456 53.8237 8.07029 53.8555 8.03997C53.5359 8.61886 53.1408 9.1527 52.6806 9.62748C51.4118 10.9138 49.8776 11.9078 48.1851 12.5403C47.0248 12.9914 45.8232 13.328 44.5974 13.5453C43.1926 13.7818 41.7763 13.9439 40.3544 14.0308C37.3687 14.2686 34.0432 14.2929 30.7177 15.2784C29.1066 15.7359 27.5894 16.4756 26.2367 17.4631C24.5548 18.7331 23.3194 20.5043 22.7087 22.5215C22.098 24.5386 22.1434 26.6976 22.8384 28.6873C23.4473 30.3683 24.4849 31.8611 25.8483 33.0177C26.2182 33.3342 26.6109 33.623 27.0232 33.8819L27.3436 34.0809C27.3859 34.1145 27.4235 34.1537 27.4552 34.1975Z" fill="#263238"/>
<path d="M81.5564 27.0367C81.5007 27.1031 81.4318 27.1573 81.3541 27.1957C81.2763 27.2342 81.1915 27.256 81.1049 27.26C80.8528 27.2649 80.6051 27.194 80.3938 27.0563C80.1826 26.9187 80.0176 26.7207 79.9203 26.4881C79.8455 26.3193 79.8126 26.1348 79.8245 25.9506C79.8363 25.7663 79.8925 25.5876 79.9883 25.4297C80.2124 25.0565 80.5539 24.768 80.9592 24.6093C81.454 24.4304 81.9863 24.381 82.5055 24.466C83.0248 24.551 83.5136 24.7674 83.9255 25.0948C84.4219 25.4531 84.8046 25.947 85.0275 26.5172C85.2632 27.137 85.3105 27.8126 85.1635 28.4591C85.0146 29.16 84.6351 29.7907 84.0857 30.2505C83.5039 30.7327 82.7931 31.0332 82.0418 31.1147C81.2404 31.1728 80.4361 31.0503 79.6883 30.7562C78.9405 30.4622 78.2683 30.004 77.7211 29.4155C77.1182 28.8191 76.6469 28.103 76.3375 27.3134C76.0215 26.4927 75.9376 25.6008 76.0947 24.7355C76.2627 23.8894 76.5265 23.0653 76.8812 22.279C77.2065 21.5022 77.5075 20.7352 77.7599 19.9681C78.2647 18.4945 78.5906 16.9657 78.7309 15.4144C78.8611 14.0147 78.776 12.6034 78.4784 11.2296C78.2135 10.0264 77.7456 8.87723 77.0948 7.83121C76.1573 6.30974 74.8117 5.08187 73.211 4.28723C72.7735 4.08879 72.3205 3.92643 71.8565 3.80176L71.4876 3.70952C71.4452 3.70104 71.4043 3.68631 71.3662 3.66582H71.4924L71.8663 3.73379C72.3429 3.84218 72.8079 3.99664 73.2547 4.19499C74.8913 4.97237 76.2711 6.20218 77.2308 7.73897C77.9062 8.78059 78.3987 9.92988 78.6872 11.1373C78.9998 12.5319 79.0947 13.9665 78.9688 15.3901C78.8321 16.9609 78.5061 18.5095 77.9978 20.0021C77.7454 20.7789 77.4395 21.5556 77.1143 22.3275C76.7699 23.1059 76.5127 23.92 76.3472 24.7549C76.2023 25.5702 76.2828 26.4095 76.5802 27.1823C76.8736 27.942 77.3254 28.6305 77.9056 29.2019C78.425 29.7653 79.0638 30.2055 79.7753 30.4903C80.4867 30.775 81.2528 30.8971 82.0176 30.8477C82.7298 30.775 83.4051 30.4948 83.9595 30.0418C84.476 29.6164 84.835 29.0301 84.979 28.3766C85.1213 27.7671 85.0824 27.1293 84.8673 26.5415C84.6581 26.0024 84.3014 25.533 83.8381 25.187C83.451 24.8727 82.9898 24.663 82.4985 24.578C82.0071 24.493 81.5022 24.5355 81.0321 24.7015C80.6517 24.8419 80.3288 25.105 80.1145 25.4492C80.022 25.5917 79.9657 25.7546 79.9505 25.9238C79.9353 26.093 79.9616 26.2634 80.0271 26.4201C80.1153 26.6393 80.2657 26.8278 80.4598 26.9624C80.654 27.097 80.8833 27.1718 81.1194 27.1775C81.275 27.1703 81.4259 27.1217 81.5564 27.0367Z" fill="#263238"/>
<g opacity="0.2">
<path d="M78.461 136.91C80.8204 136.245 83.2672 138.366 85.6606 137.818C87.117 137.478 88.2142 136.177 88.8744 134.812C89.5347 133.448 89.8891 131.943 90.5882 130.594C91.2872 129.244 92.4524 128.006 93.9574 127.797C95.3361 127.613 96.9722 128.259 97.9965 127.312C98.7879 126.584 98.681 125.234 98.0499 124.365C97.4188 123.496 96.4187 122.986 95.4526 122.511C94.393 121.932 93.2664 121.485 92.098 121.18C90.9177 120.88 89.668 121.025 88.588 121.588C86.5684 122.763 86.1606 125.428 85.5732 127.691C85.2147 129.282 84.5412 130.786 83.5924 132.113C82.629 133.444 81.2016 134.366 79.5921 134.696C78.9723 134.718 78.3647 134.874 77.8104 135.152C77.3007 135.502 77.1016 136.376 77.6308 136.701" fill="black"/>
</g>
<path d="M66.1631 128.186L75.0085 125.103L82.9363 112.709C83.3231 112.104 83.8291 111.585 84.4234 111.182C85.0177 110.78 85.6879 110.503 86.3929 110.369L100.613 107.684C100.793 108.226 100.769 108.815 100.544 109.34C100.32 109.865 99.9104 110.29 99.394 110.534C97.4958 111.616 88.9562 113.607 88.9562 113.607L102.108 113.384C102.108 113.384 102.511 115.282 101.02 115.961C99.5299 116.641 90.1602 116.981 90.1602 116.981L102.166 118.69C102.166 118.69 102.234 120.598 99.4911 120.632C96.7902 120.607 94.0923 120.445 91.4079 120.146C91.2966 120.129 91.1832 120.157 91.0923 120.224C91.0014 120.29 90.9403 120.39 90.9224 120.501C90.9048 120.608 90.9286 120.718 90.9891 120.808C91.0495 120.898 91.1419 120.962 91.2477 120.986L99.2241 122.87C99.4541 122.921 99.6607 123.047 99.8118 123.228C99.9629 123.408 100.05 123.634 100.059 123.87C100.069 124.105 100 124.337 99.8639 124.529C99.7277 124.722 99.5318 124.864 99.3066 124.933C99.1607 124.97 99.0094 124.98 98.8599 124.962C97.5055 124.826 89.3834 123.797 89.3834 123.797C89.3834 123.797 86.5191 133.837 84.6646 134.647C82.8101 135.458 78.9214 135.682 78.9214 135.682L70.6683 138.949L66.1631 128.186Z" fill="#FFDCCF"/>
<path d="M101.196 113.345C100.969 113.393 100.738 113.415 100.506 113.413L98.6226 113.505C97.0351 113.573 94.8359 113.651 92.4134 113.714L88.9907 113.801C88.0699 113.763 87.15 113.894 86.2769 114.189C85.7023 114.416 85.2143 114.819 84.8836 115.34C84.7773 115.541 84.6849 115.748 84.6069 115.961C84.5972 115.902 84.5972 115.841 84.6069 115.782C84.6441 115.613 84.7029 115.45 84.7817 115.296C85.0979 114.728 85.5952 114.282 86.1944 114.029C87.0821 113.7 88.025 113.545 88.9713 113.573L92.3697 113.466C94.797 113.403 96.9963 113.354 98.5838 113.33H100.467C100.71 113.315 100.954 113.32 101.196 113.345Z" fill="#AA6550"/>
<path d="M101.394 118.724C101.181 118.732 100.968 118.717 100.758 118.68L99.0393 118.462C97.5829 118.272 95.5827 117.976 93.3738 117.656C92.2718 117.5 91.2183 117.301 90.2668 117.219C89.4321 117.118 88.5865 117.27 87.8394 117.656C87.3413 117.932 86.9117 118.317 86.582 118.782C86.349 119.112 86.2567 119.321 86.2373 119.311C86.245 119.256 86.2614 119.202 86.2859 119.151C86.345 119.003 86.4165 118.86 86.4995 118.724C86.8119 118.221 87.2417 117.801 87.752 117.5C88.5229 117.07 89.4085 116.89 90.2862 116.986C91.2571 117.059 92.3106 117.253 93.4175 117.403C95.6264 117.733 97.6266 118.049 99.0685 118.287L100.777 118.583C100.987 118.61 101.193 118.657 101.394 118.724Z" fill="#AA6550"/>
<path d="M94.7188 121.777C94.2493 121.711 93.7852 121.61 93.3303 121.476C92.4759 121.268 91.301 120.957 90 120.69C89.6904 120.617 89.3754 120.57 89.0581 120.549C88.7739 120.56 88.497 120.642 88.2522 120.787C87.8175 121.027 87.4515 121.375 87.189 121.797C86.9716 122.209 86.8286 122.656 86.7667 123.117C86.7261 122.992 86.7161 122.859 86.7375 122.729C86.763 122.373 86.8621 122.025 87.0288 121.709C87.2896 121.241 87.6721 120.852 88.1357 120.583C88.4145 120.417 88.7292 120.32 89.0533 120.302C89.3882 120.32 89.721 120.365 90.0485 120.438C91.369 120.714 92.5341 121.049 93.374 121.302C93.837 121.415 94.2874 121.575 94.7188 121.777Z" fill="#AA6550"/>
<path d="M0.501953 134.851L27.0333 131.589L73.5662 124.025L79.5715 139.119C62.0944 145.177 44.1609 150.644 26.5672 155.45C25.1293 155.737 23.6636 155.861 22.1979 155.819C16.3236 155.843 1.83701 153.484 0.501953 134.851Z" fill="#458DFC"/>
<path d="M79.572 139.119C79.5267 139.032 79.4862 138.943 79.4506 138.852C79.3681 138.662 79.2613 138.4 79.1156 138.06C78.8292 137.352 78.4117 136.332 77.8825 135.031L73.4696 124.059L73.5812 124.122L50.9726 127.899C45.6323 128.817 40.5106 129.414 35.8694 130.031C33.544 130.336 31.3399 130.642 29.2863 131.001C28.2571 131.167 27.2667 131.328 26.3152 131.487C25.4034 131.633 24.5006 131.831 23.6111 132.079C20.932 132.923 18.6752 134.757 17.2999 137.206C16.9232 137.865 16.6126 138.559 16.3727 139.279C16.2901 139.526 16.2367 139.721 16.2027 139.847C16.186 139.914 16.1632 139.979 16.1348 140.041C16.18 139.778 16.2433 139.519 16.3241 139.264C16.5452 138.533 16.843 137.826 17.2125 137.157C17.7963 136.094 18.547 135.132 19.436 134.308C20.626 133.22 22.0369 132.402 23.5723 131.909C24.4682 131.654 25.3774 131.448 26.2958 131.293C27.2667 131.118 28.2377 130.938 29.2669 130.768C31.3253 130.429 33.5294 130.108 35.85 129.798C40.496 129.171 45.6129 128.569 50.9434 127.647L73.5618 123.923H73.6443L73.6735 124.001C75.4794 128.584 76.965 132.361 78.0039 135.002L79.1885 138.051C79.3196 138.395 79.4166 138.662 79.4943 138.852C79.572 139.041 79.572 139.119 79.572 139.119Z" fill="#263238"/>
<path d="M14.7793 155.018C14.8517 155.026 14.9233 155.04 14.9929 155.062L15.6095 155.212C16.1532 155.329 16.9542 155.513 18.0029 155.639C20.9654 156.005 23.9685 155.86 26.8822 155.212C27.8046 155.018 28.7562 154.756 29.7514 154.474L32.8487 153.6L39.6454 151.659C44.4468 150.26 49.7142 148.692 55.2244 146.979C64.4484 144.114 72.9248 141.308 79.4982 139.041L79.4399 139.172C77.6243 134.56 76.1338 130.788 75.0998 128.152C74.59 126.846 74.1968 125.821 73.9201 125.113C73.789 124.773 73.6919 124.511 73.6191 124.316C73.5463 124.122 73.5268 124.045 73.5268 124.045C73.5268 124.045 73.5705 124.132 73.6482 124.307C73.7259 124.482 73.8327 124.758 73.9735 125.093L75.2017 128.108L79.6244 139.099L79.6633 139.196L79.5662 139.23C72.9831 141.532 64.5164 144.352 55.2923 147.221C49.7822 148.935 44.5099 150.498 39.7037 151.887L32.8682 153.829L29.766 154.683C28.795 154.96 27.8241 155.222 26.8871 155.411C23.9526 156.047 20.9299 156.167 17.9543 155.766C16.8744 155.619 15.8111 155.369 14.7793 155.018Z" fill="#263238"/>
<path d="M25.0621 131.589C24.8446 131.646 24.6217 131.681 24.397 131.691L22.5764 131.871L16.5759 132.458L10.5755 133.099L8.75491 133.288C8.53373 133.326 8.30903 133.339 8.08496 133.327C8.30086 133.263 8.52171 133.218 8.74521 133.191C9.17243 133.123 9.78898 133.031 10.556 132.924C12.0853 132.71 14.202 132.439 16.5468 132.21C18.8917 131.982 21.0229 131.798 22.5619 131.696C23.3338 131.642 23.96 131.608 24.3921 131.589C24.615 131.57 24.8392 131.57 25.0621 131.589Z" fill="#263238"/>
<path d="M119.923 43.8342C119.438 39.9843 116.19 36.3967 112.311 36.3967C110.024 36.3967 107.844 37.5909 106.281 39.2658C105.725 39.8289 105.214 40.4343 104.752 41.0767C104.423 40.356 104.04 39.6614 103.606 38.9988C102.402 37.0569 100.504 35.45 98.2659 34.9985C94.4598 34.2411 90.5662 37.1152 89.338 40.7951C88.1097 44.475 89.1341 48.6015 91.1488 51.9125C93.1635 55.2234 96.6347 59.5588 103.028 61.7046C107.432 61.1414 113.335 57.2333 115.962 54.3787C118.588 51.5241 120.399 47.684 119.923 43.8342Z" fill="#458DFC"/>
<path d="M118.526 50.7425H118.4L118.026 50.7182L116.569 50.5969L111.297 50.1114L111.389 50.0531L109.195 55.7818L109.059 56.1264L108.972 55.7672C108.306 52.9854 107.554 49.8735 106.763 46.5917L106.049 43.606L106.272 43.6545L102.248 49.189L102.209 49.2375H102.165L92.8974 48.2666L90.2759 47.9753L89.5816 47.8879L89.3438 47.8442C89.4245 47.8367 89.5057 47.8367 89.5865 47.8442L90.2807 47.8976L92.912 48.1258L102.185 48.9996L102.083 49.0482L106.088 43.4992L106.248 43.2807L106.311 43.5429C106.544 44.5138 106.797 45.5188 107.03 46.5383C107.811 49.8201 108.554 52.9369 109.219 55.7186H108.996L111.239 50.0046L111.263 49.9415H111.331L116.598 50.5046L118.031 50.6745L118.4 50.7231L118.526 50.7425Z" fill="#FAFAFA"/>
</svg>
