<svg width="50" height="50" viewBox="0 0 50 50" fill="none" xmlns="http://www.w3.org/2000/svg">
<path d="M24.4247 31.6258L9.59817 47.5108C9.09407 48.1721 8.40082 48.7183 7.58086 49.1004C6.76089 49.4824 5.83996 49.6882 4.90096 49.6994C3.61286 49.714 2.36996 49.3035 1.44287 48.557C0.97152 48.1962 0.598856 47.7549 0.350218 47.2631C0.101581 46.7713 -0.0171933 46.2406 0.00200658 45.7071C0.0484955 44.5122 0.553588 43.3614 1.44287 42.4242L18.3442 24.976L2.49472 7.51564C1.75822 6.69624 1.35438 5.70201 1.34202 4.67774C1.33828 4.06686 1.48613 3.46196 1.77626 2.90111C2.0664 2.34026 2.49253 1.83562 3.02783 1.41896C3.53055 0.980902 4.13451 0.632484 4.80319 0.394793C5.47186 0.157103 6.19136 0.035076 6.91816 0.0360852C7.84893 0.0486834 8.76112 0.255554 9.57152 0.637831C10.3819 1.02011 11.0648 1.56563 11.5577 2.22464L25.8799 17.9654L40.2886 2.48919C40.8037 1.76717 41.5241 1.16229 42.3862 0.728116C43.2482 0.293937 44.2252 0.0438562 45.2307 1.16681e-05C45.8548 -0.00128093 46.4725 0.104836 47.0451 0.311738C47.6178 0.51864 48.1332 0.821881 48.5591 1.20251C49.0132 1.55931 49.3752 1.98971 49.6229 2.46735C49.8707 2.94499 49.999 3.45981 50 3.98029C49.9847 4.91167 49.5995 5.81249 48.905 6.54161L31.946 24.6513L48.3286 42.6888C49.103 43.495 49.5339 44.4935 49.5533 45.5267C49.558 46.1241 49.4071 46.7153 49.1111 47.2593C48.815 47.8033 48.3809 48.2871 47.8387 48.6773C46.7815 49.5257 45.3719 49.9997 43.9052 50C42.9698 49.9903 42.0522 49.7849 41.2366 49.4025C40.421 49.0202 39.7333 48.4731 39.2367 47.8115L24.4247 31.6258Z" fill="#F64548"/>
</svg>
