<svg xmlns="http://www.w3.org/2000/svg" viewBox="0 0 500 500"><g id="freepik--Graphics--inject-62"><polygon points="120.61 310.27 112.21 311.79 110.56 302.69 100.58 304.5 102.23 313.6 93.84 315.12 95.71 325.45 104.1 323.93 105.75 333.03 115.73 331.23 114.08 322.12 122.48 320.6 120.61 310.27" style="fill:none;stroke:#407BFF;stroke-linecap:round;stroke-linejoin:round"></polygon><polygon points="204.47 170.87 196.42 168.03 199.5 159.31 189.94 155.93 186.86 164.65 178.81 161.81 175.32 171.71 183.36 174.55 180.28 183.28 189.84 186.65 192.93 177.93 200.97 180.77 204.47 170.87" style="fill:none;stroke:#407BFF;stroke-linecap:round;stroke-linejoin:round"></polygon><polygon points="407.51 275.09 399.97 279.08 395.64 270.9 386.67 275.64 391 283.82 383.46 287.81 388.37 297.09 395.91 293.1 400.24 301.27 409.21 296.53 404.88 288.35 412.42 284.36 407.51 275.09" style="fill:none;stroke:#407BFF;stroke-linecap:round;stroke-linejoin:round"></polygon><circle cx="85.53" cy="282.47" r="6.12" style="fill:none;stroke:#407BFF;stroke-linecap:round;stroke-linejoin:round"></circle><path d="M180.86,200.65a1.62,1.62,0,1,1-1.62-1.62A1.62,1.62,0,0,1,180.86,200.65Z" style="fill:none;stroke:#407BFF;stroke-linecap:round;stroke-linejoin:round"></path><path d="M106.73,172.86a5.72,5.72,0,1,1-5.72-5.72A5.73,5.73,0,0,1,106.73,172.86Z" style="fill:none;stroke:#407BFF;stroke-linecap:round;stroke-linejoin:round"></path><path d="M358.76,250.34a3.24,3.24,0,1,1-3.24-3.24A3.24,3.24,0,0,1,358.76,250.34Z" style="fill:none;stroke:#407BFF;stroke-linecap:round;stroke-linejoin:round"></path><circle cx="326.01" cy="144.34" r="7.25" style="fill:none;stroke:#407BFF;stroke-linecap:round;stroke-linejoin:round"></circle></g></svg>