<svg width="1600" height="600" viewBox="0 0 1600 600" fill="none" xmlns="http://www.w3.org/2000/svg">
<rect width="1600" height="600" fill="url(#paint0_linear_291_2848)"/>
<rect width="1600" height="600" fill="url(#paint1_linear_291_2848)" fill-opacity="0.5"/>
<path d="M430.604 270.403C433.299 230.621 411.845 199.363 378.44 189.763C358.743 184.08 338.158 177.811 325.764 158.371C314.549 140.774 306.956 120.24 293.481 104.458C271.948 79.2288 234.612 78.8256 207.429 91.9776C182.767 103.862 159.313 128.995 161.428 160.79C163.071 185.491 175.348 205.632 149.576 219.926C113.119 240.154 116.915 213.206 81.2213 250.262C45.5276 287.318 58.4431 332.822 75.1452 366.538C85.7712 388.022 83.4914 395.808 80.4099 398.63C83.7619 398.102 87.8384 397.334 92.4269 396.259C92.6298 391.315 100.01 381.005 102.589 378.442C105.748 375.293 93.9919 384.278 91.2871 375.744C88.5823 367.21 97.1603 356.87 98.5127 354.173C99.8651 351.475 94.4459 352.829 90.7847 349.238C87.1236 345.648 92.5912 340.694 93.0452 336.653C93.4992 332.611 93.0452 333.514 87.6163 327.667C82.1873 321.821 91.6831 298.915 92.5912 292.147C93.4992 285.379 88.0703 295.738 85.8292 289.45C83.588 283.162 95.779 269.232 95.779 269.232C95.779 269.232 93.0645 266.534 95.779 260.246C98.4934 253.958 104.821 250.358 107.081 253.949C109.342 257.539 104.821 261.629 104.821 261.629C104.821 261.629 110.694 267.466 111.148 274.214C111.602 280.963 110.694 280.051 113.862 282.749C117.031 285.446 128.778 293.078 128.778 299.818C128.778 306.557 121.542 301.171 121.542 302.515C121.542 303.859 140.534 323.184 140.08 333.523C139.626 343.862 131.038 337.114 131.492 340.243C131.946 343.373 148.677 350.573 150.03 361.363C151.382 372.154 139.181 364.512 138.727 366.307C138.37 367.728 149.054 373.123 153.304 377.069C154.531 376.481 155.83 376.055 157.168 375.802C163.824 374.554 166.712 374.842 166.712 374.842C166.712 374.842 169.234 363.398 185.066 361.738C200.899 360.077 259.178 358.435 259.178 358.435L294.562 358.013C294.562 358.013 324.508 361.738 331.618 365.875C338.728 370.013 340.032 378.394 348.475 378.24C351.035 374.4 354.454 369.869 354.454 369.869C354.454 369.869 347.219 374.803 345.867 371.213C344.514 367.622 354.908 354.586 354.908 354.586C354.908 354.586 349.48 355.939 349.934 350.544C350.388 345.149 361.69 336.614 361.69 336.614C359.183 335.544 357.001 333.839 355.362 331.67C352.648 328.08 356.261 326.726 359.429 323.587C362.598 320.448 362.588 311.002 362.588 311.002C362.588 311.002 358.521 313.248 358.521 307.862C358.521 302.477 372.538 293.462 372.538 292.138C372.538 290.813 366.665 293.482 369.369 288.086C372.074 282.691 381.57 277.718 381.57 277.718C388.332 273.226 392.872 279.062 392.872 284.909C392.872 290.755 388.805 285.36 386.999 286.704C385.193 288.048 388.805 300.144 388.805 300.144C388.805 300.144 385.193 299.242 383.83 299.693C382.468 300.144 391.558 316.771 391.066 323.962C390.573 331.152 386.999 324.854 386.091 326.208C385.183 327.562 387.897 333.398 388.805 339.648C389.713 345.898 383.83 345.936 383.83 345.936C383.83 345.936 391.066 370.195 391.066 372.442C391.066 374.688 383.83 369.754 383.83 369.754C385.031 374.355 385.998 379.014 386.728 383.712C391.558 384.058 396.543 384.998 399.586 391.392C403.286 399.158 411.439 399.254 416.056 400.454C418.568 397.853 419.486 393.034 418.481 384.134C416.201 363.907 386.603 336.941 401.769 320.938C416.935 304.934 428.324 304.109 430.604 270.403Z" fill="#407BFF"/>
<path opacity="0.6" d="M430.604 270.403C433.299 230.621 411.845 199.363 378.44 189.763C358.743 184.08 338.158 177.811 325.764 158.371C314.549 140.774 306.956 120.24 293.481 104.458C271.948 79.2288 234.612 78.8256 207.429 91.9776C182.767 103.862 159.313 128.995 161.428 160.79C163.071 185.491 175.348 205.632 149.576 219.926C113.119 240.154 116.915 213.206 81.2213 250.262C45.5276 287.318 58.4431 332.822 75.1452 366.538C85.7712 388.022 83.4914 395.808 80.4099 398.63C83.7619 398.102 87.8384 397.334 92.4269 396.259C92.6298 391.315 100.01 381.005 102.589 378.442C105.748 375.293 93.9919 384.278 91.2871 375.744C88.5823 367.21 97.1603 356.87 98.5127 354.173C99.8651 351.475 94.4459 352.829 90.7847 349.238C87.1236 345.648 92.5912 340.694 93.0452 336.653C93.4992 332.611 93.0452 333.514 87.6163 327.667C82.1873 321.821 91.6831 298.915 92.5912 292.147C93.4992 285.379 88.0703 295.738 85.8292 289.45C83.588 283.162 95.779 269.232 95.779 269.232C95.779 269.232 93.0645 266.534 95.779 260.246C98.4934 253.958 104.821 250.358 107.081 253.949C109.342 257.539 104.821 261.629 104.821 261.629C104.821 261.629 110.694 267.466 111.148 274.214C111.602 280.963 110.694 280.051 113.862 282.749C117.031 285.446 128.778 293.078 128.778 299.818C128.778 306.557 121.542 301.171 121.542 302.515C121.542 303.859 140.534 323.184 140.08 333.523C139.626 343.862 131.038 337.114 131.492 340.243C131.946 343.373 148.677 350.573 150.03 361.363C151.382 372.154 139.181 364.512 138.727 366.307C138.37 367.728 149.054 373.123 153.304 377.069C154.531 376.481 155.83 376.055 157.168 375.802C163.824 374.554 166.712 374.842 166.712 374.842C166.712 374.842 169.234 363.398 185.066 361.738C200.899 360.077 259.178 358.435 259.178 358.435L294.562 358.013C294.562 358.013 324.508 361.738 331.618 365.875C338.728 370.013 340.032 378.394 348.475 378.24C351.035 374.4 354.454 369.869 354.454 369.869C354.454 369.869 347.219 374.803 345.867 371.213C344.514 367.622 354.908 354.586 354.908 354.586C354.908 354.586 349.48 355.939 349.934 350.544C350.388 345.149 361.69 336.614 361.69 336.614C359.183 335.544 357.001 333.839 355.362 331.67C352.648 328.08 356.261 326.726 359.429 323.587C362.598 320.448 362.588 311.002 362.588 311.002C362.588 311.002 358.521 313.248 358.521 307.862C358.521 302.477 372.538 293.462 372.538 292.138C372.538 290.813 366.665 293.482 369.369 288.086C372.074 282.691 381.57 277.718 381.57 277.718C388.332 273.226 392.872 279.062 392.872 284.909C392.872 290.755 388.805 285.36 386.999 286.704C385.193 288.048 388.805 300.144 388.805 300.144C388.805 300.144 385.193 299.242 383.83 299.693C382.468 300.144 391.558 316.771 391.066 323.962C390.573 331.152 386.999 324.854 386.091 326.208C385.183 327.562 387.897 333.398 388.805 339.648C389.713 345.898 383.83 345.936 383.83 345.936C383.83 345.936 391.066 370.195 391.066 372.442C391.066 374.688 383.83 369.754 383.83 369.754C385.031 374.355 385.998 379.014 386.728 383.712C391.558 384.058 396.543 384.998 399.586 391.392C403.286 399.158 411.439 399.254 416.056 400.454C418.568 397.853 419.486 393.034 418.481 384.134C416.201 363.907 386.603 336.941 401.769 320.938C416.935 304.934 428.324 304.109 430.604 270.403Z" fill="white"/>
<path d="M294.06 381.216C294.06 381.216 246.726 377.654 257.497 385.498C268.268 393.341 296.214 380.506 295.499 386.208C294.785 391.91 283.309 390.48 294.785 391.901C306.261 393.322 319.157 390.48 323.456 392.621C327.754 394.762 330.681 399.715 336.014 398.659C341.346 397.603 349.248 396.182 357.855 396.893C366.462 397.603 372.905 396.893 362.153 391.19C351.402 385.488 341.365 388.31 333.483 384.077C327.764 380.976 324.528 371.712 317.843 370.07C308.627 367.795 304.058 381.216 294.06 381.216Z" fill="#407BFF"/>
<path opacity="0.6" d="M294.06 381.216C294.06 381.216 246.726 377.654 257.497 385.498C268.268 393.341 296.214 380.506 295.499 386.208C294.785 391.91 283.309 390.48 294.785 391.901C306.261 393.322 319.157 390.48 323.456 392.621C327.754 394.762 330.681 399.715 336.014 398.659C341.346 397.603 349.248 396.182 357.855 396.893C366.462 397.603 372.905 396.893 362.153 391.19C351.402 385.488 341.365 388.31 333.483 384.077C327.764 380.976 324.528 371.712 317.843 370.07C308.627 367.795 304.058 381.216 294.06 381.216Z" fill="white"/>
<path d="M130.594 382.8C127.039 383.539 122.344 384.576 122.344 384.576" stroke="#263238" stroke-linecap="round" stroke-linejoin="round"/>
<path d="M179.676 361.92C178.637 362.134 177.624 362.456 176.653 362.88C167.476 367.085 166.77 374.803 166.77 374.803C162.982 374.82 159.209 375.274 155.526 376.157C150.59 377.558 149.18 379.661 146.349 381.062C144.04 382.214 138.418 381.955 134.516 382.205" stroke="#263238" stroke-linecap="round" stroke-linejoin="round"/>
<path d="M386.506 383.827C388.004 383.875 389.404 383.875 390.544 383.875C391.365 383.875 392.175 384.065 392.91 384.43C393.644 384.795 394.283 385.325 394.775 385.978" stroke="#263238" stroke-linecap="round" stroke-linejoin="round"/>
<path d="M340.631 376.09C341.233 376.751 341.964 377.284 342.779 377.657C343.594 378.03 344.477 378.235 345.374 378.259C352.436 378.96 360.193 370.579 367.959 375.456C375.726 380.333 377.136 382.474 379.957 383.136C380.401 383.242 380.923 383.338 381.425 383.414" stroke="#263238" stroke-linecap="round" stroke-linejoin="round"/>
<path d="M316.848 363.274C322.398 362.778 327.958 364.099 332.681 367.037C334.994 368.469 336.939 370.418 338.361 372.73" stroke="#263238" stroke-linecap="round" stroke-linejoin="round"/>
<path d="M277.619 369.139C291.732 371.952 297.383 378.96 297.383 378.96C297.764 378.742 298.161 378.553 298.571 378.394C323.552 363.13 340.109 336.595 340.109 306.394C340.109 259.046 299.47 220.675 249.305 220.675C199.141 220.675 158.501 259.075 158.501 306.394C158.501 343.085 182.922 374.381 217.244 386.611L219.465 386.707C223.408 385.561 227.077 383.638 230.256 381.053C244.446 369.84 263.505 366.336 277.619 369.139Z" fill="white"/>
<mask id="mask0_291_2848" style="mask-type:luminance" maskUnits="userSpaceOnUse" x="158" y="220" width="183" height="167">
<path d="M277.619 369.139C291.732 371.952 297.383 378.96 297.383 378.96C297.764 378.742 298.161 378.553 298.571 378.394C323.552 363.13 340.109 336.595 340.109 306.394C340.109 259.046 299.47 220.675 249.305 220.675C199.141 220.675 158.501 259.075 158.501 306.394C158.501 343.085 182.922 374.381 217.244 386.611L219.465 386.707C223.408 385.561 227.077 383.638 230.256 381.053C244.446 369.84 263.505 366.336 277.619 369.139Z" fill="white"/>
</mask>
<g mask="url(#mask0_291_2848)">
<g style="mix-blend-mode:multiply" opacity="0.5">
<path d="M249.836 220.694L219.427 235.392C219.427 235.392 228.642 245.29 246.755 247.094C264.867 248.899 269.089 243.494 269.089 243.494C269.089 243.494 276.933 263.29 296.253 269.885C315.573 276.48 324.846 275.366 332.468 290.88C340.09 306.394 331.261 317.28 331.261 317.28C331.261 317.28 334.883 322.08 332.468 326.275C330.053 330.47 331.261 332.87 325.832 332.87C320.403 332.87 314.356 329.875 314.356 329.875C316.261 332.415 318.743 334.471 321.601 335.875C324.491 336.999 327.558 337.607 330.662 337.67C330.662 337.67 328.247 344.87 316.771 354.47C305.295 364.07 298.668 366.461 285.994 366.461C273.32 366.461 261.844 359.27 243.741 370.061C233.009 376.464 226.517 382.013 223.011 385.478C225.64 384.339 228.102 382.854 230.333 381.062C244.446 369.84 263.505 366.336 277.619 369.139C291.732 371.942 297.383 378.96 297.383 378.96C297.764 378.742 298.161 378.553 298.571 378.394C323.552 363.13 340.109 336.595 340.109 306.394C340.099 259.2 299.73 220.954 249.836 220.694Z" fill="#407BFF"/>
</g>
</g>
<path d="M277.619 369.139C291.732 371.952 297.383 378.96 297.383 378.96C297.764 378.742 298.161 378.553 298.571 378.394C323.552 363.13 340.109 336.595 340.109 306.394C340.109 259.046 299.47 220.675 249.305 220.675C199.141 220.675 158.501 259.075 158.501 306.394C158.501 343.085 182.922 374.381 217.244 386.611L219.465 386.707C223.408 385.561 227.077 383.638 230.256 381.053C244.446 369.84 263.505 366.336 277.619 369.139Z" stroke="#263238" stroke-linecap="round" stroke-linejoin="round"/>
<path d="M283.337 277.699C288.907 277.699 293.423 273.483 293.423 268.282C293.423 263.08 288.907 258.864 283.337 258.864C277.768 258.864 273.252 263.08 273.252 268.282C273.252 273.483 277.768 277.699 283.337 277.699Z" fill="#263238" stroke="#263238" stroke-linecap="round" stroke-linejoin="round"/>
<path d="M291.288 323.27C296.857 323.27 301.373 319.054 301.373 313.853C301.373 308.652 296.857 304.435 291.288 304.435C285.718 304.435 281.203 308.652 281.203 313.853C281.203 319.054 285.718 323.27 291.288 323.27Z" fill="#263238" stroke="#263238" stroke-linecap="round" stroke-linejoin="round"/>
<path d="M171.784 282.058C171.272 288.379 173.273 294.648 177.358 299.52" stroke="#263238" stroke-linecap="round" stroke-linejoin="round"/>
<path d="M180.362 302.496C180.362 302.496 183.356 305.904 186.786 306.758" stroke="#263238" stroke-linecap="round" stroke-linejoin="round"/>
<path d="M172.644 308.89C172.644 308.89 176.073 317.837 187.646 322.099" stroke="#263238" stroke-linecap="round" stroke-linejoin="round"/>
<path d="M170.499 295.68C170.499 295.68 173.928 305.472 181.647 310.157" stroke="#263238" stroke-linecap="round" stroke-linejoin="round"/>
<path d="M176.498 321.667C179.753 324.315 183.561 326.207 187.645 327.206" stroke="#263238" stroke-linecap="round" stroke-linejoin="round"/>
<path d="M183.791 345.523C183.791 345.523 188.505 352.339 204.792 355.325" stroke="#263238" stroke-linecap="round" stroke-linejoin="round"/>
<path d="M198.793 357.878C201.449 359.228 204.379 359.957 207.362 360.01" stroke="#263238" stroke-linecap="round" stroke-linejoin="round"/>
<path d="M300.156 251.578L352.126 194.458C352.126 194.458 354.638 164.41 358.309 164.41C361.98 164.41 363.139 165.293 362.52 170.17C361.902 175.046 358.009 190.08 358.009 190.08C358.009 190.08 368.017 180.48 373.523 172.618C379.029 164.755 383.917 152.563 388.805 152.563C393.693 152.563 393.094 157.43 389.424 162.893C385.753 168.355 349.064 206.035 351.508 207.254C353.952 208.474 379.029 189.014 379.638 193.882C380.247 198.749 338.67 221.194 330.72 228.48C322.77 235.766 303.208 258.24 303.208 258.24L300.156 251.578Z" fill="#407BFF" stroke="#263238" stroke-linecap="round" stroke-linejoin="round"/>
<path opacity="0.5" d="M300.156 251.578L352.126 194.458C352.126 194.458 354.638 164.41 358.309 164.41C361.98 164.41 363.139 165.293 362.52 170.17C361.902 175.046 358.009 190.08 358.009 190.08C358.009 190.08 368.017 180.48 373.523 172.618C379.029 164.755 383.917 152.563 388.805 152.563C393.693 152.563 393.094 157.43 389.424 162.893C385.753 168.355 349.064 206.035 351.508 207.254C353.952 208.474 379.029 189.014 379.638 193.882C380.247 198.749 338.67 221.194 330.72 228.48C322.77 235.766 303.208 258.24 303.208 258.24L300.156 251.578Z" fill="black"/>
<path d="M391.897 155.472L386.497 162.326" stroke="#263238" stroke-linecap="round" stroke-linejoin="round"/>
<path d="M384.7 163.814L382.005 167.395" stroke="#263238" stroke-linecap="round" stroke-linejoin="round"/>
<path d="M345.113 211.805L340.312 216.576" stroke="#263238" stroke-linecap="round" stroke-linejoin="round"/>
<path d="M147.17 228.797L162.761 238.925" stroke="#263238" stroke-linecap="round" stroke-linejoin="round"/>
<path d="M164.857 240.115L169.658 243.398" stroke="#263238" stroke-linecap="round" stroke-linejoin="round"/>
<path d="M194.378 251.578L158.907 229.699C141.181 218.765 128.961 210.25 128.961 210.25L124.073 175.008C122.265 174.608 120.419 174.405 118.567 174.403C115.505 174.403 114.896 178.656 114.896 178.656C114.896 178.656 113.679 178.051 117.34 185.952C121.001 193.853 121.61 205.44 121.61 205.44C121.61 205.44 108.192 192.634 98.986 185.952C89.78 179.27 88.5918 175.008 83.7039 174.432C78.8159 173.856 78.1977 182.333 80.6513 184.762C83.1049 187.19 127.724 218.179 130.787 220.003C133.849 221.827 113.051 216.355 108.772 215.146C104.492 213.936 102.01 214.541 103.884 218.179C105.758 221.818 139.954 227.299 139.954 227.299L187.645 258.24C187.645 258.24 193.2 261.293 194.378 251.578Z" fill="#407BFF" stroke="#263238" stroke-linecap="round" stroke-linejoin="round"/>
<path opacity="0.5" d="M194.378 251.578L158.907 229.699C141.181 218.765 128.961 210.25 128.961 210.25L124.073 175.008C122.265 174.608 120.419 174.405 118.567 174.403C115.505 174.403 114.896 178.656 114.896 178.656C114.896 178.656 113.679 178.051 117.34 185.952C121.001 193.853 121.61 205.44 121.61 205.44C121.61 205.44 108.192 192.634 98.986 185.952C89.78 179.27 88.5918 175.008 83.7039 174.432C78.8159 173.856 78.1977 182.333 80.6513 184.762C83.1049 187.19 127.724 218.179 130.787 220.003C133.849 221.827 113.051 216.355 108.772 215.146C104.492 213.936 102.01 214.541 103.884 218.179C105.758 221.818 139.954 227.299 139.954 227.299L187.645 258.24C187.645 258.24 193.2 261.293 194.378 251.578Z" fill="black"/>
<path d="M83.7039 174.403C83.7039 174.403 85.6359 174.547 85.6359 179.021C85.6359 183.494 84.2642 186.576 80.603 184.781" stroke="#263238" stroke-linecap="round" stroke-linejoin="round"/>
<path d="M85.9836 185.875L92.5814 191.242" stroke="#263238" stroke-linecap="round" stroke-linejoin="round"/>
<path d="M85.3848 181.104L89.5772 184.685" stroke="#263238" stroke-linecap="round" stroke-linejoin="round"/>
<path d="M200.416 165.206C200.416 165.206 199.334 154.31 192.939 146.678C189.231 142.185 184.685 138.447 179.55 135.667C179.55 135.667 187.075 109.45 219.717 100.33C244.533 93.3984 254.493 97.5072 254.493 97.5072C254.493 97.5072 253.044 122.89 263.303 138.298C263.293 138.298 239.838 136.32 200.416 165.206Z" fill="#263238" stroke="#263238" stroke-linecap="round" stroke-linejoin="round"/>
<path d="M188.708 139.661C191.316 134.106 195.265 129.279 200.203 125.606" stroke="white" stroke-linecap="round" stroke-linejoin="round"/>
<path d="M202.86 123.84C202.86 123.84 206.83 121.642 209.931 120.326" stroke="white" stroke-linecap="round" stroke-linejoin="round"/>
<path d="M194.456 142.733C194.456 142.733 199.759 133.949 206.83 129.994" stroke="white" stroke-linecap="round" stroke-linejoin="round"/>
<path d="M253.247 118.138C248.336 116.848 243.194 116.697 238.216 117.696" stroke="white" stroke-linecap="round" stroke-linejoin="round"/>
<path d="M228.613 125.76C213.843 130.234 202.29 139.718 195.943 151.114C198.267 155.506 199.782 160.275 200.416 165.197C239.838 136.31 263.293 138.317 263.293 138.317C260.552 134.006 258.524 129.287 257.284 124.339C247.758 122.422 237.9 122.91 228.613 125.76Z" fill="#407BFF" stroke="#263238" stroke-linecap="round" stroke-linejoin="round"/>
<path d="M251.558 191.654C282.777 178.19 303.027 155.691 296.787 141.401C290.547 127.112 260.18 126.443 228.961 139.908C197.741 153.372 177.492 175.871 183.732 190.16C189.972 204.45 220.339 205.119 251.558 191.654Z" fill="#263238" stroke="#263238" stroke-linecap="round" stroke-linejoin="round"/>
<path d="M252.445 194.725C283.664 181.261 303.914 158.762 297.673 144.473C291.433 130.183 261.066 129.514 229.847 142.979C198.628 156.443 178.378 178.942 184.619 193.232C190.859 207.521 221.226 208.19 252.445 194.725Z" fill="#263238" stroke="#263238" stroke-linecap="round" stroke-linejoin="round"/>
<path d="M190.785 170.64C198.716 160.598 212.607 150.413 229.85 142.973C254.444 132.365 278.507 130.493 290.66 137.213" stroke="white" stroke-linecap="round" stroke-linejoin="round"/>
<path d="M184.506 181.622C185.449 178.905 186.748 176.323 188.37 173.942" stroke="white" stroke-linecap="round" stroke-linejoin="round"/>
<path d="M215.708 212.371C214.896 213.011 214.272 213.855 213.9 214.815C213.528 215.776 213.422 216.818 213.592 217.834C214.017 221.606 215.708 222.029 214.442 224.976C213.177 227.923 211.477 229.594 214.858 232.109C218.239 234.624 226.276 241.776 244.031 241.776C261.786 241.776 272.354 238.416 279.541 232.531C286.728 226.646 283.347 224.554 283.347 220.771C283.347 216.989 286.728 214.886 282.497 210.269C278.266 205.651 270.239 223.68 215.708 212.371Z" fill="#407BFF" stroke="#263238" stroke-linecap="round" stroke-linejoin="round"/>
<path opacity="0.3" d="M215.708 212.371C214.896 213.011 214.272 213.855 213.9 214.815C213.528 215.776 213.422 216.818 213.592 217.834C214.017 221.606 215.708 222.029 214.442 224.976C213.177 227.923 211.477 229.594 214.858 232.109C218.239 234.624 226.276 241.776 244.031 241.776C261.786 241.776 272.354 238.416 279.541 232.531C286.728 226.646 283.347 224.554 283.347 220.771C283.347 216.989 286.728 214.886 282.497 210.269C278.266 205.651 270.239 223.68 215.708 212.371Z" fill="black"/>
<path d="M267.157 238.944C271.671 237.641 275.88 235.461 279.541 232.531C279.753 232.358 279.956 232.195 280.15 232.022C279.386 226.618 277.648 219.936 274.711 214.838C274.141 213.878 273.629 212.966 273.136 212.179C266.374 214.694 254.782 217.728 233.231 215.251L225.194 217.517C225.194 217.517 220.692 221.549 220.692 225.13V230.045L219.427 235.392C222.918 237.578 226.736 239.198 230.739 240.192L231.048 233.165C231.048 233.165 231.048 224.669 234.641 223.325C238.235 221.981 245.451 225.12 245.451 225.12L244.736 241.757C249.546 241.769 254.35 241.429 259.11 240.739C259.564 236.707 259.902 230.39 258.511 225.12L256.26 216.614L265.708 215.27C265.708 215.27 268.413 223.325 267.959 230.486C267.746 233.923 267.427 236.832 267.157 238.944Z" fill="#263238" stroke="#263238" stroke-linecap="round" stroke-linejoin="round"/>
<path d="M286.728 231.274C286.728 231.274 299.412 243.456 318.857 232.531C338.303 221.606 341.259 214.464 351.827 213.206C358.423 212.452 365.075 212.31 371.697 212.784L369.582 232.944C369.582 232.944 362.82 229.584 342.534 236.726C322.248 243.869 312.105 248.909 299.421 245.126C286.738 241.344 286.728 231.274 286.728 231.274Z" fill="#407BFF" stroke="#263238" stroke-linecap="round" stroke-linejoin="round"/>
<path opacity="0.4" d="M286.728 231.274C286.728 231.274 299.412 243.456 318.857 232.531C338.303 221.606 341.259 214.464 351.827 213.206C358.423 212.452 365.075 212.31 371.697 212.784L369.582 232.944C369.582 232.944 362.82 229.584 342.534 236.726C322.248 243.869 312.105 248.909 299.421 245.126C286.738 241.344 286.728 231.274 286.728 231.274Z" fill="black"/>
<path d="M357.333 212.717L353.556 233.51C365.36 230.861 369.592 232.954 369.592 232.954L371.707 212.794C366.923 212.447 362.121 212.421 357.333 212.717Z" fill="#263238" stroke="#263238" stroke-linecap="round" stroke-linejoin="round"/>
<path d="M318.587 244.906C323.803 243.542 329.638 241.373 336.805 238.781L342.244 216.768C337.627 219.706 332.652 224.266 323.059 230.083L318.587 244.906Z" fill="#263238" stroke="#263238" stroke-linecap="round" stroke-linejoin="round"/>
<path d="M255.864 226.234C255.864 226.234 266.857 223.68 270.238 230.4C273.619 237.12 278.275 248.467 296.031 257.28C313.786 266.093 334.922 261.485 350.127 258.538C365.331 255.59 375.069 258.538 375.069 258.538L377.184 233.338C377.184 233.338 362.81 222.835 347.171 229.133C331.531 235.43 310.81 242.16 298.127 236.698C285.443 231.235 283.337 216.538 275.725 216.95C275.735 216.96 257.98 223.286 255.864 226.234Z" fill="#407BFF" stroke="#263238" stroke-linecap="round" stroke-linejoin="round"/>
<path opacity="0.3" d="M255.864 226.234C255.864 226.234 266.857 223.68 270.238 230.4C273.619 237.12 278.275 248.467 296.031 257.28C313.786 266.093 334.922 261.485 350.127 258.538C365.331 255.59 375.069 258.538 375.069 258.538L377.184 233.338C377.184 233.338 362.81 222.835 347.171 229.133C331.531 235.43 310.81 242.16 298.127 236.698C285.443 231.235 283.337 216.538 275.725 216.95C275.735 216.96 257.98 223.286 255.864 226.234Z" fill="black"/>
<path d="M282.333 220.982L267.949 227.76C268.921 228.449 269.707 229.366 270.238 230.429C271.33 232.608 272.557 235.229 274.315 238.157L288.534 229.267C286.09 226.358 284.197 223.315 282.333 220.982Z" fill="#263238" stroke="#263238" stroke-linecap="round" stroke-linejoin="round"/>
<path d="M306.058 260.899L316.23 238.262C311.598 238.997 306.873 238.935 302.261 238.08L290.003 253.987C291.953 255.215 293.965 256.343 296.031 257.366C299.225 258.924 302.59 260.11 306.058 260.899Z" fill="#263238" stroke="#263238" stroke-linecap="round" stroke-linejoin="round"/>
<path d="M354.986 257.818L358.386 227.174C354.552 227.057 350.735 227.737 347.18 229.171C345.123 229.997 342.978 230.832 340.776 231.648L336.062 261.12C341.085 260.362 345.847 259.402 350.136 258.566C351.827 258.24 353.44 258.01 354.986 257.818Z" fill="#263238" stroke="#263238" stroke-linecap="round" stroke-linejoin="round"/>
<path d="M289.674 184.944C289.672 196.257 285.148 207.106 277.097 215.105C269.047 223.103 258.129 227.597 246.745 227.597C223.049 227.597 205.043 213.139 205.043 189.581C205.043 166.022 228.14 149.366 251.846 149.366C275.552 149.366 289.674 161.386 289.674 184.944Z" fill="white"/>
<mask id="mask1_291_2848" style="mask-type:luminance" maskUnits="userSpaceOnUse" x="205" y="149" width="85" height="79">
<path d="M289.674 184.944C289.672 196.257 285.148 207.106 277.097 215.105C269.047 223.103 258.129 227.597 246.745 227.597C223.049 227.597 205.043 213.139 205.043 189.581C205.043 166.022 228.14 149.366 251.846 149.366C275.552 149.366 289.674 161.386 289.674 184.944Z" fill="white"/>
</mask>
<g mask="url(#mask1_291_2848)">
<g style="mix-blend-mode:multiply" opacity="0.5">
<path d="M251.846 149.366C228.14 149.366 205.043 166.022 205.043 189.581C205.05 192.55 205.374 195.511 206.009 198.413C211.148 191.28 223.204 179.059 248.011 173.309C261.635 170.259 275.857 171.206 288.95 176.035C285.675 158.4 272.354 149.366 251.846 149.366Z" fill="#407BFF"/>
</g>
<g style="mix-blend-mode:multiply" opacity="0.5">
<path d="M284.806 204.662C287.995 198.574 289.653 191.808 289.636 184.944C289.636 177.264 288.129 170.851 285.299 165.648C285.377 174.05 284.581 182.437 282.922 190.675C281.543 187.487 279.536 184.605 277.02 182.198C272.567 178.003 263.651 177.773 262.008 183.158C262.008 183.158 263.177 190.387 267.408 192.48C270.451 193.847 273.697 194.713 277.02 195.043C277.655 196.43 278.531 197.694 279.609 198.778C279.928 199.046 280.179 199.248 280.401 199.421C275.03 213.917 265.602 220.243 254.02 223.421C242.601 226.57 230.333 223.93 222.335 221.309C229.732 225.568 238.159 227.739 246.707 227.587C254.555 227.588 262.252 225.45 268.962 221.406C275.673 217.363 281.139 211.568 284.767 204.653L284.806 204.662Z" fill="#407BFF"/>
</g>
</g>
<path d="M289.674 184.944C289.672 196.257 285.148 207.106 277.097 215.105C269.047 223.103 258.129 227.597 246.745 227.597C223.049 227.597 205.043 213.139 205.043 189.581C205.043 166.022 228.14 149.366 251.846 149.366C275.552 149.366 289.674 161.386 289.674 184.944Z" stroke="#263238" stroke-linecap="round" stroke-linejoin="round"/>
<path d="M258.531 168C259.419 170.294 259.265 172.493 258.202 172.896C257.14 173.299 255.536 171.782 254.647 169.478C253.759 167.174 253.913 164.986 254.976 164.582C256.038 164.179 257.632 165.686 258.531 168Z" fill="#263238"/>
<path d="M271.823 165.59C272.711 167.885 272.566 170.074 271.494 170.486C270.422 170.899 268.838 169.363 267.949 167.069C267.06 164.774 267.205 162.576 268.277 162.163C269.35 161.75 270.934 163.286 271.823 165.59Z" fill="#263238"/>
<path d="M252.821 201.696C252.821 201.696 235.752 200.736 239.172 184.742" stroke="#263238" stroke-linecap="round" stroke-linejoin="round"/>
<path d="M244.05 184.253L235.269 185.222" stroke="#263238" stroke-linecap="round" stroke-linejoin="round"/>
<path d="M209.506 184.08C209.506 184.08 209.506 187.066 213.795 189.197" stroke="#263238" stroke-linecap="round" stroke-linejoin="round"/>
<path d="M210.791 190.896C210.791 190.896 214.22 193.882 217.224 193.882" stroke="#263238" stroke-linecap="round" stroke-linejoin="round"/>
<path d="M249.054 161.53C249.244 160.116 249.966 158.827 251.073 157.921C252.18 157.014 253.592 156.558 255.024 156.643" stroke="#263238" stroke-linecap="round" stroke-linejoin="round"/>
<path d="M265.727 156.643C265.727 156.643 269.929 154.55 272.035 158.909" stroke="#263238" stroke-linecap="round" stroke-linejoin="round"/>
<path d="M266.51 171.926C264.347 173.428 262.739 175.593 261.931 178.09C260.868 181.978 262.684 187.786 267.292 188.381C270.462 188.637 273.647 188.14 276.585 186.931C279.966 187.489 283.426 187.345 286.747 186.509C292.263 185.126 291.916 182.16 291.916 182.16C291.916 182.16 293.5 182.726 298.967 180.97C304.435 179.213 305.082 174.998 305.082 174.998C305.082 174.998 306.241 175.238 310.588 173.606C314.935 171.974 319.051 171.504 319.157 169.238C319.263 166.973 306.039 166.992 303.092 167.712C300.146 168.432 297.451 167.981 293.712 168.413C291.546 168.644 289.44 169.268 287.501 170.256C287.501 170.256 282.806 168.922 279.821 169.296C278.185 169.47 276.569 169.791 274.991 170.256C274.991 170.256 268.403 168.701 266.51 171.926Z" fill="#407BFF" stroke="#263238" stroke-linecap="round" stroke-linejoin="round"/>
<path d="M275.01 170.189C274.285 170.702 273.705 171.392 273.324 172.192C272.944 172.992 272.776 173.876 272.837 174.758" stroke="#263238" stroke-linecap="round" stroke-linejoin="round"/>
<path d="M272.837 177.043C272.73 178.153 273.029 179.264 273.678 180.173" stroke="#263238" stroke-linecap="round" stroke-linejoin="round"/>
<path d="M288.341 174.72C288.016 176.173 288.192 177.693 288.84 179.035C289.488 180.377 290.571 181.464 291.915 182.122" stroke="#263238" stroke-linecap="round" stroke-linejoin="round"/>
<path d="M303.43 169.344C303.43 169.344 302.802 170.17 303.643 172.224" stroke="#263238" stroke-linecap="round" stroke-linejoin="round"/>
<path d="M128.294 319.546C127.763 320.87 125.329 321.149 122.846 320.17C120.364 319.19 118.779 317.29 119.311 315.994C119.842 314.698 122.286 314.39 124.769 315.37C127.251 316.349 128.826 318.221 128.294 319.546Z" fill="white" stroke="#263238" stroke-linecap="round" stroke-linejoin="round"/>
<path d="M108.569 242.794C108.038 244.118 105.594 244.397 103.111 243.418C100.628 242.438 99.0537 240.538 99.585 239.242C100.116 237.946 102.56 237.638 105.033 238.618C107.506 239.597 109.1 241.459 108.569 242.794Z" fill="white" stroke="#263238" stroke-linecap="round" stroke-linejoin="round"/>
<path d="M162.829 162.24C162.298 163.565 159.863 163.843 157.381 162.864C154.898 161.885 153.323 159.984 153.855 158.688C154.386 157.392 156.82 157.085 159.303 158.064C161.786 159.043 163.36 160.944 162.829 162.24Z" fill="white" stroke="#263238" stroke-linecap="round" stroke-linejoin="round"/>
<path d="M356.135 284.458C355.604 285.782 353.16 286.061 350.677 285.082C348.195 284.102 346.62 282.202 347.151 280.906C347.683 279.61 350.127 279.302 352.6 280.282C355.073 281.261 356.667 283.123 356.135 284.458Z" fill="white" stroke="#263238" stroke-linecap="round" stroke-linejoin="round"/>
<path d="M388.516 134.266C387.984 135.59 385.54 135.869 383.058 134.89C380.575 133.91 379 132.01 379.532 130.714C380.063 129.418 382.497 129.11 384.98 130.09C387.463 131.069 389.037 132.941 388.516 134.266Z" fill="white" stroke="#263238" stroke-linecap="round" stroke-linejoin="round"/>
<path d="M223.04 208.81C222.509 210.134 220.074 210.413 217.592 209.434C215.109 208.454 213.534 206.554 214.066 205.258C214.597 203.962 217.031 203.654 219.514 204.634C221.997 205.613 223.571 207.485 223.04 208.81Z" fill="white" stroke="#263238" stroke-linecap="round" stroke-linejoin="round"/>
<path d="M393.268 363.206C392.737 364.531 390.303 364.81 387.82 363.83C385.337 362.851 383.763 360.95 384.284 359.654C384.806 358.358 387.26 358.051 389.742 359.03C392.225 360.01 393.799 361.92 393.268 363.206Z" fill="white" stroke="#263238" stroke-linecap="round" stroke-linejoin="round"/>
<path d="M311.496 395.702C314.783 395.702 317.447 393.222 317.447 390.163C317.447 387.104 314.783 384.624 311.496 384.624C308.21 384.624 305.546 387.104 305.546 390.163C305.546 393.222 308.21 395.702 311.496 395.702Z" fill="white" stroke="#263238" stroke-linecap="round" stroke-linejoin="round"/>
<path d="M339.752 394.973C339.752 395.704 339.534 396.418 339.125 397.026C338.716 397.634 338.136 398.108 337.456 398.387C336.776 398.667 336.029 398.74 335.307 398.598C334.586 398.455 333.923 398.103 333.403 397.586C332.883 397.069 332.529 396.411 332.385 395.694C332.242 394.977 332.315 394.234 332.597 393.558C332.878 392.883 333.355 392.306 333.967 391.9C334.578 391.494 335.297 391.277 336.033 391.277C337.019 391.277 337.965 391.666 338.663 392.359C339.36 393.052 339.752 393.993 339.752 394.973Z" fill="white" stroke="#263238" stroke-linecap="round" stroke-linejoin="round"/>
<path d="M102.077 150.173C101.556 151.507 99.1116 151.786 96.629 150.806C94.1464 149.827 92.5718 147.926 93.1031 146.63C93.6344 145.334 96.0687 145.018 98.5513 145.997C101.034 146.976 102.609 148.848 102.077 150.173Z" fill="white" stroke="#263238" stroke-linecap="round" stroke-linejoin="round"/>
<path d="M322.828 124.56C322.451 125.52 320.702 125.712 318.964 125.011C317.225 124.31 316.066 122.976 316.442 122.026C316.819 121.075 318.567 120.874 320.306 121.574C322.045 122.275 323.204 123.61 322.828 124.56Z" fill="white" stroke="#263238" stroke-linecap="round" stroke-linejoin="round"/>
<path d="M176.652 92.304C176.266 93.264 174.527 93.456 172.788 92.7552C171.05 92.0544 169.89 90.72 170.267 89.7696C170.644 88.8192 172.392 88.6176 174.131 89.3184C175.87 90.0192 177.029 91.3536 176.652 92.304Z" fill="white" stroke="#263238" stroke-linecap="round" stroke-linejoin="round"/>
<path d="M63.8623 273.878C63.4856 274.838 61.7371 275.03 59.9983 274.33C58.2595 273.629 57.1003 272.285 57.4674 271.334C57.8345 270.384 59.5926 270.192 61.3314 270.883C63.0702 271.574 64.2487 272.928 63.8623 273.878Z" fill="white" stroke="#263238" stroke-linecap="round" stroke-linejoin="round"/>
<path d="M423.214 282.144C422.828 283.104 421.089 283.296 419.35 282.595C417.612 281.894 416.452 280.56 416.819 279.61C417.187 278.659 418.945 278.458 420.683 279.158C422.422 279.859 423.591 281.194 423.214 282.144Z" fill="white" stroke="#263238" stroke-linecap="round" stroke-linejoin="round"/>
<path d="M275.02 99.1584C274.644 100.118 272.895 100.31 271.156 99.6096C269.417 98.9088 268.258 97.5648 268.625 96.6144C268.992 95.664 270.751 95.4624 272.489 96.1632C274.228 96.864 275.407 98.208 275.02 99.1584Z" fill="white" stroke="#263238" stroke-linecap="round" stroke-linejoin="round"/>
<path d="M128.13 330.49C127.754 331.45 126.005 331.642 124.266 330.941C122.528 330.24 121.368 328.906 121.735 327.955C122.103 327.005 123.861 326.803 125.599 327.504C127.338 328.205 128.478 329.539 128.13 330.49Z" fill="white" stroke="#263238" stroke-linecap="round" stroke-linejoin="round"/>
<path d="M340.728 339.35C340.351 340.31 338.602 340.502 336.864 339.802C335.125 339.101 333.966 337.766 334.333 336.816C334.7 335.866 336.458 335.664 338.197 336.365C339.935 337.066 341.114 338.4 340.728 339.35Z" fill="white" stroke="#263238" stroke-linecap="round" stroke-linejoin="round"/>
<path d="M253.517 329.962C253.14 330.922 251.392 331.114 249.653 330.413C247.914 329.712 246.755 328.368 247.122 327.427C247.489 326.486 249.247 326.275 250.986 326.976C252.725 327.677 253.903 329.011 253.517 329.962Z" fill="white" stroke="#263238" stroke-linecap="round" stroke-linejoin="round"/>
<defs>
<linearGradient id="paint0_linear_291_2848" x1="800" y1="0" x2="800" y2="600" gradientUnits="userSpaceOnUse">
<stop stop-color="#1E7CFF"/>
<stop offset="1" stop-color="white"/>
</linearGradient>
<linearGradient id="paint1_linear_291_2848" x1="800" y1="0" x2="800" y2="600" gradientUnits="userSpaceOnUse">
<stop stop-color="#8AB9FF"/>
<stop offset="1" stop-color="white" stop-opacity="0"/>
</linearGradient>
</defs>
</svg>
