<svg width="500" height="500" viewBox="0 0 500 500" fill="none" xmlns="http://www.w3.org/2000/svg">
<g clip-path="url(#clip0_480_4)">
<path d="M132.549 262.243L124.989 263.611L123.504 255.421L114.522 257.05L116.007 265.24L108.456 266.608L110.139 275.905L117.69 274.537L119.175 282.727L128.157 281.107L126.672 272.908L134.232 271.54L132.549 262.243Z" stroke="#458DFC" stroke-linecap="round" stroke-linejoin="round"/>
<path d="M208.023 136.783L200.778 134.227L203.55 126.379L194.946 123.337L192.174 131.185L184.929 128.629L181.788 137.539L189.024 140.095L186.252 147.952L194.856 150.985L197.637 143.137L204.873 145.693L208.023 136.783Z" stroke="#458DFC" stroke-linecap="round" stroke-linejoin="round"/>
<path d="M390.759 230.581L383.973 234.172L380.076 226.81L372.003 231.076L375.9 238.438L369.114 242.029L373.533 250.381L380.319 246.79L384.216 254.143L392.289 249.877L388.392 242.515L395.178 238.924L390.759 230.581Z" stroke="#458DFC" stroke-linecap="round" stroke-linejoin="round"/>
<path d="M100.978 242.731C104.02 242.731 106.486 240.265 106.486 237.223C106.486 234.181 104.02 231.715 100.978 231.715C97.9357 231.715 95.4697 234.181 95.4697 237.223C95.4697 240.265 97.9357 242.731 100.978 242.731Z" stroke="#458DFC" stroke-linecap="round" stroke-linejoin="round"/>
<path d="M186.774 163.585C186.774 163.873 186.689 164.155 186.529 164.395C186.368 164.635 186.141 164.822 185.874 164.932C185.608 165.042 185.315 165.071 185.032 165.015C184.749 164.959 184.489 164.82 184.285 164.616C184.082 164.412 183.943 164.152 183.886 163.869C183.83 163.587 183.859 163.293 183.969 163.027C184.08 162.761 184.267 162.533 184.506 162.373C184.746 162.213 185.028 162.127 185.316 162.127C185.703 162.127 186.074 162.281 186.347 162.554C186.621 162.827 186.774 163.198 186.774 163.585Z" stroke="#458DFC" stroke-linecap="round" stroke-linejoin="round"/>
<path d="M120.058 138.574C120.058 139.592 119.756 140.587 119.19 141.434C118.624 142.281 117.82 142.94 116.88 143.33C115.939 143.72 114.904 143.822 113.905 143.623C112.907 143.424 111.989 142.934 111.27 142.214C110.55 141.494 110.059 140.577 109.861 139.578C109.662 138.58 109.764 137.545 110.154 136.604C110.543 135.663 111.203 134.859 112.05 134.294C112.896 133.728 113.892 133.426 114.91 133.426C116.274 133.428 117.582 133.972 118.547 134.936C119.512 135.901 120.055 137.209 120.058 138.574Z" stroke="#458DFC" stroke-linecap="round" stroke-linejoin="round"/>
<path d="M346.884 208.306C346.884 208.883 346.713 209.447 346.392 209.926C346.072 210.406 345.616 210.779 345.084 211C344.551 211.221 343.965 211.278 343.399 211.166C342.833 211.053 342.314 210.776 341.906 210.368C341.498 209.96 341.22 209.441 341.108 208.875C340.995 208.309 341.053 207.723 341.274 207.19C341.494 206.657 341.868 206.202 342.348 205.881C342.827 205.561 343.391 205.39 343.968 205.39C344.741 205.39 345.483 205.697 346.03 206.244C346.577 206.791 346.884 207.533 346.884 208.306Z" stroke="#458DFC" stroke-linecap="round" stroke-linejoin="round"/>
<path d="M317.409 119.431C321.012 119.431 323.934 116.51 323.934 112.906C323.934 109.302 321.012 106.381 317.409 106.381C313.805 106.381 310.884 109.302 310.884 112.906C310.884 116.51 313.805 119.431 317.409 119.431Z" stroke="#458DFC" stroke-linecap="round" stroke-linejoin="round"/>
<path d="M361.5 320.5C423.632 258.368 423.632 157.632 361.5 95.5C299.368 33.368 198.632 33.368 136.5 95.5C74.3679 157.632 74.368 258.368 136.5 320.5C198.632 382.632 299.368 382.632 361.5 320.5Z" fill="#B2CAFF"/>
<path d="M248.69 367.693C212.42 367.59 177.265 355.15 149.003 332.418C120.741 309.687 101.054 278.016 93.1771 242.612C74.0919 156.697 128.474 71.2648 214.41 52.1796C300.346 33.0945 385.767 87.4872 404.842 173.402C409.387 193.865 409.856 215.024 406.223 235.669C402.591 256.314 394.927 276.041 383.671 293.724C372.414 311.407 357.785 326.7 340.618 338.73C323.451 350.759 304.083 359.29 283.62 363.834C272.152 366.392 260.439 367.686 248.69 367.693ZM249.309 49.3798C237.641 49.3878 226.009 50.6713 214.62 53.2073C129.261 72.1666 75.2454 157.022 94.1943 242.392C100.69 271.534 115.284 298.248 136.296 319.46C157.308 340.673 183.883 355.52 212.962 362.292C242.041 369.064 272.441 367.487 300.663 357.741C328.885 347.995 353.78 330.477 372.484 307.204C391.187 283.932 402.938 255.85 406.383 226.192C409.828 196.534 404.827 166.506 391.956 139.566C379.085 112.625 358.868 89.8675 333.631 73.9122C308.395 57.957 279.166 49.4531 249.309 49.3798Z" fill="#263238"/>
<path d="M242.963 359.042C234.207 358.695 225.498 357.583 216.936 355.718L217.166 354.669C225.667 356.514 234.313 357.616 243.005 357.962L242.963 359.042Z" fill="#263238"/>
<path d="M210.58 354.187C206.134 353.023 201.688 351.628 197.367 350.045L197.724 349.069C202.023 350.632 206.438 352.016 210.842 353.18L210.58 354.187Z" fill="#263238"/>
<path d="M110.95 149.147L109.985 148.728C113.812 139.787 118.486 131.233 123.943 123.183L124.813 123.77C119.391 131.766 114.749 140.264 110.95 149.147Z" fill="#263238"/>
<path d="M227.443 137.35L243.665 140.705L249.192 146.442L256.396 147.553L258.692 154.39L257.015 159.015L252.097 161.269L240.058 159.298L239.733 157.83L245.417 153.855L241.495 146.609L230.725 145.131L224.989 140.213L227.443 137.35Z" fill="white"/>
<path d="M252.16 161.815L239.576 159.717L239.094 157.557L244.693 153.656L241.118 147.05L230.453 145.592L224.161 140.234L227.16 136.731L243.844 140.192L249.36 145.907L256.7 147.039L259.154 154.38L257.403 159.403L252.16 161.815ZM240.478 158.847L252.013 160.724L256.585 158.627L258.126 154.369L256.029 148.014L248.961 146.966L243.414 141.219L227.685 137.958L225.766 140.192L231.009 144.659L241.894 146.158L246.172 154.055L240.384 158.092L240.478 158.847Z" fill="#263238"/>
<path d="M358.156 287.022L345.3 284.851L329.759 282.88L318.339 285.417L307.15 285.575L295.93 290.818L289.376 292.663L285.328 293.565L278.565 299.71L271.853 304.293L260.549 300.192L260.832 289.297L253.995 288.112L246.655 289.748L244.809 286.676L244.075 279.88L240.677 276.735L235.675 278.612L234.962 282.67L228.775 284.431L221.75 279.01L217.555 270.621L220.795 259.086L231.691 257.503L235.214 259.432L239.629 258.446L244.421 253.906L249.549 254.315L258.714 264.266L261.22 263.322L258.599 255.007L255.4 251.074L254.582 243.912L266.914 234.988L265.729 220.937L270.564 214.834L273.468 205.291L276.992 203.739L284.238 196.325L283.955 193.295L278.145 194.972L276.383 192.267L272.325 193.169L266.39 196.032L268.267 190.589L280.358 184.035L282.57 180.061L289.523 187.024L293.581 189.603L298.415 186.992L295.154 182.651L286.167 178.855L275.115 170.864L264.502 166.67L255.327 167.163L249.926 163.723L243.697 163.555L243.289 165.191L244.924 176.045L247.221 179.4L246.518 191.931L237.846 187.674V182.273L229.279 180.302L225.084 176.988L224.885 167.362L233.851 157.242L232.624 148.235L228.587 149.493L225.273 146.746L222.935 141.502L220.281 141.712L220.114 147.941L216.223 149.493L211.515 136.993L208.117 135.861L202.465 134.812L197.222 139.07L206.146 144.428L209.009 150.374L193.531 143.369L182.111 135.462L179.154 125.668L168.919 124.85L162.627 131.278C161.081 132.765 159.453 134.165 157.751 135.473C156.074 136.626 149.226 138.912 149.226 138.912L149.142 145.508L140.753 147.763L142.389 151.653L156.514 150.835L165.239 157.022L168.101 169.92L166.591 182.252L170.031 194.249L163.739 214.603L167.504 242.004L174.257 256.748L181.671 267.486L187.365 266.993L184.219 261.498L180.287 257.733L176.658 249.973L179.804 248.495L187.91 260.648L194.202 271.628L196.299 281.212L205.181 288.133L219.768 294.572L240.08 295.474L247.2 299.668L252.936 304.586L260.476 307.166L269.074 307.575L277.097 305.404C277.097 305.404 277.547 309.179 277.956 311.014C278.365 312.85 274.601 320.274 274.601 320.274L272.178 328.548L276.929 336.003L285.779 337.524L299.82 346.773L305.473 347.822L306.7 353.348L307.916 355.781C335.557 344.777 359.542 326.214 377.126 302.216L376.727 299.5L382.663 279.23L377.136 276.976L358.156 287.022Z" fill="white"/>
<path d="M307.737 356.462L306.269 353.474L305.116 348.283L299.61 347.234L285.653 338.038L276.687 336.496L271.685 328.652L274.171 320.148C275.628 317.254 277.788 312.367 277.516 311.151C277.201 309.735 276.876 307.239 276.729 306.096L269.2 308.131L260.371 307.68L252.663 305.006L246.917 300.056L239.975 295.956L219.6 295.012L204.919 288.521L195.879 281.474L193.782 271.785L187.49 260.879L179.657 249.166L177.381 250.214L180.758 257.345L184.711 261.162L188.277 267.37L181.461 267.957L173.879 256.978L167.031 242.004L163.214 214.508L169.506 194.196L166.088 182.242L167.608 169.899L164.798 157.316L156.409 151.349L142.084 152.178L140.061 147.396L148.659 145.099L148.743 138.524L149.089 138.409C149.163 138.409 155.884 136.123 157.478 135.032C159.158 133.749 160.765 132.373 162.292 130.911L168.762 124.315L179.605 125.186L182.593 135.148L193.877 142.95L207.949 149.304L205.779 144.816L196.341 139.143L202.35 134.256L208.243 135.368L211.903 136.658L216.506 148.811L219.589 147.522L219.757 141.167L223.259 140.894L225.692 146.4L228.691 148.885L232.991 147.511L234.333 157.379L225.336 167.519L225.535 176.695L229.467 179.788L238.307 181.822V187.317L245.994 191.082L246.633 179.547L244.358 176.128L242.722 165.139L243.267 163.041L250.062 163.125L255.452 166.554L264.576 166.061L275.418 170.466L286.429 178.414L295.468 182.263L299.201 187.16L293.56 190.212L289.156 187.401L282.685 180.921L280.735 184.423L268.697 190.956L267.292 195.014L272.21 192.655L276.624 191.68L278.365 194.364L284.416 192.613L284.783 196.514L277.201 204.211L273.898 205.679L270.972 215.117L266.264 221.052L267.459 235.188L255.138 244.111L255.903 250.823L259.049 254.807L261.828 263.595L258.567 264.843L249.297 254.776L244.62 254.399L239.891 258.887L235.13 259.935L231.585 257.995L221.246 259.6L218.152 270.631L222.19 278.695L228.89 283.865L234.501 282.271L235.151 278.286L240.73 276.189L244.515 279.66L245.26 286.539L246.843 289.182L253.953 287.609L261.293 288.888L261.01 299.857L271.78 303.642L278.281 299.207L285.087 293.02L289.281 292.087L295.814 290.251L307.171 285.008L318.297 284.851L329.759 282.345L345.373 284.327L358.072 286.476L377.168 276.409L383.365 278.937L377.325 299.553L377.744 302.363L377.618 302.541C359.967 326.62 335.896 345.244 308.157 356.284L307.737 356.462ZM307.276 353.18L308.251 355.131C335.549 344.161 359.246 325.792 376.675 302.09L376.287 299.479V299.364L382.096 279.545L377.23 277.563L358.24 287.567L345.205 285.365L329.759 283.414L318.308 285.942L307.245 286.099L296.202 291.258L289.533 293.156L285.58 294.037L278.931 300.088L271.937 304.869L259.983 300.591L260.266 289.769L253.974 288.72L246.34 290.419L244.243 286.801L243.519 280.205L240.509 277.437L236.095 279.104L235.434 283.152L228.67 285.071L221.33 279.325L217.062 270.789L220.438 258.719L231.806 256.999L235.308 258.918L239.398 258.006L244.253 253.402L249.811 253.853L258.881 263.689L260.591 263.05L258.147 255.3L254.897 251.211L254.026 243.587L266.369 234.663L265.184 220.695L270.091 214.508L273.038 204.84L276.687 203.225L283.703 196.052L283.493 193.903L277.914 195.507L276.142 192.781L272.493 193.599L265.477 196.986L267.837 190.149L279.97 183.574L282.444 179.127L289.858 186.541L293.602 188.932L297.629 186.741L294.808 183.049L285.863 179.243L274.863 171.284L264.376 167.089L255.148 167.582L249.769 164.174L244.106 164.027L243.823 165.149L245.427 175.782L247.755 179.19L247 192.697L237.322 187.936V182.619L228.932 180.648L224.528 177.177L224.308 167.1L233.284 157.043L232.173 148.895L228.523 150.059L224.895 147.05L222.662 141.995L220.837 142.132L220.68 148.224L215.971 150.206L211.158 137.434L208.012 136.322L202.675 135.274L198.176 139.007L206.565 144.061L210.12 151.402L193.342 143.799L181.681 135.745L178.755 126.119L169.118 125.353L162.984 131.645C161.412 133.134 159.76 134.534 158.034 135.84C156.514 136.888 151.176 138.724 149.739 139.216L149.656 145.844L141.455 148.035L142.714 151.035L156.66 150.227L165.7 156.634L168.625 169.826L167.115 182.137L170.565 194.186L164.274 214.571L168.007 241.836L174.728 256.517L181.922 266.919L186.494 266.531L183.789 261.823L179.804 257.943L175.934 249.774L179.972 247.887L188.361 260.386L194.747 271.533L196.844 280.971L205.527 287.735L219.956 294.1L240.3 295.002L247.546 299.291L253.271 304.198L260.612 306.725L269.053 307.124L277.589 304.817L277.663 305.415C277.663 305.415 278.113 309.179 278.512 310.983C278.91 312.787 275.754 319.32 275.104 320.588L272.797 328.537L277.296 335.594L286.104 337.157L300.072 346.353L305.955 347.465L307.276 353.18Z" fill="#263238"/>
<path d="M364.154 132.904L358.544 126.801L351.581 119.838L347.659 109.11L354.538 108.743L354.087 104.968L349.211 105.671L352.829 102.923L356.677 99.3578L355.86 95.677L350.155 90.7694L347.449 83.041C320.202 61.5889 286.695 49.6208 252.023 48.9564C217.35 48.292 183.41 58.9677 155.36 79.3603L165.197 83.4919L161.516 91.2728L154.836 94.3033L156.315 104.402L153.588 106.174L150.799 111.04L152.644 117.594L159.073 116.943L157.888 123.78L164.179 122.386L171.845 106.373L171.625 100.207L181.786 97.1766L183.38 92.1746L193.866 88.6931L193.583 82.1811L201.238 80.0838C201.238 80.0838 206.114 75.8893 207.226 75.6691C208.337 75.4489 213.895 76.12 213.895 76.12L220.407 79.2659L228.146 77.5566L233.882 72.0198L242.523 70.8768C243.917 71.4169 245.42 71.6147 246.906 71.4536C248.752 71.0446 253.712 67.259 253.712 67.259L265.792 71.5794L271.035 73.9178L272.262 79.4442L277.956 78.9513L279.057 75.2286L284.301 76.3717L284.584 79.4022L274.181 84.8132L282.245 91.5244L297.157 95.9497L304.33 102.095L312.593 101.046L313.641 96.9459L316.431 95.5512L305.21 90.308L299.149 90.8848L303.543 88.3366L297.734 83.0934L303.963 81.3317L313.054 83.9533L316.861 92.3948L321.978 96.2853L327.662 106.195L337.099 110.295L339.805 122.459L349.505 126.108L350.04 130.24V135.274L353.72 141.419L355.199 144.564L361.711 144.281L363.263 137.36L364.154 132.904Z" fill="white"/>
<path d="M354.821 145.11L353.195 141.639L349.462 135.42V130.24L348.969 126.486L339.301 122.847L336.637 110.694L327.294 106.635L321.579 96.6313L316.43 92.7199L312.676 84.3308L303.962 81.8141L298.824 83.2822L304.476 88.41L301.508 90.0983L305.283 89.7418L317.615 95.5093L314.029 97.3024L312.98 101.497L304.119 102.64L296.863 96.4111L281.878 91.9229L273.195 84.6978L283.985 79.0876L283.776 76.7911L279.424 75.8369L278.375 79.4442L271.863 80L270.594 74.2849L265.676 72.0618L253.827 67.8672C252.778 68.6747 248.783 71.6213 247.042 72.0093C245.502 72.2058 243.938 72.0148 242.491 71.4536L234.102 72.5651L228.387 78.0705L220.323 79.8636L213.727 76.6233C211.606 76.3092 209.464 76.1585 207.32 76.1724C206.701 76.3088 203.912 78.4794 201.563 80.4823L201.363 80.5977L194.107 82.5691L194.39 89.0602L183.82 92.5836L182.226 97.5856L172.19 100.585L172.358 106.499L164.535 122.858L157.258 124.473L158.453 117.541L152.277 118.17L150.253 110.987L153.21 105.807L155.737 104.161L154.259 93.9887L161.117 90.8428L164.493 83.7331L154.301 79.4547L155.056 78.9094C183.195 58.4453 217.248 47.7316 252.035 48.3979C286.822 49.0642 320.439 61.074 347.774 82.6006L347.889 82.6949L350.605 90.4339L356.362 95.3729L357.285 99.5675L353.216 103.353L351.119 104.905L354.506 104.423L355.093 109.278L348.361 109.634L352.01 119.586L358.889 126.475L364.688 132.767L363.692 137.497L362.046 144.837L354.821 145.11ZM350.511 135.137L354.118 141.156L355.471 144.04L361.228 143.778L362.707 137.255L363.587 133.061L358.155 127.157L351.088 120.016L346.893 108.617L353.929 108.25L353.604 105.566L347.271 106.499L352.514 102.525L356.132 99.1585L355.419 96.0126L349.682 91.0631L346.987 83.3556C319.957 62.1201 286.762 50.2369 252.396 49.4937C218.03 48.7504 184.352 59.1875 156.429 79.2344L165.867 83.2193L161.861 91.6713L155.37 94.6179L156.838 104.674L153.997 106.499L151.385 111.071L153.042 116.985L159.722 116.314L158.558 123.057L163.801 121.893L171.289 106.226L171.079 99.8087L181.355 96.7362L182.949 91.8181L193.278 88.3785L192.985 81.8455L200.933 79.6749C201.982 78.815 205.915 75.4803 207.058 75.2182C208.201 74.956 213.349 75.5852 213.905 75.6586L214.073 75.711L220.428 78.8569L227.852 77.1372L233.598 71.5899L242.543 70.4049H242.669C243.965 70.9125 245.364 71.1031 246.748 70.9607C248.175 70.6461 251.992 67.8777 253.344 66.8396L253.575 66.6613L266.001 71.0236L271.444 73.4774L272.629 78.815L277.505 78.3955L278.648 74.547L284.782 75.8788L285.139 79.6434L275.124 84.8866L282.465 91.0316L297.46 95.5302L304.444 101.528L312.131 100.48L313.127 96.5055L315.161 95.4568L305.053 90.7275L296.663 91.5245L302.63 88.1269L296.653 82.7054L303.889 80.6082L313.326 83.3451L317.175 91.881L322.418 96.0126L328.028 105.817L337.529 109.949L340.245 122.071L349.987 125.72L350.553 130.177L350.511 135.137Z" fill="#263238"/>
<path d="M360.704 94.7018L361.175 96.7991L360.641 103.091L362.885 107.998L367.268 108.575L368.83 115.58L363.996 114.72L367.31 134.865L364.688 143.956L369.932 153.625L375.699 156.991L380.124 176.915L388.356 191.334L396.137 201.977L405.103 202.313L406.414 194.28L407.41 193.074C406.78 186.491 405.747 179.953 404.316 173.496C397.708 143.565 382.558 116.194 360.704 94.7018Z" fill="white"/>
<path d="M405.543 202.869L395.864 202.512L387.926 191.659L379.61 177.051L375.238 157.368L369.533 154.044L364.122 144.061L366.775 134.875L363.315 114.112L368.107 114.972L366.796 109.089L362.497 108.523L360.064 103.227L360.599 96.862L359.76 93.0869L361.029 94.3348C387.751 120.716 404.337 155.66 407.882 193.043V193.263L406.833 194.532L405.543 202.869ZM396.41 201.484L404.662 201.788L405.921 194.081L406.865 192.928C406.234 186.44 405.211 179.997 403.802 173.633C397.347 144.389 382.713 117.583 361.605 96.3377L361.7 96.7886L361.175 103.08L363.273 107.6L367.74 108.187L369.544 116.314L364.667 115.444L367.876 134.98L365.286 143.988L370.351 153.331L376.192 156.729L380.617 176.758L388.807 191.103L396.41 201.484Z" fill="#263238"/>
<path d="M275.041 111.312L248.332 106.017L237.73 108.764L236.703 116.335L231.218 112.529L223.521 116.178L225.482 128.499L233.179 131.824L236.42 123.749L243.173 128.059L256.816 135.473L261.398 145.666L273.678 155.701L288.589 149.682L286.995 144.239L282.287 138.713L278.271 124.127L280.567 117.038L275.041 111.312Z" fill="white"/>
<path d="M273.594 156.309L261.01 145.991L256.406 135.861L242.921 128.52L236.629 124.546L233.42 132.526L224.968 128.877L222.871 115.884L231.208 111.941L236.241 115.433L237.195 108.355L248.321 105.45H248.437L275.303 110.777L281.165 116.849L278.816 124.085L282.759 138.409L287.499 144.04L289.229 149.944L273.594 156.309ZM261.828 145.298L273.772 155.061L287.949 149.336L286.523 144.449L281.783 138.807L277.725 124.127L279.969 117.195L274.779 111.805L248.353 106.562L238.202 109.183L237.154 117.258L231.187 113.137L224.119 116.482L225.944 128.132L232.886 131.131L236.157 122.973L243.445 127.608L257.203 135.095L261.828 145.298Z" fill="#263238"/>
<path d="M296.748 114.993L290.887 114.752L286.996 119.869L291.956 129.988L296.748 128.919V114.993Z" fill="white"/>
<path d="M291.661 130.618L286.418 119.838L290.665 114.248L297.303 114.521V129.37L291.661 130.618ZM287.613 119.963L292.238 129.401L296.202 128.52V115.517L291.116 115.308L287.613 119.963Z" fill="#263238"/>
<path d="M332.58 114.385L318.57 110.536L315.015 106.688L312.31 108.449L316.525 115.245L320.866 124.336L326.886 125.322L327.662 123.602L323.121 118.81L333.523 120.362L332.58 114.385Z" fill="white"/>
<path d="M327.2 125.899L320.51 124.85L316.053 115.517L311.597 108.334L315.078 106.006L318.843 110.064L333.031 113.976L334.132 120.991L324.516 119.554L328.26 123.497L327.2 125.899ZM321.223 123.864L326.571 124.735L327.043 123.686L321.695 118.044L332.894 119.722L332.118 114.783L318.297 110.977L314.931 107.348L312.981 108.596L316.934 114.961L321.223 123.864Z" fill="#263238"/>
<path d="M254.498 271.366L253.355 273.159L265.142 274.019L270.71 278.203L277.883 277.385L279.561 272.76L270.763 273.169L254.498 271.366Z" fill="white"/>
<path d="M270.564 278.748L264.953 274.553L252.433 273.641L254.236 270.82L270.815 272.666L280.326 272.215L278.229 277.888L270.564 278.748ZM254.257 272.708L265.331 273.515L270.857 277.71L277.495 276.955L278.795 273.368L270.773 273.735L254.75 271.974L254.257 272.708Z" fill="#263238"/>
<path d="M288.861 271.082L281.604 275.004L283.366 277.71L292.951 275.581L294.146 272.225L290.906 273.326L288.861 271.082Z" fill="white"/>
<path d="M283.125 278.307L280.86 274.816L288.966 270.422L291.064 272.729L294.996 271.376L293.35 276.032L283.125 278.307ZM282.36 275.162L283.608 277.081L292.553 275.099L293.287 273.001L290.749 273.861L288.746 271.659L282.36 275.162Z" fill="#263238"/>
<path d="M270.28 205.966C270.66 206.536 282.13 208.826 288.08 217.476C291.542 222.446 294.446 227.781 296.74 233.386C296.74 233.386 306.69 239.306 311.79 244.186C316.89 249.066 322.97 255.546 327.66 258.946C332.35 262.346 342 268.796 344.43 276.346C344.43 276.346 329.96 315.976 325.87 324.736C321.78 333.496 311.69 352.086 311.69 352.086L293.69 428.556H189.28L185.72 402.326C185.72 402.326 153.72 396.046 140.35 384.326C140.35 384.326 139.09 355.326 144.68 329.456C150.27 303.586 169.28 249.796 182.16 233.366C182.16 233.366 202.73 223.526 220.88 220.366C220.88 220.366 232.66 211.056 240.37 210.066C248.08 209.076 270.28 205.966 270.28 205.966Z" fill="white"/>
<path d="M187.13 414.146C196.4 415.916 204.48 417.446 213.92 417.336C223.36 417.226 233 415.106 240.72 409.696C242.211 408.455 243.902 407.475 245.72 406.796C249.82 405.646 253.88 408.356 257.95 409.616C263.11 411.216 268.77 410.456 273.83 408.536C278.89 406.616 283.44 403.626 287.95 400.646C287.283 409.846 287.066 419.063 287.3 428.296L293.73 428.556L310.2 356.086C310.2 356.086 282.03 388.806 268.3 398.576L241.96 391.796C241.96 391.796 239.48 393.856 234.26 394.896C234.26 394.896 231.87 404.086 218.43 404.106C204.99 404.126 185.72 402.326 185.72 402.326L187.13 414.146Z" fill="#458DFC"/>
<path opacity="0.5" d="M187.13 414.146C196.4 415.916 204.48 417.446 213.92 417.336C223.36 417.226 233 415.106 240.72 409.696C242.211 408.455 243.902 407.475 245.72 406.796C249.82 405.646 253.88 408.356 257.95 409.616C263.11 411.216 268.77 410.456 273.83 408.536C278.89 406.616 283.44 403.626 287.95 400.646C287.283 409.846 287.066 419.063 287.3 428.296L293.73 428.556L310.2 356.086C310.2 356.086 282.03 388.806 268.3 398.576L241.96 391.796C241.96 391.796 239.48 393.856 234.26 394.896C234.26 394.896 231.87 404.086 218.43 404.106C204.99 404.126 185.72 402.326 185.72 402.326L187.13 414.146Z" fill="white"/>
<path d="M160.139 278.926C160.139 278.926 147.909 338.296 148.529 358.686C148.529 358.686 165.149 354.026 176.749 358.686C176.749 358.686 157.009 356.486 148.509 365.536C140.009 374.586 166.169 398.366 218.509 393.536C218.509 393.536 228.949 396.806 234.249 394.886C234.249 394.886 232.829 404.346 218.419 404.096C204.069 403.526 162.089 403.176 140.339 384.336C140.349 384.346 137.609 329.766 160.139 278.926Z" fill="#458DFC"/>
<path opacity="0.6" d="M160.139 278.926C160.139 278.926 147.909 338.296 148.529 358.686C148.529 358.686 165.149 354.026 176.749 358.686C176.749 358.686 157.009 356.486 148.509 365.536C140.009 374.586 166.169 398.366 218.509 393.536C218.509 393.536 228.949 396.806 234.249 394.886C234.249 394.886 232.829 404.346 218.419 404.096C204.069 403.526 162.089 403.176 140.339 384.336C140.349 384.346 137.609 329.766 160.139 278.926Z" fill="white"/>
<path d="M185.149 290.306C185.149 290.306 188.759 316.596 194.589 322.096C200.419 327.596 227.589 325.796 238.349 331.726C238.349 331.726 248.479 314.176 266.799 303.196L241.959 342.306L220.489 337.236L194.279 333.236L192.079 338.296H188.139C188.139 338.296 187.699 310.236 185.149 290.306Z" fill="#458DFC"/>
<path opacity="0.5" d="M185.149 290.306C185.149 290.306 188.759 316.596 194.589 322.096C200.419 327.596 227.589 325.796 238.349 331.726C238.349 331.726 248.479 314.176 266.799 303.196L241.959 342.306L220.489 337.236L194.279 333.236L192.079 338.296H188.139C188.139 338.296 187.699 310.236 185.149 290.306Z" fill="white"/>
<path d="M287.84 236.756C299.07 243.366 300.33 250.816 302.64 256.136C296.8 257.296 290.76 258.536 285.94 262.026C279.94 266.386 276.69 273.606 274.17 280.616C271.786 287.25 269.783 294.014 268.17 300.876C273.598 291.071 281.313 282.721 290.66 276.536C296.05 272.976 302.71 270.106 308.86 272.116C303.7 274.306 297.86 277.266 296.77 282.766C296.556 283.679 296.594 284.633 296.88 285.526C297.8 288.116 301.02 288.816 303.46 290.076C308.22 292.526 310.7 298.076 310.91 303.456C311.12 308.836 309.47 314.036 307.84 319.126C306.407 323.586 304.973 328.046 303.54 332.506C301.71 338.206 299.85 343.986 296.54 348.986C293.23 353.986 288.26 358.176 282.35 359.156C279.879 359.633 277.322 359.343 275.02 358.326C273.275 357.378 271.653 356.219 270.19 354.876C263.1 349.15 254.58 345.471 245.55 344.236C257.17 351.916 262.67 365.866 267.49 378.936C265.277 375.062 262.088 371.835 258.24 369.576C257.254 368.89 256.082 368.52 254.88 368.516C251.72 368.766 250.72 372.796 248.82 375.316C246.54 378.316 242.37 379.386 238.63 378.906C234.89 378.426 231.45 376.676 228.09 374.906L185.58 352.986L182.58 361.986C182.58 361.986 216.44 388.986 268.32 398.536C268.32 398.536 302.02 371.906 313.96 348.296C325.9 324.686 344.45 276.296 344.45 276.296C344.45 276.296 337.66 263.436 326.02 256.726C326.02 256.726 317.33 252.616 315.5 247.536C313.67 242.456 297.34 233.686 297.34 233.686C297.34 233.686 299.46 239.106 287.84 236.756Z" fill="#458DFC"/>
<path opacity="0.6" d="M287.84 236.756C299.07 243.366 300.33 250.816 302.64 256.136C296.8 257.296 290.76 258.536 285.94 262.026C279.94 266.386 276.69 273.606 274.17 280.616C271.786 287.25 269.783 294.014 268.17 300.876C273.598 291.071 281.313 282.721 290.66 276.536C296.05 272.976 302.71 270.106 308.86 272.116C303.7 274.306 297.86 277.266 296.77 282.766C296.556 283.679 296.594 284.633 296.88 285.526C297.8 288.116 301.02 288.816 303.46 290.076C308.22 292.526 310.7 298.076 310.91 303.456C311.12 308.836 309.47 314.036 307.84 319.126C306.407 323.586 304.973 328.046 303.54 332.506C301.71 338.206 299.85 343.986 296.54 348.986C293.23 353.986 288.26 358.176 282.35 359.156C279.879 359.633 277.322 359.343 275.02 358.326C273.275 357.378 271.653 356.219 270.19 354.876C263.1 349.15 254.58 345.471 245.55 344.236C257.17 351.916 262.67 365.866 267.49 378.936C265.277 375.062 262.088 371.835 258.24 369.576C257.254 368.89 256.082 368.52 254.88 368.516C251.72 368.766 250.72 372.796 248.82 375.316C246.54 378.316 242.37 379.386 238.63 378.906C234.89 378.426 231.45 376.676 228.09 374.906L185.58 352.986L182.58 361.986C182.58 361.986 216.44 388.986 268.32 398.536C268.32 398.536 302.02 371.906 313.96 348.296C325.9 324.686 344.45 276.296 344.45 276.296C344.45 276.296 337.66 263.436 326.02 256.726C326.02 256.726 317.33 252.616 315.5 247.536C313.67 242.456 297.34 233.686 297.34 233.686C297.34 233.686 299.46 239.106 287.84 236.756Z" fill="white"/>
<path d="M284.27 144.706C284.27 144.706 286.54 118.236 275.13 115.706C263.72 113.176 257.31 102.706 257.31 102.706L216.83 114.006L210.55 138.346L214.55 150.666C214.55 150.666 215.39 162.096 215.55 167.746C215.71 173.396 215.55 177.746 219.83 184.606C224.11 191.466 228.09 198.276 237.34 204.206V219.796C237.34 219.796 231.62 236.486 234.78 246.726C234.78 246.726 236.67 248.726 241.89 245.726C247.11 242.726 269.44 227.806 277.23 212.226L279.65 172.616C279.65 172.616 286.08 173.616 288.85 167.756C292.92 162.026 292.76 155.346 291.18 149.906C289.6 144.466 282.8 147.986 282.8 147.986L284.27 144.706Z" fill="url(#paint0_angular_480_4)"/>
<path d="M237.78 183.516C238.925 182.27 240.335 181.297 241.907 180.671C243.479 180.044 245.172 179.779 246.86 179.896C246.86 179.896 251.73 172.206 256.86 173.616C256.86 173.616 258.44 181.766 252.29 184.976C244.29 189.146 237.78 183.516 237.78 183.516Z" fill="#F7A9A0"/>
<path d="M222.74 110.636C222.74 110.636 213.05 123.366 213.61 136.636C214.17 149.906 216.1 159.316 215.54 169.556C214.98 179.796 225.78 196.946 236.85 203.856C245.12 209.026 255.49 208.146 263.54 202.856C272.54 196.856 277.49 186.076 279.3 175.726C279.48 174.726 279.62 173.726 279.72 172.646" stroke="#263238" stroke-linecap="round" stroke-linejoin="round"/>
<path d="M236.85 203.866C236.85 203.866 238.42 218.206 236.85 223.116C235.12 228.506 233.03 241.056 234.85 246.726C236.67 252.396 270.72 228.566 277.3 212.216C277.3 212.216 278.21 180.446 280.48 172.506" stroke="#263238" stroke-linecap="round" stroke-linejoin="round"/>
<path d="M235.91 183.166C235.91 183.166 251.4 187.546 257.74 171.556" stroke="#263238" stroke-linecap="round" stroke-linejoin="round"/>
<path d="M237.16 207.316C237.16 207.316 240.46 217.546 247.58 218.156C254.7 218.766 272.51 204.496 278.58 187.686V179.276C278.58 179.276 273.58 201.276 258.94 205.276C244.3 209.276 237.45 204.186 237.45 204.186L237.16 207.316Z" fill="#263238"/>
<path d="M256.85 173.616C249.97 173.136 246.85 179.896 246.85 179.896C245.154 179.689 243.433 179.913 241.847 180.545C240.26 181.178 238.858 182.2 237.77 183.516C239.465 185.037 241.548 186.057 243.789 186.463C246.029 186.869 248.339 186.645 250.46 185.816C258.28 183.096 256.85 173.616 256.85 173.616Z" stroke="#263238" stroke-linecap="round" stroke-linejoin="round"/>
<path d="M239.6 143.456C239.685 146.629 239.545 149.804 239.18 152.956C238.81 155.786 237.5 158.496 236.41 161.156C235.41 163.576 233.74 167.296 235.13 169.846C236.71 172.736 241.96 169.846 241.96 169.846" stroke="#263238" stroke-linecap="round" stroke-linejoin="round"/>
<path d="M245.189 169.246C246.959 169.486 249.469 169.246 249.969 166.176" stroke="#263238" stroke-linecap="round" stroke-linejoin="round"/>
<path d="M250.91 139.636C252.621 138.004 254.895 137.093 257.26 137.093C259.625 137.093 261.899 138.004 263.61 139.636" stroke="#263238" stroke-width="2" stroke-linecap="round" stroke-linejoin="round"/>
<path d="M230.729 142.136C230.729 142.136 226.039 136.136 219.899 142.136" stroke="#263238" stroke-width="2" stroke-linecap="round" stroke-linejoin="round"/>
<path d="M276.04 157.306C276.04 157.306 281.39 144.456 288.37 147.216C293.18 149.126 293.47 157.426 290.92 163.216C288.37 169.006 287.09 174.906 278.59 171.606" stroke="#263238" stroke-linecap="round" stroke-linejoin="round"/>
<path d="M276.989 155.336C276.989 155.336 271.849 153.516 270.899 145.166C269.949 136.816 275.069 128.456 273.169 122.456C271.269 116.456 256.299 119.456 252.889 108.996C252.889 108.996 241.649 117.376 219.889 115.576C219.889 115.576 215.299 123.396 214.499 128.176C213.428 135.65 213.455 143.24 214.579 150.706C214.579 150.966 214.669 151.216 214.719 151.476C216.279 159.616 208.509 140.396 208.719 132.186C208.929 123.976 203.979 113.546 210.429 105.776C216.879 98.0063 240.529 93.4563 245.189 89.8063C249.849 86.1563 258.909 95.8763 269.379 99.4563C279.849 103.036 288.529 107.306 287.209 122.156C285.889 137.006 287.279 138.996 287.339 146.816C287.339 146.836 282.499 145.016 276.989 155.336Z" fill="#263238"/>
<path d="M257.28 150.456C257.28 152.456 256.51 154.116 255.55 154.116C254.59 154.116 253.83 152.476 253.83 150.456C253.83 148.436 254.6 146.806 255.55 146.806C256.5 146.806 257.28 148.456 257.28 150.456Z" fill="#263238"/>
<path d="M230.73 150.456C230.73 152.456 229.96 154.116 229.01 154.116C228.06 154.116 227.29 152.476 227.29 150.456C227.29 148.436 228.06 146.806 229.01 146.806C229.96 146.806 230.73 148.456 230.73 150.456Z" fill="#263238"/>
<path d="M250.91 155.336C250.91 155.336 254.48 159.126 259 159.666" stroke="#263238" stroke-linecap="round" stroke-linejoin="round"/>
<path d="M226.59 159.666C226.59 159.666 233.12 159.206 234.59 155.336" stroke="#263238" stroke-linecap="round" stroke-linejoin="round"/>
<path d="M241.77 249.156C246.63 246.066 253.06 247.226 258.38 249.416C261.3 250.626 264.08 252.146 266.99 253.416C268.428 254.053 269.912 254.581 271.43 254.996C275.08 255.946 273.77 251.416 273.56 249.386C273.26 246.476 273.05 243.556 272.7 240.666C272.556 240.068 272.627 239.438 272.9 238.886C273.258 238.441 273.76 238.134 274.32 238.016C280.73 236.016 287.64 236.896 294.32 237.016C294.926 237.088 295.54 236.973 296.08 236.686C297.08 236.036 296.97 234.566 296.7 233.406C294.39 223.526 286.24 213.696 277.38 208.756" stroke="#263238" stroke-linecap="round" stroke-linejoin="round"/>
<path d="M237.41 210.356C233 212.196 228.47 214.106 224.67 216.926C223.291 217.932 222.021 219.078 220.88 220.346C219.961 221.221 219.383 222.394 219.25 223.656C219.275 224.243 219.43 224.817 219.705 225.336C219.98 225.855 220.368 226.306 220.84 226.656C221.511 227.209 222.251 227.672 223.04 228.036C224.88 228.906 227.04 229.756 227.82 231.606C228.009 231.994 228.079 232.429 228.02 232.856C227.921 233.232 227.728 233.576 227.46 233.856C225.94 235.706 223.26 237.136 223.46 239.526C223.59 241.376 225.46 242.526 227.12 243.346C228.78 244.166 230.72 245.016 231.29 246.786" stroke="#263238" stroke-linecap="round" stroke-linejoin="round"/>
<path d="M211.3 116.586C211.95 112.586 216.13 110.006 220.15 109.356C224.17 108.706 228.3 109.356 232.35 109.006C235.737 108.672 239.013 107.614 241.956 105.904C244.899 104.194 247.441 101.873 249.41 99.0963" stroke="white" stroke-linecap="round" stroke-linejoin="round"/>
<path d="M215.85 105.346C223.11 101.056 233.31 105.516 240.39 100.936C242.393 99.4777 244.137 97.6928 245.55 95.6563" stroke="white" stroke-linecap="round" stroke-linejoin="round"/>
<path d="M308.46 269.456C282.46 274.646 272.76 293.776 272.76 293.776L241.96 342.286" stroke="#263238" stroke-linecap="round" stroke-linejoin="round"/>
<path d="M286.479 264.216C288.637 262.218 291.08 260.553 293.729 259.276" stroke="#263238" stroke-linecap="round" stroke-linejoin="round"/>
<path d="M268.3 300.836C268.3 300.836 271.58 283.316 281 270.406" stroke="#263238" stroke-linecap="round" stroke-linejoin="round"/>
<path d="M188.14 338.216C188.14 338.216 186.79 284.546 182.14 276.346" stroke="#263238" stroke-linecap="round" stroke-linejoin="round"/>
<path d="M296.74 233.386C296.74 233.386 311.74 242.386 318.4 250.846C325.06 259.306 340.8 264.926 344.4 276.346C344.4 276.346 323.67 341.666 301.95 365.276C280.23 388.886 268.27 398.576 268.27 398.576C268.27 398.576 216.02 389.496 182.13 361.036L194.25 333.186C194.25 333.186 228.42 337.506 241.93 342.306C255.44 347.106 268.27 376.176 268.27 376.176" stroke="#263238" stroke-linecap="round" stroke-linejoin="round"/>
<path d="M241.96 342.306C241.96 342.306 265.88 346.956 273.65 357.846" stroke="#263238" stroke-linecap="round" stroke-linejoin="round"/>
<path d="M310.79 353.506L293.73 428.556H189.28L185.72 402.326" stroke="#263238" stroke-linecap="round" stroke-linejoin="round"/>
<path d="M234.26 394.896C228.49 406.716 220.88 404.106 220.88 404.106C162.03 406.336 140.35 384.346 140.35 384.346C140.35 384.346 137.35 353.416 148.92 311.676C160.49 269.936 182.16 233.386 182.16 233.386C191.77 226.996 213.21 222.006 219.26 220.686L220.88 220.346" stroke="#263238" stroke-linecap="round" stroke-linejoin="round"/>
<path d="M220.909 404.106C220.909 404.106 217.799 403.596 218.589 382.976" stroke="#263238" stroke-linecap="round" stroke-linejoin="round"/>
<path d="M183.75 362.356C183.75 362.356 169.05 357.176 150.84 369.776" stroke="#263238" stroke-linecap="round" stroke-linejoin="round"/>
<path d="M154.14 357.846C154.14 357.846 173.4 352.116 182.14 361.296" stroke="#263238" stroke-linecap="round" stroke-linejoin="round"/>
<path d="M180.06 360.776L182.56 362.026L192.08 338.246C192.08 338.246 182.22 336.636 166.6 356.086C171.477 356.143 176.203 357.79 180.06 360.776Z" fill="url(#paint1_angular_480_4)" stroke="#263238" stroke-miterlimit="10"/>
<path d="M218.56 382.976V393.546C218.56 393.546 232.03 397.546 242 391.796L218.56 382.976Z" fill="url(#paint2_angular_480_4)" stroke="#263238" stroke-miterlimit="10"/>
<path d="M291.57 236.906C291.58 237.102 291.56 237.297 291.51 237.486C291.09 239.136 280.82 277.906 247.95 295.156C247.664 295.31 247.345 295.389 247.02 295.386C246.573 295.386 246.139 295.236 245.788 294.96C245.436 294.685 245.187 294.299 245.08 293.865C244.973 293.431 245.014 292.974 245.197 292.567C245.38 292.159 245.695 291.824 246.09 291.616C276.09 275.886 286.66 240.036 287.58 236.736L291.57 236.906Z" fill="#263238"/>
<path d="M220.84 226.626C215.643 238.495 212.84 251.272 212.59 264.226C212.59 265.276 212.59 266.346 212.59 267.436C212.59 267.706 212.59 267.976 212.59 268.246C212.292 268.256 211.994 268.287 211.7 268.336C210.618 268.507 209.569 268.844 208.59 269.336C208.59 267.866 208.59 266.436 208.59 265.026C209.02 242.586 215.72 227.316 219.29 220.716L220.91 220.376C219.991 221.251 219.413 222.424 219.28 223.686C219.31 224.261 219.465 224.821 219.734 225.329C220.004 225.837 220.381 226.28 220.84 226.626Z" fill="#263238"/>
<path d="M260.22 286.136C262.56 289.386 260.64 294.786 255.92 298.196C251.2 301.606 245.48 301.726 243.13 298.476C240.78 295.226 242.7 289.826 247.42 286.416C252.14 283.006 257.91 282.886 260.22 286.136Z" fill="white" stroke="#263238" stroke-linecap="round" stroke-linejoin="round"/>
<path d="M254.4 284.206C256.06 286.506 254.7 290.326 251.4 292.736C248.1 295.146 244.01 295.236 242.4 292.936C240.79 290.636 242.1 286.816 245.4 284.406C248.7 281.996 252.74 281.916 254.4 284.206Z" fill="white" stroke="#263238" stroke-linecap="round" stroke-linejoin="round"/>
<path d="M227.97 324.796C227.544 325.08 227.026 325.189 226.522 325.102C226.018 325.014 225.566 324.737 225.26 324.328C224.954 323.918 224.817 323.406 224.876 322.898C224.935 322.39 225.187 321.924 225.58 321.596C225.75 321.456 232.46 315.746 229.52 296.516C229.27 294.886 228.95 293.146 228.52 291.316C227.25 285.486 225.29 278.106 221.28 272.686C220.326 271.257 219.019 270.097 217.487 269.319C215.954 268.542 214.247 268.172 212.53 268.246C212.231 268.256 211.934 268.287 211.64 268.336C210.558 268.507 209.509 268.844 208.53 269.336C205.542 270.879 203.275 273.527 202.21 276.716L201.85 277.716C199.582 283.849 197.728 290.126 196.3 296.506C194.7 304.356 194.16 312.586 197 318.336C197.761 319.914 198.845 321.314 200.182 322.446C201.518 323.578 203.078 324.416 204.76 324.906C205.211 325.055 205.595 325.359 205.843 325.765C206.09 326.17 206.185 326.651 206.11 327.12C206.036 327.59 205.797 328.017 205.435 328.326C205.074 328.635 204.615 328.805 204.14 328.806C203.929 328.806 203.72 328.772 203.52 328.706C201.333 328.05 199.306 326.946 197.567 325.466C195.829 323.986 194.417 322.161 193.42 320.106C190.22 313.636 190.64 304.826 192.26 296.506C193.696 289.664 195.641 282.939 198.08 276.386L198.44 275.386C199.226 273.006 200.543 270.836 202.291 269.04C204.039 267.243 206.172 265.867 208.53 265.016C209.346 264.734 210.186 264.526 211.04 264.396C211.55 264.326 212.04 264.276 212.56 264.246C214.9 264.182 217.22 264.706 219.306 265.77C221.392 266.834 223.178 268.404 224.5 270.336C228.96 276.336 231.08 284.266 232.43 290.486C232.9 292.626 233.26 294.636 233.53 296.536C236.69 318.096 228.36 324.516 227.97 324.796Z" fill="#263238" stroke="#263238" stroke-miterlimit="10"/>
<path d="M202.74 328.456C202.74 328.456 209.99 331.456 211.83 328.456C213.67 325.456 212.18 324.046 209.67 323.806C207.168 323.678 204.662 323.678 202.16 323.806L202.74 328.456Z" fill="#263238" stroke="#263238" stroke-miterlimit="10"/>
<path d="M206.07 327.456C205.939 327.857 205.685 328.207 205.344 328.455C205.003 328.702 204.592 328.836 204.17 328.836C203.959 328.836 203.75 328.802 203.55 328.736C201.363 328.08 199.336 326.976 197.598 325.496C195.859 324.016 194.447 322.191 193.45 320.136C190.25 313.666 190.67 304.856 192.29 296.536H196.29C194.69 304.386 194.15 312.616 196.99 318.366C197.751 319.944 198.835 321.344 200.172 322.476C201.509 323.608 203.068 324.446 204.75 324.936C205.003 325.014 205.238 325.141 205.442 325.31C205.645 325.479 205.813 325.686 205.936 325.921C206.059 326.155 206.134 326.412 206.157 326.675C206.18 326.939 206.15 327.204 206.07 327.456Z" fill="white" stroke="#263238" stroke-linecap="round" stroke-linejoin="round"/>
<path d="M221.289 322.626C220.988 322.984 220.766 323.402 220.636 323.851C220.507 324.301 220.474 324.773 220.539 325.236C220.739 325.921 221.173 326.515 221.765 326.913C222.357 327.311 223.07 327.489 223.779 327.416C225.2 327.227 226.498 326.514 227.419 325.416C228.419 324.296 231.889 316.966 228.679 318.226C226.349 319.106 222.849 320.596 221.289 322.626Z" fill="#263238" stroke="#263238" stroke-miterlimit="10"/>
<path d="M227.97 324.796C227.544 325.079 227.025 325.189 226.521 325.102C226.017 325.014 225.566 324.737 225.26 324.328C224.954 323.918 224.816 323.406 224.876 322.898C224.935 322.39 225.187 321.924 225.58 321.596C225.75 321.456 232.46 315.746 229.52 296.516H233.52C236.69 318.096 228.36 324.516 227.97 324.796Z" fill="white" stroke="#263238" stroke-linecap="round" stroke-linejoin="round"/>
<path opacity="0.2" d="M245.91 148.046C245.91 148.046 258.5 141.506 270.07 148.046C270.07 148.046 270.26 157.696 265.89 161.666C264.34 163.076 257.24 163.316 254.55 163.076C243.63 162.086 245.91 148.046 245.91 148.046Z" fill="white"/>
<path opacity="0.2" d="M238.01 148.046C238.01 148.046 225.42 141.506 213.86 148.046C213.86 148.046 213.67 157.696 218.03 161.666C219.58 163.076 226.69 163.316 229.37 163.076C240.29 162.086 238.01 148.046 238.01 148.046Z" fill="white"/>
<path d="M245.91 148.046C245.91 148.046 258.5 141.506 270.07 148.046C270.07 148.046 270.26 157.696 265.89 161.666C264.34 163.076 257.24 163.316 254.55 163.076C243.63 162.086 245.91 148.046 245.91 148.046Z" stroke="#263238" stroke-miterlimit="10"/>
<path d="M238.01 148.046C238.01 148.046 225.42 141.506 213.86 148.046C213.86 148.046 213.67 157.696 218.03 161.666C219.58 163.076 226.69 163.316 229.37 163.076C240.29 162.086 238.01 148.046 238.01 148.046Z" stroke="#263238" stroke-miterlimit="10"/>
<path d="M238.01 148.046C238.01 148.046 240.83 145.976 245.91 148.046" stroke="#263238" stroke-miterlimit="10"/>
<path d="M270.07 148.046L275.33 150.486" stroke="#263238" stroke-miterlimit="10"/>
<path d="M408.61 388.74H307.8V444.09H408.61V388.74Z" fill="white" stroke="#263238" stroke-linecap="round" stroke-linejoin="round"/>
<path d="M307.41 444.08L291.2 428.67V373.32L307.41 388.74V444.08Z" fill="white" stroke="#263238" stroke-linecap="round" stroke-linejoin="round"/>
<path d="M408.611 388.74L392.401 373.32H291.601L307.801 388.74H408.611Z" fill="white" stroke="#263238" stroke-linecap="round" stroke-linejoin="round"/>
<path d="M371.541 409.5H362.631V400.18H350.071V409.5H340.351V422.06H350.071V431.37H362.631V422.06H371.541V409.5Z" fill="#458DFC" stroke="#263238" stroke-miterlimit="10"/>
<path d="M357.33 388.74L341.12 373.32" stroke="#263238" stroke-linecap="round" stroke-linejoin="round"/>
<path d="M144.246 153.495C156.005 141.736 156.005 122.671 144.246 110.913C132.487 99.154 113.423 99.154 101.664 110.913C89.9053 122.671 89.9053 141.736 101.664 153.495C113.423 165.253 132.487 165.253 144.246 153.495Z" fill="white" stroke="#263238" stroke-linecap="round" stroke-linejoin="round"/>
<path d="M147.999 127.59C147.999 129.606 147.367 131.57 146.192 133.208C145.017 134.846 143.358 136.074 141.449 136.72L127.999 141.25L111.629 146.78C109.218 147.573 106.591 147.38 104.32 146.244C102.05 145.109 100.321 143.122 99.5096 140.716C98.6982 138.311 98.8703 135.682 99.9885 133.404C101.107 131.125 103.08 129.38 105.479 128.55L120.349 123.55L135.289 118.55C136.735 118.064 138.275 117.928 139.783 118.153C141.291 118.379 142.724 118.959 143.964 119.847C145.204 120.734 146.216 121.904 146.916 123.258C147.615 124.613 147.983 126.115 147.989 127.64L147.999 127.59Z" fill="white"/>
<path d="M148 127.59C147.999 129.606 147.367 131.57 146.192 133.208C145.017 134.846 143.359 136.074 141.45 136.72L128 141.25C127.641 134.624 124.928 128.343 120.35 123.54L135.29 118.54C136.735 118.054 138.275 117.918 139.783 118.143C141.291 118.369 142.725 118.949 143.965 119.837C145.205 120.724 146.216 121.894 146.916 123.248C147.616 124.603 147.984 126.105 147.99 127.63L148 127.59Z" fill="#458DFC"/>
<path d="M147.999 127.59C147.999 129.606 147.367 131.57 146.192 133.208C145.017 134.846 143.358 136.074 141.449 136.72L127.999 141.25L111.629 146.78C109.218 147.573 106.591 147.38 104.32 146.244C102.05 145.109 100.321 143.122 99.5096 140.716C98.6982 138.311 98.8703 135.682 99.9885 133.404C101.107 131.125 103.08 129.38 105.479 128.55L120.349 123.55L135.289 118.55C136.735 118.064 138.275 117.928 139.783 118.153C141.291 118.379 142.724 118.959 143.964 119.847C145.204 120.734 146.216 121.904 146.916 123.258C147.615 124.613 147.983 126.115 147.989 127.64L147.999 127.59Z" stroke="#263238" stroke-linecap="round" stroke-linejoin="round"/>
<path d="M128 141.25C127.694 134.612 124.973 128.314 120.35 123.54" stroke="#263238" stroke-linecap="round" stroke-linejoin="round"/>
<path d="M144.779 124C145.411 125.064 145.73 126.284 145.699 127.52" stroke="white" stroke-linecap="round" stroke-linejoin="round"/>
<path d="M124.149 125L136.149 121C137.226 120.631 138.37 120.505 139.501 120.631C140.632 120.757 141.721 121.133 142.689 121.73" stroke="white" stroke-linecap="round" stroke-linejoin="round"/>
<path d="M327.542 91.3557C342.856 84.8741 350.017 67.2052 343.535 51.8911C337.054 36.577 319.385 29.4167 304.07 35.8983C288.756 42.3798 281.596 60.0487 288.078 75.3629C294.559 90.677 312.228 97.8372 327.542 91.3557Z" fill="white" stroke="#263238" stroke-linecap="round" stroke-linejoin="round"/>
<path d="M326.19 76.23L299.93 67.44C297.746 66.706 295.943 65.1349 294.918 63.0723C293.892 61.0096 293.727 58.6241 294.46 56.44C295.194 54.2565 296.765 52.4537 298.827 51.428C300.89 50.4023 303.276 50.2376 305.46 50.97L331.72 59.75C333.902 60.4863 335.703 62.0576 336.728 64.1195C337.753 66.1815 337.919 68.5658 337.19 70.75C336.455 72.9338 334.885 74.7371 332.823 75.7645C330.761 76.7918 328.375 76.9592 326.19 76.23Z" fill="#458DFC"/>
<path d="M306.949 66.74L311.349 56.23" stroke="#263238" stroke-linecap="round" stroke-linejoin="round"/>
<path d="M321.42 71.55L325.8 61.07" stroke="#263238" stroke-linecap="round" stroke-linejoin="round"/>
<path d="M310.579 67.36C311.071 67.36 311.469 66.9615 311.469 66.47C311.469 65.9785 311.071 65.58 310.579 65.58C310.088 65.58 309.689 65.9785 309.689 66.47C309.689 66.9615 310.088 67.36 310.579 67.36Z" fill="#263238"/>
<path d="M319.33 69.09C319.33 69.266 319.278 69.4381 319.18 69.5845C319.082 69.7308 318.943 69.8449 318.78 69.9123C318.618 69.9796 318.439 69.9973 318.266 69.9629C318.094 69.9286 317.935 69.8438 317.81 69.7193C317.686 69.5949 317.601 69.4363 317.567 69.2636C317.533 69.091 317.55 68.9121 317.618 68.7494C317.685 68.5868 317.799 68.4478 317.945 68.35C318.092 68.2522 318.264 68.2 318.44 68.2C318.676 68.2 318.902 68.2938 319.069 68.4607C319.236 68.6276 319.33 68.854 319.33 69.09Z" fill="#263238"/>
<path d="M314.03 59.44C314.521 59.44 314.92 59.0416 314.92 58.55C314.92 58.0585 314.521 57.66 314.03 57.66C313.538 57.66 313.14 58.0585 313.14 58.55C313.14 59.0416 313.538 59.44 314.03 59.44Z" fill="#263238"/>
<path d="M322.649 61.09C322.649 61.266 322.597 61.4381 322.499 61.5845C322.401 61.7308 322.262 61.8449 322.1 61.9123C321.937 61.9796 321.758 61.9973 321.585 61.9629C321.413 61.9286 321.254 61.8438 321.13 61.7193C321.005 61.5949 320.921 61.4363 320.886 61.2636C320.852 61.091 320.87 60.9121 320.937 60.7494C321.004 60.5868 321.118 60.4478 321.265 60.35C321.411 60.2522 321.583 60.2 321.759 60.2C321.995 60.2 322.222 60.2938 322.388 60.4607C322.555 60.6276 322.649 60.854 322.649 61.09Z" fill="#263238"/>
<path d="M326.19 76.23L299.93 67.44C297.746 66.706 295.943 65.1349 294.918 63.0723C293.892 61.0096 293.727 58.6241 294.46 56.44C295.194 54.2565 296.765 52.4537 298.827 51.428C300.89 50.4023 303.276 50.2376 305.46 50.97L331.72 59.75C333.902 60.4863 335.703 62.0576 336.728 64.1195C337.753 66.1815 337.919 68.5658 337.19 70.75C336.455 72.9338 334.885 74.7371 332.823 75.7645C330.761 76.7918 328.375 76.9592 326.19 76.23Z" stroke="#263238" stroke-linecap="round" stroke-linejoin="round"/>
<path d="M202.139 92.1C218.769 92.1 232.249 78.6193 232.249 61.99C232.249 45.3607 218.769 31.88 202.139 31.88C185.51 31.88 172.029 45.3607 172.029 61.99C172.029 78.6193 185.51 92.1 202.139 92.1Z" fill="white" stroke="#263238" stroke-linecap="round" stroke-linejoin="round"/>
<path d="M219.39 62.76V75.1C219.39 78.23 217.39 80.77 214.94 80.77H189.34C186.88 80.77 184.89 78.23 184.89 75.1V62.76C184.89 59.63 186.89 57.09 189.34 57.09H193.55V49.93H210.55V57.09H214.91C217.39 57.09 219.39 59.63 219.39 62.76Z" fill="white" stroke="#263238" stroke-linecap="round" stroke-linejoin="round"/>
<path d="M219.38 64.18H184.89V71.83H219.38V64.18Z" fill="#458DFC" stroke="#263238" stroke-miterlimit="10"/>
<path d="M195.9 41.55H208.54C209.967 41.55 211.335 42.1168 212.344 43.1258C213.353 44.1347 213.92 45.5031 213.92 46.93V52.52H190.51V46.93C190.51 46.2226 190.649 45.5222 190.92 44.8688C191.191 44.2155 191.588 43.6219 192.089 43.1222C192.59 42.6225 193.184 42.2264 193.838 41.9567C194.492 41.6869 195.192 41.5487 195.9 41.55Z" fill="#458DFC" stroke="#263238" stroke-miterlimit="10"/>
<path d="M194.6 41.89V52.52" stroke="#263238" stroke-linecap="round" stroke-linejoin="round"/>
<path d="M200.13 41.55V52.52" stroke="#263238" stroke-linecap="round" stroke-linejoin="round"/>
<path d="M205.659 41.55V52.52" stroke="#263238" stroke-linecap="round" stroke-linejoin="round"/>
<path d="M211.189 42.17V52.52" stroke="#263238" stroke-linecap="round" stroke-linejoin="round"/>
<path d="M124.998 226.595C127.688 210.185 116.566 194.701 100.156 192.011C83.7455 189.321 68.2615 200.443 65.5713 216.853C62.8811 233.263 74.0033 248.747 90.4136 251.438C106.824 254.128 122.308 243.005 124.998 226.595Z" fill="white" stroke="#263238" stroke-linecap="round" stroke-linejoin="round"/>
<path d="M110.559 229.492C113.838 222.557 109.329 213.545 100.487 209.364C91.6449 205.182 81.8184 207.414 78.5388 214.349C75.2592 221.284 79.7685 230.295 88.6106 234.477C97.4526 238.659 107.279 236.426 110.559 229.492Z" fill="#458DFC" stroke="#263238" stroke-linecap="round" stroke-linejoin="round"/>
<path d="M111.652 227.133C114.729 220.628 110.055 211.964 101.213 207.783C92.3705 203.601 82.7086 205.485 79.6321 211.99C76.5555 218.496 81.2294 227.159 90.0715 231.341C98.9136 235.522 108.575 233.639 111.652 227.133Z" fill="#458DFC" stroke="#263238" stroke-linecap="round" stroke-linejoin="round"/>
<path d="M100.749 210.66L89.8193 226.03" stroke="#263238" stroke-linecap="round" stroke-linejoin="round"/>
<path d="M94.1699 208.17C95.6348 208.367 97.0778 208.702 98.4799 209.17" stroke="white" stroke-linecap="round" stroke-linejoin="round"/>
<path d="M84.4594 222.64C84.4594 222.64 78.8794 216.53 84.3294 210.64C85.5871 209.358 87.2249 208.516 88.9994 208.24" stroke="white" stroke-linecap="round" stroke-linejoin="round"/>
<path d="M442.162 226.613C444.852 210.202 433.73 194.718 417.32 192.028C400.91 189.338 385.426 200.46 382.735 216.87C380.045 233.281 391.167 248.765 407.578 251.455C423.988 254.145 439.472 243.023 442.162 226.613Z" fill="white" stroke="#263238" stroke-linecap="round" stroke-linejoin="round"/>
<path d="M429.73 224.76C429.5 225.09 429.27 225.43 429.03 225.76C424.52 232.01 417.57 237.84 412.42 238.99V238.91C407.42 237.79 400.69 232.24 396.18 226.18C395.93 225.85 395.69 225.51 395.46 225.18C391.12 218.96 389.29 212.43 394.12 209.73C403.94 204.25 412.42 216 412.42 216C412.42 216 420.92 204.34 430.72 209.81C435.42 212.43 433.81 218.69 429.73 224.76Z" fill="#458DFC" stroke="#263238" stroke-miterlimit="10"/>
<path d="M429.73 224.76C429.5 225.09 429.27 225.43 429.03 225.76H426.55L423.71 229.51L421.78 218.39L418.78 225.95H411.69L408.06 232L405.26 219.75L401.65 226.14H396.18C395.93 225.81 395.69 225.47 395.46 225.14H401.07L405.66 217.01L408.48 229.36L411.15 224.91H418.15L422.15 214.67L424.29 227.03L426.04 224.72L429.73 224.76Z" fill="white"/>
<path d="M383.46 162.65C400.089 162.65 413.57 149.169 413.57 132.54C413.57 115.911 400.089 102.43 383.46 102.43C366.83 102.43 353.35 115.911 353.35 132.54C353.35 149.169 366.83 162.65 383.46 162.65Z" fill="white" stroke="#263238" stroke-linecap="round" stroke-linejoin="round"/>
<path d="M381.2 118.62C381.49 119.27 379.68 120.71 377.2 121.84C374.72 122.97 372.4 123.36 372.11 122.7C371.82 122.04 373.62 120.61 376.11 119.48C378.6 118.35 380.9 118 381.2 118.62Z" fill="white" stroke="#263238" stroke-linecap="round" stroke-linejoin="round"/>
<path d="M394.75 146.55L385.74 150.91L377.66 134.27L372.08 122.77L381.09 118.4L386.53 129.62L394.75 146.55Z" fill="white" stroke="#263238" stroke-linecap="round" stroke-linejoin="round"/>
<path d="M373.75 126.2L377.66 124.39L373.75 126.2Z" fill="#458DFC"/>
<path d="M373.75 126.2L377.66 124.39" stroke="#263238" stroke-linecap="round" stroke-linejoin="round"/>
<path d="M375.449 129.82L379.359 128.01L375.449 129.82Z" fill="#458DFC"/>
<path d="M375.449 129.82L379.359 128.01" stroke="#263238" stroke-linecap="round" stroke-linejoin="round"/>
<path d="M389.189 149.24L393.839 155.34L391.519 148.11L389.189 149.24Z" fill="white" stroke="#263238" stroke-linecap="round" stroke-linejoin="round"/>
<path d="M394.749 146.55C392.64 148.662 389.948 150.096 387.019 150.67L385.739 150.91L377.659 134.27L386.529 129.62L394.749 146.55Z" fill="#458DFC" stroke="#263238" stroke-miterlimit="10"/>
<path d="M379.359 137.43L383.039 135.73" stroke="#263238" stroke-linecap="round" stroke-linejoin="round"/>
<path d="M381.38 141.3L384.99 139.65L381.38 141.3Z" fill="#458DFC"/>
<path d="M381.38 141.3L384.99 139.65" stroke="#263238" stroke-linecap="round" stroke-linejoin="round"/>
<path d="M375.2 121.25L372.35 114.84L374.59 113.57L377.66 120.06L375.2 121.25Z" fill="white" stroke="#263238" stroke-linecap="round" stroke-linejoin="round"/>
<path d="M380.089 112.79L379.409 111.29L367.409 116.66L368.089 118.16C368.369 118.8 371.279 118.1 374.599 116.62C377.919 115.14 380.369 113.42 380.089 112.79Z" fill="white" stroke="#263238" stroke-linecap="round" stroke-linejoin="round"/>
<path d="M379.409 111.29C379.129 110.66 376.209 111.35 372.899 112.83C369.589 114.31 367.129 116.03 367.409 116.66C367.689 117.29 370.609 116.6 373.919 115.11C377.229 113.62 379.689 111.92 379.409 111.29Z" fill="white" stroke="#263238" stroke-linecap="round" stroke-linejoin="round"/>
</g>
<defs>
<radialGradient id="paint0_angular_480_4" cx="0" cy="0" r="1" gradientUnits="userSpaceOnUse" gradientTransform="translate(251.382 175.043) rotate(90) scale(72.3365 40.8323)">
<stop stop-color="#FFDAC8"/>
<stop offset="1" stop-color="#FFD5C5"/>
</radialGradient>
<radialGradient id="paint1_angular_480_4" cx="0" cy="0" r="1" gradientUnits="userSpaceOnUse" gradientTransform="translate(179.34 350.12) rotate(90) scale(11.9062 12.74)">
<stop stop-color="#FFDAC8"/>
<stop offset="1" stop-color="#FFD5C5"/>
</radialGradient>
<radialGradient id="paint2_angular_480_4" cx="0" cy="0" r="1" gradientUnits="userSpaceOnUse" gradientTransform="translate(230.28 388.938) rotate(90) scale(5.96203 11.72)">
<stop stop-color="#FFDAC8"/>
<stop offset="1" stop-color="#FFD5C5"/>
</radialGradient>
<clipPath id="clip0_480_4">
<rect width="500" height="500" fill="white"/>
</clipPath>
</defs>
</svg>
