<svg width="200" height="300" viewBox="0 0 200 300" fill="none" xmlns="http://www.w3.org/2000/svg">
<path d="M158.39 46.5692C158.39 46.5692 161.525 55.4048 166.896 57.6515C172.267 59.8981 176.311 63.3941 176.525 69.3583C176.562 73.1379 175.406 76.835 173.217 79.9368C173.217 79.9368 192.261 80.1585 194.722 92.3086C197.183 104.459 190.464 117.939 191.812 119.511C193.16 121.082 201.216 124.155 199.195 134.975C197.173 145.796 182.632 149.08 174.79 144.919C166.947 140.758 165.834 125.253 157.992 113.546C150.15 101.839 132.015 94.3236 133.138 82.8384C134.261 71.3531 137.621 58.3164 146.127 51.6872C154.633 45.058 158.39 46.5692 158.39 46.5692Z" fill="#263238"/>
<path d="M182.458 147.196C179.691 147.24 176.955 146.61 174.493 145.362C169.827 142.864 167.529 136.708 164.864 129.585C162.975 124.548 160.831 118.765 157.522 113.828C154.51 109.325 149.945 105.446 145.524 101.688C138.499 95.6837 131.871 90.0419 132.576 82.7175C133.597 72.2397 136.712 58.266 145.759 51.2137C154.397 44.4838 158.421 45.995 158.584 46.0655L158.799 46.1562L158.87 46.3677C158.87 46.4483 161.995 55.0119 167.1 57.1175C173.493 59.737 176.832 63.8273 177.036 69.2677C177.089 72.8617 176.074 76.3924 174.115 79.4231C178.057 79.6447 192.945 81.1861 195.171 92.1676C196.774 100.096 194.569 108.428 193.129 113.949C192.547 116.176 191.873 118.705 192.169 119.118C192.533 119.466 192.93 119.779 193.353 120.055C195.957 121.918 201.38 125.797 199.674 134.995C199.223 137.228 198.23 139.32 196.78 141.092C195.331 142.864 193.469 144.264 191.352 145.171C188.575 146.485 185.538 147.177 182.458 147.196ZM157.226 46.9521C155.653 46.9521 152.12 47.617 146.392 52.0801C137.631 58.9008 134.598 72.5924 133.597 82.8888C132.933 89.649 139.377 95.1296 146.198 100.923C150.66 104.731 155.286 108.66 158.37 113.274C161.739 118.312 163.914 124.115 165.824 129.233C168.418 136.174 170.654 142.159 175.014 144.476C179.374 146.793 185.848 146.722 190.923 144.325C192.892 143.486 194.625 142.189 195.975 140.545C197.325 138.901 198.251 136.959 198.674 134.885C200.267 126.311 195.386 122.795 192.761 120.941C192.271 120.623 191.816 120.255 191.403 119.843C190.77 119.118 191.178 117.455 192.159 113.798C193.588 108.368 195.763 100.167 194.201 92.4699C191.842 80.8537 173.38 80.501 173.196 80.501H172.175L172.788 79.6951C174.922 76.6835 176.056 73.0932 176.035 69.4188C175.851 64.3814 172.798 60.6538 166.722 58.1552C161.617 56.0697 158.553 48.564 158.022 47.073C157.763 46.9967 157.496 46.946 157.226 46.9219V46.9521Z" fill="#263238"/>
<path d="M77.7417 299.859L70.0322 244.025L158.778 247.279L154.592 299.96" fill="#458DFC"/>
<path d="M70.3179 248.689L102.994 258.039C102.994 258.039 135.67 257.787 145.115 255.328C154.561 252.87 157.828 252.87 157.828 252.87L158.85 247.279L70.083 244.025L70.3179 248.689Z" fill="#263238"/>
<path d="M102.891 258.542L69.8374 249.072L69.4902 243.491L159.349 246.795L158.196 253.374H157.767C157.767 253.374 154.438 253.374 145.186 255.822C135.761 258.27 104.28 258.532 102.942 258.542H102.891ZM70.8075 248.306L103.034 257.535C104.791 257.535 135.874 257.202 144.952 254.845C149.007 253.674 153.159 252.851 157.358 252.387L158.175 247.762L70.5726 244.548L70.8075 248.306Z" fill="#263238"/>
<path d="M155.101 300L154.08 299.919L158.226 247.762L70.6235 244.548L78.2411 299.788L77.2302 299.919L69.4492 243.491L70.0517 243.521L159.319 246.795L155.101 300Z" fill="#263238"/>
<path d="M103.352 256.296L102.348 256.476L109.873 297.253L110.878 297.073L103.352 256.296Z" fill="#263238"/>
<path d="M114.226 81.71C114.226 81.71 78.201 84.0071 77.1391 85.4679C76.0771 86.9288 50.6816 133.091 50.6816 133.091L71.4207 158.278L62.0876 245.052C62.0876 245.052 95.9993 253.203 119.097 255.5C142.195 257.797 170.593 247.944 170.593 247.944L168.264 202.779L171.44 163.265L182.039 98.0312L147.924 84.8332L114.226 81.71Z" fill="#458DFC"/>
<path d="M126.418 256.296C123.974 256.319 121.531 256.222 119.097 256.003C96.2336 253.727 62.3628 245.616 62.0258 245.536L61.5867 245.435L70.9403 158.429L50.0889 133.242L50.2522 132.94C51.2733 131.056 75.7089 86.687 76.8015 85.216C77.8941 83.7451 103.351 81.9417 114.277 81.2466H114.359L148.189 84.41L182.692 97.739L171.95 163.316L168.774 202.789L171.123 248.266L170.766 248.387C170.51 248.488 147.688 256.296 126.418 256.296ZM62.6487 244.609C66.6822 245.566 97.7551 252.82 119.148 254.956C140.54 257.092 166.702 248.689 170.071 247.571L167.753 202.789L170.939 163.205L181.467 98.3233L147.77 85.3269L114.185 82.2037C100.716 83.06 78.8744 84.803 77.4244 85.8004C76.6484 86.8884 60.0653 117.032 51.1814 133.081L71.8695 158.067V158.278L62.6487 244.609Z" fill="#263238"/>
<path d="M119.097 59.9485C119.097 59.9485 118.679 73.1263 117.831 76.0681C117.054 78.185 115.824 80.1124 114.227 81.7201C114.227 81.7201 117.402 117.052 117.402 117.677C117.402 118.302 147.291 85.2764 147.924 84.8533C148.557 84.4302 143.839 80.6723 143.839 80.6723L147.025 61.4396L119.097 59.9485Z" fill="#FFDCCF"/>
<path d="M117.361 118.171C117.317 118.181 117.272 118.181 117.228 118.171L116.901 118.05V117.687C116.901 117.022 114.859 93.9005 113.726 81.7704V81.5387L113.899 81.3675C115.429 79.8208 116.612 77.9741 117.371 75.9472C118.188 73.1061 118.617 60.0996 118.617 59.9686V59.4548L147.688 60.9459L144.462 80.4506C147.178 82.657 148.546 84.1078 148.546 84.7526C148.538 84.852 148.509 84.9486 148.459 85.0356C148.41 85.1226 148.342 85.1979 148.26 85.2563C147.882 85.5686 142.787 91.1299 137.395 97.0236C119.536 116.468 117.912 118.171 117.361 118.171ZM114.757 81.9014C115.125 85.9918 117.381 111.118 117.82 116.619C120.434 113.99 129.635 103.935 136.578 96.3688C143.89 88.3895 146.616 85.4175 147.392 84.6418C146.24 83.3267 144.957 82.1285 143.563 81.0652L143.328 80.8738L146.463 61.9131L119.587 60.5026C119.495 63.0011 119.076 73.5998 118.31 76.2092C117.548 78.3275 116.337 80.2612 114.757 81.8813V81.9014Z" fill="#263238"/>
<path d="M127.603 69.6303L117.994 74.5569L120.138 57.3492L127.603 69.6303Z" fill="#263238"/>
<path d="M117.372 75.4435L119.813 55.838L128.288 69.8319L117.372 75.4435ZM120.435 58.8604L118.618 73.6502L126.889 69.4087L120.435 58.8604Z" fill="#263238"/>
<path d="M122.292 4.64812C122.292 4.64812 116.166 8.29519 115.145 15.3878C114.123 22.4805 114.92 54.4779 115.798 56.4123C116.676 58.3466 125.152 74.2345 131.033 73.5897C136.915 72.945 149.107 63.928 151.456 60.281C153.804 56.6339 163.658 28.3137 163.658 22.4704C163.658 16.627 159.523 7.22726 147.32 2.06898C137.129 -2.24302 123.998 3.47944 122.292 4.64812Z" fill="#FFDCCF"/>
<path d="M130.656 74.1137C123.988 74.1137 115.339 56.7952 115.339 56.6138C114.42 54.5989 113.583 22.2286 114.645 15.3073C115.053 13.0603 115.921 10.9189 117.196 9.01358C118.47 7.10829 120.125 5.479 122.058 4.22503C123.569 3.21755 137.048 -2.8273 147.586 1.6056C160.718 7.15679 164.22 17.3323 164.22 22.4704C164.22 28.344 154.346 56.8858 151.967 60.553C149.588 64.2203 137.273 73.4185 131.136 74.0935C130.977 74.1138 130.816 74.1205 130.656 74.1137ZM138.825 0.98095C133.174 1.07256 127.621 2.45177 122.599 5.01086C122.548 5.01086 116.697 8.6277 115.656 15.3879C114.491 23.0044 115.533 54.4981 116.268 56.1403C117.289 58.3366 125.56 73.6301 130.983 73.0256C136.772 72.3909 148.842 63.3337 151.078 59.9284C153.447 56.3116 163.189 28.1828 163.189 22.3999C163.189 17.5136 159.819 7.81164 147.168 2.46194C144.515 1.41131 141.672 0.907314 138.815 0.98095H138.825Z" fill="#263238"/>
<path d="M147.331 2.1194C137.12 -2.1926 123.998 3.52986 122.293 4.69853C122.293 4.69853 116.166 8.3456 115.145 15.4382C114.671 20.6868 114.504 25.9579 114.645 31.2254L115.145 31.3261C116.541 29.4516 117.579 27.3417 118.209 25.0999C119.087 21.6644 124.335 15.6498 127.133 12.8591C129.931 10.0684 135.404 10.28 137.59 10.9247C139.775 11.5695 141.94 14.1487 143.9 14.1487C145.861 14.1487 150.027 14.3602 151.732 15.4382C153.438 16.5162 158.053 23.1656 158.053 28.7571C158.053 34.3486 156.47 39.8695 156.879 42.4185C157.018 43.1733 157.262 43.9055 157.604 44.5946C160.667 35.6281 163.628 25.6339 163.628 22.4301C163.659 16.6774 159.523 7.2273 147.331 2.1194Z" fill="#263238"/>
<path d="M157.716 45.985L157.175 44.8466C156.817 44.1109 156.56 43.3318 156.409 42.5294C156.284 40.5331 156.414 38.5292 156.797 36.5651C157.205 33.9638 157.437 31.3385 157.492 28.7068C157.492 23.2564 152.927 16.748 151.365 15.8111C149.802 14.8741 146.382 14.6021 143.798 14.6021C142.542 14.6021 141.347 13.776 140.071 12.8894C139.24 12.2486 138.318 11.7326 137.334 11.3581C135.159 10.7133 130.013 10.5823 127.399 13.1614C124.427 16.0932 119.424 21.9366 118.607 25.1706C117.968 27.4824 116.901 29.658 115.462 31.5882L115.268 31.8401L114.053 31.5781V31.1751C114.053 26.6717 114.053 18.6119 114.553 15.3074C114.963 13.0595 115.832 10.9176 117.109 9.01229C118.385 7.10694 120.041 5.4781 121.977 4.22511C123.396 3.21764 136.916 -2.82722 147.505 1.61575C160.637 7.16695 164.139 17.3425 164.139 22.4806C164.139 25.8758 161.014 36.2427 158.084 44.7962L157.716 45.985ZM134.149 9.95766C135.341 9.94488 136.529 10.0906 137.682 10.3909C138.783 10.7922 139.816 11.3561 140.745 12.0633C141.636 12.8423 142.722 13.3712 143.89 13.5947C144.911 13.5947 149.884 13.6551 151.998 14.9548C153.887 16.1234 158.553 22.8634 158.553 28.7068C158.497 31.3856 158.261 34.0578 157.849 36.7062C157.487 38.571 157.353 40.4719 157.451 42.3682C157.498 42.6306 157.563 42.8897 157.645 43.1439C160.3 35.2554 163.189 25.5735 163.189 22.4705C163.189 17.5843 159.82 7.88226 147.168 2.53256C137.018 -1.75929 124.019 4.11429 122.661 5.06132C122.579 5.1117 116.728 8.69832 115.687 15.4585C115.224 20.4248 115.056 25.4137 115.186 30.3994C116.334 28.7252 117.196 26.8773 117.739 24.9288C118.76 21.0601 124.611 14.6122 126.796 12.4562C128.675 10.5319 131.667 9.95766 134.149 9.95766Z" fill="#263238"/>
<path d="M129.462 36.9075C129.227 38.1971 128.379 39.1239 127.542 38.9829C126.705 38.8418 126.245 37.6833 126.46 36.3735C126.674 35.0638 127.542 34.1571 128.369 34.2981C129.196 34.4392 129.686 35.6179 129.462 36.9075Z" fill="#263238"/>
<path d="M146.004 40.5546C145.779 41.8442 144.922 42.7711 144.094 42.63C143.267 42.489 142.777 41.3304 143.002 40.0408C143.226 38.7513 144.084 37.8345 144.911 38.0259C145.738 38.2173 146.229 39.2751 146.004 40.5546Z" fill="#263238"/>
<path d="M134.291 53.138C133.946 53.1379 133.602 53.0904 133.27 52.9969C131.94 52.5508 130.825 51.6312 130.146 50.4178L131.054 49.9443C131.598 50.9171 132.484 51.6592 133.546 52.0297C134.039 52.1403 134.55 52.1472 135.047 52.05C135.543 51.9528 136.012 51.7537 136.425 51.4656L136.956 52.332C136.161 52.8394 135.238 53.1184 134.291 53.138Z" fill="#263238"/>
<path d="M133.505 58.7295C132.234 58.7159 130.99 58.3681 129.9 57.722C128.695 57.0234 127.651 56.083 126.837 54.9616L127.684 54.4074C127.848 54.6392 131.636 60.1601 137.436 56.4224L137.988 57.2586C136.673 58.1738 135.113 58.6855 133.505 58.7295Z" fill="#263238"/>
<path d="M132.29 31.9407C126.797 29.1299 123.611 31.3765 123.468 31.4672L122.865 30.6612C123.018 30.5504 126.674 27.931 132.76 31.0441L132.29 31.9407Z" fill="#263238"/>
<path d="M150.119 38.3885C149.857 37.5786 149.428 36.8311 148.858 36.193C148.289 35.5549 147.592 35.0401 146.81 34.681C145.422 34.2007 143.903 34.2402 142.542 34.7918L142.113 33.8851C143.734 33.1947 145.562 33.1442 147.219 33.7441C148.135 34.147 148.955 34.7355 149.625 35.4715C150.295 36.2074 150.801 37.0743 151.109 38.0158L150.119 38.3885Z" fill="#263238"/>
<path d="M114.615 31.175C114.615 31.175 110.979 28.2735 109.672 33.4317C108.365 38.59 114.676 42.8819 114.676 42.8819L114.615 31.175Z" fill="#FFDCCF"/>
<path d="M115.197 43.839L114.39 43.295C114.114 43.1136 107.793 38.7412 109.172 33.3109C109.642 31.4773 110.448 30.369 111.582 29.9963C112.164 29.871 112.767 29.8765 113.347 30.0126C113.927 30.1486 114.468 30.4116 114.931 30.7821L115.125 30.9332L115.197 43.839ZM112.44 30.8627C112.255 30.8642 112.073 30.8948 111.898 30.9534C111.122 31.2052 110.54 32.0817 110.162 33.5527C109.233 37.2299 112.562 40.5143 114.165 41.8442L114.104 31.437C113.613 31.0991 113.037 30.9005 112.44 30.8627Z" fill="#263238"/>
<path d="M159.31 39.2247C159.31 39.2247 162.434 37.109 163.006 41.1591C163.68 45.9345 156.777 50.3271 156.042 49.7529L159.31 39.2247Z" fill="#FFDCCF"/>
<path d="M156.225 50.307C156.044 50.3133 155.867 50.2562 155.725 50.1458L155.449 49.9342L158.921 38.9125L159.064 38.8117C159.479 38.525 159.955 38.3344 160.455 38.2542C160.956 38.1739 161.468 38.2061 161.954 38.3483C162.439 38.6293 162.843 39.0292 163.125 39.5093C163.408 39.9894 163.56 40.5334 163.567 41.0886C164.088 44.776 160.504 48.2518 157.951 49.6924C157.439 50.0403 156.844 50.252 156.225 50.307ZM159.738 39.5572L156.766 49.1383C158.093 48.4891 159.284 47.6006 160.279 46.5189C161.453 45.2696 162.801 43.3353 162.505 41.2297C162.393 40.4942 162.138 39.5572 161.484 39.2751C161.189 39.1975 160.881 39.1825 160.58 39.2312C160.279 39.2798 159.992 39.3909 159.738 39.5572Z" fill="#263238"/>
<path d="M110.708 88.7403L109.693 88.8537L113.509 122.1L114.523 121.986L110.708 88.7403Z" fill="#263238"/>
<path d="M77.8864 90.4028L71.0947 154.806L72.1104 154.91L78.902 90.5071L77.8864 90.4028Z" fill="#263238"/>
<path d="M109.56 140.033L118.035 215.936L158.86 199.444L152.508 128.346L109.56 140.033Z" fill="#263238"/>
<path d="M117.607 216.651L109.009 139.66L152.917 127.701L159.361 199.766L117.607 216.651ZM110.122 140.406L118.475 215.211L158.299 199.091L152.029 128.981L110.122 140.406Z" fill="#263238"/>
<path d="M173.145 95.9155C173.145 95.9155 185.858 97.8297 186.491 98.8371C187.124 99.8446 196.243 166.791 196.243 166.791C192.44 168.286 188.545 169.542 184.581 170.549C178.016 172.222 163.812 174.73 163.812 174.73L163.607 116.397" fill="#458DFC"/>
<path d="M163.312 175.345L163.098 116.407H164.119L164.323 174.136C167.09 173.642 178.741 171.527 184.46 170.106C188.272 169.126 192.023 167.925 195.692 166.509C193.16 147.931 186.645 100.721 186.042 99.0789C185.46 98.5751 178.976 97.3158 173.074 96.4393L173.227 95.4318C178.067 96.1471 186.277 97.5072 186.941 98.5953C187.605 99.6834 194.62 150.984 196.754 166.741V167.124L196.397 167.275C192.574 168.78 188.658 170.045 184.674 171.063C178.159 172.715 164.006 175.224 163.864 175.244L163.312 175.345Z" fill="#263238"/>
<path d="M170.807 173.068C170.807 173.068 147.495 183.737 143.043 184.362C140.275 184.721 137.462 184.509 134.782 183.737C134.782 183.737 126.521 180.181 122.069 177.884C117.617 175.587 112.95 174.327 112.317 175.375C111.684 176.423 109.141 179.969 107.661 181.017C106.18 182.065 100.87 182.901 102.146 184.15C103.423 185.399 108.927 185.158 108.927 185.158C108.927 185.158 108.712 197.489 109.356 198.124C109.999 198.759 115.707 203.977 119.312 203.766C122.916 203.554 146.882 199.585 151.314 198.124C155.745 196.663 180.559 193.731 184.797 191.011C189.034 188.291 190.096 188.714 190.515 187.455C190.934 186.195 190.096 169.058 190.096 169.058C190.096 169.058 178.231 172.443 170.807 173.068Z" fill="#FFDCCF"/>
<path d="M119.097 204.32C115.013 204.32 109.039 198.577 108.978 198.517C108.467 198.013 108.273 193.701 108.396 185.712C106.885 185.712 102.953 185.712 101.779 184.513C101.646 184.397 101.545 184.248 101.488 184.082C101.431 183.916 101.418 183.738 101.452 183.566C101.646 182.75 102.872 182.297 104.863 181.622C105.727 181.384 106.56 181.046 107.344 180.614C108.692 179.667 111.153 176.292 111.868 175.123C112.889 173.421 118.811 175.647 122.293 177.44C126.674 179.707 134.894 183.244 134.976 183.284C137.569 184.015 140.287 184.214 142.961 183.868C147.291 183.264 170.358 172.725 170.583 172.625L170.756 172.574C178.037 171.96 189.831 168.655 189.943 168.625L190.566 168.444V169.078C190.709 171.96 191.393 186.387 190.964 187.666C190.668 188.553 190.096 188.815 189.055 189.288C187.658 189.917 186.313 190.651 185.032 191.485C182.295 193.238 171.92 194.971 162.771 196.522C157.563 197.389 153.06 198.144 151.436 198.678C147.097 200.109 123.1 204.129 119.302 204.35L119.097 204.32ZM109.437 184.674V185.208C109.346 190.9 109.437 197.187 109.764 197.872C110.938 199.011 116.105 203.494 119.281 203.302C123.049 203.081 146.852 199.101 151.151 197.681C152.856 197.127 157.39 196.371 162.648 195.494C171.246 194.054 181.958 192.271 184.521 190.628C185.843 189.77 187.229 189.012 188.667 188.362C189.688 187.908 189.882 187.797 190.035 187.354C190.311 186.478 189.933 176.373 189.616 169.774C187.084 170.459 177.363 173.028 170.94 173.582C169.194 174.388 147.505 184.261 143.114 184.876C140.268 185.256 137.372 185.036 134.618 184.231C134.496 184.181 126.245 180.624 121.834 178.347C116.963 175.829 113.134 175.164 112.756 175.647C112.235 176.514 109.601 180.282 107.957 181.45C107.088 181.94 106.162 182.326 105.2 182.599C104.23 182.921 102.606 183.475 102.453 183.818C103.321 184.614 106.874 184.825 108.906 184.714L109.437 184.674Z" fill="#263238"/>
<path d="M109.437 185.248L108.416 185.148C108.416 184.906 108.692 182.78 109.937 182.045C111.183 181.309 120.629 179.677 121.854 179.677V180.684C120.506 180.684 111.336 182.387 110.458 182.911C109.784 183.314 109.488 184.765 109.437 185.248Z" fill="#263238"/>
<path d="M120.118 189.51C116.311 189.011 112.534 188.312 108.804 187.415L109.039 186.407C112.717 187.294 116.438 187.993 120.189 188.503L120.118 189.51Z" fill="#263238"/>
<path d="M118.464 195.555C115.401 195.555 108.753 192.089 108.478 191.948L108.957 191.051C109.019 191.051 115.656 194.547 118.464 194.547V195.555Z" fill="#263238"/>
<path d="M117.861 200.723C115.512 199.877 108.936 195.837 108.671 195.686L109.212 194.829C109.273 194.829 115.972 198.99 118.229 199.796L117.861 200.723Z" fill="#263238"/>
<path d="M160.534 116.226C161.147 119.601 159.84 122.654 157.624 123.037C155.408 123.42 153.11 121.022 152.518 117.627C151.926 114.231 153.223 111.209 155.439 110.816C157.654 110.423 159.942 112.851 160.534 116.226Z" fill="#FFDCCF"/>
<path d="M157.144 123.581C156.557 123.556 155.981 123.411 155.453 123.154C154.926 122.897 154.458 122.535 154.081 122.09C153.006 120.841 152.287 119.333 151.998 117.72C151.709 116.108 151.861 114.448 152.437 112.912C152.654 112.273 153.034 111.699 153.54 111.246C154.046 110.793 154.661 110.475 155.327 110.322C157.818 109.889 160.381 112.499 161.035 116.146C161.678 119.783 160.187 123.097 157.696 123.53C157.514 123.566 157.329 123.583 157.144 123.581ZM155.909 111.279C155.78 111.265 155.65 111.265 155.521 111.279C155.022 111.411 154.564 111.664 154.191 112.016C153.818 112.369 153.541 112.808 153.386 113.294C152.893 114.646 152.766 116.101 153.021 117.515C153.275 118.93 153.901 120.253 154.837 121.354C155.154 121.751 155.566 122.064 156.037 122.262C156.508 122.461 157.022 122.54 157.532 122.493C159.462 122.16 160.596 119.359 160.034 116.266C159.513 113.425 157.716 111.279 155.909 111.279Z" fill="#263238"/>
<path d="M155.97 116.821C156.337 118.836 155.541 120.75 154.183 120.981C152.825 121.213 151.436 119.742 151.058 117.677C150.68 115.612 151.487 113.748 152.845 113.506C154.203 113.264 155.602 114.755 155.97 116.821Z" fill="#FFDCCF"/>
<path d="M153.897 121.515C152.376 121.515 150.957 119.954 150.558 117.758C150.13 115.39 151.1 113.305 152.754 113.012C154.408 112.72 156.052 114.362 156.471 116.73C156.9 119.108 155.93 121.193 154.275 121.475C154.151 121.503 154.025 121.516 153.897 121.515ZM153.132 113.99H152.938C151.916 114.171 151.253 115.813 151.569 117.566C151.886 119.319 153.03 120.639 154.102 120.468C155.174 120.296 155.787 118.644 155.47 116.881C155.174 115.259 154.132 113.949 153.132 113.949V113.99Z" fill="#263238"/>
<path d="M145.708 75.7155C145.484 75.4853 145.19 75.3332 144.871 75.2823L144.228 78.8286C146.331 82.0022 151.927 92.6008 152.264 115.672C152.269 116.069 152.433 116.449 152.72 116.728C153.006 117.007 153.393 117.163 153.796 117.163C154.203 117.155 154.59 116.989 154.873 116.7C155.156 116.411 155.312 116.023 155.307 115.622C154.898 86.0018 146.086 76.1185 145.708 75.7155Z" fill="#8C8C8C"/>
<path d="M153.816 117.667C153.275 117.667 152.755 117.455 152.372 117.077C151.989 116.699 151.774 116.186 151.774 115.652C151.447 93.0038 146.107 82.5361 143.819 79.0805L143.707 78.9092L144.483 74.6677L144.994 74.7685C145.421 74.8412 145.812 75.05 146.107 75.3629C146.505 75.786 155.419 85.7701 155.858 115.602C155.865 115.87 155.817 116.138 155.718 116.388C155.618 116.638 155.469 116.866 155.279 117.059C155.088 117.251 154.861 117.404 154.61 117.509C154.359 117.613 154.089 117.667 153.816 117.667ZM144.769 78.6876C147.158 82.3749 152.448 93.0743 152.775 115.632C152.775 115.899 152.882 116.155 153.074 116.344C153.265 116.533 153.525 116.639 153.796 116.639C154.067 116.639 154.326 116.533 154.518 116.344C154.709 116.155 154.817 115.899 154.817 115.632C154.388 86.153 145.698 76.461 145.331 76.058L145.269 75.9875L144.769 78.6876Z" fill="#263238"/>
<path d="M85.3294 144.496H85.1966C82.7663 144.164 79.417 143.488 77.9875 142.481C74.8118 140.385 78.1202 126.482 78.8656 124.014L79.2435 122.745C80.0297 120.065 81.2142 116.015 83.0114 111.551C83.0609 111.428 83.1346 111.316 83.2281 111.221C83.3217 111.126 83.4333 111.05 83.5566 110.998C83.6799 110.945 83.8124 110.917 83.9467 110.916C84.0809 110.914 84.2142 110.938 84.3389 110.987C84.4637 111.036 84.5775 111.109 84.6738 111.201C84.7701 111.293 84.847 111.404 84.9001 111.525C84.9532 111.647 84.9815 111.778 84.9833 111.91C84.9851 112.042 84.9604 112.174 84.9107 112.297C83.1544 116.669 81.9801 120.659 81.204 123.299L80.8262 124.588C78.7839 131.298 78.11 139.852 79.1413 140.809C81.1473 141.695 83.2851 142.257 85.4723 142.471C85.7384 142.508 85.9788 142.648 86.1412 142.859C86.3037 143.07 86.3753 143.336 86.3403 143.599C86.3127 143.845 86.1944 144.072 86.008 144.238C85.8216 144.403 85.58 144.495 85.3294 144.496Z" fill="#FFDCCF"/>
<path d="M85.3291 145H85.1147C84.2263 144.879 79.6414 144.214 77.7115 142.934C73.8108 140.375 78.3242 124.074 78.3752 123.913L78.7531 122.644C79.8245 118.839 81.0889 115.09 82.5415 111.41C82.6974 111.048 82.9909 110.759 83.3593 110.607C83.7276 110.454 84.1417 110.45 84.5133 110.595C84.8849 110.739 85.1846 111.021 85.3484 111.381C85.5123 111.74 85.5273 112.148 85.3904 112.519C83.634 116.881 82.47 120.861 81.6939 123.48L81.3161 124.77C79.1921 131.822 78.7837 139.731 79.4883 140.486C81.4167 141.294 83.4586 141.807 85.5436 142.008C85.9479 142.064 86.3142 142.274 86.5647 142.592C86.7383 142.816 86.8447 143.084 86.8719 143.365C86.899 143.646 86.8458 143.929 86.7182 144.182C86.5906 144.435 86.3938 144.647 86.1501 144.796C85.9064 144.944 85.6255 145.021 85.3393 145.02L85.3291 145ZM83.9608 111.441C83.8603 111.442 83.7625 111.473 83.6792 111.528C83.5958 111.584 83.5305 111.662 83.4911 111.753C81.7041 116.196 80.5196 120.236 79.7334 122.896L79.3555 124.175C78.0281 128.598 75.7509 140.426 78.2731 142.078C79.5393 142.914 82.6946 143.64 85.2576 143.982H85.3291C85.4524 143.981 85.5714 143.937 85.6649 143.858C85.7584 143.779 85.8203 143.669 85.8397 143.549C85.855 143.416 85.8185 143.283 85.7376 143.176C85.6977 143.122 85.6474 143.077 85.5896 143.042C85.5317 143.007 85.4675 142.985 85.4006 142.975C83.1366 142.759 80.9247 142.173 78.8552 141.242C77.3848 139.882 78.4672 130.653 80.3358 124.447L80.7136 123.178C81.4897 120.528 82.664 116.528 84.4407 112.096C84.4882 111.971 84.485 111.833 84.4316 111.711C84.3783 111.589 84.2791 111.492 84.1548 111.441C84.0906 111.43 84.025 111.43 83.9608 111.441Z" fill="#263238"/>
<path d="M84.1344 148.203C83.8636 148.203 83.6038 148.097 83.4123 147.908C83.2208 147.719 83.1133 147.463 83.1133 147.196C83.1133 146.929 83.2208 146.673 83.4123 146.484C83.6038 146.295 83.8636 146.189 84.1344 146.189C85.9929 146.189 91.6703 146.189 93.7024 144.012C94.0058 143.685 94.2326 143.297 94.3667 142.874C94.5008 142.45 94.539 142.003 94.4784 141.564C94.1517 137.534 94.1414 122.12 94.264 112.509C94.264 112.241 94.3716 111.985 94.5631 111.796C94.7546 111.607 95.0143 111.501 95.2851 111.501C95.5559 111.501 95.8157 111.607 96.0072 111.796C96.1987 111.985 96.3062 112.241 96.3062 112.509C96.1633 123.54 96.2143 137.776 96.5105 141.383C96.6019 142.108 96.5323 142.844 96.3066 143.54C96.0809 144.236 95.7045 144.875 95.2034 145.413C92.8548 147.841 88.0555 148.203 84.1344 148.203Z" fill="#FFDCCF"/>
<path d="M84.1342 148.667C83.728 148.667 83.3384 148.508 83.0512 148.224C82.7639 147.941 82.6025 147.556 82.6025 147.156C82.6025 146.755 82.7639 146.371 83.0512 146.087C83.3384 145.804 83.728 145.644 84.1342 145.644C88.9846 145.644 92.0786 144.969 93.3244 143.63C93.5737 143.36 93.7604 143.04 93.8715 142.692C93.9826 142.344 94.0154 141.976 93.9677 141.615C93.6409 137.585 93.6307 122.14 93.743 112.509C93.751 112.112 93.9156 111.734 94.2017 111.456C94.4878 111.177 94.8728 111.02 95.2747 111.018C95.688 111.022 96.0835 111.184 96.3775 111.471C96.5183 111.613 96.6287 111.782 96.7024 111.967C96.776 112.152 96.8114 112.35 96.8064 112.549C96.6737 123.571 96.7247 137.736 97.0209 141.373C97.1052 142.149 97.0233 142.934 96.7806 143.677C96.5378 144.419 96.1396 145.104 95.6117 145.685C93.0997 148.324 88.1575 148.667 84.1342 148.667ZM95.2849 111.934C95.1486 111.934 95.0176 111.987 94.9203 112.081C94.8229 112.175 94.7668 112.304 94.7642 112.438C94.6518 122.039 94.662 137.464 94.9786 141.443C95.0491 141.951 95.0051 142.468 94.8498 142.958C94.6944 143.447 94.4316 143.897 94.08 144.274C91.8846 146.612 86.0539 146.612 84.1342 146.612C83.9988 146.612 83.8689 146.665 83.7732 146.759C83.6774 146.854 83.6237 146.982 83.6237 147.115C83.6237 147.249 83.6774 147.377 83.7732 147.472C83.8689 147.566 83.9988 147.619 84.1342 147.619C87.9532 147.619 92.6198 147.317 94.8254 144.959C95.273 144.479 95.6097 143.909 95.8124 143.288C96.0152 142.667 96.0791 142.01 95.9997 141.363C95.7036 137.746 95.6526 123.48 95.7853 112.448C95.7903 112.381 95.78 112.314 95.7553 112.251C95.7305 112.188 95.6919 112.132 95.6423 112.085C95.5474 111.991 95.4194 111.937 95.2849 111.934Z" fill="#263238"/>
<path d="M117.994 74.5569C117.657 74.5138 117.315 74.5848 117.024 74.7584C109.069 79.7214 101.639 85.4591 94.8448 91.8855C89.9842 96.5804 85.8487 103.129 82.5402 111.34C82.4658 111.524 82.4289 111.72 82.4318 111.918C82.4347 112.116 82.4772 112.312 82.5569 112.493C82.6366 112.675 82.752 112.839 82.8963 112.977C83.0406 113.114 83.2111 113.222 83.398 113.294C83.5752 113.37 83.7666 113.407 83.9596 113.405C84.2675 113.405 84.5682 113.313 84.823 113.143C85.0778 112.972 85.2749 112.73 85.3891 112.448C87.6564 106.478 90.9368 100.931 95.0898 96.0464C94.4647 98.4029 94.0883 100.817 93.9666 103.25C93.8747 104.922 93.8032 108.176 93.7522 112.408C93.7495 112.606 93.7864 112.803 93.8609 112.988C93.9354 113.172 94.046 113.34 94.1863 113.482C94.3267 113.625 94.494 113.738 94.6788 113.816C94.8636 113.895 95.0623 113.937 95.2634 113.939C95.6662 113.939 96.0527 113.783 96.3394 113.504C96.626 113.225 96.7898 112.845 96.7951 112.448C96.7951 108.247 96.9177 105.043 96.9993 103.381C97.162 99.0306 98.3026 94.7704 100.338 90.9083C105.526 86.351 111.037 82.166 116.83 78.3854C117.339 77.1481 117.728 75.8663 117.994 74.5569Z" fill="#8C8C8C"/>
<path d="M95.2746 114.493C95.0027 114.494 94.7334 114.44 94.4827 114.336C94.2319 114.233 94.0047 114.08 93.8143 113.889C93.4358 113.507 93.2265 112.992 93.2323 112.458C93.2936 108.207 93.3651 104.942 93.457 103.28C93.5457 101.524 93.7641 99.7763 94.1105 98.0513C90.663 102.515 87.8843 107.445 85.8598 112.69C85.7608 112.936 85.6135 113.161 85.4264 113.351C85.2393 113.541 85.0161 113.693 84.7695 113.797C84.5229 113.902 84.2577 113.958 83.9893 113.962C83.7208 113.965 83.4542 113.916 83.2049 113.818C82.7039 113.618 82.3037 113.231 82.0918 112.74C81.8848 112.247 81.8848 111.692 82.0918 111.199C85.4207 102.927 89.5971 96.3285 94.5087 91.5732C101.325 85.1025 108.787 79.3272 116.78 74.3353C117.168 74.1014 117.624 74.0021 118.076 74.0532L118.628 74.1137L118.515 74.6577C118.258 76.0356 117.865 77.3854 117.341 78.6876L117.28 78.8287L117.157 78.9093C111.417 82.6558 105.957 86.8038 100.819 91.3214C98.8392 95.0948 97.7335 99.2552 97.5823 103.502C97.5006 105.134 97.4189 108.338 97.3679 112.569C97.344 113.096 97.1113 113.593 96.7198 113.953C96.3284 114.313 95.8094 114.507 95.2746 114.493ZM96.1323 94.1624L95.5809 96.2278C94.9706 98.5357 94.5977 100.898 94.4679 103.28C94.3862 104.932 94.3147 108.176 94.2535 112.418C94.2535 112.685 94.361 112.941 94.5525 113.13C94.744 113.319 95.0038 113.425 95.2746 113.425C95.5454 113.425 95.8051 113.319 95.9966 113.13C96.1881 112.941 96.2957 112.685 96.2957 112.418C96.3468 108.217 96.4284 105.003 96.5101 103.351C96.6737 98.9213 97.839 94.5841 99.9207 90.6564L100.023 90.5255C105.189 85.9885 110.676 81.8204 116.443 78.0529C116.824 77.088 117.124 76.094 117.341 75.0808C109.414 80.0428 102.014 85.7809 95.2541 92.208C90.4446 96.8524 86.3499 103.341 83.0721 111.481C83.0201 111.604 82.9934 111.736 82.9934 111.869C82.9934 112.002 83.0201 112.134 83.0721 112.257C83.1779 112.499 83.3759 112.691 83.6235 112.791C83.7482 112.84 83.8815 112.864 84.0157 112.862C84.15 112.861 84.2825 112.833 84.4058 112.78C84.5291 112.728 84.6407 112.652 84.7343 112.557C84.8278 112.462 84.9015 112.35 84.951 112.227C87.244 106.254 90.5408 100.706 94.7027 95.8147L96.1323 94.1624Z" fill="#263238"/>
<path d="M88.4628 145.745C87.3247 145.733 86.1887 145.645 85.0624 145.483C84.5208 145.411 84.0304 145.13 83.6991 144.701C83.3678 144.272 83.2228 143.731 83.2959 143.196C83.369 142.662 83.6543 142.178 84.089 141.851C84.5237 141.524 85.0722 141.381 85.6138 141.453C86.9134 141.692 88.2417 141.74 89.5554 141.594C90.0697 141.455 90.619 141.519 91.0858 141.774C91.5526 142.029 91.8998 142.454 92.0532 142.958C92.2066 143.462 92.154 144.005 91.9067 144.471C91.6593 144.938 91.2369 145.29 90.7297 145.453C89.9912 145.652 89.2284 145.751 88.4628 145.745Z" fill="#FFDCCF"/>
<path d="M88.4627 146.249C87.3005 146.236 86.1405 146.145 84.9909 145.977C84.3138 145.886 83.7011 145.534 83.2874 144.997C82.8738 144.461 82.6932 143.784 82.7852 143.116C82.8773 142.448 83.2346 141.843 83.7784 141.435C84.3223 141.027 85.0082 140.849 85.6852 140.94C86.9133 141.169 88.1686 141.224 89.4123 141.101C89.7358 140.998 90.0767 140.96 90.4152 140.989C90.7537 141.018 91.0828 141.114 91.3834 141.27C91.684 141.426 91.95 141.64 92.1657 141.899C92.3815 142.158 92.5427 142.457 92.6399 142.778C92.7371 143.099 92.7683 143.436 92.7317 143.77C92.6952 144.103 92.5916 144.426 92.427 144.719C92.2624 145.012 92.0401 145.27 91.7732 145.477C91.5062 145.685 91.2001 145.837 90.8725 145.927C90.0887 146.146 89.2774 146.254 88.4627 146.249ZM85.338 141.977C85.0064 141.976 84.6835 142.082 84.419 142.28C84.2577 142.401 84.1222 142.552 84.0206 142.725C83.9189 142.898 83.853 143.089 83.8268 143.287C83.7954 143.482 83.8055 143.681 83.8565 143.872C83.9075 144.063 83.9982 144.241 84.1229 144.395C84.2438 144.556 84.3968 144.691 84.5724 144.791C84.7479 144.892 84.9425 144.956 85.144 144.98C86.9462 145.31 88.7947 145.31 90.5968 144.98C90.7941 144.926 90.9785 144.834 91.1391 144.709C91.2998 144.584 91.4334 144.429 91.5322 144.252C91.631 144.076 91.693 143.881 91.7144 143.681C91.7358 143.48 91.7163 143.277 91.657 143.084C91.5976 142.891 91.4997 142.711 91.3689 142.556C91.2382 142.401 91.0772 142.273 90.8956 142.181C90.714 142.088 90.5154 142.032 90.3115 142.016C90.1076 142 89.9026 142.025 89.7085 142.088C88.3245 142.254 86.9229 142.21 85.5525 141.957L85.338 141.977Z" fill="#263238"/>
<path d="M84.1343 149.211H79.6311C79.0895 149.211 78.57 148.999 78.187 148.621C77.804 148.243 77.5889 147.73 77.5889 147.196C77.5889 146.662 77.804 146.149 78.187 145.771C78.57 145.393 79.0895 145.181 79.6311 145.181H84.1343C84.6759 145.181 85.1954 145.393 85.5784 145.771C85.9614 146.149 86.1766 146.662 86.1766 147.196C86.1766 147.73 85.9614 148.243 85.5784 148.621C85.1954 148.999 84.6759 149.211 84.1343 149.211Z" fill="#FFDCCF"/>
<path d="M84.1341 149.674H79.6309C78.9539 149.674 78.3046 149.409 77.8258 148.937C77.3471 148.464 77.0781 147.824 77.0781 147.156C77.0781 146.488 77.3471 145.847 77.8258 145.375C78.3046 144.902 78.9539 144.637 79.6309 144.637H84.1341C84.8112 144.637 85.4605 144.902 85.9392 145.375C86.418 145.847 86.6869 146.488 86.6869 147.156C86.6869 147.824 86.418 148.464 85.9392 148.937C85.4605 149.409 84.8112 149.674 84.1341 149.674ZM79.6309 145.645C79.2247 145.645 78.8351 145.804 78.5479 146.087C78.2606 146.371 78.0993 146.755 78.0993 147.156C78.0993 147.557 78.2606 147.941 78.5479 148.224C78.8351 148.508 79.2247 148.667 79.6309 148.667H84.1341C84.5403 148.667 84.9299 148.508 85.2172 148.224C85.5044 147.941 85.6658 147.557 85.6658 147.156C85.6658 146.755 85.5044 146.371 85.2172 146.087C84.9299 145.804 84.5403 145.645 84.1341 145.645H79.6309Z" fill="#263238"/>
<path d="M153.55 117.606C154.152 120.981 152.845 124.034 150.629 124.417C148.414 124.8 146.126 122.402 145.524 119.007C144.921 115.612 146.228 112.589 148.444 112.196C150.66 111.803 152.947 114.231 153.55 117.606Z" fill="#FFDCCF"/>
<path d="M150.16 124.961C149.572 124.935 148.997 124.789 148.469 124.533C147.942 124.276 147.475 123.914 147.096 123.47C146.011 122.232 145.303 120.716 145.054 119.097C144.401 115.45 145.891 112.136 148.383 111.703C149.062 111.618 149.753 111.707 150.387 111.961C151.022 112.215 151.58 112.626 152.008 113.153C153.095 114.386 153.804 115.9 154.05 117.516C154.377 119.128 154.228 120.8 153.621 122.331C153.401 122.97 153.019 123.542 152.512 123.994C152.004 124.445 151.388 124.761 150.721 124.911C150.537 124.947 150.348 124.964 150.16 124.961ZM148.914 112.66C148.788 112.649 148.662 112.649 148.536 112.66C146.596 113.002 145.473 115.793 146.024 118.886C146.251 120.32 146.885 121.661 147.852 122.755C148.14 123.183 148.549 123.518 149.028 123.72C149.507 123.923 150.035 123.982 150.548 123.893C151.061 123.803 151.536 123.567 151.915 123.215C152.294 122.862 152.561 122.408 152.682 121.908C153.208 120.557 153.335 119.087 153.049 117.667C152.828 116.236 152.197 114.898 151.232 113.808C150.945 113.472 150.591 113.196 150.193 112.999C149.794 112.801 149.359 112.686 148.914 112.66Z" fill="#263238"/>
<path d="M50.6813 133.091C50.6813 133.091 31.2799 108.569 29.1151 105.89C27.7646 104.122 26.569 102.245 25.5411 100.278C25.5411 100.278 25.5411 84.6922 23.8563 82.1433C22.1714 79.5944 11.2147 70.0536 8.04923 66.1446C4.88373 62.2355 1.52422 60.5531 0.646053 61.5605C-0.232116 62.568 1.66719 64.0591 2.75979 65.0968C3.8524 66.1345 8.65169 74.0331 9.07035 74.8592C9.295 75.8171 9.295 76.8129 9.07035 77.7708C9.07035 77.7708 1.69783 90.6565 3.59713 92.3188C5.49642 93.9811 10.745 99.5928 10.745 99.5928L15.8507 103.341C15.8507 103.341 26.3785 131.187 32.9137 142.199C39.4489 153.211 49.3436 168.182 51.4471 171.093C53.5507 174.005 56.7161 172.343 57.9823 170.68C59.2485 169.018 71.4204 158.278 71.4204 158.278L50.6813 133.091Z" fill="#FFDCCF"/>
<path d="M54.2659 173.229C53.624 173.211 52.9967 173.036 52.4393 172.722C51.8819 172.407 51.4115 171.962 51.0698 171.426C48.8233 168.323 38.9898 153.432 32.5057 142.501C26.2666 131.973 16.2799 105.839 15.463 103.693L10.5208 100.036C10.4085 99.9252 5.19051 94.3639 3.3729 92.7419C1.33065 90.9587 6.88558 80.8234 8.70319 77.6297C8.89193 76.8039 8.89193 75.947 8.70319 75.1211C8.2641 74.2547 3.47501 66.4669 2.4743 65.4796L1.97393 65.0061C0.85069 63.9986 -0.680986 62.5277 0.329931 61.2784C0.470364 61.1109 0.649176 60.9788 0.851588 60.8929C1.054 60.8071 1.27419 60.77 1.494 60.7847C3.26055 60.7847 6.06867 62.7997 8.49895 65.8221C11.1901 68.8352 14.036 71.7103 17.0254 74.436C20.4768 77.7305 23.4585 80.5816 24.3162 81.8611C26.0011 84.3496 26.0828 97.9808 26.093 100.096C27.0941 101.999 28.2555 103.816 29.5648 105.527C31.6071 108.187 50.743 132.346 51.0902 132.779L72.1254 158.278L71.768 158.601C67.5712 162.338 59.3715 169.733 58.4014 171.023C57.9161 171.665 57.2946 172.195 56.5804 172.576C55.8662 172.957 55.0763 173.18 54.2659 173.229ZM1.44296 61.8023C1.31047 61.7906 1.17859 61.8303 1.07536 61.9131C0.656702 62.437 1.79014 63.5049 2.62747 64.2807L3.14825 64.7743C4.29191 65.9027 9.14227 73.8416 9.56093 74.6778C9.84303 75.7379 9.84303 76.8518 9.56093 77.9118V78.063C6.09931 84.1078 3.02571 91.1602 3.97536 91.9863C5.87466 93.6386 10.9599 99.0386 11.1743 99.2905L16.2799 103.058L16.331 103.199C16.4433 103.482 26.9303 131.137 33.3634 141.987C39.7965 152.838 49.6606 167.749 51.8662 170.841C52.1151 171.246 52.4616 171.584 52.875 171.825C53.2883 172.066 53.7556 172.202 54.2353 172.222C54.884 172.172 55.5143 171.986 56.0834 171.674C56.6525 171.363 57.1471 170.935 57.5335 170.418C58.7078 168.877 68.6127 160.021 70.6856 158.167L50.212 133.444C50.018 133.202 30.8106 108.851 28.6866 106.182C27.3112 104.387 26.095 102.48 25.0514 100.479L25.0004 100.379V100.258C25.0004 95.9658 24.7042 84.4 23.3972 82.4555C21.1644 79.8982 18.7774 77.4758 16.2493 75.2017C13.2262 72.442 10.3464 69.5334 7.62076 66.4871C5.19048 63.4646 2.60704 61.8023 1.41232 61.8023H1.44296Z" fill="#263238"/>
<path d="M6.70192 79.4734C6.70192 79.4734 1.85156 87.3922 1.85156 89.4475C1.85156 91.5027 8.38677 93.9509 10.3678 94.1423C12.3487 94.3337 14.534 93.9509 14.4523 91.402C14.3706 88.853 12.553 83.725 11.879 82.113C11.2051 80.5011 7.98854 78.4962 6.70192 79.4734Z" fill="#FFDCCF"/>
<path d="M11.2248 94.6864C10.9389 94.6864 10.6325 94.6864 10.316 94.6864C8.58007 94.5151 1.33008 92.077 1.33008 89.4878C1.33008 87.362 5.76176 80.0779 6.26211 79.2518L6.39486 79.1208C6.67926 78.9312 7.00458 78.8097 7.34494 78.766C7.6853 78.7223 8.03128 78.7575 8.35541 78.869C10.0314 79.3507 11.452 80.4561 12.3174 81.9518C13.0628 83.6142 14.8396 88.843 14.9417 91.4221C14.9841 91.8617 14.9283 92.305 14.7783 92.721C14.6284 93.137 14.3879 93.5156 14.0737 93.83C13.2716 94.4673 12.2508 94.7741 11.2248 94.6864ZM7.079 79.8261C5.15928 82.9694 2.35121 88.0571 2.35121 89.4475C2.35121 90.8378 8.20226 93.4169 10.4181 93.6386C11.4447 93.8338 12.5079 93.624 13.3794 93.0542C13.5859 92.8383 13.7415 92.58 13.835 92.2979C13.9286 92.0158 13.9578 91.7167 13.9206 91.4221C13.8287 89.0042 12.0825 83.8862 11.3882 82.3548C10.6456 81.1492 9.4786 80.256 8.11035 79.8462C7.77995 79.7186 7.41426 79.7115 7.079 79.8261Z" fill="#263238"/>
<path d="M12.3594 94.0718C10.3172 91.7143 2.74042 87.0195 2.66895 86.9389L3.21014 86.0926C3.52669 86.284 11.032 90.9486 13.1355 93.427L12.3594 94.0718Z" fill="#263238"/>
<path d="M13.5841 90.1728C12.6549 88.4198 6.95695 84.4201 4.83301 83.0197L5.39462 82.1835C5.72138 82.3951 13.2471 87.372 14.4826 89.7094L13.5841 90.1728Z" fill="#263238"/>
<path d="M24.6942 87.372C24.6942 87.372 25.1129 81.5488 23.2238 79.0603C21.3347 76.5719 20.0583 76.1487 17.7403 75.9372C15.4224 75.7256 7.41672 76.5618 5.09876 76.5618C2.7808 76.5618 1.52484 77.8111 3.8428 78.6473C6.16075 79.4835 13.5333 79.6547 13.5333 79.6547C13.5333 79.6547 13.5333 86.0925 14.7893 88.3795C16.0453 90.6665 21.5389 94.8273 21.5389 94.8273" fill="#FFDCCF"/>
<path d="M21.2228 95.2505C20.9981 95.0793 15.6474 91.0091 14.3506 88.6516C13.2273 86.6366 13.0537 81.7403 13.0231 80.1686C11.3178 80.1082 5.70162 79.8462 3.66958 79.1611C2.15831 78.6171 2.04599 77.8816 2.11747 77.4988C2.26043 76.6626 3.46534 76.0984 5.09915 76.0984C6.01816 76.0984 7.88683 75.9674 9.8576 75.8264C12.4939 75.5678 15.1427 75.4535 17.7918 75.4838C20.3038 75.7055 21.6619 76.2193 23.6326 78.7984C25.6034 81.3776 25.2256 87.2008 25.2051 87.4527L24.184 87.3721C24.184 87.3217 24.5721 81.71 22.8157 79.4029C21.0594 77.0958 19.8544 76.6727 17.7101 76.4812C15.119 76.4675 12.5289 76.5818 9.9495 76.8238C7.90725 76.9749 6.05902 77.1059 5.10937 77.1059C3.83296 77.1059 3.16922 77.5189 3.12838 77.6701C3.12838 77.6701 3.22029 77.9219 4.02698 78.2141C6.24282 78.9999 13.4826 79.2216 13.5541 79.2216H14.0545V79.6951C14.0545 79.7555 14.0544 86.0321 15.2492 88.1781C16.4439 90.324 21.8048 94.4244 21.8558 94.4647L21.2228 95.2505Z" fill="#263238"/>
</svg>
