<svg width="412" height="600" viewBox="0 0 412 600" fill="none" xmlns="http://www.w3.org/2000/svg">
<rect width="412" height="600" fill="url(#paint0_linear_303_2850)"/>
<rect width="412" height="600" fill="url(#paint1_linear_303_2850)" fill-opacity="0.5"/>
<path d="M323.456 169.002C325.13 144.138 311.804 124.602 291.056 118.602C278.822 115.05 266.036 111.132 258.338 98.982C251.372 87.984 246.656 75.15 238.286 65.286C224.912 49.518 201.722 49.266 184.838 57.486C169.52 64.914 154.952 80.622 156.266 100.494C157.286 115.932 164.912 128.52 148.904 137.454C126.26 150.096 128.618 133.254 106.448 156.414C84.278 179.574 92.3 208.014 102.674 229.086C109.274 242.514 107.858 247.38 105.944 249.144C108.026 248.814 110.558 248.334 113.408 247.662C113.534 244.572 118.118 238.128 119.72 236.526C121.682 234.558 114.38 240.174 112.7 234.84C111.02 229.506 116.348 223.044 117.188 221.358C118.028 219.672 114.662 220.518 112.388 218.274C110.114 216.03 113.51 212.934 113.792 210.408C114.074 207.882 113.792 208.446 110.42 204.792C107.048 201.138 112.946 186.822 113.51 182.592C114.074 178.362 110.702 184.836 109.31 180.906C107.918 176.976 115.49 168.27 115.49 168.27C115.49 168.27 113.804 166.584 115.49 162.654C117.176 158.724 121.106 156.474 122.51 158.718C123.914 160.962 121.106 163.518 121.106 163.518C121.106 163.518 124.754 167.166 125.036 171.384C125.318 175.602 124.754 175.032 126.722 176.718C128.69 178.404 135.986 183.174 135.986 187.386C135.986 191.598 131.492 188.232 131.492 189.072C131.492 189.912 143.288 201.99 143.006 208.452C142.724 214.914 137.39 210.696 137.672 212.652C137.954 214.608 148.346 219.108 149.186 225.852C150.026 232.596 142.448 227.82 142.166 228.942C141.944 229.83 148.58 233.202 151.22 235.668C151.982 235.3 152.789 235.034 153.62 234.876C157.754 234.096 159.548 234.276 159.548 234.276C159.548 234.276 161.114 227.124 170.948 226.086C180.782 225.048 216.98 224.022 216.98 224.022L238.958 223.758C238.958 223.758 257.558 226.086 261.974 228.672C266.39 231.258 267.2 236.496 272.444 236.4C274.034 234 276.158 231.168 276.158 231.168C276.158 231.168 271.664 234.252 270.824 232.008C269.984 229.764 276.44 221.616 276.44 221.616C276.44 221.616 273.068 222.462 273.35 219.09C273.632 215.718 280.652 210.384 280.652 210.384C279.095 209.715 277.74 208.649 276.722 207.294C275.036 205.05 277.28 204.204 279.248 202.242C281.216 200.28 281.21 194.376 281.21 194.376C281.21 194.376 278.684 195.78 278.684 192.414C278.684 189.048 287.39 183.414 287.39 182.586C287.39 181.758 283.742 183.426 285.422 180.054C287.102 176.682 293 173.574 293 173.574C297.2 170.766 300.02 174.414 300.02 178.068C300.02 181.722 297.494 178.35 296.372 179.19C295.25 180.03 297.494 187.59 297.494 187.59C297.494 187.59 295.25 187.026 294.404 187.308C293.558 187.59 299.204 197.982 298.898 202.476C298.592 206.97 296.372 203.034 295.808 203.88C295.244 204.726 296.93 208.374 297.494 212.28C298.058 216.186 294.404 216.21 294.404 216.21C294.404 216.21 298.898 231.372 298.898 232.776C298.898 234.18 294.404 231.096 294.404 231.096C295.149 233.972 295.75 236.884 296.204 239.82C299.204 240.036 302.3 240.624 304.19 244.62C306.488 249.474 311.552 249.534 314.42 250.284C315.98 248.658 316.55 245.646 315.926 240.084C314.51 227.442 296.126 210.588 305.546 200.586C314.966 190.584 322.04 190.068 323.456 169.002Z" fill="#407BFF"/>
<path opacity="0.6" d="M323.456 169.002C325.13 144.138 311.804 124.602 291.056 118.602C278.822 115.05 266.036 111.132 258.338 98.982C251.372 87.984 246.656 75.15 238.286 65.286C224.912 49.518 201.722 49.266 184.838 57.486C169.52 64.914 154.952 80.622 156.266 100.494C157.286 115.932 164.912 128.52 148.904 137.454C126.26 150.096 128.618 133.254 106.448 156.414C84.278 179.574 92.3 208.014 102.674 229.086C109.274 242.514 107.858 247.38 105.944 249.144C108.026 248.814 110.558 248.334 113.408 247.662C113.534 244.572 118.118 238.128 119.72 236.526C121.682 234.558 114.38 240.174 112.7 234.84C111.02 229.506 116.348 223.044 117.188 221.358C118.028 219.672 114.662 220.518 112.388 218.274C110.114 216.03 113.51 212.934 113.792 210.408C114.074 207.882 113.792 208.446 110.42 204.792C107.048 201.138 112.946 186.822 113.51 182.592C114.074 178.362 110.702 184.836 109.31 180.906C107.918 176.976 115.49 168.27 115.49 168.27C115.49 168.27 113.804 166.584 115.49 162.654C117.176 158.724 121.106 156.474 122.51 158.718C123.914 160.962 121.106 163.518 121.106 163.518C121.106 163.518 124.754 167.166 125.036 171.384C125.318 175.602 124.754 175.032 126.722 176.718C128.69 178.404 135.986 183.174 135.986 187.386C135.986 191.598 131.492 188.232 131.492 189.072C131.492 189.912 143.288 201.99 143.006 208.452C142.724 214.914 137.39 210.696 137.672 212.652C137.954 214.608 148.346 219.108 149.186 225.852C150.026 232.596 142.448 227.82 142.166 228.942C141.944 229.83 148.58 233.202 151.22 235.668C151.982 235.3 152.789 235.034 153.62 234.876C157.754 234.096 159.548 234.276 159.548 234.276C159.548 234.276 161.114 227.124 170.948 226.086C180.782 225.048 216.98 224.022 216.98 224.022L238.958 223.758C238.958 223.758 257.558 226.086 261.974 228.672C266.39 231.258 267.2 236.496 272.444 236.4C274.034 234 276.158 231.168 276.158 231.168C276.158 231.168 271.664 234.252 270.824 232.008C269.984 229.764 276.44 221.616 276.44 221.616C276.44 221.616 273.068 222.462 273.35 219.09C273.632 215.718 280.652 210.384 280.652 210.384C279.095 209.715 277.74 208.649 276.722 207.294C275.036 205.05 277.28 204.204 279.248 202.242C281.216 200.28 281.21 194.376 281.21 194.376C281.21 194.376 278.684 195.78 278.684 192.414C278.684 189.048 287.39 183.414 287.39 182.586C287.39 181.758 283.742 183.426 285.422 180.054C287.102 176.682 293 173.574 293 173.574C297.2 170.766 300.02 174.414 300.02 178.068C300.02 181.722 297.494 178.35 296.372 179.19C295.25 180.03 297.494 187.59 297.494 187.59C297.494 187.59 295.25 187.026 294.404 187.308C293.558 187.59 299.204 197.982 298.898 202.476C298.592 206.97 296.372 203.034 295.808 203.88C295.244 204.726 296.93 208.374 297.494 212.28C298.058 216.186 294.404 216.21 294.404 216.21C294.404 216.21 298.898 231.372 298.898 232.776C298.898 234.18 294.404 231.096 294.404 231.096C295.149 233.972 295.75 236.884 296.204 239.82C299.204 240.036 302.3 240.624 304.19 244.62C306.488 249.474 311.552 249.534 314.42 250.284C315.98 248.658 316.55 245.646 315.926 240.084C314.51 227.442 296.126 210.588 305.546 200.586C314.966 190.584 322.04 190.068 323.456 169.002Z" fill="white"/>
<path d="M238.646 238.26C238.646 238.26 209.246 236.034 215.936 240.936C222.626 245.838 239.984 237.816 239.54 241.38C239.096 244.944 231.968 244.05 239.096 244.938C246.224 245.826 254.234 244.05 256.904 245.388C259.574 246.726 261.392 249.822 264.704 249.162C268.016 248.502 272.924 247.614 278.27 248.058C283.616 248.502 287.618 248.058 280.94 244.494C274.262 240.93 268.028 242.694 263.132 240.048C259.58 238.11 257.57 232.32 253.418 231.294C247.694 229.872 244.856 238.26 238.646 238.26Z" fill="#407BFF"/>
<path opacity="0.6" d="M238.646 238.26C238.646 238.26 209.246 236.034 215.936 240.936C222.626 245.838 239.984 237.816 239.54 241.38C239.096 244.944 231.968 244.05 239.096 244.938C246.224 245.826 254.234 244.05 256.904 245.388C259.574 246.726 261.392 249.822 264.704 249.162C268.016 248.502 272.924 247.614 278.27 248.058C283.616 248.502 287.618 248.058 280.94 244.494C274.262 240.93 268.028 242.694 263.132 240.048C259.58 238.11 257.57 232.32 253.418 231.294C247.694 229.872 244.856 238.26 238.646 238.26Z" fill="white"/>
<path d="M137.114 239.25C134.906 239.712 131.99 240.36 131.99 240.36" stroke="#263238" stroke-linecap="round" stroke-linejoin="round"/>
<path d="M167.6 226.2C166.955 226.334 166.325 226.535 165.722 226.8C160.022 229.428 159.584 234.252 159.584 234.252C157.231 234.263 154.887 234.546 152.6 235.098C149.534 235.974 148.658 237.288 146.9 238.164C145.466 238.884 141.974 238.722 139.55 238.878" stroke="#263238" stroke-linecap="round" stroke-linejoin="round"/>
<path d="M296.066 239.892C296.996 239.922 297.866 239.922 298.574 239.922C299.084 239.922 299.587 240.04 300.043 240.268C300.499 240.497 300.896 240.828 301.202 241.236" stroke="#263238" stroke-linecap="round" stroke-linejoin="round"/>
<path d="M267.572 235.056C267.946 235.469 268.4 235.802 268.906 236.035C269.413 236.268 269.961 236.397 270.518 236.412C274.904 236.85 279.722 231.612 284.546 234.66C289.37 237.708 290.246 239.046 291.998 239.46C292.274 239.526 292.598 239.586 292.91 239.634" stroke="#263238" stroke-linecap="round" stroke-linejoin="round"/>
<path d="M252.8 227.046C256.247 226.736 259.701 227.562 262.634 229.398C264.071 230.293 265.279 231.511 266.162 232.956" stroke="#263238" stroke-linecap="round" stroke-linejoin="round"/>
<path d="M228.434 230.712C237.2 232.47 240.71 236.85 240.71 236.85C240.947 236.714 241.194 236.595 241.448 236.496C256.964 226.956 267.248 210.372 267.248 191.496C267.248 161.904 242.006 137.922 210.848 137.922C179.69 137.922 154.448 161.922 154.448 191.496C154.448 214.428 169.616 233.988 190.934 241.632L192.314 241.692C194.763 240.976 197.042 239.774 199.016 238.158C207.83 231.15 219.668 228.96 228.434 230.712Z" fill="white"/>
<mask id="mask0_303_2850" style="mask-type:luminance" maskUnits="userSpaceOnUse" x="154" y="137" width="114" height="105">
<path d="M228.434 230.712C237.2 232.47 240.71 236.85 240.71 236.85C240.947 236.714 241.194 236.595 241.448 236.496C256.964 226.956 267.248 210.372 267.248 191.496C267.248 161.904 242.006 137.922 210.848 137.922C179.69 137.922 154.448 161.922 154.448 191.496C154.448 214.428 169.616 233.988 190.934 241.632L192.314 241.692C194.763 240.976 197.042 239.774 199.016 238.158C207.83 231.15 219.668 228.96 228.434 230.712Z" fill="white"/>
</mask>
<g mask="url(#mask0_303_2850)">
<g style="mix-blend-mode:multiply" opacity="0.5">
<path d="M211.178 137.934L192.29 147.12C192.29 147.12 198.014 153.306 209.264 154.434C220.514 155.562 223.136 152.184 223.136 152.184C223.136 152.184 228.008 164.556 240.008 168.678C252.008 172.8 257.768 172.104 262.502 181.8C267.236 191.496 261.752 198.3 261.752 198.3C261.752 198.3 264.002 201.3 262.502 203.922C261.002 206.544 261.752 208.044 258.38 208.044C255.008 208.044 251.252 206.172 251.252 206.172C252.435 207.759 253.977 209.044 255.752 209.922C257.547 210.624 259.453 211.004 261.38 211.044C261.38 211.044 259.88 215.544 252.752 221.544C245.624 227.544 241.508 229.038 233.636 229.038C225.764 229.038 218.636 224.544 207.392 231.288C200.726 235.29 196.694 238.758 194.516 240.924C196.149 240.212 197.679 239.284 199.064 238.164C207.83 231.15 219.668 228.96 228.434 230.712C237.2 232.464 240.71 236.85 240.71 236.85C240.947 236.714 241.194 236.595 241.448 236.496C256.964 226.956 267.248 210.372 267.248 191.496C267.242 162 242.168 138.096 211.178 137.934Z" fill="#407BFF"/>
</g>
</g>
<path d="M228.434 230.712C237.2 232.47 240.71 236.85 240.71 236.85C240.947 236.714 241.194 236.595 241.448 236.496C256.964 226.956 267.248 210.372 267.248 191.496C267.248 161.904 242.006 137.922 210.848 137.922C179.69 137.922 154.448 161.922 154.448 191.496C154.448 214.428 169.616 233.988 190.934 241.632L192.314 241.692C194.763 240.976 197.042 239.774 199.016 238.158C207.83 231.15 219.668 228.96 228.434 230.712Z" stroke="#263238" stroke-linecap="round" stroke-linejoin="round"/>
<path d="M231.986 173.562C235.445 173.562 238.25 170.927 238.25 167.676C238.25 164.425 235.445 161.79 231.986 161.79C228.526 161.79 225.722 164.425 225.722 167.676C225.722 170.927 228.526 173.562 231.986 173.562Z" fill="#263238" stroke="#263238" stroke-linecap="round" stroke-linejoin="round"/>
<path d="M236.924 202.044C240.383 202.044 243.188 199.409 243.188 196.158C243.188 192.907 240.383 190.272 236.924 190.272C233.464 190.272 230.66 192.907 230.66 196.158C230.66 199.409 233.464 202.044 236.924 202.044Z" fill="#263238" stroke="#263238" stroke-linecap="round" stroke-linejoin="round"/>
<path d="M162.698 176.286C162.38 180.237 163.623 184.155 166.16 187.2" stroke="#263238" stroke-linecap="round" stroke-linejoin="round"/>
<path d="M168.026 189.06C168.026 189.06 169.886 191.19 172.016 191.724" stroke="#263238" stroke-linecap="round" stroke-linejoin="round"/>
<path d="M163.232 193.056C163.232 193.056 165.362 198.648 172.55 201.312" stroke="#263238" stroke-linecap="round" stroke-linejoin="round"/>
<path d="M161.9 184.8C161.9 184.8 164.03 190.92 168.824 193.848" stroke="#263238" stroke-linecap="round" stroke-linejoin="round"/>
<path d="M165.626 201.042C167.648 202.697 170.013 203.879 172.55 204.504" stroke="#263238" stroke-linecap="round" stroke-linejoin="round"/>
<path d="M170.156 215.952C170.156 215.952 173.084 220.212 183.2 222.078" stroke="#263238" stroke-linecap="round" stroke-linejoin="round"/>
<path d="M179.474 223.674C181.124 224.517 182.944 224.973 184.796 225.006" stroke="#263238" stroke-linecap="round" stroke-linejoin="round"/>
<path d="M242.432 157.236L274.712 121.536C274.712 121.536 276.272 102.756 278.552 102.756C280.832 102.756 281.552 103.308 281.168 106.356C280.784 109.404 278.366 118.8 278.366 118.8C278.366 118.8 284.582 112.8 288.002 107.886C291.422 102.972 294.458 95.3519 297.494 95.3519C300.53 95.3519 300.158 98.3939 297.878 101.808C295.598 105.222 272.81 128.772 274.328 129.534C275.846 130.296 291.422 118.134 291.8 121.176C292.178 124.218 266.354 138.246 261.416 142.8C256.478 147.354 244.328 161.4 244.328 161.4L242.432 157.236Z" fill="#407BFF" stroke="#263238" stroke-linecap="round" stroke-linejoin="round"/>
<path opacity="0.5" d="M242.432 157.236L274.712 121.536C274.712 121.536 276.272 102.756 278.552 102.756C280.832 102.756 281.552 103.308 281.168 106.356C280.784 109.404 278.366 118.8 278.366 118.8C278.366 118.8 284.582 112.8 288.002 107.886C291.422 102.972 294.458 95.3519 297.494 95.3519C300.53 95.3519 300.158 98.3939 297.878 101.808C295.598 105.222 272.81 128.772 274.328 129.534C275.846 130.296 291.422 118.134 291.8 121.176C292.178 124.218 266.354 138.246 261.416 142.8C256.478 147.354 244.328 161.4 244.328 161.4L242.432 157.236Z" fill="black"/>
<path d="M299.414 97.1699L296.06 101.454" stroke="#263238" stroke-linecap="round" stroke-linejoin="round"/>
<path d="M294.944 102.384L293.27 104.622" stroke="#263238" stroke-linecap="round" stroke-linejoin="round"/>
<path d="M270.356 132.378L267.374 135.36" stroke="#263238" stroke-linecap="round" stroke-linejoin="round"/>
<path d="M147.41 142.998L157.094 149.328" stroke="#263238" stroke-linecap="round" stroke-linejoin="round"/>
<path d="M158.396 150.072L161.378 152.124" stroke="#263238" stroke-linecap="round" stroke-linejoin="round"/>
<path d="M176.732 157.236L154.7 143.562C143.69 136.728 136.1 131.406 136.1 131.406L133.064 109.38C131.941 109.13 130.794 109.003 129.644 109.002C127.742 109.002 127.364 111.66 127.364 111.66C127.364 111.66 126.608 111.282 128.882 116.22C131.156 121.158 131.534 128.4 131.534 128.4C131.534 128.4 123.2 120.396 117.482 116.22C111.764 112.044 111.026 109.38 107.99 109.02C104.954 108.66 104.57 113.958 106.094 115.476C107.618 116.994 135.332 136.362 137.234 137.502C139.136 138.642 126.218 135.222 123.56 134.466C120.902 133.71 119.36 134.088 120.524 136.362C121.688 138.636 142.928 142.062 142.928 142.062L172.55 161.4C172.55 161.4 176 163.308 176.732 157.236Z" fill="#407BFF" stroke="#263238" stroke-linecap="round" stroke-linejoin="round"/>
<path opacity="0.5" d="M176.732 157.236L154.7 143.562C143.69 136.728 136.1 131.406 136.1 131.406L133.064 109.38C131.941 109.13 130.794 109.003 129.644 109.002C127.742 109.002 127.364 111.66 127.364 111.66C127.364 111.66 126.608 111.282 128.882 116.22C131.156 121.158 131.534 128.4 131.534 128.4C131.534 128.4 123.2 120.396 117.482 116.22C111.764 112.044 111.026 109.38 107.99 109.02C104.954 108.66 104.57 113.958 106.094 115.476C107.618 116.994 135.332 136.362 137.234 137.502C139.136 138.642 126.218 135.222 123.56 134.466C120.902 133.71 119.36 134.088 120.524 136.362C121.688 138.636 142.928 142.062 142.928 142.062L172.55 161.4C172.55 161.4 176 163.308 176.732 157.236Z" fill="black"/>
<path d="M107.99 109.002C107.99 109.002 109.19 109.092 109.19 111.888C109.19 114.684 108.338 116.61 106.064 115.488" stroke="#263238" stroke-linecap="round" stroke-linejoin="round"/>
<path d="M109.406 116.172L113.504 119.526" stroke="#263238" stroke-linecap="round" stroke-linejoin="round"/>
<path d="M109.034 113.19L111.638 115.428" stroke="#263238" stroke-linecap="round" stroke-linejoin="round"/>
<path d="M180.482 103.254C180.482 103.254 179.81 96.4439 175.838 91.6739C173.535 88.8659 170.711 86.5291 167.522 84.7919C167.522 84.7919 172.196 68.4059 192.47 62.7059C207.884 58.3739 214.07 60.9419 214.07 60.9419C214.07 60.9419 213.17 76.8059 219.542 86.4359C219.536 86.4359 204.968 85.1999 180.482 103.254Z" fill="#263238" stroke="#263238" stroke-linecap="round" stroke-linejoin="round"/>
<path d="M173.21 87.2879C174.83 83.8164 177.283 80.799 180.35 78.5039" stroke="white" stroke-linecap="round" stroke-linejoin="round"/>
<path d="M182 77.4C182 77.4 184.466 76.026 186.392 75.204" stroke="white" stroke-linecap="round" stroke-linejoin="round"/>
<path d="M176.78 89.208C176.78 89.208 180.074 83.718 184.466 81.246" stroke="white" stroke-linecap="round" stroke-linejoin="round"/>
<path d="M213.296 73.8359C210.246 73.0298 207.052 72.9354 203.96 73.5599" stroke="white" stroke-linecap="round" stroke-linejoin="round"/>
<path d="M197.996 78.5999C188.822 81.3959 181.646 87.3239 177.704 94.4459C179.147 97.1909 180.088 100.172 180.482 103.248C204.968 85.1939 219.536 86.4479 219.536 86.4479C217.834 83.7537 216.574 80.8044 215.804 77.7119C209.887 76.5136 203.764 76.8189 197.996 78.5999Z" fill="#407BFF" stroke="#263238" stroke-linecap="round" stroke-linejoin="round"/>
<path d="M212.247 119.784C231.638 111.368 244.215 97.3066 240.34 88.3757C236.464 79.4448 217.602 79.0268 198.212 87.4421C178.821 95.8574 166.243 109.919 170.119 118.85C173.995 127.781 192.856 128.199 212.247 119.784Z" fill="#263238" stroke="#263238" stroke-linecap="round" stroke-linejoin="round"/>
<path d="M212.798 121.703C232.189 113.288 244.766 99.2262 240.89 90.2953C237.014 81.3644 218.153 80.9464 198.762 89.3617C179.371 97.7769 166.794 111.839 170.67 120.77C174.546 129.701 193.407 130.119 212.798 121.703Z" fill="#263238" stroke="#263238" stroke-linecap="round" stroke-linejoin="round"/>
<path d="M174.5 106.65C179.426 100.374 188.054 94.0079 198.764 89.3579C214.04 82.7279 228.986 81.5579 236.534 85.7579" stroke="white" stroke-linecap="round" stroke-linejoin="round"/>
<path d="M170.6 113.514C171.186 111.816 171.993 110.202 173 108.714" stroke="white" stroke-linecap="round" stroke-linejoin="round"/>
<path d="M189.98 132.732C189.476 133.132 189.088 133.659 188.857 134.26C188.626 134.86 188.56 135.511 188.666 136.146C188.93 138.504 189.98 138.768 189.194 140.61C188.408 142.452 187.352 143.496 189.452 145.068C191.552 146.64 196.544 151.11 207.572 151.11C218.6 151.11 225.164 149.01 229.628 145.332C234.092 141.654 231.992 140.346 231.992 137.982C231.992 135.618 234.092 134.304 231.464 131.418C228.836 128.532 223.85 139.8 189.98 132.732Z" fill="#407BFF" stroke="#263238" stroke-linecap="round" stroke-linejoin="round"/>
<path opacity="0.3" d="M189.98 132.732C189.476 133.132 189.088 133.659 188.857 134.26C188.626 134.86 188.56 135.511 188.666 136.146C188.93 138.504 189.98 138.768 189.194 140.61C188.408 142.452 187.352 143.496 189.452 145.068C191.552 146.64 196.544 151.11 207.572 151.11C218.6 151.11 225.164 149.01 229.628 145.332C234.092 141.654 231.992 140.346 231.992 137.982C231.992 135.618 234.092 134.304 231.464 131.418C228.836 128.532 223.85 139.8 189.98 132.732Z" fill="black"/>
<path d="M221.936 149.34C224.74 148.526 227.354 147.163 229.628 145.332C229.76 145.224 229.886 145.122 230.006 145.014C229.532 141.636 228.452 137.46 226.628 134.274C226.274 133.674 225.956 133.104 225.65 132.612C221.45 134.184 214.25 136.08 200.864 134.532L195.872 135.948C195.872 135.948 193.076 138.468 193.076 140.706V143.778L192.29 147.12C194.458 148.486 196.83 149.499 199.316 150.12L199.508 145.728C199.508 145.728 199.508 140.418 201.74 139.578C203.972 138.738 208.454 140.7 208.454 140.7L208.01 151.098C210.998 151.106 213.982 150.893 216.938 150.462C217.22 147.942 217.43 143.994 216.566 140.7L215.168 135.384L221.036 134.544C221.036 134.544 222.716 139.578 222.434 144.054C222.302 146.202 222.104 148.02 221.936 149.34Z" fill="#263238" stroke="#263238" stroke-linecap="round" stroke-linejoin="round"/>
<path d="M234.092 144.546C234.092 144.546 241.97 152.16 254.048 145.332C266.126 138.504 267.962 134.04 274.526 133.254C278.623 132.782 282.755 132.694 286.868 132.99L285.554 145.59C285.554 145.59 281.354 143.49 268.754 147.954C256.154 152.418 249.854 155.568 241.976 153.204C234.098 150.84 234.092 144.546 234.092 144.546Z" fill="#407BFF" stroke="#263238" stroke-linecap="round" stroke-linejoin="round"/>
<path opacity="0.4" d="M234.092 144.546C234.092 144.546 241.97 152.16 254.048 145.332C266.126 138.504 267.962 134.04 274.526 133.254C278.623 132.782 282.755 132.694 286.868 132.99L285.554 145.59C285.554 145.59 281.354 143.49 268.754 147.954C256.154 152.418 249.854 155.568 241.976 153.204C234.098 150.84 234.092 144.546 234.092 144.546Z" fill="black"/>
<path d="M277.946 132.948L275.6 145.944C282.932 144.288 285.56 145.596 285.56 145.596L286.874 132.996C283.903 132.779 280.92 132.763 277.946 132.948Z" fill="#263238" stroke="#263238" stroke-linecap="round" stroke-linejoin="round"/>
<path d="M253.88 153.066C257.12 152.214 260.744 150.858 265.196 149.238L268.574 135.48C265.706 137.316 262.616 140.166 256.658 143.802L253.88 153.066Z" fill="#263238" stroke="#263238" stroke-linecap="round" stroke-linejoin="round"/>
<path d="M214.922 141.396C214.922 141.396 221.75 139.8 223.85 144C225.95 148.2 228.842 155.292 239.87 160.8C250.898 166.308 264.026 163.428 273.47 161.586C282.914 159.744 288.962 161.586 288.962 161.586L290.276 145.836C290.276 145.836 281.348 139.272 271.634 143.208C261.92 147.144 249.05 151.35 241.172 147.936C233.294 144.522 231.986 135.336 227.258 135.594C227.264 135.6 216.236 139.554 214.922 141.396Z" fill="#407BFF" stroke="#263238" stroke-linecap="round" stroke-linejoin="round"/>
<path opacity="0.3" d="M214.922 141.396C214.922 141.396 221.75 139.8 223.85 144C225.95 148.2 228.842 155.292 239.87 160.8C250.898 166.308 264.026 163.428 273.47 161.586C282.914 159.744 288.962 161.586 288.962 161.586L290.276 145.836C290.276 145.836 281.348 139.272 271.634 143.208C261.92 147.144 249.05 151.35 241.172 147.936C233.294 144.522 231.986 135.336 227.258 135.594C227.264 135.6 216.236 139.554 214.922 141.396Z" fill="black"/>
<path d="M231.362 138.114L222.428 142.35C223.032 142.781 223.52 143.354 223.85 144.018C224.528 145.38 225.29 147.018 226.382 148.848L235.214 143.292C233.696 141.474 232.52 139.572 231.362 138.114Z" fill="#263238" stroke="#263238" stroke-linecap="round" stroke-linejoin="round"/>
<path d="M246.098 163.062L252.416 148.914C249.539 149.373 246.604 149.335 243.74 148.8L236.126 158.742C237.337 159.509 238.587 160.214 239.87 160.854C241.854 161.827 243.944 162.568 246.098 163.062Z" fill="#263238" stroke="#263238" stroke-linecap="round" stroke-linejoin="round"/>
<path d="M276.488 161.136L278.6 141.984C276.219 141.911 273.848 142.336 271.64 143.232C270.362 143.748 269.03 144.27 267.662 144.78L264.734 163.2C267.854 162.726 270.812 162.126 273.476 161.604C274.526 161.4 275.528 161.256 276.488 161.136Z" fill="#263238" stroke="#263238" stroke-linecap="round" stroke-linejoin="round"/>
<path d="M235.922 115.59C235.92 122.661 233.11 129.441 228.11 134.44C223.11 139.439 216.329 142.248 209.258 142.248C194.54 142.248 183.356 133.212 183.356 118.488C183.356 103.764 197.702 93.3539 212.426 93.3539C227.15 93.3539 235.922 100.866 235.922 115.59Z" fill="white"/>
<mask id="mask1_303_2850" style="mask-type:luminance" maskUnits="userSpaceOnUse" x="183" y="93" width="53" height="50">
<path d="M235.922 115.59C235.92 122.661 233.11 129.441 228.11 134.44C223.11 139.439 216.329 142.248 209.258 142.248C194.54 142.248 183.356 133.212 183.356 118.488C183.356 103.764 197.702 93.3539 212.426 93.3539C227.15 93.3539 235.922 100.866 235.922 115.59Z" fill="white"/>
</mask>
<g mask="url(#mask1_303_2850)">
<g style="mix-blend-mode:multiply" opacity="0.5">
<path d="M212.426 93.3539C197.702 93.3539 183.356 103.764 183.356 118.488C183.36 120.344 183.562 122.194 183.956 124.008C187.148 119.55 194.636 111.912 210.044 108.318C218.506 106.412 227.34 107.004 235.472 110.022C233.438 98.9999 225.164 93.3539 212.426 93.3539Z" fill="#407BFF"/>
</g>
<g style="mix-blend-mode:multiply" opacity="0.5">
<path d="M232.898 127.914C234.879 124.109 235.908 119.88 235.898 115.59C235.898 110.79 234.962 106.782 233.204 103.53C233.253 108.781 232.758 114.023 231.728 119.172C230.871 117.179 229.625 115.378 228.062 113.874C225.296 111.252 219.758 111.108 218.738 114.474C218.738 114.474 219.464 118.992 222.092 120.3C223.982 121.154 225.998 121.695 228.062 121.902C228.456 122.769 229.001 123.559 229.67 124.236C229.868 124.404 230.024 124.53 230.162 124.638C226.826 133.698 220.97 137.652 213.776 139.638C206.684 141.606 199.064 139.956 194.096 138.318C198.691 140.98 203.925 142.337 209.234 142.242C214.108 142.242 218.889 140.906 223.057 138.379C227.225 135.852 230.621 132.23 232.874 127.908L232.898 127.914Z" fill="#407BFF"/>
</g>
</g>
<path d="M235.922 115.59C235.92 122.661 233.11 129.441 228.11 134.44C223.11 139.439 216.329 142.248 209.258 142.248C194.54 142.248 183.356 133.212 183.356 118.488C183.356 103.764 197.702 93.3539 212.426 93.3539C227.15 93.3539 235.922 100.866 235.922 115.59Z" stroke="#263238" stroke-linecap="round" stroke-linejoin="round"/>
<path d="M216.578 105C217.13 106.434 217.034 107.808 216.374 108.06C215.714 108.312 214.718 107.364 214.166 105.924C213.614 104.484 213.71 103.116 214.37 102.864C215.03 102.612 216.02 103.554 216.578 105Z" fill="#263238"/>
<path d="M224.834 103.494C225.386 104.928 225.296 106.296 224.63 106.554C223.964 106.812 222.98 105.852 222.428 104.418C221.876 102.984 221.966 101.61 222.632 101.352C223.298 101.094 224.282 102.054 224.834 103.494Z" fill="#263238"/>
<path d="M213.032 126.06C213.032 126.06 202.43 125.46 204.554 115.464" stroke="#263238" stroke-linecap="round" stroke-linejoin="round"/>
<path d="M207.584 115.158L202.13 115.764" stroke="#263238" stroke-linecap="round" stroke-linejoin="round"/>
<path d="M186.128 115.05C186.128 115.05 186.128 116.916 188.792 118.248" stroke="#263238" stroke-linecap="round" stroke-linejoin="round"/>
<path d="M186.926 119.31C186.926 119.31 189.056 121.176 190.922 121.176" stroke="#263238" stroke-linecap="round" stroke-linejoin="round"/>
<path d="M210.692 100.956C210.81 100.073 211.258 99.2669 211.946 98.7004C212.634 98.1339 213.51 97.8486 214.4 97.902" stroke="#263238" stroke-linecap="round" stroke-linejoin="round"/>
<path d="M221.048 97.9019C221.048 97.9019 223.658 96.5939 224.966 99.3179" stroke="#263238" stroke-linecap="round" stroke-linejoin="round"/>
<path d="M221.534 107.454C220.19 108.393 219.192 109.746 218.69 111.306C218.03 113.736 219.158 117.366 222.02 117.738C223.989 117.898 225.967 117.588 227.792 116.832C229.892 117.18 232.041 117.09 234.104 116.568C237.53 115.704 237.314 113.85 237.314 113.85C237.314 113.85 238.298 114.204 241.694 113.106C245.09 112.008 245.492 109.374 245.492 109.374C245.492 109.374 246.212 109.524 248.912 108.504C251.612 107.484 254.168 107.19 254.234 105.774C254.3 104.358 246.086 104.37 244.256 104.82C242.426 105.27 240.752 104.988 238.43 105.258C237.084 105.402 235.776 105.793 234.572 106.41C234.572 106.41 231.656 105.576 229.802 105.81C228.786 105.919 227.782 106.12 226.802 106.41C226.802 106.41 222.71 105.438 221.534 107.454Z" fill="#407BFF" stroke="#263238" stroke-linecap="round" stroke-linejoin="round"/>
<path d="M226.814 106.368C226.363 106.689 226.003 107.12 225.766 107.62C225.53 108.12 225.426 108.672 225.464 109.224" stroke="#263238" stroke-linecap="round" stroke-linejoin="round"/>
<path d="M225.464 110.652C225.398 111.345 225.583 112.04 225.986 112.608" stroke="#263238" stroke-linecap="round" stroke-linejoin="round"/>
<path d="M235.094 109.2C234.892 110.108 235.001 111.058 235.404 111.897C235.806 112.736 236.479 113.415 237.314 113.826" stroke="#263238" stroke-linecap="round" stroke-linejoin="round"/>
<path d="M244.466 105.84C244.466 105.84 244.076 106.356 244.598 107.64" stroke="#263238" stroke-linecap="round" stroke-linejoin="round"/>
<path d="M135.686 199.716C135.356 200.544 133.844 200.718 132.302 200.106C130.76 199.494 129.776 198.306 130.106 197.496C130.436 196.686 131.954 196.494 133.496 197.106C135.038 197.718 136.016 198.888 135.686 199.716Z" fill="white" stroke="#263238" stroke-linecap="round" stroke-linejoin="round"/>
<path d="M123.434 151.746C123.104 152.574 121.586 152.748 120.044 152.136C118.502 151.524 117.524 150.336 117.854 149.526C118.184 148.716 119.702 148.524 121.238 149.136C122.774 149.748 123.764 150.912 123.434 151.746Z" fill="white" stroke="#263238" stroke-linecap="round" stroke-linejoin="round"/>
<path d="M157.136 101.4C156.806 102.228 155.294 102.402 153.752 101.79C152.21 101.178 151.232 99.9901 151.562 99.1801C151.892 98.3701 153.404 98.1781 154.946 98.7901C156.488 99.4021 157.466 100.59 157.136 101.4Z" fill="white" stroke="#263238" stroke-linecap="round" stroke-linejoin="round"/>
<path d="M277.202 177.786C276.872 178.614 275.354 178.788 273.812 178.176C272.27 177.564 271.292 176.376 271.622 175.566C271.952 174.756 273.47 174.564 275.006 175.176C276.542 175.788 277.532 176.952 277.202 177.786Z" fill="white" stroke="#263238" stroke-linecap="round" stroke-linejoin="round"/>
<path d="M297.314 83.9161C296.984 84.7441 295.466 84.9181 293.924 84.3061C292.382 83.6941 291.404 82.5061 291.734 81.6961C292.064 80.8861 293.576 80.6941 295.118 81.3061C296.66 81.9181 297.638 83.0881 297.314 83.9161Z" fill="white" stroke="#263238" stroke-linecap="round" stroke-linejoin="round"/>
<path d="M194.534 130.506C194.204 131.334 192.692 131.508 191.15 130.896C189.608 130.284 188.63 129.096 188.96 128.286C189.29 127.476 190.802 127.284 192.344 127.896C193.886 128.508 194.864 129.678 194.534 130.506Z" fill="white" stroke="#263238" stroke-linecap="round" stroke-linejoin="round"/>
<path d="M300.266 227.004C299.936 227.832 298.424 228.006 296.882 227.394C295.34 226.782 294.362 225.594 294.686 224.784C295.01 223.974 296.534 223.782 298.076 224.394C299.618 225.006 300.596 226.2 300.266 227.004Z" fill="white" stroke="#263238" stroke-linecap="round" stroke-linejoin="round"/>
<path d="M249.476 247.314C251.517 247.314 253.172 245.764 253.172 243.852C253.172 241.94 251.517 240.39 249.476 240.39C247.435 240.39 245.78 241.94 245.78 243.852C245.78 245.764 247.435 247.314 249.476 247.314Z" fill="white" stroke="#263238" stroke-linecap="round" stroke-linejoin="round"/>
<path d="M267.026 246.858C267.026 247.315 266.891 247.762 266.637 248.141C266.383 248.521 266.022 248.817 265.6 248.992C265.178 249.167 264.713 249.213 264.265 249.124C263.817 249.035 263.406 248.815 263.083 248.491C262.76 248.168 262.54 247.757 262.45 247.309C262.361 246.861 262.407 246.396 262.582 245.974C262.757 245.552 263.053 245.191 263.433 244.937C263.813 244.684 264.259 244.548 264.716 244.548C265.329 244.548 265.916 244.791 266.349 245.225C266.783 245.658 267.026 246.245 267.026 246.858Z" fill="white" stroke="#263238" stroke-linecap="round" stroke-linejoin="round"/>
<path d="M119.402 93.8581C119.078 94.6921 117.56 94.8661 116.018 94.2541C114.476 93.6421 113.498 92.4541 113.828 91.6441C114.158 90.8341 115.67 90.6361 117.212 91.2481C118.754 91.8601 119.732 93.0301 119.402 93.8581Z" fill="white" stroke="#263238" stroke-linecap="round" stroke-linejoin="round"/>
<path d="M256.514 77.8501C256.28 78.4501 255.194 78.5701 254.114 78.1321C253.034 77.6941 252.314 76.8601 252.548 76.2661C252.782 75.6721 253.868 75.5461 254.948 75.9841C256.028 76.4221 256.748 77.2561 256.514 77.8501Z" fill="white" stroke="#263238" stroke-linecap="round" stroke-linejoin="round"/>
<path d="M165.722 57.69C165.482 58.29 164.402 58.41 163.322 57.972C162.242 57.534 161.522 56.7 161.756 56.106C161.99 55.512 163.076 55.386 164.156 55.824C165.236 56.262 165.956 57.096 165.722 57.69Z" fill="white" stroke="#263238" stroke-linecap="round" stroke-linejoin="round"/>
<path d="M95.6661 171.174C95.4321 171.774 94.3461 171.894 93.2661 171.456C92.1861 171.018 91.4661 170.178 91.6941 169.584C91.9221 168.99 93.0141 168.87 94.0941 169.302C95.1741 169.734 95.9061 170.58 95.6661 171.174Z" fill="white" stroke="#263238" stroke-linecap="round" stroke-linejoin="round"/>
<path d="M318.866 176.34C318.626 176.94 317.546 177.06 316.466 176.622C315.386 176.184 314.666 175.35 314.894 174.756C315.122 174.162 316.214 174.036 317.294 174.474C318.374 174.912 319.1 175.746 318.866 176.34Z" fill="white" stroke="#263238" stroke-linecap="round" stroke-linejoin="round"/>
<path d="M226.82 61.974C226.586 62.574 225.5 62.694 224.42 62.256C223.34 61.818 222.62 60.978 222.848 60.384C223.076 59.79 224.168 59.664 225.248 60.102C226.328 60.54 227.06 61.38 226.82 61.974Z" fill="white" stroke="#263238" stroke-linecap="round" stroke-linejoin="round"/>
<path d="M135.584 206.556C135.35 207.156 134.264 207.276 133.184 206.838C132.104 206.4 131.384 205.566 131.612 204.972C131.84 204.378 132.932 204.252 134.012 204.69C135.092 205.128 135.8 205.962 135.584 206.556Z" fill="white" stroke="#263238" stroke-linecap="round" stroke-linejoin="round"/>
<path d="M267.632 212.094C267.398 212.694 266.312 212.814 265.232 212.376C264.152 211.938 263.432 211.104 263.66 210.51C263.888 209.916 264.98 209.79 266.06 210.228C267.14 210.666 267.872 211.5 267.632 212.094Z" fill="white" stroke="#263238" stroke-linecap="round" stroke-linejoin="round"/>
<path d="M213.464 206.226C213.23 206.826 212.144 206.946 211.064 206.508C209.984 206.07 209.264 205.23 209.492 204.642C209.72 204.054 210.812 203.922 211.892 204.36C212.972 204.798 213.704 205.632 213.464 206.226Z" fill="white" stroke="#263238" stroke-linecap="round" stroke-linejoin="round"/>
<defs>
<linearGradient id="paint0_linear_303_2850" x1="206" y1="0" x2="206" y2="600" gradientUnits="userSpaceOnUse">
<stop stop-color="#1E7CFF"/>
<stop offset="1" stop-color="white"/>
</linearGradient>
<linearGradient id="paint1_linear_303_2850" x1="206" y1="0" x2="206" y2="600" gradientUnits="userSpaceOnUse">
<stop stop-color="#8AB9FF"/>
<stop offset="1" stop-color="white" stop-opacity="0"/>
</linearGradient>
</defs>
</svg>
