<svg width="350" height="350" viewBox="0 0 350 350" fill="none" xmlns="http://www.w3.org/2000/svg">
<path d="M333.053 193.935C323.61 222.558 303.261 253.939 273.308 264.152C228.06 279.594 224 316.701 141.897 316.449C129.908 316.465 117.952 315.181 106.239 312.62C100.513 311.347 94.8734 309.71 89.3552 307.72C40.7052 290.171 14.0702 248.437 10.2552 203.84C5.2502 145.18 45.1642 115.591 71.1552 98.1399C97.1462 80.6889 126.826 15.9249 207.564 15.5399C219.889 15.4294 232.186 16.7424 244.209 19.4529C271.621 25.7529 299.831 40.9219 316.778 64.0429C318.045 65.7789 319.263 67.5429 320.439 69.3769C343.322 104.958 345.933 154.903 333.053 193.935Z" fill="#458FF6"/>
<path opacity="0.7" d="M333.053 193.935C323.61 222.558 303.261 253.939 273.308 264.152C228.06 279.594 224 316.701 141.897 316.449C129.908 316.465 117.952 315.181 106.239 312.62C100.513 311.347 94.8734 309.71 89.3552 307.72C40.7052 290.171 14.0702 248.437 10.2552 203.84C5.2502 145.18 45.1642 115.591 71.1552 98.1399C97.1462 80.6889 126.826 15.9249 207.564 15.5399C219.889 15.4294 232.186 16.7424 244.209 19.4529C271.621 25.7529 299.831 40.9219 316.778 64.0429C318.045 65.7789 319.263 67.5429 320.439 69.3769C343.322 104.958 345.933 154.903 333.053 193.935Z" fill="white"/>
<path d="M212.926 40.922V281.456C212.926 284.627 211.666 287.668 209.424 289.91C207.182 292.152 204.141 293.412 200.97 293.412H97.0341C93.8632 293.412 90.8221 292.152 88.58 289.91C86.3378 287.668 85.0781 284.627 85.0781 281.456V40.915C85.0781 37.7459 86.337 34.7066 88.5779 32.4658C90.8188 30.2249 93.8581 28.966 97.0271 28.966H141.638L141.68 29.099C142.8 33.103 145.348 35.7 148.19 35.7H149.8C152.642 35.7 155.197 33.096 156.31 29.092L156.359 28.959H200.97C202.541 28.959 204.096 29.2685 205.547 29.8698C206.998 30.471 208.316 31.3523 209.427 32.4633C210.537 33.5743 211.418 34.8931 212.018 36.3445C212.618 37.7958 212.927 39.3513 212.926 40.922Z" fill="white"/>
<path d="M200.97 293.762H97.0342C95.4163 293.764 93.8139 293.447 92.3185 292.83C90.823 292.212 89.4639 291.306 88.3185 290.163C87.1732 289.021 86.2642 287.664 85.6434 286.17C85.0225 284.676 84.702 283.074 84.7002 281.456V40.915C84.7039 37.6542 86.0009 34.5281 88.3066 32.2224C90.6123 29.9166 93.7384 28.6197 96.9992 28.616H141.876L141.988 29.008C143.059 32.865 145.488 35.357 148.162 35.357H149.8C152.481 35.357 154.903 32.865 155.974 29.008L156.1 28.616H200.97C204.233 28.6197 207.361 29.9174 209.668 32.2244C211.975 34.5314 213.272 37.6593 213.276 40.922V281.456C213.272 284.719 211.975 287.846 209.668 290.154C207.361 292.461 204.233 293.758 200.97 293.762ZM97.0272 29.316C95.5022 29.3141 93.9917 29.6127 92.582 30.1946C91.1724 30.7765 89.8911 31.6304 88.8115 32.7074C87.7318 33.7845 86.8748 35.0637 86.2895 36.4719C85.7042 37.8802 85.402 39.3899 85.4002 40.915V281.456C85.4039 284.533 86.6279 287.483 88.8036 289.659C90.9794 291.834 93.9292 293.058 97.0062 293.062H200.97C204.047 293.058 206.997 291.834 209.173 289.659C211.349 287.483 212.572 284.533 212.576 281.456V40.922C212.572 37.845 211.349 34.8951 209.173 32.7194C206.997 30.5436 204.047 29.3197 200.97 29.316H156.632C155.456 33.411 152.789 36.057 149.814 36.057H148.19C145.215 36.057 142.548 33.411 141.372 29.316H97.0272Z" fill="#263238"/>
<path d="M168.63 186.095H131.551C129.68 186.095 128.163 187.612 128.163 189.483V196.371C128.163 198.242 129.68 199.759 131.551 199.759H168.63C170.501 199.759 172.018 198.242 172.018 196.371V189.483C172.018 187.612 170.501 186.095 168.63 186.095Z" fill="#263238"/>
<path d="M168.623 200.109H131.523C130.532 200.107 129.583 199.713 128.882 199.012C128.181 198.311 127.787 197.362 127.785 196.371V189.483C127.785 188.491 128.179 187.541 128.88 186.84C129.581 186.139 130.532 185.745 131.523 185.745H168.623C169.615 185.745 170.567 186.138 171.269 186.839C171.971 187.54 172.366 188.491 172.368 189.483V196.371C172.366 197.363 171.971 198.314 171.269 199.014C170.567 199.715 169.615 200.109 168.623 200.109ZM131.523 186.445C130.717 186.445 129.945 186.765 129.375 187.335C128.805 187.904 128.485 188.677 128.485 189.483V196.371C128.487 197.176 128.808 197.948 129.377 198.517C129.946 199.086 130.718 199.407 131.523 199.409H168.623C169.43 199.409 170.203 199.089 170.774 198.519C171.345 197.95 171.666 197.177 171.668 196.371V189.483C171.668 189.083 171.589 188.688 171.436 188.319C171.283 187.95 171.059 187.614 170.776 187.332C170.493 187.05 170.157 186.826 169.788 186.674C169.419 186.522 169.023 186.444 168.623 186.445H131.523Z" fill="#263238"/>
<path d="M85.0781 218.582V281.456C85.0781 284.627 86.3378 287.668 88.58 289.91C90.8221 292.152 93.8632 293.412 97.0341 293.412H200.97C204.141 293.412 207.182 292.152 209.424 289.91C211.666 287.668 212.926 284.627 212.926 281.456V218.582H85.0781Z" fill="#DBDBDB"/>
<path d="M200.97 293.762H97.0342C95.4163 293.764 93.8139 293.447 92.3185 292.829C90.823 292.212 89.4639 291.306 88.3185 290.163C87.1732 289.021 86.2642 287.664 85.6434 286.17C85.0225 284.675 84.702 283.074 84.7002 281.456V218.582C84.7002 218.489 84.7371 218.4 84.8027 218.334C84.8683 218.269 84.9574 218.232 85.0502 218.232H212.926C213.019 218.232 213.108 218.269 213.174 218.334C213.239 218.4 213.276 218.489 213.276 218.582V281.456C213.272 284.719 211.975 287.846 209.668 290.153C207.361 292.461 204.233 293.758 200.97 293.762ZM85.4002 218.932V281.456C85.4039 284.533 86.6279 287.483 88.8036 289.659C90.9794 291.834 93.9292 293.058 97.0062 293.062H200.97C204.047 293.058 206.997 291.834 209.173 289.659C211.349 287.483 212.572 284.533 212.576 281.456V218.932H85.4002Z" fill="#263238"/>
<path d="M124.012 226.17H92.1408C91.2632 226.17 90.5518 226.881 90.5518 227.759V236.355C90.5518 237.232 91.2632 237.944 92.1408 237.944H124.012C124.889 237.944 125.601 237.232 125.601 236.355V227.759C125.601 226.881 124.889 226.17 124.012 226.17Z" fill="white"/>
<path d="M163.24 226.17H131.369C130.491 226.17 129.78 226.881 129.78 227.759V236.355C129.78 237.232 130.491 237.944 131.369 237.944H163.24C164.117 237.944 164.829 237.232 164.829 236.355V227.759C164.829 226.881 164.117 226.17 163.24 226.17Z" fill="white"/>
<path d="M202.461 226.17H170.59C169.712 226.17 169.001 226.881 169.001 227.759V236.355C169.001 237.232 169.712 237.944 170.59 237.944H202.461C203.339 237.944 204.05 237.232 204.05 236.355V227.759C204.05 226.881 203.339 226.17 202.461 226.17Z" fill="white"/>
<path d="M124.012 241.22H92.1408C91.2632 241.22 90.5518 241.931 90.5518 242.809V251.405C90.5518 252.283 91.2632 252.994 92.1408 252.994H124.012C124.889 252.994 125.601 252.283 125.601 251.405V242.809C125.601 241.931 124.889 241.22 124.012 241.22Z" fill="white"/>
<path d="M163.24 241.22H131.369C130.491 241.22 129.78 241.931 129.78 242.809V251.405C129.78 252.283 130.491 252.994 131.369 252.994H163.24C164.117 252.994 164.829 252.283 164.829 251.405V242.809C164.829 241.931 164.117 241.22 163.24 241.22Z" fill="white"/>
<path d="M202.461 241.22H170.59C169.712 241.22 169.001 241.931 169.001 242.809V251.405C169.001 252.283 169.712 252.994 170.59 252.994H202.461C203.339 252.994 204.05 252.283 204.05 251.405V242.809C204.05 241.931 203.339 241.22 202.461 241.22Z" fill="white"/>
<path d="M124.012 256.263H92.1408C91.2632 256.263 90.5518 256.974 90.5518 257.852V266.448C90.5518 267.326 91.2632 268.037 92.1408 268.037H124.012C124.889 268.037 125.601 267.326 125.601 266.448V257.852C125.601 256.974 124.889 256.263 124.012 256.263Z" fill="white"/>
<path d="M163.24 256.263H131.369C130.491 256.263 129.78 256.974 129.78 257.852V266.448C129.78 267.326 130.491 268.037 131.369 268.037H163.24C164.117 268.037 164.829 267.326 164.829 266.448V257.852C164.829 256.974 164.117 256.263 163.24 256.263Z" fill="white"/>
<path d="M202.461 256.263H170.59C169.712 256.263 169.001 256.974 169.001 257.852V266.448C169.001 267.326 169.712 268.037 170.59 268.037H202.461C203.339 268.037 204.05 267.326 204.05 266.448V257.852C204.05 256.974 203.339 256.263 202.461 256.263Z" fill="white"/>
<path d="M163.24 271.313H131.369C130.491 271.313 129.78 272.024 129.78 272.902V281.498C129.78 282.376 130.491 283.087 131.369 283.087H163.24C164.117 283.087 164.829 282.376 164.829 281.498V272.902C164.829 272.024 164.117 271.313 163.24 271.313Z" fill="white"/>
<path d="M199.822 283.087H177.954L173.236 277.606L177.954 271.313H199.822V283.087Z" fill="white"/>
<path d="M150.402 83.4399L150.087 83.2019L149.772 83.4399C149.772 83.4399 133.672 92.6029 126.392 96.0819C126.392 96.0819 129.892 115.682 132.391 124.516C134.89 133.35 144.718 138.103 150.087 141.26C155.463 138.103 165.256 133.364 167.783 124.516C170.31 115.668 173.789 96.0819 173.789 96.0819C166.516 92.6029 150.402 83.4399 150.402 83.4399Z" fill="#458DFC"/>
<path d="M148.435 121.317L137.753 112.161C137.509 111.952 137.308 111.696 137.162 111.41C137.016 111.123 136.928 110.81 136.903 110.489C136.852 109.842 137.061 109.2 137.484 108.706C137.906 108.213 138.507 107.907 139.155 107.856C139.803 107.806 140.444 108.015 140.938 108.437L147.938 114.443L159.936 100.8C160.365 100.312 160.97 100.014 161.619 99.9717C162.267 99.9297 162.906 100.147 163.394 100.576C163.882 101.005 164.18 101.61 164.222 102.258C164.264 102.907 164.047 103.546 163.618 104.034L148.435 121.317Z" fill="white"/>
<path d="M108.374 152.201H93.8418V166.733H108.374V152.201Z" fill="white"/>
<path d="M108.731 167.083H93.4922V151.851H108.731V167.083ZM94.1922 166.383H108.031V152.551H94.1922V166.383Z" fill="#263238"/>
<path d="M127.967 152.201H113.435V166.733H127.967V152.201Z" fill="white"/>
<path d="M128.317 167.083H113.085V151.851H128.317V167.083ZM113.785 166.383H127.617V152.551H113.785V166.383Z" fill="#263238"/>
<path d="M147.56 152.201H133.028V166.733H147.56V152.201Z" fill="white"/>
<path d="M147.91 167.083H132.678V151.851H147.91V167.083ZM133.378 166.383H147.21V152.551H133.378V166.383Z" fill="#263238"/>
<path d="M167.146 152.201H152.614V166.733H167.146V152.201Z" fill="white"/>
<path d="M167.503 167.083H152.264V151.851H167.503V167.083ZM152.964 166.383H166.803V152.551H152.964V166.383Z" fill="#263238"/>
<path d="M186.739 152.201H172.207V166.733H186.739V152.201Z" fill="white"/>
<path d="M187.089 167.083H171.857V151.851H187.089V167.083ZM172.557 166.383H186.389V152.551H172.557V166.383Z" fill="#263238"/>
<path d="M206.332 152.201H191.8V166.733H206.332V152.201Z" fill="white"/>
<path d="M206.682 167.083H191.45V151.851H206.682V167.083ZM192.15 166.383H205.982V152.551H192.15V166.383Z" fill="#263238"/>
<path d="M212.926 52.108V40.908C212.922 37.7395 211.661 34.702 209.419 32.4629C207.178 30.2237 204.139 28.966 200.97 28.966H156.366L156.324 29.099C155.211 33.103 152.656 35.7 149.8 35.7H148.19C145.348 35.7 142.786 33.096 141.68 29.092L141.638 28.959H97.0271C93.8581 28.959 90.8188 30.2179 88.5779 32.4588C86.337 34.6996 85.0781 37.7389 85.0781 40.908V52.108H212.926Z" fill="#DBDBDB"/>
<path d="M212.919 52.4579H85.078C84.9852 52.4579 84.8962 52.421 84.8305 52.3554C84.7649 52.2898 84.728 52.2007 84.728 52.1079V40.9079C84.7317 37.6471 86.0287 34.521 88.3344 32.2153C90.6401 29.9096 93.7663 28.6126 97.027 28.6089H141.638C141.715 28.6081 141.79 28.6333 141.851 28.6802C141.912 28.7272 141.955 28.7933 141.974 28.8679L142.016 29.0009C143.087 32.8579 145.516 35.3499 148.19 35.3499H149.8C152.481 35.3499 154.903 32.8579 155.974 29.0009L156.023 28.8539C156.044 28.7831 156.088 28.721 156.147 28.6768C156.206 28.6327 156.278 28.6088 156.352 28.6089H200.97C204.232 28.6126 207.359 29.9105 209.665 32.2178C211.971 34.525 213.267 37.6529 213.269 40.9149V52.1149C213.267 52.2065 213.229 52.2937 213.164 52.3579C213.099 52.422 213.011 52.4579 212.919 52.4579ZM85.4 51.7579H212.569V40.9219C212.567 37.8456 211.345 34.8957 209.17 32.7197C206.996 30.5438 204.046 29.3196 200.97 29.3159H156.632C155.456 33.4109 152.789 36.0569 149.814 36.0569H148.19C145.215 36.0569 142.548 33.4109 141.372 29.3159H97.027C95.502 29.3141 93.9915 29.6126 92.5819 30.1945C91.1722 30.7764 89.891 31.6303 88.8113 32.7074C87.7316 33.7844 86.8747 35.0636 86.2894 36.4719C85.7041 37.8801 85.4019 39.3899 85.4 40.9149V51.7579Z" fill="#263238"/>
<path d="M221.053 98.371V74.347H218.876V43.589C218.877 41.0991 218.387 38.6333 217.435 36.3327C216.483 34.032 215.087 31.9415 213.326 30.1805C211.566 28.4196 209.476 27.0227 207.176 26.0696C204.876 25.1165 202.41 24.626 199.92 24.626H98.0841C95.5921 24.6232 93.1239 25.1117 90.8208 26.0634C88.5177 27.0152 86.4248 28.4115 84.6617 30.1727C82.8986 31.9338 81.4999 34.0252 80.5456 36.3273C79.5913 38.6294 79.1001 41.097 79.1001 43.589V287.994C79.1001 290.484 79.5906 292.949 80.5437 295.25C81.4968 297.55 82.8937 299.64 84.6547 301.4C86.4156 303.161 88.5061 304.557 90.8068 305.509C93.1075 306.461 95.5732 306.951 98.0631 306.95H199.92C202.41 306.951 204.875 306.461 207.175 305.509C209.476 304.557 211.566 303.16 213.326 301.4C215.086 299.64 216.483 297.549 217.435 295.249C218.387 292.949 218.877 290.484 218.876 287.994V118.846H221.053V104.65H218.876V98.35L221.053 98.371ZM212.926 274.449C212.926 279.478 210.928 284.302 207.372 287.858C203.816 291.414 198.992 293.412 193.963 293.412H104.041C99.0118 293.412 94.1885 291.414 90.6322 287.858C87.076 284.302 85.0781 279.478 85.0781 274.449V47.922C85.08 42.8939 87.0787 38.0724 90.6347 34.5176C94.1908 30.9629 99.013 28.966 104.041 28.966H141.638L141.68 29.099C142.8 33.103 145.348 35.7 148.19 35.7H149.8C152.642 35.7 155.197 33.096 156.31 29.092L156.359 28.959H193.949C198.977 28.959 203.799 30.9559 207.355 34.5106C210.912 38.0654 212.91 42.8869 212.912 47.915L212.926 274.449Z" fill="#458DFC"/>
<path d="M199.92 307.3H98.084C92.9648 307.294 88.0567 305.259 84.4363 301.64C80.8158 298.02 78.7784 293.113 78.771 287.994V43.5889C78.7784 38.469 80.8155 33.561 84.4358 29.9407C88.0561 26.3204 92.9641 24.2833 98.084 24.2759H199.92C205.039 24.2833 209.947 26.3207 213.566 29.9411C217.185 33.5616 219.22 38.4697 219.226 43.5889V73.9969H221.053C221.146 73.9969 221.235 74.0338 221.3 74.0994C221.366 74.165 221.403 74.2541 221.403 74.3469V98.3709C221.403 98.4637 221.366 98.5527 221.3 98.6184C221.235 98.684 221.146 98.7209 221.053 98.7209H219.226V104.321H221.053C221.146 104.321 221.235 104.358 221.3 104.423C221.366 104.489 221.403 104.578 221.403 104.671V118.867C221.403 118.96 221.366 119.049 221.3 119.114C221.235 119.18 221.146 119.217 221.053 119.217H219.226V287.994C219.22 293.112 217.185 298.02 213.565 301.639C209.946 305.259 205.039 307.294 199.92 307.3ZM98.084 24.9759C93.1492 24.9814 88.4182 26.9442 84.9288 30.4336C81.4393 33.923 79.4766 38.6541 79.471 43.5889V287.994C79.4766 292.928 81.4396 297.658 84.9292 301.147C88.4188 304.635 93.1499 306.596 98.084 306.6H199.92C204.853 306.594 209.582 304.632 213.07 301.144C216.558 297.656 218.52 292.927 218.526 287.994V118.846C218.526 118.753 218.563 118.664 218.629 118.598C218.694 118.533 218.783 118.496 218.876 118.496H220.703V105H218.876C218.784 104.998 218.696 104.961 218.63 104.895C218.565 104.83 218.528 104.742 218.526 104.65V98.3499C218.526 98.2571 218.563 98.168 218.629 98.1024C218.694 98.0368 218.783 97.9999 218.876 97.9999H220.703V74.6969H218.876C218.784 74.6951 218.696 74.6576 218.63 74.5924C218.565 74.5271 218.528 74.4391 218.526 74.3469V43.5889C218.522 38.6548 216.561 33.9237 213.073 30.4341C209.584 26.9445 204.854 24.9814 199.92 24.9759H98.084ZM193.984 293.776H104.041C98.9139 293.776 93.9965 291.74 90.3698 288.116C86.743 284.492 84.7037 279.576 84.7 274.449V47.9219C84.7074 42.8027 86.7448 37.8954 90.3652 34.2762C93.9857 30.657 98.8938 28.6214 104.013 28.6159H141.61C141.687 28.6138 141.763 28.6385 141.824 28.6856C141.885 28.7328 141.928 28.7997 141.946 28.8749L141.988 29.0079C143.059 32.8649 145.488 35.3569 148.162 35.3569H149.8C152.481 35.3569 154.903 32.8649 155.974 29.0079L156.023 28.8609C156.044 28.79 156.088 28.7279 156.147 28.6838C156.206 28.6396 156.278 28.6158 156.352 28.6159H193.949C199.068 28.6214 203.976 30.657 207.597 34.2762C211.217 37.8954 213.255 42.8027 213.262 47.9219V274.449C213.255 279.566 211.219 284.472 207.602 288.092C203.985 291.712 199.08 293.751 193.963 293.762L193.984 293.776ZM104.041 29.3159C99.102 29.3122 94.3637 31.2701 90.8681 34.7592C87.3724 38.2483 85.4056 42.9829 85.4 47.9219V274.449C85.4056 279.384 87.3683 284.115 90.8578 287.604C94.3472 291.094 99.0782 293.056 104.013 293.062H193.963C198.898 293.056 203.629 291.094 207.118 287.604C210.608 284.115 212.57 279.384 212.576 274.449V47.9219C212.57 42.9878 210.607 38.2574 207.118 34.7691C203.628 31.2808 198.897 29.3196 193.963 29.3159H156.632C155.456 33.4109 152.789 36.0569 149.814 36.0569H148.19C145.215 36.0569 142.548 33.4109 141.372 29.3159H104.041Z" fill="#263238"/>
<path d="M198.401 27.2368H99.6028C94.7578 27.2387 90.1115 29.1627 86.6836 32.5867C83.2557 36.0107 81.3263 40.6548 81.3188 45.4998V286.055C81.3188 290.904 83.2452 295.555 86.6741 298.984C90.103 302.412 94.7536 304.339 99.6028 304.339H198.401C203.25 304.339 207.901 302.412 211.33 298.984C214.759 295.555 216.685 290.904 216.685 286.055V45.4998C216.677 40.6548 214.748 36.0107 211.32 32.5867C207.892 29.1627 203.246 27.2387 198.401 27.2368ZM212.926 275.1C212.924 279.95 210.996 284.6 207.566 288.029C204.136 291.458 199.485 293.384 194.635 293.384H103.369C98.519 293.384 93.8677 291.458 90.4376 288.029C87.0076 284.6 85.0797 279.95 85.0778 275.1V47.2428C85.0778 44.8421 85.5508 42.4648 86.4698 40.2469C87.3887 38.029 88.7356 36.0138 90.4335 34.3166C92.1315 32.6193 94.1471 31.2732 96.3654 30.3551C98.5837 29.437 100.961 28.9649 103.362 28.9658H141.638L141.68 29.0988C142.8 33.1028 145.348 35.6998 148.19 35.6998H149.8C152.642 35.6998 155.197 33.0958 156.31 29.0918L156.359 28.9588H194.621C197.024 28.9561 199.405 29.4272 201.626 30.3452C203.847 31.2633 205.866 32.6103 207.566 34.3091C209.266 36.008 210.614 38.0253 211.534 40.2458C212.454 42.4663 212.927 44.8464 212.926 47.2498V275.1Z" fill="#263238"/>
<path d="M198.401 304.689H99.6027C94.6624 304.683 89.926 302.718 86.4327 299.225C82.9393 295.732 80.9743 290.995 80.9688 286.055V45.5C80.9743 40.5596 82.9393 35.8232 86.4327 32.3299C89.926 28.8365 94.6624 26.8715 99.6027 26.866H198.401C203.341 26.8715 208.077 28.8365 211.571 32.3299C215.064 35.8232 217.029 40.5596 217.035 45.5V286.055C217.029 290.995 215.064 295.732 211.571 299.225C208.077 302.718 203.341 304.683 198.401 304.689ZM99.6027 27.594C94.8529 27.5995 90.2988 29.4869 86.9375 32.8429C83.5762 36.199 81.6817 40.7501 81.6687 45.5V286.055C81.6743 290.81 83.5656 295.368 86.9276 298.73C90.2897 302.092 94.8481 303.983 99.6027 303.989H198.401C203.155 303.983 207.714 302.092 211.076 298.73C214.438 295.368 216.329 290.81 216.335 286.055V45.5C216.329 40.7453 214.438 36.1869 211.076 32.8249C207.714 29.4628 203.155 27.5715 198.401 27.566L99.6027 27.594ZM194.635 293.762H103.369C100.917 293.763 98.4899 293.281 96.225 292.343C93.96 291.406 91.9019 290.031 90.1682 288.298C88.4345 286.565 87.0593 284.508 86.121 282.243C85.1827 279.979 84.6998 277.551 84.6998 275.1V47.243C84.7072 42.3038 86.673 37.5692 90.1661 34.0774C93.6593 30.5856 98.3946 28.6215 103.334 28.616H141.61C141.687 28.6139 141.763 28.6386 141.824 28.6857C141.885 28.7329 141.928 28.7997 141.946 28.875L141.988 29.008C143.059 32.865 145.488 35.357 148.162 35.357H149.8C152.481 35.357 154.903 32.865 155.974 29.008L156.023 28.861C156.044 28.7901 156.087 28.728 156.147 28.6839C156.206 28.6397 156.278 28.6159 156.352 28.616H194.621C199.564 28.6178 204.305 30.581 207.802 34.0745C211.3 37.5681 213.268 42.3066 213.276 47.25V275.1C213.276 280.046 211.312 284.789 207.817 288.289C204.322 291.788 199.581 293.756 194.635 293.762ZM103.362 29.316C98.6029 29.3123 94.0373 31.1987 90.669 34.5604C87.3006 37.9222 85.4053 42.4841 85.3998 47.243V275.1C85.4072 279.855 87.3 284.414 90.6632 287.776C94.0263 291.137 98.5854 293.028 103.341 293.034H194.635C199.39 293.028 203.949 291.137 207.312 287.776C210.676 284.414 212.568 279.855 212.576 275.1V47.25C212.57 42.4941 210.678 37.9347 207.314 34.5724C203.951 31.2101 199.391 29.3197 194.635 29.316H156.632C155.456 33.411 152.789 36.057 149.814 36.057H148.19C145.215 36.057 142.548 33.411 141.372 29.316H103.362Z" fill="#263238"/>
<path d="M150.388 29.8689C150.387 29.5175 150.281 29.1745 150.085 28.883C149.889 28.5915 149.611 28.3647 149.286 28.2312C148.961 28.0977 148.603 28.0635 148.259 28.1329C147.914 28.2023 147.598 28.3722 147.35 28.6211C147.102 28.8701 146.934 29.1869 146.866 29.5316C146.798 29.8763 146.833 30.2334 146.968 30.5579C147.103 30.8824 147.331 31.1597 147.623 31.3547C147.915 31.5498 148.259 31.6539 148.61 31.6539C148.844 31.6539 149.076 31.6077 149.292 31.5179C149.508 31.4281 149.705 31.2965 149.87 31.1307C150.035 30.9648 150.166 30.768 150.255 30.5515C150.344 30.3349 150.389 30.103 150.388 29.8689Z" fill="white"/>
<path d="M96.4458 36.6938C96.4458 38.4928 94.4228 39.1438 94.4088 40.5158V40.5998H96.3758V41.2088H93.7578V40.6978C93.7578 38.7658 95.7808 38.3948 95.7808 36.7078C95.7808 36.0988 95.5708 35.7698 95.0808 35.7698C94.5908 35.7698 94.3808 36.1198 94.3808 36.6518V37.1768H93.7578V36.6938C93.7578 35.7768 94.1708 35.1748 95.0948 35.1748C96.0188 35.1748 96.4458 35.7768 96.4458 36.6938Z" fill="#263238"/>
<path d="M99.7149 36.6799V36.8339C99.7445 37.087 99.6926 37.343 99.5667 37.5646C99.4408 37.7862 99.2475 37.9618 99.0149 38.0659C99.2495 38.1694 99.4443 38.346 99.5705 38.5692C99.6966 38.7925 99.7472 39.0505 99.7149 39.3049V39.7669C99.7149 40.6769 99.2879 41.2719 98.3639 41.2719C97.4399 41.2719 97.0269 40.6769 97.0269 39.7669V39.3539H97.6499V39.8089C97.6499 40.3409 97.8669 40.6699 98.3499 40.6699C98.8329 40.6699 99.0499 40.3549 99.0499 39.7459V39.2839C99.0499 38.6959 98.7979 38.4159 98.2939 38.4019H97.9369V37.7999H98.3289C98.4317 37.8014 98.5336 37.7802 98.6274 37.7378C98.7211 37.6955 98.8044 37.633 98.8712 37.5548C98.938 37.4766 98.9868 37.3846 99.014 37.2854C99.0413 37.1862 99.0464 37.0823 99.0289 36.9809V36.7079C99.0289 36.0919 98.8119 35.7769 98.3289 35.7769C97.8459 35.7769 97.6289 36.1129 97.6289 36.6519V36.9529H97.0059V36.6799C97.0059 35.7699 97.4329 35.1819 98.3429 35.1819C99.2529 35.1819 99.7149 35.7699 99.7149 36.6799Z" fill="#263238"/>
<path d="M101.003 37.1348V37.9608H100.359V37.1348H101.003ZM101.003 40.3898V41.2158H100.359V40.3898H101.003Z" fill="#263238"/>
<path d="M102.354 37.6738C102.44 37.5164 102.568 37.3862 102.724 37.2983C102.88 37.2104 103.057 37.1683 103.236 37.1768C104.006 37.1768 104.349 37.7438 104.349 38.5768V39.7458C104.349 40.6558 103.915 41.2508 102.998 41.2508C102.081 41.2508 101.661 40.6558 101.661 39.7458V39.3398H102.284V39.7878C102.284 40.3198 102.508 40.6488 102.984 40.6488C103.46 40.6488 103.684 40.3198 103.684 39.7878V38.6468C103.684 38.1078 103.46 37.7858 102.984 37.7858C102.896 37.7781 102.806 37.7887 102.722 37.8172C102.638 37.8456 102.56 37.8912 102.495 37.951C102.429 38.0109 102.376 38.0837 102.34 38.1649C102.304 38.2461 102.285 38.3339 102.284 38.4228V38.5628H101.668L101.829 35.2378H104.181V35.8398H102.424L102.354 37.6738Z" fill="#263238"/>
<path d="M107.667 36.6729V36.7849H107.044V36.6309C107.044 36.0919 106.827 35.7769 106.344 35.7769C105.861 35.7769 105.644 36.1059 105.644 36.7429V38.0799C105.715 37.8843 105.848 37.7169 106.022 37.6022C106.196 37.4875 106.402 37.4317 106.61 37.4429C107.38 37.4429 107.723 37.9959 107.723 38.8429V39.7529C107.723 40.6629 107.268 41.2579 106.323 41.2579C105.378 41.2579 104.923 40.6629 104.923 39.7529V36.7149C104.923 35.7699 105.35 35.1819 106.323 35.1819C107.296 35.1819 107.667 35.7629 107.667 36.6729ZM105.609 38.9129V39.8089C105.609 40.3409 105.833 40.6699 106.309 40.6699C106.785 40.6699 107.009 40.3409 107.009 39.8089V38.9129C107.009 38.3739 106.778 38.0519 106.309 38.0519C105.84 38.0519 105.609 38.3739 105.609 38.9129Z" fill="#263238"/>
<path d="M172.886 36.939H171.199V41.153H172.886V36.939Z" fill="#263238"/>
<path d="M175.133 36.0918H173.446V41.1528H175.133V36.0918Z" fill="#263238"/>
<path d="M177.38 35.49H175.693V41.153H177.38V35.49Z" fill="#263238"/>
<path d="M179.634 34.4468H177.947V41.1528H179.634V34.4468Z" fill="#263238"/>
<path d="M200.501 41.0408H190.4V34.8528H200.515L200.501 41.0408ZM190.946 40.4738H199.941V35.4128H190.946V40.4738Z" fill="#263238"/>
<path d="M197.127 36.0288H191.786V39.8648H197.127V36.0288Z" fill="#263238"/>
<path d="M201.425 37.219H200.151V38.675H201.425V37.219Z" fill="#263238"/>
<path d="M186.676 39.69C186.608 39.6914 186.54 39.6745 186.48 39.641C184.422 38.416 183.057 39.55 182.98 39.599C182.909 39.6691 182.814 39.7084 182.714 39.7084C182.615 39.7084 182.519 39.6691 182.448 39.599C182.384 39.5229 182.352 39.4251 182.359 39.3259C182.365 39.2268 182.41 39.134 182.483 39.067C182.553 39.004 184.296 37.513 186.844 39.025C186.887 39.0502 186.924 39.0837 186.954 39.1234C186.984 39.1631 187.006 39.2083 187.018 39.2564C187.03 39.3045 187.033 39.3546 187.026 39.4038C187.019 39.4529 187.003 39.5002 186.977 39.543C186.942 39.5894 186.897 39.6268 186.844 39.6524C186.792 39.6779 186.734 39.6908 186.676 39.69Z" fill="#263238"/>
<path d="M187.432 38.4229C187.365 38.4249 187.299 38.4053 187.243 38.3669C184.261 36.5959 182.259 38.3109 182.238 38.3249C182.167 38.395 182.072 38.4343 181.972 38.4343C181.873 38.4343 181.777 38.395 181.706 38.3249C181.642 38.2477 181.61 38.1487 181.616 38.0484C181.623 37.9481 181.667 37.8541 181.741 37.7859C181.741 37.7859 184.184 35.6859 187.628 37.7859C187.698 37.8289 187.752 37.8935 187.782 37.97C187.812 38.0465 187.816 38.1307 187.794 38.2098C187.772 38.2889 187.725 38.3586 187.659 38.4085C187.594 38.4583 187.514 38.4854 187.432 38.4859V38.4229Z" fill="#263238"/>
<path d="M188.125 36.953C188.058 36.9517 187.993 36.9323 187.936 36.897C184.163 34.657 181.636 36.764 181.552 36.855C181.517 36.8907 181.475 36.9191 181.429 36.9385C181.383 36.9579 181.333 36.9679 181.283 36.9679C181.233 36.9679 181.183 36.9579 181.137 36.9385C181.09 36.9191 181.048 36.8907 181.013 36.855C180.949 36.7789 180.917 36.6811 180.924 36.5819C180.93 36.4828 180.975 36.39 181.048 36.323C181.083 36.323 184.058 33.747 188.321 36.281C188.406 36.3332 188.467 36.4165 188.492 36.5131C188.517 36.6097 188.503 36.7122 188.454 36.799C188.416 36.8493 188.366 36.8896 188.309 36.9164C188.251 36.9432 188.188 36.9557 188.125 36.953Z" fill="#263238"/>
<path d="M185.535 40.3268C185.535 40.5154 185.479 40.6997 185.374 40.8564C185.269 41.0131 185.12 41.1351 184.946 41.207C184.771 41.2788 184.579 41.2972 184.395 41.2599C184.21 41.2226 184.04 41.1313 183.907 40.9974C183.774 40.8636 183.684 40.6933 183.648 40.5082C183.612 40.3231 183.632 40.1314 183.705 39.9576C183.778 39.7838 183.902 39.6356 184.059 39.5318C184.217 39.428 184.401 39.3734 184.59 39.3748C184.715 39.3748 184.838 39.3995 184.953 39.4474C185.068 39.4953 185.173 39.5655 185.261 39.654C185.348 39.7425 185.418 39.8475 185.465 39.963C185.512 40.0785 185.536 40.2021 185.535 40.3268Z" fill="#263238"/>
<path d="M189.889 277.48L193.298 274.071C193.483 273.872 193.584 273.609 193.58 273.337C193.575 273.065 193.465 272.805 193.272 272.613C193.08 272.42 192.82 272.31 192.548 272.305C192.276 272.3 192.013 272.401 191.814 272.587L188.405 275.996L184.996 272.587C184.799 272.389 184.532 272.278 184.253 272.277C183.974 272.276 183.706 272.387 183.508 272.583C183.311 272.78 183.199 273.047 183.199 273.326C183.198 273.605 183.308 273.873 183.505 274.071L186.9 277.48L183.484 280.889C183.289 281.087 183.18 281.353 183.18 281.631C183.18 281.909 183.289 282.175 183.484 282.373C183.682 282.57 183.95 282.681 184.229 282.681C184.509 282.681 184.777 282.57 184.975 282.373L188.384 278.964L191.793 282.373C191.89 282.471 192.005 282.549 192.133 282.602C192.26 282.655 192.397 282.682 192.535 282.681C192.673 282.683 192.81 282.656 192.938 282.603C193.065 282.55 193.181 282.472 193.277 282.373C193.375 282.276 193.453 282.16 193.506 282.033C193.56 281.906 193.587 281.769 193.587 281.631C193.587 281.493 193.56 281.356 193.506 281.229C193.453 281.101 193.375 280.986 193.277 280.889L189.889 277.48Z" fill="#263238"/>
<path d="M106.246 236.096V229.201L106.001 229.299L105.595 229.418L105.189 229.53C105.103 229.55 105.018 229.578 104.937 229.614V228.529L105.301 228.382L105.77 228.165C105.93 228.087 106.084 227.998 106.232 227.899C106.361 227.811 106.478 227.707 106.582 227.591H107.695V236.096H106.246Z" fill="#263238"/>
<path d="M145.46 236.096V235.074L147.56 231.826C147.714 231.588 147.861 231.364 147.994 231.126C148.134 230.907 148.247 230.672 148.33 230.426C148.422 230.177 148.467 229.914 148.463 229.649C148.473 229.404 148.415 229.162 148.295 228.949C148.237 228.865 148.158 228.797 148.066 228.753C147.974 228.709 147.872 228.69 147.77 228.697C147.674 228.691 147.578 228.704 147.488 228.737C147.397 228.769 147.315 228.82 147.245 228.886C147.114 229.022 147.024 229.191 146.986 229.376C146.938 229.606 146.914 229.841 146.916 230.076V230.44H145.516V230.062C145.506 229.608 145.584 229.156 145.747 228.732C145.88 228.365 146.125 228.049 146.447 227.829C146.826 227.605 147.26 227.492 147.7 227.5C147.999 227.475 148.3 227.515 148.583 227.616C148.865 227.718 149.123 227.878 149.338 228.088C149.724 228.543 149.92 229.13 149.884 229.726C149.888 230.049 149.838 230.371 149.737 230.678C149.636 230.962 149.505 231.234 149.345 231.49C149.186 231.751 149.011 232.017 148.82 232.288L147.077 234.934H149.66V236.096H145.46Z" fill="#263238"/>
<path d="M186.424 236.222C185.976 236.241 185.531 236.14 185.136 235.928C184.816 235.727 184.57 235.427 184.436 235.074C184.282 234.665 184.208 234.23 184.219 233.793V233.499H185.619V233.744C185.621 233.979 185.647 234.214 185.696 234.444C185.726 234.609 185.807 234.761 185.927 234.878C186.065 234.982 186.236 235.034 186.41 235.025C186.497 235.031 186.585 235.021 186.667 234.993C186.75 234.965 186.827 234.921 186.893 234.864C187.013 234.737 187.092 234.575 187.117 234.402C187.154 234.17 187.173 233.936 187.173 233.702C187.188 233.35 187.118 232.999 186.97 232.68C186.886 232.548 186.768 232.442 186.629 232.372C186.49 232.302 186.334 232.27 186.179 232.281H185.934V231.07H186.2C186.347 231.083 186.496 231.062 186.635 231.009C186.773 230.956 186.897 230.871 186.998 230.762C187.166 230.469 187.242 230.132 187.215 229.796C187.227 229.507 187.172 229.22 187.054 228.956C186.989 228.852 186.896 228.768 186.786 228.715C186.676 228.661 186.552 228.641 186.431 228.655C186.307 228.642 186.182 228.667 186.074 228.727C185.965 228.787 185.877 228.879 185.822 228.991C185.712 229.267 185.657 229.562 185.661 229.859V230.174H184.261V229.768C184.248 229.343 184.335 228.921 184.513 228.536C184.677 228.204 184.941 227.932 185.269 227.759C185.639 227.57 186.051 227.478 186.466 227.493C186.887 227.478 187.305 227.567 187.684 227.752C188.007 227.922 188.269 228.189 188.433 228.515C188.614 228.895 188.703 229.312 188.692 229.733C188.693 230.185 188.556 230.627 188.3 231C188.119 231.305 187.828 231.53 187.488 231.63C187.711 231.7 187.913 231.825 188.076 231.994C188.259 232.194 188.393 232.433 188.468 232.694C188.573 233.019 188.623 233.36 188.615 233.702C188.621 234.159 188.547 234.614 188.398 235.046C188.269 235.417 188.024 235.736 187.698 235.956C187.308 236.166 186.865 236.258 186.424 236.222Z" fill="#263238"/>
<path d="M106.953 251.174V249.074H104.412V247.835L106.624 242.655H108.318V247.919H109.2V249.074H108.332V251.174H106.953ZM105.63 247.933H106.953V244.237L105.63 247.933Z" fill="#263238"/>
<path d="M147.7 251.3C147.24 251.327 146.782 251.218 146.384 250.985C146.07 250.775 145.842 250.46 145.74 250.096C145.609 249.656 145.547 249.197 145.558 248.738H146.958C146.953 248.993 146.972 249.249 147.014 249.501C147.036 249.691 147.116 249.87 147.245 250.012C147.31 250.077 147.389 250.127 147.477 250.158C147.564 250.188 147.657 250.198 147.749 250.187C147.85 250.197 147.951 250.18 148.043 250.139C148.136 250.097 148.215 250.031 148.274 249.949C148.386 249.747 148.45 249.522 148.463 249.291C148.463 249.004 148.505 248.675 148.505 248.297C148.51 248.009 148.491 247.721 148.449 247.436C148.427 247.228 148.35 247.03 148.225 246.862C148.158 246.791 148.076 246.736 147.985 246.701C147.895 246.666 147.797 246.651 147.7 246.659C147.607 246.657 147.514 246.675 147.427 246.71C147.341 246.744 147.262 246.796 147.196 246.862C147.055 247.017 146.954 247.205 146.902 247.408H145.649L145.733 242.669H149.555V243.971H146.958L146.874 246.022C146.995 245.88 147.152 245.773 147.329 245.714C147.553 245.631 147.79 245.586 148.029 245.581C148.414 245.542 148.801 245.641 149.121 245.861C149.416 246.096 149.631 246.416 149.737 246.778C149.877 247.231 149.946 247.704 149.94 248.178C149.943 248.593 149.913 249.007 149.849 249.417C149.802 249.761 149.691 250.094 149.52 250.397C149.354 250.675 149.111 250.899 148.82 251.041C148.473 251.217 148.089 251.306 147.7 251.3Z" fill="#263238"/>
<path d="M186.473 251.3C186.017 251.319 185.567 251.188 185.192 250.929C184.865 250.672 184.621 250.323 184.492 249.928C184.341 249.477 184.265 249.004 184.268 248.528V245.546C184.262 245.04 184.325 244.536 184.457 244.048C184.57 243.629 184.816 243.258 185.157 242.991C185.55 242.711 186.027 242.575 186.508 242.606C186.928 242.587 187.346 242.671 187.726 242.851C188.031 243 188.277 243.246 188.426 243.551C188.582 243.918 188.656 244.314 188.643 244.713C188.643 244.713 188.643 244.755 188.643 244.783C188.646 244.806 188.646 244.83 188.643 244.853H187.243C187.258 244.562 187.213 244.271 187.11 243.999C187.051 243.899 186.964 243.819 186.859 243.769C186.754 243.719 186.637 243.701 186.522 243.719C186.441 243.715 186.36 243.728 186.284 243.757C186.208 243.786 186.139 243.83 186.081 243.887C185.948 244.041 185.863 244.231 185.836 244.433C185.773 244.772 185.745 245.117 185.752 245.462V246.477C185.862 246.309 186.017 246.175 186.2 246.092C186.491 245.976 186.805 245.931 187.116 245.961C187.428 245.99 187.728 246.092 187.992 246.26C188.267 246.484 188.468 246.787 188.566 247.128C188.684 247.542 188.74 247.971 188.734 248.402C188.741 248.904 188.67 249.405 188.524 249.886C188.401 250.294 188.157 250.656 187.824 250.922C187.43 251.199 186.953 251.332 186.473 251.3ZM186.473 250.173C186.559 250.179 186.646 250.165 186.726 250.132C186.806 250.099 186.878 250.048 186.935 249.984C187.053 249.831 187.13 249.65 187.159 249.459C187.204 249.2 187.225 248.938 187.222 248.675C187.222 248.367 187.222 248.087 187.187 247.849C187.173 247.642 187.105 247.441 186.991 247.268C186.927 247.193 186.845 247.136 186.754 247.099C186.663 247.062 186.564 247.048 186.466 247.058C186.353 247.056 186.241 247.078 186.137 247.121C186.04 247.165 185.95 247.224 185.871 247.296C185.805 247.359 185.746 247.429 185.696 247.506V248.843C185.697 249.064 185.72 249.284 185.766 249.501C185.803 249.683 185.887 249.852 186.011 249.991C186.072 250.052 186.146 250.099 186.227 250.129C186.308 250.159 186.394 250.172 186.48 250.166L186.473 250.173Z" fill="#263238"/>
<path d="M105.378 266.252L107.1 258.86H104.797V257.747H108.5V258.636L106.785 266.252H105.378Z" fill="#263238"/>
<path d="M147.637 266.364C147.181 266.386 146.728 266.274 146.335 266.042C146.007 265.825 145.76 265.505 145.635 265.132C145.487 264.697 145.416 264.24 145.425 263.781C145.421 263.546 145.442 263.311 145.488 263.081C145.53 262.884 145.598 262.693 145.691 262.514C145.774 262.351 145.883 262.202 146.013 262.073C146.136 261.942 146.281 261.833 146.44 261.751C146.178 261.568 145.961 261.329 145.803 261.051C145.62 260.691 145.529 260.292 145.537 259.889C145.528 259.479 145.604 259.071 145.761 258.692C145.902 258.363 146.148 258.089 146.461 257.915C146.822 257.722 147.228 257.627 147.637 257.642C148.046 257.626 148.453 257.72 148.813 257.915C149.124 258.091 149.37 258.364 149.513 258.692C149.674 259.07 149.748 259.479 149.73 259.889C149.741 260.294 149.652 260.695 149.471 261.058C149.322 261.337 149.108 261.577 148.848 261.758C149.01 261.84 149.156 261.949 149.282 262.08C149.41 262.209 149.517 262.358 149.597 262.521C149.69 262.7 149.758 262.891 149.8 263.088C149.848 263.318 149.872 263.553 149.87 263.788C149.886 264.247 149.814 264.706 149.66 265.139C149.532 265.511 149.286 265.83 148.96 266.049C148.56 266.283 148.099 266.392 147.637 266.364ZM147.637 265.265C147.734 265.273 147.831 265.258 147.921 265.221C148.011 265.185 148.091 265.128 148.155 265.055C148.28 264.903 148.36 264.718 148.386 264.523C148.42 264.305 148.437 264.085 148.435 263.865C148.445 263.631 148.428 263.396 148.386 263.165C148.351 262.969 148.27 262.784 148.148 262.626C148.084 262.554 148.005 262.498 147.917 262.462C147.828 262.426 147.733 262.41 147.637 262.416C147.544 262.41 147.45 262.426 147.364 262.462C147.277 262.499 147.201 262.555 147.14 262.626C147.016 262.781 146.932 262.963 146.895 263.158C146.852 263.389 146.83 263.623 146.832 263.858C146.829 264.081 146.848 264.304 146.888 264.523C146.916 264.719 146.999 264.903 147.126 265.055C147.187 265.132 147.265 265.194 147.353 265.236C147.442 265.278 147.539 265.3 147.637 265.3V265.265ZM147.637 261.198C147.715 261.2 147.792 261.184 147.864 261.153C147.935 261.121 147.999 261.075 148.05 261.016C148.164 260.88 148.239 260.715 148.267 260.54C148.312 260.309 148.333 260.075 148.33 259.84C148.342 259.568 148.289 259.297 148.176 259.049C148.126 258.951 148.048 258.871 147.952 258.817C147.856 258.764 147.746 258.74 147.637 258.748C147.528 258.741 147.419 258.765 147.323 258.819C147.227 258.872 147.149 258.952 147.098 259.049C146.972 259.288 146.911 259.556 146.923 259.826C146.919 260.061 146.943 260.296 146.993 260.526C147.021 260.705 147.099 260.872 147.217 261.009C147.27 261.068 147.334 261.116 147.407 261.149C147.479 261.181 147.558 261.198 147.637 261.198Z" fill="#263238"/>
<path d="M147.637 281.141C147.205 281.16 146.777 281.053 146.405 280.833C146.078 280.621 145.822 280.316 145.67 279.958C145.497 279.553 145.414 279.117 145.425 278.677V274.904C145.415 274.458 145.496 274.015 145.663 273.602C145.798 273.244 146.043 272.938 146.363 272.727C146.748 272.52 147.179 272.412 147.616 272.412C148.053 272.412 148.483 272.52 148.869 272.727C149.186 272.94 149.43 273.245 149.569 273.602C149.733 274.016 149.813 274.459 149.807 274.904V278.677C149.815 279.117 149.73 279.554 149.555 279.958C149.402 280.316 149.147 280.621 148.82 280.833C148.462 281.044 148.052 281.151 147.637 281.141ZM147.637 279.895C147.727 279.901 147.817 279.887 147.901 279.853C147.985 279.819 148.059 279.766 148.12 279.699C148.228 279.555 148.301 279.387 148.33 279.209C148.366 279.027 148.384 278.842 148.386 278.656V274.925C148.383 274.73 148.367 274.536 148.337 274.344C148.31 274.167 148.24 273.998 148.134 273.854C148.072 273.785 147.995 273.731 147.909 273.697C147.822 273.663 147.729 273.65 147.637 273.658C147.545 273.65 147.453 273.663 147.368 273.697C147.283 273.731 147.207 273.785 147.147 273.854C147.038 273.998 146.966 274.166 146.937 274.344C146.909 274.536 146.895 274.73 146.895 274.925V278.656C146.893 278.842 146.911 279.027 146.951 279.209C146.982 279.387 147.057 279.556 147.168 279.699C147.226 279.765 147.298 279.818 147.379 279.852C147.461 279.886 147.549 279.9 147.637 279.895Z" fill="#263238"/>
<path d="M186.326 266.364C185.908 266.38 185.492 266.293 185.115 266.112C184.805 265.953 184.558 265.694 184.415 265.377C184.259 265.005 184.185 264.604 184.198 264.201V264.089H185.598C185.583 264.378 185.631 264.667 185.738 264.936C185.799 265.037 185.889 265.118 185.996 265.169C186.103 265.22 186.222 265.239 186.34 265.223C186.421 265.228 186.502 265.215 186.578 265.186C186.654 265.157 186.723 265.113 186.781 265.055C186.907 264.893 186.987 264.699 187.012 264.495C187.068 264.16 187.094 263.82 187.089 263.48V262.458C186.983 262.626 186.83 262.757 186.648 262.836C186.427 262.932 186.189 262.982 185.948 262.983C185.56 263.009 185.176 262.898 184.863 262.668C184.586 262.431 184.386 262.116 184.289 261.765C184.166 261.349 184.107 260.917 184.114 260.484C184.103 259.985 184.177 259.488 184.331 259.014C184.456 258.616 184.7 258.267 185.031 258.013C185.413 257.757 185.866 257.63 186.326 257.649C186.78 257.626 187.23 257.751 187.607 258.006C187.934 258.249 188.178 258.586 188.307 258.972C188.46 259.422 188.536 259.896 188.531 260.372V263.382C188.538 263.89 188.472 264.397 188.335 264.887C188.222 265.307 187.976 265.681 187.635 265.951C187.259 266.235 186.797 266.381 186.326 266.364ZM186.326 261.884C186.495 261.893 186.661 261.841 186.795 261.737C186.905 261.648 186.999 261.541 187.075 261.422V260.099C187.077 259.876 187.056 259.653 187.012 259.434C186.98 259.256 186.903 259.09 186.788 258.951C186.728 258.887 186.655 258.837 186.574 258.804C186.493 258.771 186.406 258.757 186.319 258.762C186.234 258.757 186.148 258.771 186.069 258.804C185.991 258.836 185.92 258.887 185.864 258.951C185.74 259.102 185.661 259.283 185.633 259.476C185.588 259.737 185.567 260.002 185.57 260.267C185.568 260.54 185.582 260.814 185.612 261.086C185.62 261.293 185.685 261.494 185.801 261.667C185.864 261.745 185.946 261.805 186.039 261.843C186.132 261.881 186.233 261.895 186.333 261.884H186.326Z" fill="#263238"/>
<path d="M138.047 197.008V188.503H141.617V189.595H139.601V192.038H141.19V193.123H139.601V195.923H141.638V196.994L138.047 197.008Z" fill="#458DFC"/>
<path d="M142.541 197.008V188.503H143.626L145.691 193.354V188.503H147V197.008H145.971L143.871 191.926V197.008H142.541Z" fill="#458DFC"/>
<path d="M149.1 197.008V189.644H147.749V188.503H151.991V189.644H150.654V197.008H149.1Z" fill="#458DFC"/>
<path d="M152.782 197.008V188.503H156.352V189.595H154.336V192.038H155.918V193.123H154.336V195.923H156.373V196.994L152.782 197.008Z" fill="#458DFC"/>
<path d="M157.276 197.008V188.503H159.313C159.806 188.489 160.298 188.558 160.769 188.706C161.142 188.827 161.462 189.074 161.672 189.406C161.896 189.817 162.003 190.282 161.98 190.75C161.982 191.061 161.949 191.371 161.882 191.674C161.83 191.928 161.722 192.167 161.567 192.374C161.401 192.577 161.183 192.732 160.937 192.822L162.127 197.022H160.573L159.544 193.123H158.844V197.022L157.276 197.008ZM158.83 192.108H159.313C159.553 192.113 159.791 192.068 160.013 191.975C160.186 191.886 160.32 191.736 160.391 191.555C160.476 191.317 160.517 191.066 160.51 190.813C160.535 190.476 160.452 190.14 160.272 189.854C160.159 189.733 160.019 189.64 159.863 189.584C159.707 189.528 159.54 189.51 159.376 189.532H158.809L158.83 192.108Z" fill="#458DFC"/>
<path d="M117.068 74.3959L115.584 67.0249H116.774L117.747 72.2399L118.657 67.0249H119.875L118.391 74.3959H117.068Z" fill="#263238"/>
<path d="M120.631 74.3959V67.0249H123.725V67.9699H121.982V70.0699H123.382V71.0079H121.982V73.4999H123.746V74.4239L120.631 74.3959Z" fill="#263238"/>
<path d="M124.523 74.3959V67.0249H126.294C126.721 67.0154 127.147 67.077 127.554 67.2069C127.878 67.3094 128.155 67.5225 128.338 67.8089C128.531 68.1646 128.623 68.5665 128.604 68.9709C128.607 69.2415 128.579 69.5117 128.52 69.7759C128.474 69.9939 128.38 70.1993 128.247 70.3779C128.103 70.5548 127.915 70.6901 127.701 70.7699L128.73 74.3959H127.4L126.504 71.0219H125.888V74.3959H124.523ZM125.874 70.1959H126.294C126.507 70.2066 126.721 70.1683 126.917 70.0839C127.07 70.0101 127.188 69.8795 127.246 69.7199C127.32 69.5135 127.353 69.2948 127.344 69.0759C127.365 68.7838 127.294 68.4925 127.141 68.2429C127.042 68.1395 126.92 68.0609 126.785 68.0134C126.65 67.966 126.506 67.9511 126.364 67.9699H125.874V70.1959Z" fill="#263238"/>
<path d="M129.647 74.3959V67.0249H130.977V74.3959H129.647Z" fill="#263238"/>
<path d="M132.118 74.3959V67.0249H135.149V67.9559H133.462V70.1049H134.862V71.0429H133.462V74.3959H132.118Z" fill="#263238"/>
<path d="M135.884 74.3959V67.0249H137.2V74.3959H135.884Z" fill="#263238"/>
<path d="M140.336 74.5009C139.889 74.5243 139.445 74.412 139.062 74.1789C138.757 73.9701 138.533 73.664 138.425 73.3109C138.295 72.9015 138.233 72.4734 138.243 72.0439V69.4119C138.232 68.9686 138.294 68.5265 138.425 68.1029C138.528 67.751 138.754 67.4478 139.062 67.2489C139.448 67.0267 139.891 66.9221 140.336 66.9479C140.751 66.9264 141.164 67.0158 141.533 67.2069C141.817 67.3748 142.033 67.6376 142.142 67.9489C142.271 68.3054 142.333 68.6828 142.324 69.0619V69.6849H141.036V69.0479C141.047 68.8591 141.047 68.6698 141.036 68.4809C141.023 68.3303 140.962 68.1878 140.861 68.0749C140.794 68.0192 140.717 67.9774 140.634 67.9521C140.551 67.9269 140.464 67.9186 140.378 67.9279C140.195 67.9136 140.014 67.9714 139.874 68.0889C139.762 68.2066 139.689 68.3556 139.664 68.5159C139.634 68.7152 139.62 68.9165 139.622 69.1179V72.3239C139.618 72.545 139.639 72.7658 139.685 72.9819C139.716 73.1347 139.797 73.2726 139.916 73.3739C140.049 73.4714 140.213 73.5185 140.378 73.5069C140.464 73.5155 140.551 73.5056 140.633 73.4778C140.715 73.4501 140.791 73.4051 140.854 73.3459C140.957 73.2293 141.019 73.0815 141.029 72.9259C141.058 72.729 141.072 72.5301 141.071 72.3309V71.6309H142.359V72.2259C142.365 72.6197 142.308 73.0119 142.191 73.3879C142.08 73.7112 141.866 73.989 141.582 74.1789C141.208 74.4082 140.774 74.5203 140.336 74.5009Z" fill="#263238"/>
<path d="M142.891 74.3959L144.361 67.0249H145.803L147.273 74.3959H146.027L145.74 72.6949H144.452L144.158 74.3959H142.891ZM144.592 71.8409H145.6L145.096 68.7469L144.592 71.8409Z" fill="#263238"/>
<path d="M148.4 74.3959V68.0189H147.224V67.0249H150.899V68.0189H149.744V74.3959H148.4Z" fill="#263238"/>
<path d="M151.613 74.3959V67.0249H152.943V74.3959H151.613Z" fill="#263238"/>
<path d="M156.1 74.5009C155.665 74.5231 155.233 74.4211 154.854 74.2069C154.544 74.0098 154.31 73.7138 154.189 73.3669C154.054 72.9586 153.99 72.53 154 72.0999V69.2999C153.991 68.8643 154.06 68.4305 154.203 68.0189C154.318 67.6824 154.542 67.394 154.84 67.1999C155.222 66.9942 155.653 66.8973 156.086 66.9199C156.524 66.8965 156.96 66.9933 157.346 67.1999C157.652 67.3895 157.885 67.6751 158.011 68.0119C158.15 68.4266 158.214 68.8628 158.2 69.2999V72.0999C158.208 72.5355 158.139 72.9691 157.997 73.3809C157.872 73.7234 157.638 74.0158 157.332 74.2139C156.956 74.4213 156.529 74.5207 156.1 74.5009ZM156.1 73.5069C156.278 73.5233 156.456 73.4707 156.597 73.3599C156.709 73.2537 156.783 73.1135 156.807 72.9609C156.844 72.779 156.863 72.5937 156.863 72.4079V69.0129C156.864 68.8248 156.845 68.6372 156.807 68.4529C156.78 68.3054 156.707 68.1705 156.597 68.0679C156.457 67.9538 156.281 67.8942 156.1 67.8999C155.928 67.8884 155.757 67.9379 155.617 68.0399C155.505 68.1415 155.429 68.2765 155.4 68.4249C155.359 68.6086 155.34 68.7967 155.344 68.9849V72.3799C155.342 72.5655 155.358 72.7507 155.393 72.9329C155.419 73.0864 155.495 73.2268 155.61 73.3319C155.746 73.4485 155.921 73.5087 156.1 73.4999V73.5069Z" fill="#263238"/>
<path d="M159.208 74.3959V67.0249H160.146L161.938 71.2249V67.0249H163.044V74.3959H162.155L160.356 69.9999V74.4029L159.208 74.3959Z" fill="#263238"/>
<path d="M168.357 74.5008C167.912 74.5231 167.47 74.4109 167.09 74.1788C166.786 73.9699 166.561 73.6639 166.453 73.3108C166.32 72.9018 166.257 72.4737 166.264 72.0438V69.4118C166.255 68.9681 166.319 68.5259 166.453 68.1028C166.556 67.7508 166.782 67.4477 167.09 67.2488C167.474 67.0271 167.914 66.9225 168.357 66.9478C168.772 66.9245 169.186 67.014 169.554 67.2068C169.841 67.3734 170.059 67.6363 170.17 67.9488C170.299 68.3052 170.361 68.6827 170.352 69.0618V69.6848H169.064V69.0478C169.064 68.8583 169.052 68.6689 169.029 68.4808C169.016 68.3301 168.955 68.1877 168.854 68.0748C168.788 68.019 168.71 67.9772 168.627 67.952C168.544 67.9267 168.457 67.9185 168.371 67.9278C168.188 67.9135 168.007 67.9713 167.867 68.0888C167.752 68.2045 167.679 68.3544 167.657 68.5158C167.627 68.7151 167.613 68.9163 167.615 69.1178V72.3238C167.611 72.5448 167.632 72.7656 167.678 72.9818C167.709 73.1345 167.79 73.2725 167.909 73.3738C168.042 73.4713 168.206 73.5184 168.371 73.5068C168.457 73.5154 168.544 73.5054 168.626 73.4777C168.708 73.4499 168.784 73.4049 168.847 73.3458C168.946 73.2266 169.007 73.0802 169.022 72.9258C169.051 72.7288 169.065 72.5299 169.064 72.3308V71.6308H170.352V72.2258C170.36 72.6202 170.3 73.0131 170.177 73.3878C170.071 73.7118 169.859 73.9905 169.575 74.1788C169.209 74.4023 168.786 74.5142 168.357 74.5008Z" fill="#263238"/>
<path d="M173.292 74.5009C172.857 74.5222 172.425 74.4203 172.046 74.2069C171.736 74.0098 171.502 73.7138 171.381 73.3669C171.241 72.9523 171.174 72.5164 171.185 72.0789V69.2999C171.174 68.8647 171.24 68.4309 171.381 68.0189C171.504 67.6807 171.739 67.3944 172.046 67.2069C172.438 67.0227 172.866 66.9272 173.299 66.9272C173.732 66.9272 174.16 67.0227 174.552 67.2069C174.859 67.3944 175.093 67.6807 175.217 68.0189C175.364 68.4295 175.432 68.864 175.42 69.2999V72.0999C175.431 72.5357 175.362 72.9699 175.217 73.3809C175.094 73.7249 174.86 74.0181 174.552 74.2139C174.167 74.4264 173.73 74.5259 173.292 74.5009ZM173.292 73.5069C173.47 73.5233 173.648 73.4707 173.789 73.3599C173.899 73.251 173.974 73.1122 174.006 72.9609C174.041 72.7787 174.057 72.5934 174.055 72.4079V69.0129C174.058 68.825 174.041 68.6374 174.006 68.4529C173.972 68.3063 173.897 68.1725 173.789 68.0679C173.642 67.976 173.472 67.9273 173.299 67.9273C173.125 67.9273 172.956 67.976 172.809 68.0679C172.697 68.1694 172.621 68.3045 172.592 68.4529C172.554 68.6371 172.535 68.8248 172.536 69.0129V72.4079C172.537 72.5933 172.553 72.7782 172.585 72.9609C172.611 73.1143 172.687 73.2547 172.802 73.3599C172.942 73.4665 173.117 73.5164 173.292 73.4999V73.5069Z" fill="#263238"/>
<path d="M176.4 74.396V67.025H178.136C178.615 67.0046 179.092 67.0882 179.536 67.27C179.852 67.4303 180.1 67.6985 180.236 68.026C180.389 68.4401 180.46 68.8798 180.446 69.321V72.016C180.459 72.4685 180.388 72.9195 180.236 73.346C180.109 73.6873 179.859 73.9692 179.536 74.137C179.11 74.3303 178.645 74.4191 178.178 74.396H176.4ZM177.744 73.458H178.157C178.39 73.4806 178.625 73.4239 178.822 73.297C178.963 73.177 179.052 73.0058 179.067 72.821C179.097 72.5655 179.111 72.3083 179.109 72.051V69.251C179.113 69.0161 179.092 68.7814 179.046 68.551C179.032 68.4704 179.002 68.3934 178.957 68.3248C178.913 68.2562 178.855 68.1974 178.787 68.152C178.585 68.0539 178.36 68.0104 178.136 68.026H177.744V73.458Z" fill="#263238"/>
<path d="M181.482 74.3959V67.0249H184.576V67.9699H182.826V70.0699H184.226V71.0079H182.826V73.4999H184.597V74.4239L181.482 74.3959Z" fill="#263238"/>
<path d="M281.253 48.251C281.16 48.251 281.071 48.2141 281.005 48.1485C280.94 48.0829 280.903 47.9939 280.903 47.901V44.401C280.903 44.3082 280.94 44.2192 281.005 44.1535C281.071 44.0879 281.16 44.051 281.253 44.051C281.346 44.051 281.435 44.0879 281.5 44.1535C281.566 44.2192 281.603 44.3082 281.603 44.401V47.901C281.603 47.9939 281.566 48.0829 281.5 48.1485C281.435 48.2141 281.346 48.251 281.253 48.251ZM281.253 41.251C281.16 41.251 281.071 41.2141 281.005 41.1485C280.94 41.0829 280.903 40.9939 280.903 40.901V37.401C280.903 37.3082 280.94 37.2192 281.005 37.1535C281.071 37.0879 281.16 37.051 281.253 37.051C281.346 37.051 281.435 37.0879 281.5 37.1535C281.566 37.2192 281.603 37.3082 281.603 37.401V40.901C281.603 40.9939 281.566 41.0829 281.5 41.1485C281.435 41.2141 281.346 41.251 281.253 41.251ZM281.253 34.251C281.16 34.251 281.071 34.2142 281.005 34.1485C280.94 34.0829 280.903 33.9939 280.903 33.901V30.401C280.903 30.3082 280.94 30.2192 281.005 30.1535C281.071 30.0879 281.16 30.051 281.253 30.051C281.346 30.051 281.435 30.0879 281.5 30.1535C281.566 30.2192 281.603 30.3082 281.603 30.401V33.901C281.603 33.9939 281.566 34.0829 281.5 34.1485C281.435 34.2142 281.346 34.251 281.253 34.251ZM281.253 27.251C281.16 27.251 281.071 27.2142 281.005 27.1485C280.94 27.0829 280.903 26.9939 280.903 26.901V23.401C280.903 23.3082 280.94 23.2192 281.005 23.1535C281.071 23.0879 281.16 23.051 281.253 23.051C281.346 23.051 281.435 23.0879 281.5 23.1535C281.566 23.2192 281.603 23.3082 281.603 23.401V26.901C281.603 26.9939 281.566 27.0829 281.5 27.1485C281.435 27.2142 281.346 27.251 281.253 27.251ZM281.253 20.251C281.16 20.251 281.071 20.2142 281.005 20.1485C280.94 20.0829 280.903 19.9939 280.903 19.901V16.401C280.903 16.3082 280.94 16.2192 281.005 16.1535C281.071 16.0879 281.16 16.051 281.253 16.051C281.346 16.051 281.435 16.0879 281.5 16.1535C281.566 16.2192 281.603 16.3082 281.603 16.401V19.901C281.603 19.9939 281.566 20.0829 281.5 20.1485C281.435 20.2142 281.346 20.251 281.253 20.251Z" fill="#263238"/>
<path d="M263.9 156.415H260.729C260.636 156.415 260.547 156.378 260.482 156.312C260.416 156.247 260.379 156.158 260.379 156.065C260.381 155.973 260.418 155.885 260.484 155.819C260.549 155.754 260.637 155.717 260.729 155.715H264.229C264.322 155.715 264.411 155.752 264.477 155.817C264.542 155.883 264.579 155.972 264.579 156.065C264.579 156.158 264.542 156.247 264.477 156.312C264.411 156.378 264.322 156.415 264.229 156.415H263.9ZM257.229 156.415H253.729C253.636 156.415 253.547 156.378 253.482 156.312C253.416 156.247 253.379 156.158 253.379 156.065C253.381 155.973 253.418 155.885 253.484 155.819C253.549 155.754 253.637 155.717 253.729 155.715H257.229C257.322 155.715 257.411 155.752 257.477 155.817C257.542 155.883 257.579 155.972 257.579 156.065C257.579 156.113 257.569 156.16 257.551 156.204C257.532 156.248 257.504 156.287 257.469 156.32C257.435 156.353 257.393 156.378 257.348 156.395C257.304 156.411 257.256 156.418 257.208 156.415H257.229ZM250.229 156.415H246.729C246.636 156.415 246.547 156.378 246.482 156.312C246.416 156.247 246.379 156.158 246.379 156.065C246.381 155.973 246.418 155.885 246.484 155.819C246.549 155.754 246.637 155.717 246.729 155.715H250.229C250.322 155.715 250.411 155.752 250.477 155.817C250.542 155.883 250.579 155.972 250.579 156.065C250.579 156.113 250.569 156.16 250.551 156.204C250.532 156.248 250.504 156.287 250.469 156.32C250.435 156.353 250.393 156.378 250.348 156.395C250.304 156.411 250.256 156.418 250.208 156.415H250.229ZM243.229 156.415H239.729C239.636 156.415 239.547 156.378 239.482 156.312C239.416 156.247 239.379 156.158 239.379 156.065C239.381 155.973 239.418 155.885 239.484 155.819C239.549 155.754 239.637 155.717 239.729 155.715H243.229C243.322 155.715 243.411 155.752 243.477 155.817C243.542 155.883 243.579 155.972 243.579 156.065C243.579 156.113 243.569 156.16 243.551 156.204C243.532 156.248 243.504 156.287 243.469 156.32C243.435 156.353 243.393 156.378 243.348 156.395C243.304 156.411 243.256 156.418 243.208 156.415H243.229ZM236.229 156.415H232.729C232.636 156.415 232.547 156.378 232.482 156.312C232.416 156.247 232.379 156.158 232.379 156.065C232.381 155.973 232.418 155.885 232.484 155.819C232.549 155.754 232.637 155.717 232.729 155.715H236.229C236.322 155.715 236.411 155.752 236.477 155.817C236.542 155.883 236.579 155.972 236.579 156.065C236.579 156.113 236.569 156.16 236.551 156.204C236.532 156.248 236.504 156.287 236.469 156.32C236.435 156.353 236.393 156.378 236.348 156.395C236.304 156.411 236.256 156.418 236.208 156.415H236.229ZM229.229 156.415H227.367C227.274 156.415 227.185 156.378 227.12 156.312C227.054 156.247 227.017 156.158 227.017 156.065C227.019 155.973 227.056 155.885 227.122 155.819C227.187 155.754 227.275 155.717 227.367 155.715H229.229C229.322 155.715 229.411 155.752 229.477 155.817C229.542 155.883 229.579 155.972 229.579 156.065C229.579 156.113 229.569 156.16 229.551 156.204C229.532 156.248 229.504 156.287 229.469 156.32C229.435 156.353 229.393 156.378 229.348 156.395C229.304 156.411 229.256 156.418 229.208 156.415H229.229ZM267.729 156.002C267.636 156.012 267.543 155.985 267.47 155.927C267.397 155.868 267.351 155.783 267.341 155.69C267.33 155.598 267.357 155.505 267.416 155.432C267.474 155.359 267.559 155.312 267.652 155.302C268.769 155.055 269.857 154.694 270.9 154.224C270.942 154.204 270.987 154.193 271.033 154.191C271.079 154.189 271.125 154.197 271.168 154.213C271.211 154.23 271.251 154.254 271.284 154.286C271.317 154.318 271.344 154.357 271.362 154.399C271.4 154.483 271.403 154.579 271.37 154.666C271.337 154.753 271.271 154.823 271.187 154.861C270.101 155.35 268.968 155.728 267.806 155.988L267.729 156.002ZM274.071 153.153C273.998 153.153 273.926 153.13 273.866 153.087C273.807 153.044 273.762 152.983 273.739 152.914C273.716 152.844 273.715 152.769 273.737 152.699C273.759 152.628 273.802 152.567 273.861 152.523C274.789 151.852 275.649 151.093 276.43 150.255C276.495 150.201 276.578 150.172 276.662 150.174C276.747 150.176 276.828 150.209 276.89 150.266C276.953 150.324 276.992 150.402 277.002 150.486C277.011 150.57 276.989 150.654 276.941 150.724C276.133 151.6 275.24 152.392 274.274 153.09C274.201 153.141 274.111 153.164 274.022 153.153H274.071ZM278.789 148.05C278.725 148.051 278.662 148.034 278.607 148.001C278.528 147.952 278.472 147.874 278.45 147.784C278.427 147.693 278.441 147.598 278.488 147.518C279.082 146.541 279.577 145.507 279.965 144.431C279.98 144.387 280.003 144.347 280.034 144.312C280.065 144.278 280.103 144.25 280.144 144.23C280.186 144.211 280.232 144.2 280.278 144.198C280.324 144.197 280.37 144.204 280.413 144.221C280.5 144.253 280.571 144.317 280.611 144.401C280.65 144.485 280.655 144.582 280.623 144.669C280.221 145.788 279.707 146.865 279.09 147.882C279.055 147.941 279.003 147.989 278.941 148.019C278.878 148.049 278.809 148.06 278.74 148.05H278.789ZM281.134 141.505H281.078C280.987 141.489 280.905 141.439 280.851 141.365C280.796 141.29 280.772 141.198 280.784 141.106C280.896 140.306 280.952 139.499 280.952 138.691V137.669C280.952 137.576 280.989 137.487 281.055 137.421C281.12 137.356 281.209 137.319 281.302 137.319C281.395 137.319 281.484 137.356 281.55 137.421C281.615 137.487 281.652 137.576 281.652 137.669V138.691C281.654 139.532 281.595 140.371 281.477 141.204C281.465 141.296 281.417 141.379 281.343 141.435C281.27 141.492 281.177 141.517 281.085 141.505H281.134ZM281.302 134.505C281.21 134.503 281.122 134.466 281.057 134.4C280.991 134.335 280.954 134.247 280.952 134.155V130.655C280.952 130.562 280.989 130.473 281.055 130.407C281.12 130.342 281.209 130.305 281.302 130.305C281.395 130.305 281.484 130.342 281.55 130.407C281.615 130.473 281.652 130.562 281.652 130.655V134.155C281.655 134.206 281.646 134.258 281.626 134.306C281.607 134.353 281.577 134.396 281.538 134.431C281.5 134.466 281.455 134.492 281.406 134.507C281.356 134.522 281.304 134.526 281.253 134.519L281.302 134.505ZM281.302 127.505C281.21 127.503 281.122 127.466 281.057 127.4C280.991 127.335 280.954 127.247 280.952 127.155V123.655C280.952 123.562 280.989 123.473 281.055 123.407C281.12 123.342 281.209 123.305 281.302 123.305C281.395 123.305 281.484 123.342 281.55 123.407C281.615 123.473 281.652 123.562 281.652 123.655V127.155C281.655 127.206 281.646 127.258 281.626 127.306C281.607 127.353 281.577 127.396 281.538 127.431C281.5 127.466 281.455 127.492 281.406 127.507C281.356 127.522 281.304 127.526 281.253 127.519L281.302 127.505ZM281.302 120.505C281.21 120.503 281.122 120.466 281.057 120.4C280.991 120.335 280.954 120.247 280.952 120.155V116.655C280.952 116.562 280.989 116.473 281.055 116.407C281.12 116.342 281.209 116.305 281.302 116.305C281.395 116.305 281.484 116.342 281.55 116.407C281.615 116.473 281.652 116.562 281.652 116.655V120.155C281.655 120.206 281.646 120.258 281.626 120.306C281.607 120.353 281.577 120.396 281.538 120.431C281.5 120.466 281.455 120.492 281.406 120.507C281.356 120.522 281.304 120.526 281.253 120.519L281.302 120.505ZM281.302 113.505C281.21 113.503 281.122 113.466 281.057 113.4C280.991 113.335 280.954 113.247 280.952 113.155V109.655C280.952 109.562 280.989 109.473 281.055 109.407C281.12 109.342 281.209 109.305 281.302 109.305C281.395 109.305 281.484 109.342 281.55 109.407C281.615 109.473 281.652 109.562 281.652 109.655V113.155C281.655 113.206 281.646 113.258 281.626 113.306C281.607 113.353 281.577 113.396 281.538 113.431C281.5 113.466 281.455 113.492 281.406 113.507C281.356 113.522 281.304 113.526 281.253 113.519L281.302 113.505Z" fill="#263238"/>
<path d="M228.627 151.704L221.067 156.065L228.627 160.433V151.704Z" fill="#263238"/>
<path d="M319.994 66.2981L257.876 53.5132L248.724 97.9831L310.842 110.768L319.994 66.2981Z" fill="#263238"/>
<path d="M316.779 62.1582L254.661 49.3733L245.508 93.8432L307.626 106.628L316.779 62.1582Z" fill="white"/>
<path d="M307.902 107.03L245.098 94.1081L245.168 93.7651L254.394 48.9651L317.198 61.8801L317.128 62.2231L307.902 107.03ZM245.924 93.5621L307.356 106.204L316.4 62.4261L254.933 49.7841L245.924 93.5621Z" fill="#263238"/>
<path d="M281.148 78.3442C281.1 78.3437 281.052 78.3335 281.007 78.3143C280.963 78.2951 280.923 78.2672 280.889 78.2322L254.408 49.6022C254.37 49.5703 254.339 49.5305 254.317 49.4856C254.295 49.4406 254.283 49.3915 254.282 49.3416C254.281 49.2917 254.29 49.242 254.31 49.1961C254.329 49.1501 254.358 49.1088 254.395 49.075C254.432 49.0413 254.475 49.0158 254.523 49.0002C254.57 48.9847 254.621 48.9795 254.67 48.985C254.72 48.9906 254.768 49.0066 254.811 49.0322C254.854 49.0577 254.891 49.0922 254.919 49.1332L281.232 77.5742L316.638 61.8312C316.723 61.7933 316.819 61.7905 316.905 61.8233C316.992 61.8561 317.062 61.9218 317.1 62.0062C317.12 62.0479 317.131 62.0931 317.133 62.1392C317.135 62.1853 317.127 62.2313 317.111 62.2744C317.095 62.3175 317.07 62.3569 317.038 62.3902C317.006 62.4235 316.968 62.45 316.925 62.4682L281.288 78.3162C281.244 78.3361 281.196 78.3457 281.148 78.3442Z" fill="#263238"/>
<path d="M101.164 73.9898C101.164 73.9898 101.345 78.4182 100.259 81.0366C99.1727 83.6549 99.7338 89.2368 100.087 90.2134C100.44 91.19 99.0278 94.4819 99.0278 94.4819L102.377 98.742C102.377 98.742 106.25 93.3285 108.187 90.3818C110.124 87.4351 112.975 84.8084 112.061 83.1666C111.147 81.5249 108.368 78.2499 108.187 77.4332C108.006 76.6166 106.377 75.7999 106.377 75.7999L103.562 81.6933C103.562 81.6933 103.037 77.4332 103.037 75.4716C103.037 73.5099 101.698 72.5164 101.164 73.9898Z" fill="white"/>
<mask id="mask0_163_2123" style="mask-type:luminance" maskUnits="userSpaceOnUse" x="99" y="73" width="14" height="26">
<path d="M101.164 73.9898C101.164 73.9898 101.345 78.4182 100.259 81.0366C99.1727 83.6549 99.7338 89.2368 100.087 90.2134C100.44 91.19 99.0278 94.4819 99.0278 94.4819L102.377 98.742C102.377 98.742 106.25 93.3285 108.187 90.3818C110.124 87.4351 112.975 84.8084 112.061 83.1666C111.147 81.5249 108.368 78.2499 108.187 77.4332C108.006 76.6166 106.377 75.7999 106.377 75.7999L103.562 81.6933C103.562 81.6933 103.037 77.4332 103.037 75.4716C103.037 73.5099 101.698 72.5164 101.164 73.9898Z" fill="white"/>
</mask>
<g mask="url(#mask0_163_2123)">
<path opacity="0.15" d="M101.164 73.9898C101.164 73.9898 101.345 78.4182 100.259 81.0366C99.1727 83.6549 99.7338 89.2368 100.087 90.2134C100.44 91.19 99.0278 94.4819 99.0278 94.4819L102.377 98.742C102.377 98.742 106.25 93.3285 108.187 90.3818C110.124 87.4351 112.975 84.8084 112.061 83.1666C111.147 81.5249 108.368 78.2499 108.187 77.4332C108.006 76.6166 106.377 75.7999 106.377 75.7999L103.562 81.6933C103.562 81.6933 103.037 77.4332 103.037 75.4716C103.037 73.5099 101.698 72.5164 101.164 73.9898Z" fill="#E0E0E0" stroke="#263238" stroke-linecap="round" stroke-linejoin="round"/>
</g>
<path d="M101.164 73.9898C101.164 73.9898 101.345 78.4182 100.259 81.0366C99.1727 83.6549 99.7338 89.2368 100.087 90.2134C100.44 91.19 99.0278 94.4819 99.0278 94.4819L102.377 98.742C102.377 98.742 106.25 93.3285 108.187 90.3818C110.124 87.4351 112.975 84.8084 112.061 83.1666C111.147 81.5249 108.368 78.2499 108.187 77.4332C108.006 76.6166 106.377 75.7999 106.377 75.7999L103.562 81.6933C103.562 81.6933 103.037 77.4332 103.037 75.4716C103.037 73.5099 101.698 72.5164 101.164 73.9898Z" stroke="#263238" stroke-linecap="round" stroke-linejoin="round"/>
<path d="M98.3494 93.5222L105.4 100.072C105.4 100.072 83.1984 134.33 80.9085 135.306C78.6187 136.283 69.9842 129.724 69.9842 129.724L64.1646 99.8871C64.1646 99.8871 71.9301 103.768 74.573 107.86C77.2158 111.952 78.9717 112.347 78.9717 112.347L98.3494 93.5222Z" fill="white"/>
<mask id="mask1_163_2123" style="mask-type:luminance" maskUnits="userSpaceOnUse" x="64" y="93" width="42" height="43">
<path d="M98.3494 93.5222L105.4 100.072C105.4 100.072 83.1984 134.33 80.9085 135.306C78.6187 136.283 69.9842 129.724 69.9842 129.724L64.1646 99.8871C64.1646 99.8871 71.9301 103.768 74.573 107.86C77.2158 111.952 78.9717 112.347 78.9717 112.347L98.3494 93.5222Z" fill="white"/>
</mask>
<g mask="url(#mask1_163_2123)">
<path d="M77.6315 121.6C76.9345 121.6 76.2286 118.763 76.2286 117.239C76.2286 115.715 72.4815 118.552 72.4815 118.552L68.2729 113.324L66.9062 113.938L69.9835 129.716C69.9835 129.716 78.618 136.266 80.9078 135.281C83.1977 134.296 103.001 103.734 105.2 100.358C99.7878 104.627 78.2469 121.6 77.6315 121.6Z" fill="#458DFC"/>
<path opacity="0.5" d="M77.6315 121.6C76.9345 121.6 76.2286 118.763 76.2286 117.239C76.2286 115.715 72.4815 118.552 72.4815 118.552L68.2729 113.324L66.9062 113.938L69.9835 129.716C69.9835 129.716 78.618 136.266 80.9078 135.281C83.1977 134.296 103.001 103.734 105.2 100.358C99.7878 104.627 78.2469 121.6 77.6315 121.6Z" fill="white"/>
</g>
<path d="M98.3494 93.5222L105.4 100.072C105.4 100.072 83.1984 134.33 80.9085 135.306C78.6187 136.283 69.9842 129.724 69.9842 129.724L64.1646 99.8871C64.1646 99.8871 71.9301 103.768 74.573 107.86C77.2158 111.952 78.9717 112.347 78.9717 112.347L98.3494 93.5222Z" stroke="#263238" stroke-linecap="round" stroke-linejoin="round"/>
<path d="M75.6957 123.098C76.1482 119.31 78.9721 112.339 78.9721 112.339C78.9721 112.339 75.2432 117.205 74.1118 119.731" stroke="#263238" stroke-linecap="round" stroke-linejoin="round"/>
<path d="M57.5937 290.529C60.4679 292.817 63.7645 294.6 67.3233 295.791C73.4326 297.896 76.1478 299.159 77.0529 301.053C77.958 302.948 77.0529 304 77.0529 304H38.3608C38.3608 304 36.3243 301.053 39.7184 295.16C43.1124 289.267 57.5937 290.529 57.5937 290.529Z" fill="white" stroke="#263238" stroke-linecap="round" stroke-linejoin="round"/>
<path d="M58.9778 291.775C58.9778 291.775 55.8191 293.064 56.8056 293.611C57.7922 294.158 60.3535 292.878 60.3535 292.878C60.3535 292.878 57.2039 295.084 58.7787 295.269C60.3535 295.455 62.7249 294.166 62.7249 294.166C62.7249 294.166 60.5527 296.734 61.5392 296.919C62.5257 297.105 65.0871 295.236 65.0871 295.236" stroke="#263238" stroke-linecap="round" stroke-linejoin="round"/>
<path d="M38.0073 301.348L77.0525 301.053" stroke="#263238" stroke-linecap="round" stroke-linejoin="round"/>
<path d="M72.5273 200.655C72.5273 200.655 68.0019 234.963 67.3231 243.172C66.6443 251.38 60.535 265.693 59.4037 269.271C58.2462 273.766 57.4894 278.342 57.141 282.952C57.3538 284.941 57.7321 286.911 58.2723 288.845C58.2723 288.845 58.7249 290.74 54.4257 291.582C50.1266 292.424 42.2071 293.686 42.2071 293.686C42.2071 293.686 39.2656 292.845 39.4919 284.846C39.7182 276.848 40.1707 262.115 42.2071 255.169C44.2436 248.223 46.9588 236.857 47.6376 234.542C48.3164 232.227 46.7325 194.13 46.7325 194.13L72.0748 193.92L72.5273 200.655Z" fill="#263238" stroke="#263238" stroke-linecap="round" stroke-linejoin="round"/>
<path d="M39.7187 290.529C42.5929 292.817 45.8895 294.6 49.4483 295.791C55.5576 297.896 58.2729 299.159 59.1779 301.053C60.083 302.948 59.1779 304 59.1779 304H20.4858C20.4858 304 18.4493 301.053 21.8434 295.16C25.2374 289.267 39.7187 290.529 39.7187 290.529Z" fill="white" stroke="#263238" stroke-linecap="round" stroke-linejoin="round"/>
<path d="M44.3798 293.434C44.3798 293.434 39.4471 296.002 40.2346 296.364C41.022 296.726 45.9547 294.529 45.9547 294.529C45.9547 294.529 43.1942 297.467 44.769 297.282C46.3439 297.096 48.1269 295.269 48.1269 295.269C48.1269 295.269 46.543 298.385 47.7286 298.022C48.7101 297.579 49.5846 296.954 50.2991 296.187" stroke="#263238" stroke-linecap="round" stroke-linejoin="round"/>
<path d="M19.9971 300.498L59.178 301.053" stroke="#263238" stroke-linecap="round" stroke-linejoin="round"/>
<path d="M26.821 191.815C26.821 191.815 28.1786 224.65 27.9523 230.964C27.726 237.279 24.1057 244.224 23.6532 251.802C23.2006 259.379 19.9604 289.174 19.9604 292.542C19.9604 295.909 20.1143 296.549 20.3406 297.181C20.5669 297.812 26.1421 296.423 29.3099 295.371C32.4777 294.318 43.3568 293.257 43.3568 293.257C43.3568 293.257 41.5466 290.109 41.5466 287.793C41.5466 285.478 41.0941 281.689 41.5466 280.427C41.9992 279.164 44.7144 252.854 46.5246 248.013C48.3347 243.172 51.5025 227.176 51.7288 221.072C51.955 214.968 54.6703 194.341 54.6703 194.341C54.6703 194.341 36.5506 194.973 26.821 191.815Z" fill="#263238" stroke="#263238" stroke-linecap="round" stroke-linejoin="round"/>
<path d="M55.4575 216.862C55.5661 215.599 55.6295 214.421 55.6295 213.343" stroke="white" stroke-linecap="round" stroke-linejoin="round"/>
<path d="M43.3574 291.11V284.695C43.3574 281.479 46.4256 265.424 49.1047 251.153C51.0958 240.579 53.7206 229.609 54.9424 221.147" stroke="white" stroke-linecap="round" stroke-linejoin="round"/>
<path d="M31.5815 88.858C31.5815 88.858 23.3001 95.9048 22.5941 96.4352C21.8881 96.9656 15.5435 106.589 13.7877 110.36C12.0318 114.132 13.6067 121.179 14.6928 127.199C15.7788 133.218 22.6213 152.599 22.6213 152.599L20.8564 201.598C20.8564 201.598 33.0116 206.355 39.863 207.492C46.7145 208.628 57.6569 208.148 57.6569 208.148L59.9468 197.498L62.7616 207.652C62.7616 207.652 73.5048 206.507 78.4375 201.43L72.455 138.985L69.1062 110.958C69.1062 110.958 68.2011 104.223 66.4633 101.293C64.7256 98.3632 55.186 92.6045 48.4884 90.3482C41.7909 88.0918 31.5815 88.858 31.5815 88.858Z" fill="white"/>
<mask id="mask2_163_2123" style="mask-type:luminance" maskUnits="userSpaceOnUse" x="13" y="88" width="66" height="121">
<path d="M31.5815 88.858C31.5815 88.858 23.3001 95.9048 22.5941 96.4352C21.8881 96.9656 15.5435 106.589 13.7877 110.36C12.0318 114.132 13.6067 121.179 14.6928 127.199C15.7788 133.218 22.6213 152.599 22.6213 152.599L20.8564 201.598C20.8564 201.598 33.0116 206.355 39.863 207.492C46.7145 208.628 57.6569 208.148 57.6569 208.148L59.9468 197.498L62.7616 207.652C62.7616 207.652 73.5048 206.507 78.4375 201.43L72.455 138.985L69.1062 110.958C69.1062 110.958 68.2011 104.223 66.4633 101.293C64.7256 98.3632 55.186 92.6045 48.4884 90.3482C41.7909 88.0918 31.5815 88.858 31.5815 88.858Z" fill="white"/>
</mask>
<g mask="url(#mask2_163_2123)">
<path d="M38.5416 131.408L20.983 122.703L21.7252 116.414C21.7252 116.414 15.6069 115.521 17.0097 111.817C18.4126 108.112 24.0603 101.099 25.2098 98.7336C26.3592 96.3678 32.6948 91.9983 32.6948 91.9983L35.2199 88.7317C33.0387 88.7317 31.5996 88.8664 31.5996 88.8664C31.5996 88.8664 23.3181 95.9132 22.6122 96.4436C21.9062 96.974 15.5616 106.597 13.8057 110.369C12.0499 114.141 13.6247 121.187 14.7108 127.207C15.7969 133.227 22.6393 152.608 22.6393 152.608L20.8744 201.607C20.8744 201.607 23.7616 202.735 27.5177 204.023C27.0018 186.124 26.0786 152.119 26.4226 151.639C26.8932 150.991 35.0842 140.534 37.4193 138.169C39.7544 135.803 27.1285 138.817 27.8254 138.388C28.5223 137.958 38.5416 131.408 38.5416 131.408Z" fill="#458DFC"/>
<path opacity="0.5" d="M38.5416 131.408L20.983 122.703L21.7252 116.414C21.7252 116.414 15.6069 115.521 17.0097 111.817C18.4126 108.112 24.0603 101.099 25.2098 98.7336C26.3592 96.3678 32.6948 91.9983 32.6948 91.9983L35.2199 88.7317C33.0387 88.7317 31.5996 88.8664 31.5996 88.8664C31.5996 88.8664 23.3181 95.9132 22.6122 96.4436C21.9062 96.974 15.5616 106.597 13.8057 110.369C12.0499 114.141 13.6247 121.187 14.7108 127.207C15.7969 133.227 22.6393 152.608 22.6393 152.608L20.8744 201.607C20.8744 201.607 23.7616 202.735 27.5177 204.023C27.0018 186.124 26.0786 152.119 26.4226 151.639C26.8932 150.991 35.0842 140.534 37.4193 138.169C39.7544 135.803 27.1285 138.817 27.8254 138.388C28.5223 137.958 38.5416 131.408 38.5416 131.408Z" fill="white"/>
<path d="M55.3306 123.62C55.3306 123.62 61.3855 177.738 59.9465 197.515L55.3306 123.62Z" fill="white"/>
<path d="M55.3306 123.62C55.3306 123.62 61.3855 177.738 59.9465 197.515" stroke="#263238" stroke-linecap="round" stroke-linejoin="round"/>
<path d="M28.6313 169.504L46.9592 171.82V176.24L28.8576 173.503L28.6313 169.504Z" stroke="#263238" stroke-linecap="round" stroke-linejoin="round"/>
<path d="M74.5641 172.451L68.9073 174.345L68.2285 170.136L72.7539 168.663" stroke="#263238" stroke-linecap="round" stroke-linejoin="round"/>
</g>
<path d="M31.5815 88.858C31.5815 88.858 23.3001 95.9048 22.5941 96.4352C21.8881 96.9656 15.5435 106.589 13.7877 110.36C12.0318 114.132 13.6067 121.179 14.6928 127.199C15.7788 133.218 22.6213 152.599 22.6213 152.599L20.8564 201.598C20.8564 201.598 33.0116 206.355 39.863 207.492C46.7145 208.628 57.6569 208.148 57.6569 208.148L59.9468 197.498L62.7616 207.652C62.7616 207.652 73.5048 206.507 78.4375 201.43L72.455 138.985L69.1062 110.958C69.1062 110.958 68.2011 104.223 66.4633 101.293C64.7256 98.3632 55.186 92.6045 48.4884 90.3482C41.7909 88.0918 31.5815 88.858 31.5815 88.858Z" stroke="#263238" stroke-linecap="round" stroke-linejoin="round"/>
<path d="M30.5229 90.1543C30.5229 90.1543 46.1989 107.691 48.8418 112.28C51.4846 116.868 55.3674 122.442 55.3674 122.442C55.3674 122.442 55.5394 106.866 53.2495 99.6595C50.9597 92.4528 48.4978 91.1562 48.4978 91.1562C47.1933 89.9119 45.5756 88.99 43.7913 88.474C42.007 87.958 40.1126 87.8642 38.2795 88.2011C31.5819 89.1861 30.5229 90.1543 30.5229 90.1543Z" fill="white" stroke="#263238" stroke-linecap="round" stroke-linejoin="round"/>
<path d="M54.9509 110.436L51.1314 103.12V96.7297L45.8457 91.6782L45.3208 99.87L49.1945 103.97L51.0047 115.85C53.204 119.352 55.3943 122.492 55.3943 122.492C55.3943 122.492 55.4305 116.616 54.9509 110.436Z" fill="#263238" stroke="#263238" stroke-linecap="round" stroke-linejoin="round"/>
<path d="M48.136 95.4165L53.2497 99.6765L48.842 89.843C48.842 89.843 46.9051 94.4314 48.136 95.4165Z" fill="white" stroke="#263238" stroke-linecap="round" stroke-linejoin="round"/>
<path d="M37.0389 52.6389C37.0389 52.6389 29.9974 55.594 27.0015 60.8391C24.0057 66.0842 28.4044 72.4743 29.8163 74.1077C30.8294 75.2378 31.9502 76.2804 33.1651 77.2227L34.5771 78.6961L34.749 86.0712L47.5921 96.2331L51.1129 85.7429C51.1129 85.7429 57.1045 84.5979 57.9915 82.4678C58.8785 80.3378 56.2266 67.2292 55.5206 64.6025C54.8146 61.9757 52.7058 56.9074 52.7058 56.9074C52.7058 56.9074 53.4027 54.449 49.357 52.1506C45.3113 49.8522 37.0389 52.6389 37.0389 52.6389Z" fill="white"/>
<mask id="mask3_163_2123" style="mask-type:luminance" maskUnits="userSpaceOnUse" x="25" y="51" width="34" height="46">
<path d="M37.0389 52.6389C37.0389 52.6389 29.9974 55.594 27.0015 60.8391C24.0057 66.0842 28.4044 72.4743 29.8163 74.1077C30.8294 75.2378 31.9502 76.2804 33.1651 77.2227L34.5771 78.6961L34.749 86.0712L47.5921 96.2331L51.1129 85.7429C51.1129 85.7429 57.1045 84.5979 57.9915 82.4678C58.8785 80.3378 56.2266 67.2292 55.5206 64.6025C54.8146 61.9757 52.7058 56.9074 52.7058 56.9074C52.7058 56.9074 53.4027 54.449 49.357 52.1506C45.3113 49.8522 37.0389 52.6389 37.0389 52.6389Z" fill="white"/>
</mask>
<g mask="url(#mask3_163_2123)">
<g opacity="0.15">
<path d="M37.0389 52.6389C37.0389 52.6389 29.9974 55.594 27.0015 60.8391C24.0057 66.0842 28.4044 72.4743 29.8163 74.1077C30.8294 75.2378 31.9502 76.2804 33.1651 77.2227L34.5771 78.6961L34.749 86.0712L47.5921 96.2331L51.1129 85.7429C51.1129 85.7429 57.1045 84.5979 57.9915 82.4678C58.8785 80.3378 56.2266 67.2292 55.5206 64.6025C54.8146 61.9757 52.7058 56.9074 52.7058 56.9074C52.7058 56.9074 53.4027 54.449 49.357 52.1506C45.3113 49.8522 37.0389 52.6389 37.0389 52.6389Z" fill="#E0E0E0"/>
<mask id="mask4_163_2123" style="mask-type:luminance" maskUnits="userSpaceOnUse" x="25" y="51" width="34" height="46">
<path d="M37.0389 52.6389C37.0389 52.6389 29.9974 55.594 27.0015 60.8391C24.0057 66.0842 28.4044 72.4743 29.8163 74.1077C30.8294 75.2378 31.9502 76.2804 33.1651 77.2227L34.5771 78.6961L34.749 86.0712L47.5921 96.2331L51.1129 85.7429C51.1129 85.7429 57.1045 84.5979 57.9915 82.4678C58.8785 80.3378 56.2266 67.2292 55.5206 64.6025C54.8146 61.9757 52.7058 56.9074 52.7058 56.9074C52.7058 56.9074 53.4027 54.449 49.357 52.1506C45.3113 49.8522 37.0389 52.6389 37.0389 52.6389Z" fill="white"/>
</mask>
<g mask="url(#mask4_163_2123)">
<path d="M41.8272 79.7992C41.1212 76.5325 43.936 68.0124 40.9221 62.38C38.5055 57.8758 31.5093 58.1704 28.7397 58.5156C28.0839 59.2307 27.5134 60.0098 27.0382 60.8393C24.0424 66.0844 28.441 72.4745 29.853 74.1078C30.866 75.2379 31.9869 76.2805 33.2018 77.2229L34.6137 78.6963L34.7857 86.0714L38.3336 88.875C38.3336 87.932 38.3336 87.1911 38.3336 86.7618C38.3336 85.3221 45.357 85.2379 47.2305 84.5896C49.104 83.9414 42.5241 83.0658 41.8272 79.7992Z" fill="#E0E0E0"/>
<path opacity="0.5" d="M41.8272 79.7992C41.1212 76.5325 43.936 68.0124 40.9221 62.38C38.5055 57.8758 31.5093 58.1704 28.7397 58.5156C28.0839 59.2307 27.5134 60.0098 27.0382 60.8393C24.0424 66.0844 28.441 72.4745 29.853 74.1078C30.866 75.2379 31.9869 76.2805 33.2018 77.2229L34.6137 78.6963L34.7857 86.0714L38.3336 88.875C38.3336 87.932 38.3336 87.1911 38.3336 86.7618C38.3336 85.3221 45.357 85.2379 47.2305 84.5896C49.104 83.9414 42.5241 83.0658 41.8272 79.7992Z" fill="#E0E0E0"/>
</g>
</g>
<g style="mix-blend-mode:multiply" opacity="0.22">
<path d="M41.8272 79.7992C41.1212 76.5325 43.936 68.0124 40.9221 62.38C38.5055 57.8758 31.5093 58.1704 28.7397 58.5156C28.0839 59.2307 27.5134 60.0098 27.0382 60.8393C24.0424 66.0844 28.441 72.4745 29.853 74.1078C30.866 75.2379 31.9869 76.2805 33.2018 77.2229L34.6137 78.6963L34.7857 86.0714L38.3336 88.875C38.3336 87.932 38.3336 87.1911 38.3336 86.7618C38.3336 85.3221 45.357 85.2379 47.2305 84.5896C49.104 83.9414 42.5241 83.0658 41.8272 79.7992Z" fill="#E0E0E0"/>
</g>
</g>
<path d="M37.0389 52.6389C37.0389 52.6389 29.9974 55.594 27.0015 60.8391C24.0057 66.0842 28.4044 72.4743 29.8163 74.1077C30.8294 75.2378 31.9502 76.2804 33.1651 77.2227L34.5771 78.6961L34.749 86.0712L47.5921 96.2331L51.1129 85.7429C51.1129 85.7429 57.1045 84.5979 57.9915 82.4678C58.8785 80.3378 56.2266 67.2292 55.5206 64.6025C54.8146 61.9757 52.7058 56.9074 52.7058 56.9074C52.7058 56.9074 53.4027 54.449 49.357 52.1506C45.3113 49.8522 37.0389 52.6389 37.0389 52.6389Z" stroke="#263238" stroke-linecap="round" stroke-linejoin="round"/>
<path d="M38.9756 79.0247C38.9756 79.0247 39.6815 81.6514 40.9125 82.3081C43.7599 83.8116 46.9787 84.6007 50.2529 84.5981" stroke="#263238" stroke-linecap="round" stroke-linejoin="round"/>
<path d="M55.5384 64.6028L54.4795 66.4045C54.4795 66.4045 58.7062 70.0163 58.5342 70.9929C58.3623 71.9695 55.0135 73.1313 55.0135 73.1313" fill="white"/>
<mask id="mask5_163_2123" style="mask-type:luminance" maskUnits="userSpaceOnUse" x="54" y="64" width="5" height="10">
<path d="M55.5384 64.6028L54.4795 66.4045C54.4795 66.4045 58.7062 70.0163 58.5342 70.9929C58.3623 71.9695 55.0135 73.1313 55.0135 73.1313" fill="white"/>
</mask>
<g mask="url(#mask5_163_2123)">
<path opacity="0.15" d="M55.5384 64.6028L54.4795 66.4045C54.4795 66.4045 58.7062 70.0163 58.5342 70.9929C58.3623 71.9695 55.0135 73.1313 55.0135 73.1313" fill="#E0E0E0"/>
</g>
<path d="M55.5384 64.6028L54.4795 66.4045C54.4795 66.4045 58.7062 70.0163 58.5342 70.9929C58.3623 71.9695 55.0135 73.1313 55.0135 73.1313" stroke="#263238" stroke-linecap="round" stroke-linejoin="round"/>
<path d="M50.1446 68.1721L50.4252 68.8288L48.0991 69.6876L50.5428 69.637" stroke="#263238" stroke-linecap="round" stroke-linejoin="round"/>
<path d="M50.4889 65.8063C50.4889 65.8063 47.5202 65.0486 46.2803 67.3639" stroke="#263238" stroke-linecap="round" stroke-linejoin="round"/>
<path d="M56.6431 75.4294C55.2914 75.7892 53.8946 75.9817 52.4888 76.0019" stroke="#263238" stroke-linecap="round" stroke-linejoin="round"/>
<path d="M42.1624 57.884C46.914 55.2657 52.7337 56.899 52.7337 56.899C52.7337 56.899 53.4306 54.449 49.3849 52.1506C45.3392 49.8522 37.0487 52.6389 37.0487 52.6389C37.0487 52.6389 30.0071 55.594 27.0113 60.8391C24.0155 66.0842 28.4142 72.4743 29.8261 74.1077C30.8392 75.2378 31.96 76.2804 33.1749 77.2227L34.5868 78.6961V79.2938C37.4469 78.9739 37.9175 78.5361 37.9175 78.5361C37.5217 78.5447 37.1285 78.4739 36.7646 78.3287C36.4007 78.1834 36.0747 77.967 35.8087 77.6942C34.5778 76.7092 32.2879 75.0674 32.8129 72.7774C33.3378 70.4874 35.4557 70.479 36.5146 71.2957C37.5736 72.1123 37.5736 72.2807 38.8045 71.7924C40.0354 71.3041 38.2705 68.349 38.2705 68.349L40.0807 67.204C41.8456 66.059 42.3705 64.7456 40.9857 63.6006C39.601 62.4556 37.3926 60.5108 42.1624 57.884Z" fill="#263238" stroke="#263238" stroke-linecap="round" stroke-linejoin="round"/>
<path d="M32.9938 84.4377L30.5229 90.1712L44.6151 102.791L48.3168 96.073L32.9938 84.4377Z" fill="white" stroke="#263238" stroke-linecap="round" stroke-linejoin="round"/>
<path d="M69.9839 44.1693C69.9839 44.1693 79.1433 59.248 80.5552 66.4547C81.9672 73.6615 84.61 83.1667 84.61 83.1667L107.69 80.7083C107.69 80.7083 104.341 60.7213 102.259 54.0028C100.177 47.2844 99.6162 45.8026 99.6162 45.8026C99.6162 45.8026 73.8395 43.3442 69.9839 44.1693Z" fill="#263238" stroke="#263238" stroke-linecap="round" stroke-linejoin="round"/>
<path d="M73.1611 94.4818C73.1611 94.4818 74.0662 88.5884 74.0662 88.0832C74.0662 87.5781 73.8399 79.2095 73.8399 79.2095C73.8399 79.2095 77.1887 72.4742 77.7227 72.1627C78.2567 71.8512 83.8863 69.216 84.2393 70.361C84.5923 71.506 83.0084 72.0027 82.4744 72.4911C81.9404 72.9794 79.6596 73.9644 79.4786 74.4611C79.2976 74.9578 78.2477 78.7212 78.2477 78.7212C78.2477 78.7212 82.8274 75.4462 84.0583 75.4462C85.2892 75.4462 86.3482 78.0645 86.3482 78.0645C86.3482 78.0645 87.9411 80.1945 87.9411 81.3395C87.9411 82.4845 88.2941 83.7979 87.4071 84.623C86.5201 85.4481 86.1762 86.0963 84.9453 86.0963C83.7144 86.0963 82.1214 87.4097 82.1214 88.3863C82.1214 89.3629 82.1214 92.6464 81.0625 93.6314C79.4271 94.9116 77.7234 96.1142 75.9578 97.2348L73.1611 94.4818Z" fill="white"/>
<mask id="mask6_163_2123" style="mask-type:luminance" maskUnits="userSpaceOnUse" x="73" y="70" width="16" height="28">
<path d="M73.1611 94.4818C73.1611 94.4818 74.0662 88.5884 74.0662 88.0832C74.0662 87.5781 73.8399 79.2095 73.8399 79.2095C73.8399 79.2095 77.1887 72.4742 77.7227 72.1627C78.2567 71.8512 83.8863 69.216 84.2393 70.361C84.5923 71.506 83.0084 72.0027 82.4744 72.4911C81.9404 72.9794 79.6596 73.9644 79.4786 74.4611C79.2976 74.9578 78.2477 78.7212 78.2477 78.7212C78.2477 78.7212 82.8274 75.4462 84.0583 75.4462C85.2892 75.4462 86.3482 78.0645 86.3482 78.0645C86.3482 78.0645 87.9411 80.1945 87.9411 81.3395C87.9411 82.4845 88.2941 83.7979 87.4071 84.623C86.5201 85.4481 86.1762 86.0963 84.9453 86.0963C83.7144 86.0963 82.1214 87.4097 82.1214 88.3863C82.1214 89.3629 82.1214 92.6464 81.0625 93.6314C79.4271 94.9116 77.7234 96.1142 75.9578 97.2348L73.1611 94.4818Z" fill="white"/>
</mask>
<g mask="url(#mask6_163_2123)">
<path opacity="0.15" d="M73.1611 94.4818C73.1611 94.4818 74.0662 88.5884 74.0662 88.0832C74.0662 87.5781 73.8399 79.2095 73.8399 79.2095C73.8399 79.2095 77.1887 72.4742 77.7227 72.1627C78.2567 71.8512 83.8863 69.216 84.2393 70.361C84.5923 71.506 83.0084 72.0027 82.4744 72.4911C81.9404 72.9794 79.6596 73.9644 79.4786 74.4611C79.2976 74.9578 78.2477 78.7212 78.2477 78.7212C78.2477 78.7212 82.8274 75.4462 84.0583 75.4462C85.2892 75.4462 86.3482 78.0645 86.3482 78.0645C86.3482 78.0645 87.9411 80.1945 87.9411 81.3395C87.9411 82.4845 88.2941 83.7979 87.4071 84.623C86.5201 85.4481 86.1762 86.0963 84.9453 86.0963C83.7144 86.0963 82.1214 87.4097 82.1214 88.3863C82.1214 89.3629 82.1214 92.6464 81.0625 93.6314C79.4271 94.9116 77.7234 96.1142 75.9578 97.2348L73.1611 94.4818Z" fill="#E0E0E0" stroke="#263238" stroke-linecap="round" stroke-linejoin="round"/>
</g>
<path d="M73.1611 94.4818C73.1611 94.4818 74.0662 88.5884 74.0662 88.0832C74.0662 87.5781 73.8399 79.2095 73.8399 79.2095C73.8399 79.2095 77.1887 72.4742 77.7227 72.1627C78.2567 71.8512 83.8863 69.216 84.2393 70.361C84.5923 71.506 83.0084 72.0027 82.4744 72.4911C81.9404 72.9794 79.6596 73.9644 79.4786 74.4611C79.2976 74.9578 78.2477 78.7212 78.2477 78.7212C78.2477 78.7212 82.8274 75.4462 84.0583 75.4462C85.2892 75.4462 86.3482 78.0645 86.3482 78.0645C86.3482 78.0645 87.9411 80.1945 87.9411 81.3395C87.9411 82.4845 88.2941 83.7979 87.4071 84.623C86.5201 85.4481 86.1762 86.0963 84.9453 86.0963C83.7144 86.0963 82.1214 87.4097 82.1214 88.3863C82.1214 89.3629 82.1214 92.6464 81.0625 93.6314C79.4271 94.9116 77.7234 96.1142 75.9578 97.2348L73.1611 94.4818Z" stroke="#263238" stroke-linecap="round" stroke-linejoin="round"/>
<path d="M87.9589 81.3652L81.9673 83.992" stroke="#263238" stroke-linecap="round" stroke-linejoin="round"/>
<path d="M86.3664 78.0901L80.7368 81.2052" stroke="#263238" stroke-linecap="round" stroke-linejoin="round"/>
<path d="M108.567 76.6167C108.567 76.6167 104.693 78.7468 104.693 79.7318C104.693 80.7168 105.598 80.8768 106.802 80.3885C108.006 79.9002 110.332 79.2351 110.332 78.0901C110.332 76.9451 109.798 76.4483 108.567 76.6167Z" fill="white"/>
<mask id="mask7_163_2123" style="mask-type:luminance" maskUnits="userSpaceOnUse" x="104" y="76" width="7" height="5">
<path d="M108.567 76.6167C108.567 76.6167 104.693 78.7468 104.693 79.7318C104.693 80.7168 105.598 80.8768 106.802 80.3885C108.006 79.9002 110.332 79.2351 110.332 78.0901C110.332 76.9451 109.798 76.4483 108.567 76.6167Z" fill="white"/>
</mask>
<g mask="url(#mask7_163_2123)">
<path opacity="0.15" d="M108.567 76.6167C108.567 76.6167 104.693 78.7468 104.693 79.7318C104.693 80.7168 105.598 80.8768 106.802 80.3885C108.006 79.9002 110.332 79.2351 110.332 78.0901C110.332 76.9451 109.798 76.4483 108.567 76.6167Z" fill="#E0E0E0" stroke="#263238" stroke-linecap="round" stroke-linejoin="round"/>
</g>
<path d="M108.567 76.6167C108.567 76.6167 104.693 78.7468 104.693 79.7318C104.693 80.7168 105.598 80.8768 106.802 80.3885C108.006 79.9002 110.332 79.2351 110.332 78.0901C110.332 76.9451 109.798 76.4483 108.567 76.6167Z" stroke="#263238" stroke-linecap="round" stroke-linejoin="round"/>
<path d="M107.862 74.318C107.862 74.318 104.16 75.1599 103.988 76.448C103.816 77.7362 108.568 76.7764 109.627 76.448C110.686 76.1197 110.686 73.8297 107.862 74.318Z" fill="white"/>
<mask id="mask8_163_2123" style="mask-type:luminance" maskUnits="userSpaceOnUse" x="103" y="74" width="8" height="4">
<path d="M107.862 74.318C107.862 74.318 104.16 75.1599 103.988 76.448C103.816 77.7362 108.568 76.7764 109.627 76.448C110.686 76.1197 110.686 73.8297 107.862 74.318Z" fill="white"/>
</mask>
<g mask="url(#mask8_163_2123)">
<path opacity="0.15" d="M107.862 74.318C107.862 74.318 104.16 75.1599 103.988 76.448C103.816 77.7362 108.568 76.7764 109.627 76.448C110.686 76.1197 110.686 73.8297 107.862 74.318Z" fill="#E0E0E0" stroke="#263238" stroke-linecap="round" stroke-linejoin="round"/>
</g>
<path d="M107.862 74.318C107.862 74.318 104.16 75.1599 103.988 76.448C103.816 77.7362 108.568 76.7764 109.627 76.448C110.686 76.1197 110.686 73.8297 107.862 74.318Z" stroke="#263238" stroke-linecap="round" stroke-linejoin="round"/>
<path d="M109.798 79.2097C109.798 79.2097 105.4 81.1798 105.219 81.8365C105.038 82.4932 104.694 83.4698 106.45 83.4698C108.205 83.4698 111.563 81.8365 111.735 80.6831C111.907 79.5296 111.21 79.2097 109.798 79.2097Z" fill="white"/>
<mask id="mask9_163_2123" style="mask-type:luminance" maskUnits="userSpaceOnUse" x="105" y="79" width="7" height="5">
<path d="M109.798 79.2097C109.798 79.2097 105.4 81.1798 105.219 81.8365C105.038 82.4932 104.694 83.4698 106.45 83.4698C108.205 83.4698 111.563 81.8365 111.735 80.6831C111.907 79.5296 111.21 79.2097 109.798 79.2097Z" fill="white"/>
</mask>
<g mask="url(#mask9_163_2123)">
<path opacity="0.15" d="M109.798 79.2097C109.798 79.2097 105.4 81.1798 105.219 81.8365C105.038 82.4932 104.694 83.4698 106.45 83.4698C108.205 83.4698 111.563 81.8365 111.735 80.6831C111.907 79.5296 111.21 79.2097 109.798 79.2097Z" fill="#E0E0E0" stroke="#263238" stroke-linecap="round" stroke-linejoin="round"/>
</g>
<path d="M109.798 79.2097C109.798 79.2097 105.4 81.1798 105.219 81.8365C105.038 82.4932 104.694 83.4698 106.45 83.4698C108.205 83.4698 111.563 81.8365 111.735 80.6831C111.907 79.5296 111.21 79.2097 109.798 79.2097Z" stroke="#263238" stroke-linecap="round" stroke-linejoin="round"/>
<path d="M111.183 81.5334C111.183 81.5334 107.111 83.2678 106.948 83.8487C106.785 84.4296 106.459 85.2968 108.088 85.2968C109.717 85.2968 112.813 83.8487 112.975 82.8384C113.138 81.8281 112.487 81.5334 111.183 81.5334Z" fill="white"/>
<mask id="mask10_163_2123" style="mask-type:luminance" maskUnits="userSpaceOnUse" x="106" y="81" width="7" height="5">
<path d="M111.183 81.5334C111.183 81.5334 107.111 83.2678 106.948 83.8487C106.785 84.4296 106.459 85.2968 108.088 85.2968C109.717 85.2968 112.813 83.8487 112.975 82.8384C113.138 81.8281 112.487 81.5334 111.183 81.5334Z" fill="white"/>
</mask>
<g mask="url(#mask10_163_2123)">
<path opacity="0.15" d="M111.183 81.5334C111.183 81.5334 107.111 83.2678 106.948 83.8487C106.785 84.4296 106.459 85.2968 108.088 85.2968C109.717 85.2968 112.813 83.8487 112.975 82.8384C113.138 81.8281 112.487 81.5334 111.183 81.5334Z" fill="#E0E0E0" stroke="#263238" stroke-linecap="round" stroke-linejoin="round"/>
</g>
<path d="M111.183 81.5334C111.183 81.5334 107.111 83.2678 106.948 83.8487C106.785 84.4296 106.459 85.2968 108.088 85.2968C109.717 85.2968 112.813 83.8487 112.975 82.8384C113.138 81.8281 112.487 81.5334 111.183 81.5334Z" stroke="#263238" stroke-linecap="round" stroke-linejoin="round"/>
<path d="M76.7183 46.3162C76.7183 46.3162 84.0675 58.2292 85.4251 63.0702C86.7827 67.9112 87.9141 81.3818 87.9141 81.3818L102.622 79.6979C102.622 79.6979 102.169 67.4902 100.133 61.5969C98.0962 55.7035 96.5124 48.1263 96.5124 48.1263L76.7183 46.3162Z" fill="#E0E0E0"/>
<path d="M88.9088 64.2828C88.9088 64.2828 87.2253 67.1958 88.1847 68.4334C89.1441 69.671 91.4339 70.2267 91.6783 70.5635C91.9227 70.9002 93.6061 80.4222 93.6061 80.4222L98.7832 79.976C98.7832 79.976 96.258 71.1191 96.8554 69.4437C97.4527 67.7683 98.9099 66.1939 97.4618 64.7374C96.0136 63.2809 93.7238 62.2706 92.2847 62.4895C91.0369 62.8609 89.8867 63.4718 88.9088 64.2828Z" fill="white"/>
<path d="M84.2119 47.3601C84.2119 47.3601 88.4296 57.463 88.0676 59.2395C87.7055 61.0159 86.7371 63.9458 88.9093 64.2909C91.0815 64.6361 92.0409 62.725 92.7649 62.8344C93.489 62.9439 94.6927 65.0739 95.7788 63.8447C96.8649 62.6155 97.942 60.595 96.1409 58.5744C94.3398 56.5538 93.0093 55.4425 92.0409 53.3124C91.3014 51.5505 90.658 49.7549 90.1131 47.9326L84.2119 47.3601Z" fill="white"/>
<path d="M30.6944 99.7185C30.6944 99.7185 33.3372 99.7185 36.5141 102.345C39.6909 104.972 50.9954 115.622 50.9954 115.622L73.016 93.3284L80.2566 99.7185L54.1269 135.281C52.8817 135.675 51.5667 135.844 50.2532 135.778C48.3163 135.609 18.7202 122.012 18.7202 122.012" fill="white"/>
<mask id="mask11_163_2123" style="mask-type:luminance" maskUnits="userSpaceOnUse" x="18" y="93" width="63" height="43">
<path d="M30.6944 99.7185C30.6944 99.7185 33.3372 99.7185 36.5141 102.345C39.6909 104.972 50.9954 115.622 50.9954 115.622L73.016 93.3284L80.2566 99.7185L54.1269 135.281C52.8817 135.675 51.5667 135.844 50.2532 135.778C48.3163 135.609 18.7202 122.012 18.7202 122.012" fill="white"/>
</mask>
<g mask="url(#mask11_163_2123)">
<path d="M46.7415 130.305C42.7591 130.305 29.4183 123.334 25.2096 120.286C23.7877 119.215 22.6067 117.893 21.7341 116.397L18.7202 122.012C18.7202 122.012 48.3163 135.609 50.2532 135.778C51.5667 135.844 52.8817 135.675 54.1269 135.281L73.0069 109.518C66.2007 115.732 49.8731 130.305 46.7415 130.305Z" fill="#458DFC"/>
<path opacity="0.5" d="M46.7415 130.305C42.7591 130.305 29.4183 123.334 25.2096 120.286C23.7877 119.215 22.6067 117.893 21.7341 116.397L18.7202 122.012C18.7202 122.012 48.3163 135.609 50.2532 135.778C51.5667 135.844 52.8817 135.675 54.1269 135.281L73.0069 109.518C66.2007 115.732 49.8731 130.305 46.7415 130.305Z" fill="white"/>
</g>
<path d="M30.6944 99.7185C30.6944 99.7185 33.3372 99.7185 36.5141 102.345C39.6909 104.972 50.9954 115.622 50.9954 115.622L73.016 93.3284L80.2566 99.7185L54.1269 135.281C52.8817 135.675 51.5667 135.844 50.2532 135.778C48.3163 135.609 18.7202 122.012 18.7202 122.012" stroke="#263238" stroke-linecap="round" stroke-linejoin="round"/>
<path d="M30.6946 127.746L21.0103 127.577" stroke="#263238" stroke-linecap="round" stroke-linejoin="round"/>
<path d="M50.959 115.302C50.959 115.302 45.3746 121.516 44.6958 124.883" stroke="#263238" stroke-linecap="round" stroke-linejoin="round"/>
<path d="M49.2214 115.943C49.2214 115.943 44.4697 119.942 43.3384 122.046" stroke="#263238" stroke-linecap="round" stroke-linejoin="round"/>
</svg>
