<svg width="180" height="100" viewBox="0 0 180 100" fill="none" xmlns="http://www.w3.org/2000/svg">
<path d="M169.232 62.3302H13.1436V82.8977H169.232V62.3302Z" fill="#455A64"/>
<path d="M12.0476 5.20495C10.3955 5.17448 8.77791 5.7243 7.43261 6.77364C6.08731 7.82298 5.08519 9.31652 4.57346 11.0348C4.53322 11.1757 4.49298 11.3282 4.45542 11.4661C2.97722 17.3342 0.018136 33.9113 0.758577 52.7154C1.49902 71.5196 3.53255 81.4277 3.53255 81.4277L20.5412 83.8542C20.5412 83.8542 21.6573 68.3039 34.784 68.3039C51.2454 68.3039 51.0013 85.9402 51.0013 85.9402L138.634 87.5569C138.634 87.5569 138.862 77.5578 144.78 71.6868C148.31 68.1865 152.603 68.4594 155.135 68.5445C159.696 68.7088 165.539 71.8335 167.044 78.4086C168.305 83.9304 168.82 87.8943 168.82 87.8943L176.063 86.2777L173.998 62.4094L173.072 59.7688C173.072 59.7688 138.314 22.7709 132.952 18.3288C127.589 13.8867 121.306 5.79175 111.506 6.00593C102.534 6.17904 25.0858 5.34871 12.0476 5.20495Z" fill="#E0E0E0"/>
<path d="M0 63.985C0 63.985 0.107311 78.3617 1.49698 82.3461C1.49698 82.3461 18.5218 84.171 20.5446 83.8424C20.5446 83.8424 21.3735 75.5128 26.2857 71.3201L21.7089 66.0887L0 63.985Z" fill="#263238"/>
<path d="M53.4111 75.5128L55.1013 82.1818L135.056 83.8806L136.131 76.4018L53.4111 75.5128Z" fill="#263238"/>
<path d="M163.562 72.1064L166.303 62.3302H174.37C174.37 62.3302 178.247 63.7972 179.116 66.3938C179.985 68.9904 180.382 78.0712 179.513 81.9647L177.78 86.1163L168.833 88.1701C168.833 88.1701 168.297 84.4586 167.674 81.2341C166.944 77.5636 166.244 74.8761 163.562 72.1064Z" fill="#263238"/>
<path d="M118.596 22.6271C118.518 23.0643 119.318 41.8537 119.637 43.6904C119.956 45.5271 121.314 50.5091 131.066 51.0255C140.817 51.5418 154.481 51.5507 154.481 51.5507L153.636 45.8616C153.636 45.8616 141.864 31.8781 139.025 29.1377C136.935 27.1015 136.021 24.8247 130.832 23.9445C125.644 23.0643 118.596 22.6271 118.596 22.6271Z" fill="#455A64"/>
<path d="M118.597 22.6271C118.597 22.6271 118.673 22.6271 118.812 22.6271L119.442 22.6653C119.998 22.7005 120.816 22.7562 121.876 22.8413C123.99 23.0262 127.072 23.2785 130.892 23.8946C131.898 24.056 132.887 24.3273 133.844 24.7044C134.887 25.1199 135.851 25.7448 136.685 26.547C137.556 27.3714 138.318 28.369 139.241 29.2492C140.164 30.1294 141.028 31.1504 141.94 32.1597C145.57 36.2351 149.511 40.8562 153.691 45.8029V45.8176V45.8411C153.959 47.6513 154.243 49.579 154.533 51.536L154.546 51.624H154.463L150.171 51.6005C146.528 51.5683 142.97 51.5125 139.536 51.4216C137.819 51.3746 136.135 51.3189 134.482 51.2543L132.033 51.1428C131.63 51.1194 131.228 51.1106 130.828 51.0753L129.64 50.9726C128.102 50.8202 126.586 50.4777 125.119 49.9516C123.728 49.4521 122.458 48.6156 121.404 47.5046C120.432 46.447 119.789 45.0818 119.566 43.6024C119.405 42.1794 119.349 40.8151 119.265 39.5124C118.978 34.3016 118.812 30.0795 118.699 27.1631C118.648 25.6961 118.611 24.5724 118.595 23.8037C118.595 23.4222 118.595 23.1288 118.595 22.9235C118.595 22.7181 118.595 22.6301 118.595 22.6301C118.595 22.6301 118.595 22.7328 118.595 22.9235C118.595 23.1142 118.611 23.4164 118.622 23.8037C118.654 24.5753 118.697 25.7049 118.756 27.1602C118.882 30.0766 119.064 34.2957 119.362 39.5065C119.448 40.8063 119.51 42.1765 119.673 43.5819C119.896 45.0378 120.534 46.3797 121.495 47.4166C122.538 48.5132 123.794 49.3367 125.17 49.8254C126.628 50.3493 128.135 50.688 129.664 50.8348L130.847 50.9374C131.244 50.9727 131.652 50.9815 132.049 51.0049L134.498 51.1105C136.149 51.1751 137.834 51.2299 139.552 51.2749C142.984 51.3629 146.528 51.4186 150.182 51.4509L154.474 51.4744L154.407 51.5624C154.117 49.6054 153.833 47.6778 153.564 45.8675L153.583 45.9056C149.404 40.9618 145.468 36.3349 141.846 32.2536C140.937 31.2385 140.054 30.2468 139.163 29.3402C138.273 28.4335 137.471 27.4506 136.612 26.635C135.787 25.8476 134.835 25.2339 133.806 24.8247C132.858 24.4477 131.877 24.1754 130.879 24.012C127.067 23.3841 123.984 23.1171 121.87 22.9176L119.44 22.7122L118.812 22.6623L118.597 22.6271Z" fill="#263238"/>
<path d="M133.732 24.7191C133.781 25.2149 135.224 51.2191 135.224 51.2191H137.601L136.528 26.4912C135.695 25.7311 134.75 25.1318 133.732 24.7191Z" fill="#263238"/>
<path d="M151.311 42.6283C151.392 42.7574 153.253 45.0665 154.589 47.1467C155.472 48.5292 155.931 50.1819 155.901 51.8675H150.268L151.311 42.6283Z" fill="#263238"/>
<path d="M151.49 59.76L5.33594 57.7356L5.40569 48.1853L119.933 49.5643L124.338 52.29C126.323 53.3228 128.966 53.7776 131.16 53.9155C133.355 54.0534 135.884 53.9331 137.837 53.98L151.345 54.2734L151.49 59.76Z" fill="#458DFC"/>
<path d="M119.284 50.5912H118.618C117.517 50.5912 116.625 51.5672 116.625 52.7712V56.5091C116.625 57.7131 117.517 58.6891 118.618 58.6891H119.284C120.384 58.6891 121.277 57.7131 121.277 56.5091V52.7712C121.277 51.5672 120.384 50.5912 119.284 50.5912Z" fill="#263238"/>
<path d="M107.445 50.2802H106.779C105.679 50.2802 104.786 51.2562 104.786 52.4602V56.1981C104.786 57.4021 105.679 58.3781 106.779 58.3781H107.445C108.546 58.3781 109.438 57.4021 109.438 56.1981V52.4602C109.438 51.2562 108.546 50.2802 107.445 50.2802Z" fill="#263238"/>
<path d="M59.5303 44.7467H8.1582V46.9296H59.5303V44.7467Z" fill="#EBEBEB"/>
<path d="M59.5308 46.9266C59.5308 46.9266 59.5308 46.7535 59.5308 46.3927C59.5308 46.0318 59.5308 45.489 59.5308 44.7467L59.5496 44.7643C53.6743 44.7965 32.8856 44.823 8.18009 44.823L8.24984 44.7467V46.9266L8.18009 46.8504L44.5556 46.8826L55.5254 46.9061H58.506H59.284H59.5522C59.5522 46.9061 59.4664 46.9061 59.284 46.9061H58.514H55.5496L44.5985 46.9296L8.16936 46.9589H8.09961V44.6117H8.17204C32.8776 44.6117 53.6663 44.6381 59.5415 44.6704H59.5603V44.6909C59.5603 45.4391 59.5603 45.9848 59.5603 46.3486C59.5603 46.7125 59.5308 46.9266 59.5308 46.9266Z" fill="#263238"/>
<path d="M8.85394 44.6498H6.68359V47.0235H8.85394V44.6498Z" fill="#263238"/>
<path d="M59.8749 44.6498H56.457V47.0235H59.8749V44.6498Z" fill="#263238"/>
<path d="M114.165 20.0481C114.165 20.0921 89.9207 20.0481 60.0187 19.9748C30.1166 19.9014 5.86719 19.7929 5.86719 19.7489C5.86719 19.7048 30.1086 19.7489 60.0187 19.8222C89.9288 19.8956 114.165 20.007 114.165 20.0481Z" fill="#263238"/>
<path d="M0.841797 38.6205L5.32737 43.9134V37.1711L1.2308 32.7319L0.841797 38.6205Z" fill="#458DFC"/>
<path d="M2.05959 24.9098L5.32719 27.8937V22.0931L3.0844 19.4114C3.0844 19.4114 1.84765 23.4486 2.05959 24.9098Z" fill="#458DFC"/>
<path d="M0.71892 42.8102L5.31985 49.9223V64.5014L1.41644 64.1229C1.41644 64.1229 0.858423 57.5008 0.751113 53.1262C0.643803 48.7516 0.71892 42.8102 0.71892 42.8102Z" fill="#458DFC"/>
<path d="M0.841797 49.2064L2.50779 51.1575L3.02556 61.315H1.21738L0.841797 49.2064Z" fill="#E0E0E0"/>
<path d="M151.614 64.2168L5.32812 63.5596V60.4436L151.533 61.5762L151.614 64.2168Z" fill="#458DFC"/>
<path d="M21.1942 0H16.3438V5.3047H21.1942V0Z" fill="#455A64"/>
<path d="M110.025 0.296336H103.956C102.722 0.296336 101.722 1.39057 101.722 2.74037V3.55309C101.722 4.9029 102.722 5.99713 103.956 5.99713H110.025C111.259 5.99713 112.26 4.9029 112.26 3.55309V2.74037C112.26 1.39057 111.259 0.296336 110.025 0.296336Z" fill="#455A64"/>
<path d="M62.3654 21.5621H62.1642H61.5713H59.2963L50.9315 21.5856L23.3286 21.609H7.13277L7.19447 21.5386C7.24008 28.9206 7.28032 35.1642 7.30715 39.5711C7.30715 41.7657 7.32324 43.5056 7.32861 44.6968V46.4073C7.331 46.4464 7.331 46.4856 7.32861 46.5247C7.32861 46.5247 7.32861 46.4865 7.32861 46.4073V46.0582L7.30983 44.6968C7.30983 43.5056 7.27764 41.7628 7.25349 39.5711C7.21325 35.17 7.15691 28.9206 7.08984 21.5415V21.4711H7.15423H23.35L50.953 21.4946L59.3178 21.5181H61.5928H62.1857L62.3654 21.5621Z" fill="#263238"/>
<path d="M36.9889 22.768H31.7334V43.9134H36.9889V22.768Z" fill="#458DFC"/>
<path d="M25.0099 36.9208L27.6377 41.8985L44.382 31.3257L41.7542 26.3481L25.0099 36.9208Z" fill="#458DFC"/>
<path d="M40.981 41.7133L43.8779 36.9176L27.7457 25.262L24.8488 30.0577L40.981 41.7133Z" fill="#458DFC"/>
<path d="M111.487 45.8352L61.5798 45.6973L61.1104 21.5621H111.487V45.8352Z" fill="#263238"/>
<path d="M148.601 37.7666H147.579C145.881 37.7666 144.505 39.272 144.505 41.129V51.5624C144.505 53.4194 145.881 54.9248 147.579 54.9248H148.601C150.299 54.9248 151.676 53.4194 151.676 51.5624V41.129C151.676 39.272 150.299 37.7666 148.601 37.7666Z" fill="#263238"/>
<path d="M148.6 54.9248C148.6 54.9248 148.743 54.9248 149.008 54.8778C149.396 54.8182 149.768 54.6757 150.105 54.4583C150.539 54.1835 150.903 53.7967 151.168 53.3316C151.432 52.8665 151.588 52.3376 151.621 51.7912C151.64 51.3453 151.621 50.8641 151.621 50.3653C151.621 48.3643 151.621 45.9819 151.605 43.3383C151.605 42.6792 151.605 42.0024 151.605 41.308C151.633 40.611 151.461 39.9218 151.114 39.3364C150.758 38.732 150.23 38.2723 149.612 38.0278C149.297 37.9047 148.965 37.8413 148.63 37.84H147.589C146.907 37.842 146.246 38.0941 145.711 38.5559C145.197 39.0022 144.83 39.6206 144.667 40.3163C144.593 40.6583 144.562 41.0096 144.574 41.3608V42.4288C144.574 43.1212 144.574 43.798 144.574 44.4591C144.574 47.0998 144.574 49.4851 144.557 51.5008C144.54 52.2883 144.778 53.0571 145.23 53.6706C145.682 54.284 146.318 54.7024 147.026 54.8514C147.413 54.9088 147.804 54.9334 148.195 54.9248H148.501C148.536 54.9203 148.571 54.9203 148.606 54.9248C148.571 54.9286 148.536 54.9286 148.501 54.9248H148.195C147.801 54.9475 147.406 54.9328 147.015 54.8808C146.288 54.7379 145.631 54.3161 145.162 53.6913C144.694 53.0664 144.444 52.2794 144.458 51.4714C144.458 49.4675 144.458 47.0851 144.458 44.4298C144.458 43.7696 144.458 43.0919 144.458 42.3995V41.3491C144.444 40.9862 144.476 40.6229 144.552 40.2694C144.722 39.5257 145.114 38.8655 145.666 38.3935C146.218 37.9214 146.899 37.6647 147.6 37.664H148.641C148.992 37.6667 149.34 37.7332 149.671 37.8605C150.321 38.1129 150.877 38.5923 151.254 39.2249C151.613 39.8356 151.791 40.553 151.763 41.2787C151.763 41.9711 151.763 42.6489 151.763 43.309C151.763 45.9496 151.763 48.335 151.763 50.336C151.763 50.8377 151.763 51.3101 151.747 51.7678C151.709 52.3273 151.545 52.8679 151.27 53.3414C150.995 53.8149 150.617 54.2066 150.17 54.4817C149.825 54.6981 149.443 54.8331 149.048 54.8778C148.901 54.9098 148.751 54.9255 148.6 54.9248Z" fill="#455A64"/>
<path d="M35.9898 99.2924C43.4562 98.9016 49.2192 91.9653 48.8618 83.7996C48.5045 75.634 42.1622 69.3312 34.6958 69.722C27.2294 70.1128 21.4664 77.0492 21.8238 85.2148C22.1811 93.3805 28.5234 99.6832 35.9898 99.2924Z" fill="#263238"/>
<path d="M21.8159 84.2561C21.8159 84.2561 21.8159 84.2796 21.8159 84.2943C21.7903 86.2379 22.1151 88.168 22.7716 89.9744C23.4281 91.7808 24.4035 93.4281 25.6421 94.8222C28.1436 97.6378 31.5653 99.2512 35.1545 99.3076C38.7437 99.364 42.2065 97.8588 44.7809 95.123C46.0556 93.7684 47.0739 92.1525 47.7776 90.3675C48.4813 88.5825 48.8567 86.6633 48.8822 84.7197C48.8822 84.7197 48.8822 84.6962 48.8822 84.6816L21.8159 84.2561Z" fill="#263238"/>
<path d="M25.8457 84.3559C25.8183 86.4111 26.3488 88.429 27.3701 90.1545C28.3914 91.88 29.8576 93.2355 31.5833 94.0497C33.3089 94.8638 35.2166 95.1 37.0651 94.7284C38.9135 94.3567 40.6197 93.394 41.9678 91.9619C43.3159 90.5298 44.2455 88.6926 44.6389 86.6827C45.0323 84.6728 44.8719 82.5804 44.178 80.6703C43.484 78.7601 42.2877 77.1178 40.7404 75.9512C39.193 74.7846 37.3641 74.146 35.4849 74.1162C32.9651 74.0762 30.534 75.1325 28.7263 77.0528C26.9186 78.9731 25.8825 81.6001 25.8457 84.3559Z" fill="#FAFAFA"/>
<path d="M35.4839 74.1162C32.9641 74.0762 30.533 75.1325 28.7253 77.0528C26.9176 78.9731 25.8815 81.6001 25.8447 84.3559L44.8467 84.6493C44.8811 81.895 43.9143 79.2385 42.1586 77.2634C40.403 75.2883 38.0023 74.1564 35.4839 74.1162Z" fill="#E0E0E0"/>
<path d="M29.5582 84.4146C29.5414 85.6668 29.8644 86.8963 30.4866 87.9477C31.1087 88.9991 32.0019 89.8251 33.0533 90.3213C34.1047 90.8174 35.267 90.9615 36.3933 90.7351C37.5195 90.5088 38.5591 89.9223 39.3805 89.0498C40.202 88.1773 40.7684 87.0579 41.0081 85.8334C41.2478 84.6088 41.1501 83.3339 40.7274 82.1701C40.3046 81.0062 39.5757 80.0056 38.6329 79.2948C37.6901 78.584 36.5758 78.195 35.4308 78.1768C33.8958 78.1525 32.4148 78.796 31.3135 79.9658C30.2122 81.1355 29.5808 82.7358 29.5582 84.4146Z" fill="#263238"/>
<path d="M167.201 85.052C167.479 76.8827 161.648 70.0138 154.179 69.71C146.709 69.4061 140.428 75.7824 140.15 83.9517C139.873 92.121 145.703 98.9899 153.173 99.2937C160.642 99.5976 166.923 93.2213 167.201 85.052Z" fill="#263238"/>
<path d="M140.153 84.2561C140.154 84.2688 140.154 84.2816 140.153 84.2943C140.127 86.2379 140.452 88.168 141.108 89.9744C141.765 91.7808 142.74 93.4281 143.979 94.8222C146.48 97.6378 149.902 99.2512 153.491 99.3076C157.081 99.364 160.543 97.8588 163.118 95.123C164.393 93.7684 165.411 92.1525 166.115 90.3675C166.818 88.5825 167.194 86.6633 167.219 84.7197C167.219 84.7197 167.219 84.6962 167.219 84.6816L140.153 84.2561Z" fill="#263238"/>
<path d="M144.182 84.3559C144.154 86.4111 144.685 88.429 145.706 90.1545C146.727 91.88 148.193 93.2355 149.919 94.0497C151.645 94.8638 153.553 95.1 155.401 94.7284C157.249 94.3567 158.956 93.394 160.304 91.9619C161.652 90.5298 162.581 88.6926 162.975 86.6827C163.368 84.6728 163.208 82.5804 162.514 80.6703C161.82 78.7601 160.624 77.1178 159.076 75.9512C157.529 74.7846 155.7 74.146 153.821 74.1162C151.301 74.0762 148.87 75.1325 147.062 77.0528C145.255 78.9731 144.218 81.6001 144.182 84.3559Z" fill="#FAFAFA"/>
<path d="M153.821 74.1162C151.301 74.077 148.871 75.1336 147.063 77.0537C145.255 78.9738 144.219 81.6003 144.182 84.3559L163.184 84.6493C163.218 81.895 162.251 79.2385 160.496 77.2634C158.74 75.2883 156.339 74.1563 153.821 74.1162Z" fill="#E0E0E0"/>
<path d="M147.895 84.4146C147.878 85.6668 148.201 86.8963 148.823 87.9477C149.446 88.9991 150.339 89.8251 151.39 90.3213C152.442 90.8174 153.604 90.9615 154.73 90.7351C155.856 90.5088 156.896 89.9223 157.717 89.0498C158.539 88.1773 159.105 87.0579 159.345 85.8334C159.585 84.6088 159.487 83.3339 159.064 82.1701C158.641 81.0062 157.913 80.0056 156.97 79.2948C156.027 78.584 154.913 78.195 153.768 78.1768C152.233 78.1525 150.752 78.796 149.65 79.9658C148.549 81.1355 147.918 82.7358 147.895 84.4146Z" fill="#263238"/>
<path d="M53.4116 75.5128C53.3945 75.4824 53.381 75.4499 53.3713 75.4159C53.3472 75.3455 53.3123 75.2487 53.2667 75.1225L53.1004 74.6502L52.8509 74.0164C52.6577 73.544 52.4028 72.9748 52.0836 72.3264C51.709 71.5993 51.2998 70.8941 50.8576 70.2139C49.714 68.4378 48.2883 66.9005 46.6483 65.675C44.584 64.2636 42.2875 63.3068 39.8878 62.8583C37.4927 62.3902 35.0479 62.3072 32.6309 62.6119C30.6578 62.8608 28.7087 63.3007 26.8066 63.9263C25.1809 64.4574 23.8959 64.9884 23.0132 65.3699L21.9991 65.8158L21.7309 65.9332C21.7018 65.9488 21.6712 65.9606 21.6396 65.9684C21.6666 65.9486 21.6954 65.9319 21.7255 65.9185L21.9938 65.7894C22.2191 65.675 22.5598 65.5166 22.9971 65.3141C23.8744 64.9151 25.1567 64.3694 26.7825 63.8236C28.6874 63.1786 30.6424 62.7259 32.6229 62.4711C35.0527 62.1574 37.5115 62.2375 39.92 62.7087C42.3362 63.1631 44.6471 64.1331 46.7208 65.5635C48.3683 66.8046 49.797 68.3612 50.9381 70.1582C51.3792 70.8433 51.784 71.5555 52.1507 72.2912C52.4672 72.9455 52.714 73.5206 52.9018 73.9988C52.9904 74.2394 53.0709 74.4536 53.1379 74.6414C53.205 74.8291 53.2533 74.9876 53.2935 75.1167C53.3338 75.2458 53.3633 75.3367 53.3847 75.4101C53.398 75.4427 53.4071 75.4773 53.4116 75.5128Z" fill="#263238"/>
<path d="M173.301 69.7151C173.301 69.7151 173.263 69.6887 173.194 69.63L172.888 69.366C172.754 69.2516 172.593 69.099 172.389 68.9406L171.686 68.3948C170.164 67.2792 168.547 66.3271 166.857 65.5518C164.36 64.3694 161.739 63.5317 159.053 63.0579C156.027 62.4975 152.598 62.7087 149.156 63.5977C148.309 63.8187 147.476 64.098 146.661 64.4339C145.866 64.7543 145.093 65.1367 144.349 65.5782C142.935 66.4083 141.647 67.4722 140.531 68.7322C139.525 69.8785 138.657 71.1602 137.948 72.5465C137.329 73.7526 136.806 75.015 136.386 76.3196C135.779 78.2126 135.347 80.1677 135.098 82.1554C135.058 82.5045 135.021 82.8184 134.988 83.0913C134.956 83.3642 134.94 83.5901 134.924 83.7779C134.908 83.9656 134.892 84.1006 134.884 84.2033C134.876 84.306 134.865 84.3471 134.865 84.3471C134.863 84.2982 134.863 84.2492 134.865 84.2004C134.865 84.0977 134.881 83.9569 134.892 83.7749C134.903 83.593 134.924 83.3554 134.943 83.0854C134.962 82.8155 135.005 82.4986 135.042 82.1466C135.272 80.1487 135.69 78.1822 136.29 76.2785C136.706 74.9649 137.227 73.6935 137.846 72.479C138.556 71.0818 139.427 69.7901 140.437 68.6354C141.559 67.361 142.856 66.2859 144.282 65.4491C145.031 65.0023 145.81 64.6149 146.61 64.2901C147.433 63.9519 148.274 63.6706 149.129 63.4481C152.587 62.5679 156.035 62.3478 159.077 62.92C161.772 63.4002 164.4 64.251 166.9 65.452C168.593 66.2386 170.211 67.2077 171.729 68.3449L172.429 68.9053C172.63 69.0667 172.786 69.2252 172.92 69.3425L173.218 69.6183C173.247 69.6489 173.275 69.6813 173.301 69.7151Z" fill="#263238"/>
<path d="M5.32756 64.6334C5.29001 64.6334 5.25781 52.0465 5.25781 36.5226C5.25781 20.9987 5.29001 8.40889 5.32756 8.40889C5.36512 8.40889 5.39732 20.9929 5.39732 36.5226C5.39732 52.0524 5.36781 64.6334 5.32756 64.6334Z" fill="#263238"/>
<path d="M151.549 40.6508C151.549 40.6508 151.501 40.598 151.407 40.4865L151.002 39.9906L149.416 38.0571C148.018 36.3759 145.99 33.8849 143.299 30.8453C141.818 29.1614 140.23 27.5928 138.548 26.1509C136.563 24.4645 134.362 23.1062 132.016 22.1195C131.705 21.9816 131.383 21.8701 131.061 21.7469C130.739 21.6237 130.403 21.5386 130.073 21.433C129.403 21.254 128.713 21.1014 128.008 20.9841C126.599 20.7435 125.137 20.5762 123.635 20.453C120.633 20.2124 117.465 20.1009 114.165 20.1097L114.226 20.0393C114.495 26.5118 114.763 33.5358 115.015 40.9383C115.069 42.7926 115.124 44.6694 115.182 46.5687C115.23 48.4699 115.281 50.3829 115.267 52.337C115.267 52.824 115.283 53.3052 115.297 53.804C115.31 54.3027 115.369 54.7751 115.407 55.271C115.503 56.2451 115.605 57.2221 115.729 58.205C115.97 60.1649 116.249 62.1395 116.534 64.1258C117.105 67.9811 117.714 71.7748 118.302 75.4981C118.594 77.3612 118.886 79.2037 119.131 81.0375C119.195 81.4923 119.241 81.9558 119.283 82.4165C119.309 82.8681 119.386 83.3145 119.511 83.7456C119.628 84.1709 119.852 84.5514 120.158 84.8429C120.312 84.9779 120.49 85.0766 120.681 85.1326C120.872 85.1887 121.071 85.2009 121.266 85.1686H121.282L136.306 85.3006L136.244 85.3534C136.882 82.795 137.504 80.3079 138.108 77.8922C138.411 76.7003 138.83 75.5475 139.359 74.4536C139.613 73.9199 139.903 73.4071 140.225 72.9191L140.711 72.2002C140.794 72.0829 140.869 71.9626 140.955 71.8482L141.223 71.5225C142.583 69.8118 144.271 68.4504 146.167 67.5352C146.613 67.3004 147.08 67.1303 147.533 66.9484L148.225 66.7166C148.453 66.6373 148.686 66.5845 148.915 66.52C149.815 66.28 150.735 66.1414 151.662 66.1063L151.613 66.162C151.367 58.2402 151.211 51.8499 151.184 47.4518C151.184 45.2542 151.184 43.5525 151.27 42.4024C151.288 41.9656 151.343 41.5315 151.434 41.1056C151.466 40.9647 151.49 40.8562 151.509 40.7828C151.528 40.7095 151.536 40.6713 151.536 40.6713C151.536 40.6713 151.511 40.821 151.447 41.1085C151.364 41.5344 151.314 41.9672 151.297 42.4024C151.227 43.5525 151.219 45.2542 151.238 47.4518C151.281 51.8528 151.45 58.2255 151.71 66.1562V66.1943H151.659C150.741 66.2294 149.828 66.369 148.936 66.6109C148.708 66.6755 148.477 66.7283 148.249 66.8046L147.562 67.0364C147.114 67.2212 146.65 67.3914 146.221 67.6232C144.341 68.534 142.668 69.8863 141.32 71.5841L141.051 71.9098C140.966 72.0213 140.89 72.1445 140.81 72.2619L140.327 72.9719C140.007 73.4571 139.721 73.967 139.469 74.4976C138.947 75.5834 138.533 76.7274 138.234 77.9098C137.632 80.3255 137.011 82.8126 136.373 85.371V85.4239H136.322L121.298 85.3006H121.314C121.099 85.3383 120.879 85.3265 120.669 85.2659C120.458 85.2052 120.261 85.0972 120.091 84.9485C119.764 84.6366 119.525 84.2296 119.401 83.7749C119.272 83.3314 119.193 82.8723 119.165 82.4077C119.122 81.9529 119.08 81.4981 119.012 81.0404C118.768 79.2125 118.476 77.367 118.184 75.5069C117.596 71.7836 116.984 67.9899 116.413 64.1317C116.12 62.1454 115.839 60.1708 115.608 58.2079C115.482 57.228 115.383 56.2451 115.283 55.2739C115.249 54.7839 115.211 54.2939 115.176 53.8069C115.141 53.3199 115.144 52.8269 115.147 52.3399C115.147 50.4034 115.106 48.4787 115.061 46.5804C115.015 44.6821 114.948 42.8043 114.894 40.95C114.653 33.5387 114.382 26.5235 114.119 20.0511V19.9836H114.184C117.486 19.9836 120.654 20.0951 123.664 20.3386C125.167 20.4648 126.615 20.632 128.043 20.8785C128.751 20.9958 129.443 21.1484 130.119 21.3303C130.452 21.4388 130.79 21.5239 131.112 21.6501C131.434 21.7763 131.758 21.8848 132.072 22.0257C134.422 23.0204 136.626 24.3876 138.613 26.0834C140.296 27.5232 141.884 29.0919 143.364 30.7778C146.047 33.8292 148.069 36.326 149.456 38.019L151.029 39.9642C151.206 40.1843 151.337 40.3544 151.428 40.4689L151.549 40.6508Z" fill="#263238"/>
<path d="M12.0485 5.20494L62.8224 5.67145L89.0786 5.87976L103.861 5.95605C106.412 5.95605 109.003 5.95605 111.641 5.93258C114.331 5.90527 116.996 6.49706 119.463 7.66951C121.972 8.84312 124.292 10.5243 126.482 12.405C128.671 14.2857 130.755 16.3982 133.025 18.3024C135.262 20.2711 137.374 22.4452 139.539 24.6135C141.704 26.7817 143.86 29.0145 146.044 31.2707C154.771 40.3016 163.804 49.8284 173.14 59.7307V59.7454L174.063 62.386V62.4036C174.715 69.9469 175.404 78.0419 176.126 86.2659V86.3334L176.067 86.3481L168.824 87.9618L168.751 87.9794V87.8972C168.566 86.4302 168.311 84.9632 168.038 83.4757C167.764 81.9881 167.458 80.5182 167.117 79.0424C166.783 77.5584 166.232 76.1435 165.484 74.8526C164.727 73.5495 163.763 72.4056 162.637 71.4756C160.376 69.6066 157.518 68.6706 154.656 68.5767C153.22 68.517 151.782 68.6153 150.363 68.8701C148.934 69.1249 147.569 69.7024 146.355 70.566C145.111 71.492 143.993 72.6074 143.037 73.8785C142.101 75.1565 141.345 76.5806 140.794 78.1035C140.234 79.6148 139.785 81.1728 139.453 82.7627C139.114 84.3399 138.868 85.9393 138.718 87.551V87.6244H138.653L51.0236 86.0019H50.9619V85.9314C50.9039 83.6 50.5008 81.2943 49.7681 79.104C49.0685 76.939 47.9731 74.9524 46.5488 73.2653C45.8346 72.4508 45.0422 71.7229 44.1853 71.0941C43.3237 70.4929 42.4087 69.9886 41.4542 69.589C39.5593 68.843 37.5657 68.4406 35.5522 68.3978L34.8063 68.3714L34.0605 68.3978C33.5642 68.3978 33.0733 68.4829 32.5823 68.5327C32.3382 68.5621 32.0968 68.6237 31.8553 68.6648C31.6123 68.7073 31.3715 68.7631 31.1336 68.832L30.4227 69.0345L29.7306 69.2956C28.8184 69.6591 27.9492 70.1408 27.1417 70.7303C26.3468 71.3236 25.6152 72.0125 24.9606 72.7841C23.6849 74.3161 22.6741 76.0886 21.9774 78.0155C21.2737 79.8869 20.8097 81.8556 20.5985 83.8659V83.9305H20.5421L3.53343 81.4982H3.49856V81.46C2.9164 78.3646 2.52203 75.3162 2.17327 72.3382C1.82451 69.3601 1.56965 66.4496 1.36844 63.6183C1.25309 62.2011 1.1726 60.8045 1.07871 59.4285C0.984811 58.0524 0.917741 56.694 0.861403 55.3561C0.805065 54.0182 0.735314 52.7155 0.708486 51.4069C0.689707 50.7614 0.67361 50.1189 0.654831 49.4792C0.636051 48.8396 0.654831 48.2117 0.654831 47.5839C0.630686 42.5726 0.839941 37.9016 1.1726 33.6297C1.50527 29.3578 1.97743 25.4585 2.48179 21.9758C2.98615 18.4931 3.57099 15.4212 4.16656 12.7835C4.32753 12.1263 4.45898 11.4896 4.64678 10.894L4.79164 10.4568C4.84262 10.3131 4.907 10.1781 4.96334 10.0402C5.07653 9.77376 5.2028 9.51421 5.34161 9.26269C5.82562 8.36384 6.45888 7.57176 7.20881 6.92721C8.24379 6.07311 9.4556 5.51174 10.7366 5.29296C11.0609 5.23978 11.388 5.2094 11.7158 5.20201H12.0485L11.7158 5.21668C11.3886 5.22772 11.0624 5.26203 10.7393 5.31937C9.46361 5.54336 8.25772 6.10656 7.22759 6.95948C6.47107 7.5871 5.82789 8.36314 5.33088 9.24802C5.20747 9.50034 5.0626 9.7468 4.95529 10.0226C4.90164 10.1605 4.83725 10.2955 4.78628 10.4363C4.73531 10.5771 4.69238 10.7297 4.64409 10.8735C4.4563 11.4603 4.32753 12.1028 4.16656 12.76C3.57635 15.4006 3.01029 18.4696 2.49789 21.9494C1.98548 25.4291 1.53209 29.3255 1.19943 33.6003C0.866769 37.8752 0.662879 42.5403 0.695073 47.5487C0.695073 48.1736 0.695073 48.8074 0.711169 49.444C0.727266 50.0807 0.746044 50.7233 0.764824 51.3687C0.788969 52.6656 0.861404 53.98 0.917742 55.315C0.97408 56.65 1.06529 58.0084 1.13773 59.3845C1.21016 60.7605 1.31479 62.1601 1.43015 63.5743C1.64745 66.4056 1.91036 69.3132 2.25376 72.2883C2.59715 75.2634 2.99956 78.3147 3.59513 81.4013L3.55221 81.3573L20.5502 83.7984L20.4885 83.8512C20.6986 81.8281 21.1635 79.8465 21.8701 77.9627C22.5721 76.0184 23.5901 74.2292 24.8748 72.6814C25.5353 71.9088 26.2732 71.2198 27.0746 70.6276C27.8896 70.0321 28.7668 69.5455 29.6876 69.1782L30.3878 68.9171L31.1041 68.7117C31.3461 68.6401 31.5915 68.5833 31.8392 68.5415C32.0833 68.4975 32.3248 68.4359 32.5716 68.4036C33.0679 68.3538 33.5615 68.2716 34.0605 68.2687L34.8117 68.2423L35.5629 68.2687C37.5868 68.3083 39.5912 68.7086 41.4971 69.454C42.4599 69.857 43.3829 70.3652 44.2523 70.9709C45.1175 71.6038 45.9172 72.3377 46.6373 73.1597C48.0694 74.8614 49.1702 76.8639 49.8727 79.0453C50.6051 81.2566 51.0046 83.5832 51.0558 85.9344L50.9941 85.864L138.624 87.4718L138.554 87.5422C138.702 85.9222 138.949 84.3148 139.292 82.7304C139.621 81.1282 140.07 79.5582 140.633 78.036C141.193 76.5034 141.959 75.0706 142.905 73.7846C143.871 72.5015 144.998 71.3753 146.254 70.4398C147.485 69.5676 148.868 68.9823 150.315 68.7205C151.031 68.5838 151.754 68.4966 152.48 68.4594C152.842 68.4418 153.205 68.4183 153.553 68.4183H154.09L154.626 68.4359C157.51 68.5327 160.4 69.4746 162.675 71.3699C163.814 72.307 164.79 73.4609 165.556 74.7763C166.311 76.081 166.868 77.5107 167.206 79.0101C167.547 80.4918 167.847 81.9735 168.126 83.4522C168.405 84.931 168.663 86.4038 168.845 87.8855L168.762 87.821L176.005 86.2043L175.952 86.2865C175.241 78.0712 174.541 69.9645 173.891 62.4241V62.4447L172.968 59.804L172.985 59.8304C163.665 49.9281 154.634 40.3985 145.907 31.3705C143.725 29.1152 141.559 26.8961 139.407 24.7132C137.245 22.545 135.115 20.3679 132.901 18.408C130.626 16.495 128.555 14.3825 126.358 12.5077C124.161 10.6329 121.867 8.94288 119.37 7.78687C116.916 6.6186 114.265 6.02877 111.59 6.05581C108.958 6.08515 106.366 6.08221 103.81 6.07341L89.0276 5.99126L62.8224 5.7536L25.4784 5.36338L12.0485 5.20494Z" fill="#263238"/>
<path d="M20.7107 66.6051C20.6609 66.6574 20.606 66.7036 20.5471 66.743L20.0588 67.1127C19.8469 67.274 19.6001 67.4941 19.3076 67.7376C19.1628 67.8608 19.0179 68.0046 18.8569 68.1513C18.696 68.298 18.5296 68.4447 18.3606 68.6295C16.5778 70.4488 15.0259 72.521 13.7463 74.791L13.7221 74.8321H13.6792L12.9388 74.744L5.15876 73.7934L2.8033 73.5L2.16212 73.4091C2.08689 73.403 2.01234 73.3893 1.93945 73.368C2.01445 73.3615 2.08981 73.3615 2.1648 73.368L2.80867 73.4296L5.16949 73.6878L12.9495 74.5915L13.6873 74.6795L13.6202 74.7176C14.9054 72.4338 16.4787 70.3596 18.2936 68.5562C18.4626 68.3802 18.6343 68.2276 18.7952 68.0838C18.9562 67.9401 19.1091 67.7904 19.2567 67.676C19.5544 67.4383 19.7932 67.2242 20.0212 67.0687L20.5256 66.7224C20.5844 66.678 20.6463 66.6387 20.7107 66.6051Z" fill="#455A64"/>
<path d="M163.269 49.3971C162.838 49.3971 162.465 58.9737 173.072 59.7806C173.072 59.7806 172.952 49.667 163.269 49.3971Z" fill="#458DFC"/>
<path d="M111.486 86.2366C111.486 86.2366 111.486 86.1104 111.486 85.864C111.486 85.6175 111.486 85.2449 111.486 84.7608C111.486 83.7867 111.486 82.349 111.486 80.4889C111.486 76.7627 111.486 71.3347 111.465 64.5278C111.465 50.9052 111.452 31.7578 111.441 9.64118L111.508 9.71453L86.2981 9.61771L61.1928 9.51795L61.2625 9.44167C61.2625 20.5176 61.4182 30.86 61.5523 40.1139C61.6864 49.3678 61.8474 57.5801 61.9628 64.3987C62.0781 71.2174 62.1961 76.6482 62.2686 80.3803C62.3035 82.2434 62.3303 83.6811 62.3491 84.6581C62.3491 85.1422 62.3625 85.5119 62.3678 85.7613C62.3732 86.0107 62.3678 86.1368 62.3678 86.1368C62.3678 86.1368 62.3678 86.0077 62.3544 85.7613C62.341 85.5148 62.3357 85.1422 62.3222 84.6581C62.2981 83.684 62.2632 82.2463 62.2176 80.3832C62.1371 76.6512 62.0218 71.2174 61.8742 64.4017C61.7267 57.5859 61.5818 49.3824 61.4342 40.1139C61.2867 30.8453 61.1445 20.5176 61.123 9.44167V9.36832H61.1928L86.2954 9.46514L111.489 9.56783H111.556V9.64118C111.556 31.7578 111.54 50.9052 111.532 64.5278C111.532 71.3347 111.519 76.7627 111.513 80.4889C111.513 82.349 111.513 83.7867 111.513 84.7608C111.513 85.2449 111.513 85.6116 111.513 85.864C111.513 86.1163 111.486 86.2366 111.486 86.2366Z" fill="#263238"/>
<path d="M85.6925 41.132C85.671 41.0968 88.716 38.9168 92.4906 36.2615C96.2652 33.6062 99.3424 31.4791 99.3638 31.5143C99.3853 31.5495 96.3404 33.7324 92.5657 36.3877C88.7911 39.0429 85.714 41.1672 85.6925 41.132Z" fill="#455A64"/>
<path d="M85.9181 38.3212C85.8967 38.286 87.7961 36.8102 90.165 35.0292C92.5338 33.2483 94.4574 31.8282 94.4896 31.8634C94.5218 31.8986 92.6116 33.3715 90.2428 35.1554C87.8739 36.9393 85.9396 38.3564 85.9181 38.3212Z" fill="#455A64"/>
<path d="M85.7998 34.5363C86.8284 33.8264 87.9045 33.2026 89.0191 32.6703C88.5169 33.0465 87.9896 33.3809 87.4417 33.6708C86.9144 34.0026 86.3656 34.2919 85.7998 34.5363Z" fill="#455A64"/>
</svg>
