<svg width="400" height="400" viewBox="0 0 400 400" fill="none" xmlns="http://www.w3.org/2000/svg">
<path d="M132.152 60.6C132.152 60.6 71.536 91.488 41.304 139.08C11.072 186.672 13.464 247.88 50.2 293.304C86.936 338.728 157.152 332.8 215.944 361.6C274.736 390.4 339.6 384.464 367.4 323.472C395.2 262.48 353.28 239.656 346.08 169.088C338.88 98.52 275.256 -4.80001 132.152 60.6Z" fill="#458FF6"/>
<path opacity="0.7" d="M132.152 60.6C132.152 60.6 71.536 91.488 41.304 139.08C11.072 186.672 13.464 247.88 50.2 293.304C86.936 338.728 157.152 332.8 215.944 361.6C274.736 390.4 339.6 384.464 367.4 323.472C395.2 262.48 353.28 239.656 346.08 169.088C338.88 98.52 275.256 -4.80001 132.152 60.6Z" fill="white"/>
<path d="M373.76 218.8H370.44V218.232C370.438 216.682 369.821 215.195 368.725 214.099C367.629 213.003 366.142 212.386 364.592 212.384H362.344C360.792 212.384 359.304 213 358.206 214.096C357.108 215.193 356.49 216.68 356.488 218.232V218.8H353.176C352.734 218.799 352.295 218.885 351.886 219.054C351.477 219.223 351.105 219.471 350.792 219.784C350.479 220.097 350.231 220.469 350.062 220.878C349.893 221.287 349.807 221.725 349.808 222.168V237.512C349.808 238.405 350.163 239.262 350.795 239.894C351.426 240.525 352.283 240.88 353.176 240.88H373.76C374.653 240.878 375.508 240.522 376.139 239.891C376.77 239.26 377.126 238.405 377.128 237.512V222.168C377.128 221.275 376.773 220.418 376.142 219.786C375.51 219.155 374.653 218.8 373.76 218.8ZM358.088 218.232C358.09 217.105 358.54 216.024 359.337 215.228C360.135 214.431 361.217 213.984 362.344 213.984H364.592C365.719 213.984 366.799 214.432 367.596 215.228C368.393 216.025 368.84 217.105 368.84 218.232V218.8H358.088V218.232Z" fill="#263238"/>
<path d="M369.6 228.272H365.36V224.04H361.568V228.272H357.328V232.072H361.568V236.304H365.36V232.072H369.6V228.272Z" fill="white"/>
<path d="M367.2 127.36C366.541 127.36 365.888 127.23 365.279 126.977C364.67 126.725 364.116 126.355 363.65 125.888C363.185 125.421 362.815 124.867 362.564 124.258C362.312 123.649 362.183 122.995 362.184 122.336V108.8C362.183 108.141 362.312 107.487 362.564 106.878C362.815 106.269 363.185 105.715 363.65 105.248C364.116 104.781 364.67 104.411 365.279 104.159C365.888 103.906 366.541 103.776 367.2 103.776C367.859 103.776 368.512 103.906 369.121 104.159C369.731 104.411 370.284 104.781 370.75 105.248C371.216 105.715 371.585 106.269 371.837 106.878C372.088 107.487 372.217 108.141 372.216 108.8V122.312C372.22 122.973 372.094 123.629 371.843 124.241C371.593 124.854 371.224 125.41 370.758 125.88C370.292 126.349 369.738 126.721 369.127 126.975C368.516 127.229 367.861 127.36 367.2 127.36Z" fill="white" stroke="#263238" stroke-linecap="round" stroke-linejoin="round"/>
<path d="M367.2 127.36C366.541 127.36 365.888 127.23 365.279 126.977C364.67 126.725 364.116 126.355 363.65 125.888C363.185 125.421 362.815 124.867 362.564 124.258C362.312 123.648 362.183 122.995 362.184 122.336V115.576H372.216V122.336C372.217 122.995 372.088 123.648 371.837 124.258C371.585 124.867 371.216 125.421 370.75 125.888C370.284 126.355 369.731 126.725 369.121 126.977C368.512 127.23 367.859 127.36 367.2 127.36Z" fill="#263238" stroke="#263238" stroke-linecap="round" stroke-linejoin="round"/>
<path d="M341.968 107.424C341.555 106.909 341.249 106.317 341.066 105.683C340.883 105.049 340.827 104.385 340.901 103.73C340.975 103.074 341.179 102.439 341.499 101.862C341.819 101.286 342.251 100.778 342.768 100.368L353.304 91.9039C354.347 91.0746 355.677 90.693 357.001 90.843C358.326 90.993 359.536 91.6623 360.368 92.7039C361.197 93.746 361.578 95.0745 361.428 96.3975C361.278 97.7205 360.609 98.9299 359.568 99.7599L349.024 108.216C348.509 108.628 347.918 108.934 347.284 109.117C346.65 109.3 345.987 109.357 345.332 109.283C344.676 109.21 344.042 109.008 343.465 108.689C342.887 108.369 342.379 107.94 341.968 107.424Z" fill="white" stroke="#263238" stroke-linecap="round" stroke-linejoin="round"/>
<path d="M341.968 107.424C341.555 106.909 341.249 106.317 341.066 105.683C340.883 105.049 340.827 104.385 340.901 103.73C340.975 103.074 341.179 102.439 341.499 101.863C341.819 101.286 342.251 100.778 342.768 100.368L348.04 96.136L354.32 103.968L349.048 108.192C348.534 108.609 347.942 108.92 347.307 109.107C346.672 109.294 346.006 109.354 345.348 109.282C344.69 109.211 344.052 109.01 343.472 108.691C342.892 108.372 342.381 107.941 341.968 107.424Z" fill="#263238" stroke="#263238" stroke-linecap="round" stroke-linejoin="round"/>
<path d="M291.8 70.592C291.174 70.5923 290.565 70.7881 290.056 71.152L278.4 62.104C278.971 61.0467 279.239 59.8521 279.174 58.6521C279.109 57.4521 278.714 56.2934 278.032 55.304L285.152 46.2C285.754 46.4323 286.415 46.4657 287.038 46.2951C287.661 46.1246 288.213 45.7591 288.613 45.2523C289.013 44.7454 289.241 44.1237 289.262 43.4782C289.283 42.8328 289.098 42.1975 288.732 41.6653C288.366 41.1331 287.839 40.7321 287.229 40.5208C286.619 40.3096 285.957 40.2993 285.34 40.4914C284.724 40.6835 284.185 41.068 283.803 41.5885C283.42 42.109 283.215 42.7382 283.216 43.384C283.212 44.0064 283.405 44.614 283.768 45.12L276.84 53.992C275.911 53.2097 274.782 52.7017 273.58 52.5251C272.379 52.3484 271.152 52.5101 270.037 52.992C268.922 53.4738 267.963 54.2567 267.269 55.253C266.574 56.2492 266.171 57.4193 266.104 58.632H258.008C257.919 57.9134 257.576 57.2503 257.04 56.7633C256.504 56.2764 255.812 55.9979 255.088 55.9784C254.364 55.9589 253.657 56.1998 253.096 56.6572C252.535 57.1146 252.156 57.7583 252.029 58.4711C251.902 59.1839 252.035 59.9187 252.404 60.5417C252.773 61.1648 253.353 61.6348 254.039 61.8664C254.725 62.098 255.472 62.0758 256.143 61.8037C256.814 61.5317 257.365 61.0279 257.696 60.384H266.256C266.506 61.5472 267.069 62.6201 267.884 63.4873C268.698 64.3545 269.734 64.9832 270.879 65.3057C272.025 65.6282 273.236 65.6324 274.384 65.3177C275.531 65.0031 276.571 64.3816 277.392 63.52L288.984 72.536C288.755 73.1374 288.725 73.7961 288.897 74.416C289.069 75.0359 289.436 75.5844 289.942 75.9814C290.448 76.3784 291.068 76.6031 291.711 76.6226C292.354 76.6421 292.987 76.4555 293.516 76.09C294.046 75.7245 294.444 75.1992 294.654 74.591C294.864 73.9827 294.874 73.3233 294.682 72.7092C294.49 72.095 294.107 71.5583 293.588 71.1774C293.07 70.7965 292.443 70.5913 291.8 70.592Z" fill="#263238"/>
<path d="M55.0242 127.456C54.0552 127.454 53.1265 127.068 52.4413 126.383C51.7561 125.698 51.3703 124.769 51.3682 123.8V93.4H58.6802V123.8C58.6802 124.77 58.295 125.7 57.6093 126.385C56.9237 127.071 55.9938 127.456 55.0242 127.456Z" fill="white" stroke="#263238" stroke-linecap="round" stroke-linejoin="round"/>
<path d="M55.0242 127.456C54.0552 127.454 53.1265 127.068 52.4413 126.383C51.7561 125.698 51.3703 124.769 51.3682 123.8V105.104H58.6802V123.8C58.6802 124.77 58.295 125.7 57.6093 126.385C56.9237 127.071 55.9938 127.456 55.0242 127.456Z" fill="#263238" stroke="#263238" stroke-linecap="round" stroke-linejoin="round"/>
<path d="M59.7281 91.624H50.3281V94.288H59.7281V91.624Z" fill="white" stroke="#263238" stroke-linecap="round" stroke-linejoin="round"/>
<path d="M43.9441 127.456C42.9751 127.454 42.0464 127.068 41.3612 126.383C40.6761 125.698 40.2902 124.769 40.2881 123.8V93.4H47.6001V123.8C47.6001 124.77 47.2149 125.7 46.5293 126.385C45.8436 127.071 44.9137 127.456 43.9441 127.456Z" fill="white" stroke="#263238" stroke-linecap="round" stroke-linejoin="round"/>
<path d="M43.9441 127.456C42.9751 127.454 42.0464 127.068 41.3612 126.383C40.6761 125.698 40.2902 124.769 40.2881 123.8V105.104H47.6001V123.8C47.6001 124.77 47.2149 125.7 46.5293 126.385C45.8436 127.071 44.9137 127.456 43.9441 127.456Z" fill="#263238" stroke="#263238" stroke-linecap="round" stroke-linejoin="round"/>
<path d="M48.648 91.624H39.248V94.288H48.648V91.624Z" fill="white" stroke="#263238" stroke-linecap="round" stroke-linejoin="round"/>
<path d="M149.424 61.6559L152.336 54.6639C152.385 54.5513 152.468 54.456 152.572 54.3905C152.676 54.3249 152.797 54.292 152.92 54.2959C153.043 54.3021 153.162 54.3461 153.259 54.422C153.356 54.4978 153.428 54.6019 153.464 54.7199L156.992 66.3519L159.68 57.7839C159.717 57.6634 159.791 57.5575 159.891 57.4814C159.992 57.4053 160.114 57.3628 160.24 57.3599C160.365 57.3633 160.485 57.403 160.588 57.474C160.69 57.5451 160.769 57.6444 160.816 57.7599L162.312 62.0639H170.4C172.055 60.3341 173.017 58.0566 173.104 55.6639C173.119 53.4291 172.309 51.2673 170.827 49.5939C169.346 47.9204 167.298 46.8532 165.078 46.5973C162.858 46.3413 160.622 46.9146 158.798 48.2071C156.975 49.4997 155.694 51.4202 155.2 53.5999C154.692 51.4355 153.406 49.5333 151.586 48.2552C149.767 46.9772 147.542 46.4123 145.333 46.6681C143.125 46.924 141.087 47.9826 139.608 49.6427C138.129 51.3028 137.312 53.4486 137.312 55.6719C137.401 57.8878 138.232 60.0094 139.672 61.6959L149.424 61.6559Z" fill="#263238"/>
<path d="M161.888 63.2639C161.764 63.2644 161.642 63.2262 161.54 63.1545C161.439 63.0828 161.362 62.9813 161.32 62.8639L160.28 59.8719L157.552 68.5679C157.513 68.6904 157.437 68.7974 157.333 68.8736C157.23 68.9498 157.105 68.9912 156.976 68.9919C156.847 68.9915 156.722 68.9491 156.62 68.8711C156.517 68.7932 156.443 68.6839 156.408 68.5599L152.8 56.6639L150.4 62.4879C150.355 62.5968 150.278 62.6897 150.18 62.7552C150.081 62.8206 149.966 62.8557 149.848 62.8559H140.64C142.616 65.0639 145.08 67.0159 146.92 68.8319C149.704 71.5839 152.432 74.4319 155.272 77.0879C158.912 73.4959 162.576 69.8879 166.184 66.2959C167.184 65.2959 168.272 64.3039 169.28 63.2639H161.888Z" fill="#263238"/>
<path d="M26.9347 242.075L30.8574 243.435L35.102 231.199L31.1792 229.838L26.9347 242.075Z" fill="white" stroke="#263238" stroke-miterlimit="10"/>
<path d="M25.0753 244.017L31.1294 246.117L31.929 243.812L25.8749 241.712L25.0753 244.017Z" fill="white" stroke="#263238" stroke-miterlimit="10"/>
<path d="M26.8541 232.987L36.5513 236.351L44.2407 214.182L34.5435 210.819L26.8541 232.987Z" fill="white" stroke="#263238" stroke-miterlimit="10"/>
<path d="M31.5689 223.504L38.7266 225.986L42.9711 213.75L35.8135 211.267L31.5689 223.504Z" fill="#263238" stroke="#263238" stroke-miterlimit="10"/>
<path d="M30.3029 232.374L34.2256 233.735L38.4701 221.498L34.5474 220.137L30.3029 232.374Z" fill="#263238" stroke="#263238" stroke-miterlimit="10"/>
<path d="M26.1692 232.754L37.2495 236.598L38.2117 233.824L27.1313 229.981L26.1692 232.754Z" fill="white" stroke="#263238" stroke-miterlimit="10"/>
<path d="M36.9076 210.357L42.6821 212.36L43.9641 208.664L38.1897 206.661L36.9076 210.357Z" fill="white" stroke="#263238" stroke-miterlimit="10"/>
<path d="M33.6164 211.277L44.6968 215.121L45.6589 212.347L34.5786 208.503L33.6164 211.277Z" fill="white" stroke="#263238" stroke-miterlimit="10"/>
<path d="M41.1362 207.16L45.7762 193.768" stroke="#263238" stroke-miterlimit="10"/>
<path d="M299.12 373.6C322.241 373.6 340.984 369.374 340.984 364.16C340.984 358.946 322.241 354.72 299.12 354.72C275.999 354.72 257.256 358.946 257.256 364.16C257.256 369.374 275.999 373.6 299.12 373.6Z" fill="#263238" stroke="#263238" stroke-linecap="round" stroke-linejoin="round"/>
<path d="M266.84 150.784C266.84 150.784 261.176 154.248 261.24 155.768C261.304 157.288 259.128 185.008 258.88 188.472C258.632 191.936 255.336 199.088 255.08 202.336C254.824 205.584 255.64 208.84 256.592 210.336C257.544 211.832 261.04 216.616 261.04 216.616L270.44 202.096C270.67 198.925 270.718 195.744 270.584 192.568C270.44 185.648 266.84 150.784 266.84 150.784Z" fill="white" stroke="#263238" stroke-linecap="round" stroke-linejoin="round"/>
<path d="M303.008 82.096C303.008 82.096 293.008 81.456 287.312 88.392C281.616 95.328 282.84 105.936 282.8 109.192C282.76 112.448 273.088 121.992 274.16 125.88C275.232 129.768 278.08 130.208 277.168 133.456C276.256 136.704 270.304 138.656 271.168 142.776C272.032 146.896 275.168 152.736 275.168 152.736L332.768 153.128C332.768 153.128 334.824 147.064 332.632 142.512C330.44 137.96 327.328 136.456 327.832 134.288C328.336 132.12 331.12 126.92 330.048 123.024C328.976 119.128 325.248 118.048 324.856 111.112C324.464 104.176 323.44 92.712 317.936 87.112C312.432 81.512 303.008 82.096 303.008 82.096Z" fill="#263238" stroke="#263238" stroke-linecap="round" stroke-linejoin="round"/>
<path d="M285.296 349.384C283.527 352.793 281.38 355.991 278.896 358.92C275.216 363.04 271.648 365.208 271.768 367.376C271.888 369.544 279.92 369.968 284.168 368.448C288.416 366.928 291.504 363.896 292.36 363.648C293.216 363.4 295.608 363.648 295.664 360.608C295.72 357.568 295.256 348.912 295.256 348.912L285.296 349.384Z" fill="white" stroke="#263238" stroke-linecap="round" stroke-linejoin="round"/>
<path d="M284.152 368.448C288.408 366.928 291.488 363.896 292.344 363.648C293.2 363.4 295.592 363.648 295.648 360.608C295.648 359.008 295.56 355.808 295.448 353.192C294.818 354.372 293.887 355.365 292.748 356.068C291.61 356.77 290.305 357.158 288.968 357.192C288.968 357.192 288.888 355.672 286.568 353.08C285.072 351.384 283.56 352.72 282.68 353.88L281.968 354.952L281.912 355.056C280.988 356.418 279.978 357.72 278.888 358.952C275.208 363.072 271.64 365.24 271.76 367.408C271.88 369.576 279.904 369.968 284.152 368.448Z" fill="white" stroke="#263238" stroke-linecap="round" stroke-linejoin="round"/>
<path d="M314.936 349.368C317.085 352.789 319.578 355.981 322.376 358.896C326.496 363.008 330.296 365.168 330.376 367.336C330.456 369.504 322.504 369.936 318.088 368.424C313.672 366.912 310.264 363.88 309.392 363.664C308.52 363.448 306.136 363.664 305.76 360.64C305.384 357.616 304.912 348.944 304.912 348.944L314.936 349.368Z" fill="white" stroke="#263238" stroke-linecap="round" stroke-linejoin="round"/>
<path d="M318.12 368.424C313.712 366.912 310.296 363.88 309.424 363.664C308.552 363.448 306.168 363.664 305.792 360.64C305.592 359.04 305.368 355.84 305.2 353.216C305.94 354.389 306.956 355.363 308.16 356.052C309.363 356.741 310.717 357.124 312.104 357.168C312.104 357.168 312.024 355.648 314.048 353.048C315.368 351.36 317.024 352.688 318.048 353.848C318.312 354.2 318.584 354.552 318.848 354.92L318.92 355.024C319.995 356.384 321.143 357.685 322.36 358.92C326.48 363.032 330.28 365.192 330.36 367.36C330.44 369.528 322.536 369.936 318.12 368.424Z" fill="white" stroke="#263238" stroke-linecap="round" stroke-linejoin="round"/>
<path d="M267.896 235.04C267.896 235.04 269.232 280.088 271.008 288.968C272.784 297.848 280.712 348.744 280.712 348.744C283.135 349.769 285.745 350.281 288.376 350.248H297.04L297.84 312.344L298.136 257.328L302.48 350.456C302.48 350.456 314.416 350.88 315.704 350.664C316.992 350.448 318.064 350.232 318.064 350.232L325.736 291.312L330.128 252.112L330.368 236.52C330.368 236.52 293.696 235.248 283.04 234.384C272.384 233.52 268 233.304 268 233.304L267.896 235.04Z" fill="#458FF6" stroke="#263238" stroke-linecap="round" stroke-linejoin="round"/>
<path d="M317.416 314.576C317.32 315.328 317.224 316.024 317.112 316.664" stroke="#263238" stroke-linecap="round" stroke-linejoin="round"/>
<path d="M318.4 260.344C318.4 260.344 319.144 292.44 317.84 309.864" stroke="#263238" stroke-linecap="round" stroke-linejoin="round"/>
<path d="M279.08 257.768C279.08 257.768 280 279 280.912 283.76" stroke="#263238" stroke-linecap="round" stroke-linejoin="round"/>
<path d="M313.264 244.24V260.448C315.34 261.007 317.464 261.374 319.608 261.544C322.896 261.76 329.032 261.544 329.032 261.544L329.472 255.408L313.264 244.24Z" fill="#263238" stroke="#263238" stroke-linecap="round" stroke-linejoin="round"/>
<path d="M268.576 256.72C268.576 256.72 276.904 259.352 280.408 259.568C283.912 259.784 287.192 260.224 287.192 260.224L286.76 255.848L268.136 254.096L268.576 256.72Z" fill="#263238" stroke="#263238" stroke-linecap="round" stroke-linejoin="round"/>
<path d="M293.856 133.656L287.32 141.024L269.192 154.248L273.056 234.4C273.056 234.4 287.504 238.288 299.904 239.368C312.304 240.448 328.248 237.608 328.248 237.608L325.904 153.608C325.904 153.608 318.848 143.208 315.232 140.4C311.616 137.592 309.96 134.992 305.168 134.56C300.376 134.128 293.856 133.656 293.856 133.656Z" fill="#458FF6" stroke="#263238" stroke-linecap="round" stroke-linejoin="round"/>
<path d="M286.272 137.6L266.84 150.824L269.888 199.552L268.856 204.448L260.688 213.856L264.168 230.384L262.616 253.704C262.616 253.704 270.336 256.304 275.568 256.944C279.464 257.361 283.378 257.578 287.296 257.592L287.968 225.752C287.968 225.752 290.552 172.896 290.856 170.552C291.16 168.208 293.856 133.752 293.856 133.752L286.272 137.6Z" fill="white" stroke="#263238" stroke-linecap="round" stroke-linejoin="round"/>
<path d="M286.584 139.592L277.176 163.184L287.328 167.4L277.744 169.144L286.232 202.4" stroke="#263238" stroke-linecap="round" stroke-linejoin="round"/>
<path d="M292.224 127.376C292.224 127.376 295.6 149.896 298.256 155.096C300.912 160.296 301.664 162.024 301.664 162.024C301.664 162.024 307.44 144.472 308.6 141.872C309.76 139.272 311 129.96 311 129.96C311 129.96 299.488 133.648 292.224 127.376Z" fill="white" stroke="#263238" stroke-linecap="round" stroke-linejoin="round"/>
<path d="M292.224 127.376C292.224 127.376 292.528 129.424 293.024 132.424C294.712 133.712 299.184 136.896 302.488 137.064C305.008 137.192 308.208 135.56 310.336 134.256C310.72 131.896 310.984 129.96 310.984 129.96C310.984 129.96 299.488 133.648 292.224 127.376Z" fill="#263238" stroke="#263238" stroke-linecap="round" stroke-linejoin="round"/>
<path d="M287.64 111.808C287.64 111.808 285.336 108.528 283.784 111.808C282.232 115.088 286.184 119.944 287.288 120.608C290.424 122.472 289.592 119.008 289.592 119.008L287.64 111.808Z" fill="white" stroke="#263238" stroke-linecap="round" stroke-linejoin="round"/>
<path d="M316.256 113.224C316.256 113.224 318.2 109.832 320.104 113.032C322.008 116.232 318.576 121.264 317.552 121.976C314.624 124 315.088 120.528 315.088 120.528L316.256 113.224Z" fill="white" stroke="#263238" stroke-linecap="round" stroke-linejoin="round"/>
<path d="M287.096 108.912C287.096 108.912 295.448 106.96 299.656 104.472C302.233 102.915 304.481 100.869 306.272 98.448C306.272 98.448 309.888 105.28 313.072 108.048C316.256 110.816 316.92 110.976 316.92 110.976C316.92 110.976 315.392 122.936 313.664 127.096C311.936 131.256 306.296 135.304 301.032 134.136C298.04 133.48 292.856 131.32 291.352 127.68C289.848 124.04 287.096 108.912 287.096 108.912Z" fill="white" stroke="#263238" stroke-linecap="round" stroke-linejoin="round"/>
<path d="M308.408 118.104C305.816 118.168 297.136 118.184 292.656 115.48C290.86 114.435 289.179 113.204 287.64 111.808C287.8 112.608 287.992 113.608 288.2 114.648L289.176 115.36L291.624 124.608L290.48 124.856C290.721 125.801 291.012 126.733 291.352 127.648C292.856 131.288 298.04 133.448 301.032 134.104C306.288 135.264 311.912 131.24 313.656 127.088C313.244 126.281 313.123 125.358 313.312 124.472C313.816 121.856 314.44 117.272 314.44 117.272L316.224 115.672C316.32 115.088 316.4 114.528 316.48 114.016C314.32 115.512 310.272 118.056 308.408 118.104Z" fill="#458FF6" stroke="#263238" stroke-linecap="round" stroke-linejoin="round"/>
<path d="M298.88 114.24C298.88 114.24 296.088 110.848 292.424 111.16" stroke="#263238" stroke-linecap="round" stroke-linejoin="round"/>
<path d="M306.072 114.912C306.963 113.975 308.069 113.271 309.295 112.861C310.521 112.451 311.829 112.348 313.104 112.56" stroke="#263238" stroke-linecap="round" stroke-linejoin="round"/>
<path d="M290.816 109.464C290.816 109.464 294.816 107.864 298.36 108.616" stroke="#263238" stroke-linecap="round" stroke-linejoin="round"/>
<path d="M306.4 109.488C307.454 108.95 308.648 108.748 309.82 108.911C310.992 109.075 312.085 109.594 312.952 110.4" stroke="#263238" stroke-linecap="round" stroke-linejoin="round"/>
<path d="M296.192 113.128C296.21 113.251 296.203 113.376 296.173 113.497C296.143 113.617 296.089 113.73 296.014 113.83C295.94 113.93 295.847 114.014 295.74 114.077C295.633 114.141 295.515 114.182 295.392 114.2C295.141 114.172 294.911 114.049 294.748 113.858C294.584 113.666 294.5 113.42 294.512 113.168C294.492 113.045 294.498 112.919 294.528 112.798C294.558 112.677 294.612 112.564 294.686 112.464C294.761 112.364 294.855 112.28 294.962 112.217C295.069 112.154 295.188 112.113 295.312 112.096C295.561 112.126 295.79 112.249 295.953 112.44C296.116 112.631 296.202 112.877 296.192 113.128Z" fill="#263238"/>
<path d="M310.68 114.168C310.702 114.291 310.698 114.418 310.669 114.54C310.64 114.661 310.586 114.776 310.511 114.876C310.436 114.977 310.342 115.061 310.233 115.123C310.125 115.186 310.004 115.226 309.88 115.24C309.63 115.214 309.4 115.093 309.237 114.903C309.073 114.712 308.988 114.467 309 114.216C308.979 114.093 308.982 113.966 309.011 113.844C309.04 113.723 309.094 113.608 309.169 113.508C309.244 113.407 309.338 113.323 309.447 113.261C309.556 113.198 309.676 113.159 309.8 113.144C310.05 113.17 310.28 113.291 310.443 113.481C310.607 113.672 310.692 113.917 310.68 114.168Z" fill="#263238"/>
<path d="M332.224 146.192C332.224 146.192 336.888 148.352 338.624 151.792C340.36 155.232 354.24 192.504 354.176 195.32C354.112 198.136 349.52 201.384 345.216 201.824C340.912 202.264 334.64 194.464 333.704 193.168C332.768 191.872 332.6 176.704 332.6 176.704L332.224 146.192Z" fill="white" stroke="#263238" stroke-linecap="round" stroke-linejoin="round"/>
<path d="M310.24 136.24L312.512 210.752L313.312 257.752C317.668 258.823 322.131 259.4 326.616 259.472C330.357 259.55 334.076 258.887 337.56 257.52C337.56 257.52 336.2 228.28 335.96 223.512C335.72 218.744 334.136 209.648 334.136 209.648L332.248 146.192C332.248 146.192 314.672 137.968 310.24 136.24Z" fill="white" stroke="#263238" stroke-linecap="round" stroke-linejoin="round"/>
<path d="M315.232 140.352L323.288 166.632L315.944 168.624L323.088 172.088L314.176 200.4" fill="white"/>
<path d="M315.232 140.352L323.288 166.632L315.944 168.624L323.088 172.088L314.176 200.4" stroke="#263238" stroke-linecap="round" stroke-linejoin="round"/>
<path d="M320.848 164.392L310.856 212.264C310.856 212.264 317.688 214.424 322.68 214.664C327.672 214.904 338.072 214.872 338.072 214.872L348.472 170.248C348.472 170.248 328 168.288 320.848 164.392Z" fill="#263238" stroke="#263238" stroke-linecap="round" stroke-linejoin="round"/>
<path d="M324.328 209.008L324.656 194.048L332.584 195.72C332.584 195.72 327.344 207.264 324.328 209.008Z" fill="white" stroke="#263238" stroke-linecap="round" stroke-linejoin="round"/>
<path d="M330.4 188.64C330.4 188.64 328.288 185.616 327.608 184.96C326.928 184.304 323.568 182.368 322.92 182.368C322.272 182.368 318.792 182.152 318.12 182.152C317.448 182.152 316.688 183.672 317.376 184.32C318.064 184.968 320.456 185.184 320.456 185.184L322.096 187.584L314.696 186.936C314.696 186.936 313.464 188.24 313.744 189.336C313.953 190.078 314.221 190.803 314.544 191.504C314.515 193.094 314.598 194.685 314.792 196.264C315.08 197.568 316.392 198 318.192 199.08C319.992 200.16 326.016 199.512 326.016 199.512H328.8L330.4 188.64Z" fill="white" stroke="#263238" stroke-linecap="round" stroke-linejoin="round"/>
<path d="M348.44 190.144L329.24 187.56C329.24 187.56 327.744 199.912 326.232 204.024C324.72 208.136 324.328 209.008 324.328 209.008C324.328 209.008 344.448 208.56 349.192 208.128C353.936 207.696 356.6 204.872 356.392 200.976C356.184 197.08 353.808 193.176 353.808 193.176" fill="white"/>
<path d="M348.44 190.144L329.24 187.56C329.24 187.56 327.744 199.912 326.232 204.024C324.72 208.136 324.328 209.008 324.328 209.008C324.328 209.008 344.448 208.56 349.192 208.128C353.936 207.696 356.6 204.872 356.392 200.976C356.184 197.08 353.808 193.176 353.808 193.176" stroke="#263238" stroke-linecap="round" stroke-linejoin="round"/>
<path d="M268.376 203.632C268.376 203.632 272.856 206.44 273.976 207.312C275.096 208.184 275.192 213.808 275.904 214.888C276.616 215.968 275.776 216.624 274.48 216.624C273.184 216.624 271.224 212.512 271.224 212.512L271.144 210.992L261.992 214.032L259.592 209.92C259.592 209.92 262.312 203.632 268.376 203.632Z" fill="white" stroke="#263238" stroke-linecap="round" stroke-linejoin="round"/>
<path d="M201.704 373.6C224.825 373.6 243.568 369.374 243.568 364.16C243.568 358.946 224.825 354.72 201.704 354.72C178.583 354.72 159.84 358.946 159.84 364.16C159.84 369.374 178.583 373.6 201.704 373.6Z" fill="#263238" stroke="#263238" stroke-linecap="round" stroke-linejoin="round"/>
<path d="M234.4 139.832C234.4 139.832 239.888 167.376 240.864 172.472C241.84 177.568 243.632 189.68 245.664 194.992C247.696 200.304 247.032 207.104 246.016 209.016C244.997 210.678 243.826 212.242 242.52 213.688L235.704 204.8C235.704 204.8 231.648 161.248 231.496 155.08C231.344 148.912 234.4 139.832 234.4 139.832Z" fill="white" stroke="#263238" stroke-linecap="round" stroke-linejoin="round"/>
<path d="M238.016 203.712C238.016 203.712 242.336 206.408 243.096 207.552C243.856 208.696 244.4 210.152 243.808 211.392C243.216 212.632 239.992 216.376 239.176 217.104C238.36 217.832 237.672 214.928 237.576 212.432C237.48 209.936 238.016 203.712 238.016 203.712Z" fill="white" stroke="#263238" stroke-linecap="round" stroke-linejoin="round"/>
<path d="M214.784 354.752C214.784 354.752 228.328 361.336 229.184 362.616C230.04 363.896 226.952 365.6 218.88 365.6C210.808 365.6 210.568 364.536 207.36 363.688C204.152 362.84 197.76 363.472 196.896 361.56C196.032 359.648 197.536 353.064 197.536 353.064L214.784 354.752Z" fill="white" stroke="#263238" stroke-linecap="round" stroke-linejoin="round"/>
<path d="M196.8 358.152C196.8 358.152 208 364.952 207.016 367.288C206.032 369.624 197.936 369.624 193.672 368.984C189.408 368.344 180.344 362.584 179.864 360.488C179.384 358.392 180.584 355.176 187.152 354.544C193.72 353.912 196.8 358.152 196.8 358.152Z" fill="white" stroke="#263238" stroke-linecap="round" stroke-linejoin="round"/>
<path d="M230.8 247.04C230.8 247.04 224.4 296.328 223.288 303.552C222.176 310.776 218.648 322.248 216.744 330.96C215.665 336.084 214.863 341.262 214.344 346.472C214.149 347.954 214.184 349.457 214.448 350.928C214.72 353.056 214.76 354.752 214.76 354.752C211.911 355.467 209.012 355.964 206.088 356.24C202.48 356.456 197.592 356.456 197.592 356.456L195.992 342.648C195.992 342.648 197.184 322.248 197.888 316.304C198.592 310.36 199.344 263.616 199.312 262.336C199.28 261.056 199 249.8 199 249.8L220.8 247.464C220.8 247.464 223.776 238.968 228.248 239.392C232.72 239.816 230.8 247.04 230.8 247.04Z" fill="white" stroke="#263238" stroke-linecap="round" stroke-linejoin="round"/>
<path d="M228.28 239.392C223.808 238.968 220.832 247.464 220.832 247.464L199.008 249.8C199.008 249.8 199.08 252.792 199.152 255.864C201.48 256.072 203.632 256.192 205.472 256.192C212.464 256.181 219.45 255.788 226.4 255.016L227.336 245.224L228.8 255.2L229.808 254.872C230.432 250.12 230.832 247.024 230.832 247.024C230.832 247.024 232.752 239.816 228.28 239.392Z" fill="#263238" stroke="#263238" stroke-linecap="round" stroke-linejoin="round"/>
<path d="M176.24 248.528C176.24 248.528 176.24 248.832 176.288 249.384C176.584 255.192 178.344 288.848 178.88 295.056C179.48 301.856 176.48 309.288 176.632 315.448C176.784 321.608 178.232 354.968 178.232 354.968L179.832 360.488C179.832 360.488 183.592 357.944 187.2 357.944C190.808 357.944 196.8 358.152 196.8 358.152C196.8 358.152 197.112 353.688 197.08 352.208C197.048 350.728 196.912 345.408 196.912 345.408C196.912 345.408 203.016 317.576 203.384 315.24C203.752 312.904 208.488 272.536 208.456 271.24C208.424 269.944 209.456 251.904 209.456 251.904L176.24 248.528Z" fill="white" stroke="#263238" stroke-linecap="round" stroke-linejoin="round"/>
<path d="M209.232 256.152C209.368 253.688 209.464 251.928 209.464 251.928L176.24 248.528C176.24 248.528 176.24 248.832 176.288 249.384C176.288 250.088 176.376 251.2 176.456 252.584C184.224 253.976 197.704 256.168 205.472 256.168C206.752 256.192 208 256.176 209.232 256.152Z" fill="#263238" stroke="#263238" stroke-linecap="round" stroke-linejoin="round"/>
<path d="M200.72 118.08C200.72 118.08 197.208 118.672 195.872 120.24C194.533 121.765 193.328 123.403 192.272 125.136C192.088 125.728 171.432 138.264 171.432 138.264L172.92 198.04C172.92 198.04 173.536 207.248 172.44 210.384C170.588 216.55 169.69 222.963 169.776 229.4C169.968 237.04 170.464 249.4 170.464 249.4C170.464 249.4 194.104 254.104 205.472 254.104C212.464 254.087 219.45 253.689 226.4 252.912L227.336 243.112L228.76 253.112L233.616 251.512L237.616 221.912C237.616 221.912 240.4 215.64 240.368 214.264C240.336 212.888 241.072 211.128 240.264 209.952C239.456 208.776 238.016 206.424 238.016 206.424C238.016 206.424 234.4 141.6 234.4 139.832C234.4 138.064 223.704 127.688 222.912 127.296C222.12 126.904 217.24 119.648 210.912 117.696C204.584 115.744 200.72 118.08 200.72 118.08Z" fill="white" stroke="#263238" stroke-linecap="round" stroke-linejoin="round"/>
<path d="M194.28 127.096L191.912 148.624L201.64 153.144L199.208 160.448L223.536 203.2" stroke="#263238" stroke-linecap="round" stroke-linejoin="round"/>
<path d="M221.456 129.512L228.752 146.544L225.624 150.712L230.84 158.008L228.752 204.936" stroke="#263238" stroke-linecap="round" stroke-linejoin="round"/>
<path d="M199.816 121.024C199.993 125.224 200.755 129.379 202.08 133.368C204.184 139.248 218.128 179.816 218.128 179.816L227.144 211.56C227.144 211.56 225.952 179.224 225.92 177.856C225.888 176.488 219.088 131.6 219.088 131.6C219.088 131.6 217.928 124.352 216.096 121.608C214.264 118.864 201.984 113.768 199.816 121.024Z" fill="#458FF6" stroke="#263238" stroke-linecap="round" stroke-linejoin="round"/>
<path d="M198.952 117.888C198.952 117.888 193.28 118.472 194.28 127.096C195.28 135.72 196.6 141.6 196.6 141.6" stroke="#263238" stroke-width="2" stroke-linecap="round" stroke-linejoin="round"/>
<path d="M195.904 152.968C195.904 152.968 198.304 162.96 199.944 165.704C201.584 168.448 206.544 171.192 210.072 171.192" stroke="#263238" stroke-linecap="round" stroke-linejoin="round"/>
<path d="M203.488 150.616C203.488 150.616 206.128 162.176 206.568 164.336C207.008 166.496 205.552 170.6 203.104 174.736" stroke="#263238" stroke-linecap="round" stroke-linejoin="round"/>
<path d="M202.4 176.104C202.148 175.966 201.961 175.733 201.88 175.457C201.8 175.181 201.831 174.885 201.968 174.632L202.248 174.12C202.317 173.998 202.409 173.89 202.52 173.804C202.631 173.718 202.758 173.655 202.894 173.618C203.029 173.582 203.171 173.573 203.31 173.592C203.449 173.61 203.583 173.657 203.704 173.728C203.956 173.867 204.143 174.099 204.225 174.374C204.307 174.649 204.278 174.946 204.144 175.2L203.864 175.704C203.795 175.827 203.702 175.936 203.591 176.023C203.48 176.11 203.352 176.174 203.216 176.211C203.08 176.248 202.937 176.258 202.797 176.24C202.657 176.221 202.522 176.175 202.4 176.104Z" fill="#263238"/>
<path d="M211.384 171.408C211.384 171.549 211.355 171.689 211.3 171.818C211.245 171.948 211.164 172.066 211.063 172.164C210.961 172.261 210.841 172.338 210.709 172.388C210.577 172.438 210.437 172.461 210.296 172.456H209.712C209.424 172.45 209.15 172.33 208.949 172.124C208.749 171.917 208.638 171.64 208.64 171.352C208.638 171.211 208.666 171.072 208.72 170.942C208.774 170.812 208.854 170.695 208.955 170.597C209.056 170.499 209.176 170.422 209.308 170.372C209.439 170.322 209.579 170.299 209.72 170.304H210.304C210.592 170.312 210.865 170.432 211.067 170.638C211.268 170.844 211.382 171.12 211.384 171.408Z" fill="#263238"/>
<path d="M195.92 153.752L194.576 145.232C194.426 144.354 194.616 143.451 195.108 142.708C195.6 141.965 196.357 141.437 197.224 141.232C198.158 141.019 199.139 141.177 199.96 141.673C200.78 142.168 201.377 142.962 201.624 143.888L203.92 152.368" stroke="#263238" stroke-width="2" stroke-linecap="round" stroke-linejoin="round"/>
<path d="M227.543 159.51C229.468 159.317 230.849 157.361 230.627 155.141C230.404 152.921 228.663 151.278 226.738 151.47C224.812 151.663 223.431 153.619 223.654 155.84C223.876 158.06 225.617 159.703 227.543 159.51Z" fill="white" stroke="#263238" stroke-linecap="round" stroke-linejoin="round"/>
<path d="M217.704 121.48C217.704 121.48 225.408 132.32 227.864 154.416" stroke="#263238" stroke-width="2" stroke-linecap="round" stroke-linejoin="round"/>
<path d="M228.068 156.974C229.12 156.876 229.88 155.802 229.766 154.575C229.652 153.347 228.707 152.432 227.655 152.529C226.604 152.627 225.844 153.701 225.958 154.929C226.072 156.156 227.017 157.072 228.068 156.974Z" fill="white" stroke="#263238" stroke-linecap="round" stroke-linejoin="round"/>
<path d="M239.328 205.4C238.855 206.864 238.468 208.355 238.168 209.864C238.168 210.504 238.016 212.416 236.52 211.984C235.024 211.552 235.472 203.912 235.664 203.064C235.856 202.216 239.496 204.96 239.496 204.96" fill="white"/>
<path d="M239.328 205.4C238.855 206.864 238.468 208.355 238.168 209.864C238.168 210.504 238.016 212.416 236.52 211.984C235.024 211.552 235.472 203.912 235.664 203.064C235.856 202.216 239.496 204.96 239.496 204.96" stroke="#263238" stroke-linecap="round" stroke-linejoin="round"/>
<path d="M190.768 198.632C192.099 199.365 193.586 199.768 195.104 199.808C197.456 199.808 201.752 199.008 203.328 199.416C204.904 199.824 208.928 204.896 208.928 204.896C208.928 204.896 210.128 206.072 209.56 206.664C208.992 207.256 207.832 208.264 207.032 207.64C206.232 207.016 202.232 203.72 202.232 203.72L192.144 207.84L188 205.68L190.768 198.632Z" fill="white" stroke="#263238" stroke-linecap="round" stroke-linejoin="round"/>
<path d="M175.32 136.896C175.32 136.896 168.672 137.696 167.544 139.44C166.416 141.184 148.2 181.184 148.24 182.952C148.28 184.72 184.664 213.352 184.664 213.352L192.52 198.4L172.864 180.176L181.392 160.384" fill="white"/>
<path d="M175.32 136.896C175.32 136.896 168.672 137.696 167.544 139.44C166.416 141.184 148.2 181.184 148.24 182.952C148.28 184.72 184.664 213.352 184.664 213.352L192.52 198.4L172.864 180.176L181.392 160.384" stroke="#263238" stroke-linecap="round" stroke-linejoin="round"/>
<path d="M187.584 220.576L206.8 220.968L206.704 209.016" stroke="#263238" stroke-linecap="round" stroke-linejoin="round"/>
<path d="M192.168 207.84L187.088 209.736" stroke="#263238" stroke-linecap="round" stroke-linejoin="round"/>
<path d="M197.96 109.456C197.96 109.456 200.144 126.512 201.584 129.056C203.024 131.6 213.264 141.792 213.264 141.792C213.264 141.792 216.464 130.04 216.824 127.296C217.184 124.552 217.464 113.576 217.464 113.576L197.92 108.088L197.96 109.456Z" fill="white" stroke="#263238" stroke-linecap="round" stroke-linejoin="round"/>
<path d="M197.96 109.456C197.96 109.456 198.216 111.456 198.608 114.184C200.14 115.61 201.89 116.783 203.792 117.656C206.312 118.768 213.032 119.392 217.28 118.896C217.392 116.024 217.464 113.576 217.464 113.576L197.92 108.088L197.96 109.456Z" fill="#263238" stroke="#263238" stroke-linecap="round" stroke-linejoin="round"/>
<path d="M192.296 94.5681C192.296 94.5681 189.68 91.8241 188.384 94.9521C187.088 98.0801 189.984 102.792 191.528 102.992C192.444 103.112 193.375 103.044 194.264 102.792C194.264 102.792 195.36 107.304 196.368 108.672C198.351 111.181 200.894 113.191 203.792 114.544C207.36 116.144 219.304 116.712 220.816 114.544C222.328 112.376 222.24 100.824 222.216 99.8481C222.192 98.8721 222.024 84.9041 222.024 84.9041C222.024 84.9041 223.096 80.0561 221.64 76.7201C220.184 73.3841 205.568 68.7201 201.896 70.6481C198.224 72.5761 193.992 75.9361 193.704 80.2481C193.416 84.5601 193.592 91.6161 193.592 91.6161L192.296 94.5681Z" fill="white" stroke="#263238" stroke-linecap="round" stroke-linejoin="round"/>
<path d="M213.896 88.488C213.896 88.488 216.336 99.688 215.776 101.032C215.216 102.376 213.464 102.4 211.272 101.224C209.08 100.048 210.224 98.48 210.224 98.48" stroke="#263238" stroke-linecap="round" stroke-linejoin="round"/>
<path d="M205.4 101.424C205.4 101.424 206.456 104.36 208.416 104.56C210.376 104.76 215.296 105.144 215.296 105.144" stroke="#263238" stroke-linecap="round" stroke-linejoin="round"/>
<path d="M198.4 88.88L198.712 93.584C198.712 93.584 200.504 94.568 204.616 94.568C208.728 94.568 210.08 93.584 210.08 93.584L209.968 88.88C209.968 88.88 204 85.352 198.4 88.88Z" stroke="#263238" stroke-linecap="round" stroke-linejoin="round"/>
<path d="M213.912 88.88L215.4 93.784C215.4 93.784 216.008 94.584 220.128 94.584C224.248 94.584 225.6 93.6 225.6 93.6L225.48 88.896C225.48 88.896 219.504 85.352 213.912 88.88Z" stroke="#263238" stroke-linecap="round" stroke-linejoin="round"/>
<path d="M209.992 88.88H213.912" stroke="#263238" stroke-linecap="round" stroke-linejoin="round"/>
<path d="M198.424 88.88L190.696 93.392" stroke="#263238" stroke-linecap="round" stroke-linejoin="round"/>
<path d="M200.328 86.528C200.328 86.528 202.424 84.176 207.176 86.136" stroke="#263238" stroke-linecap="round" stroke-linejoin="round"/>
<path d="M214.632 86.5281C215.337 85.9619 216.189 85.6067 217.088 85.5033C217.986 85.4 218.896 85.5528 219.712 85.9441" stroke="#263238" stroke-linecap="round" stroke-linejoin="round"/>
<path d="M205.336 91.0401C205.336 91.9041 205.024 92.6401 204.592 92.6401C204.16 92.6401 203.792 91.9361 203.792 91.0401C203.792 90.1441 204.104 89.4401 204.544 89.4401C204.984 89.4401 205.32 90.1681 205.336 91.0401Z" fill="#263238"/>
<path d="M217.88 90.84C217.88 91.704 217.568 92.44 217.136 92.44C216.704 92.44 216.336 91.736 216.336 90.84C216.336 89.944 216.648 89.24 217.08 89.24C217.512 89.24 217.856 89.976 217.88 90.84Z" fill="#263238"/>
<path d="M204.456 72.712C204.456 72.712 206.344 76.88 204 78.4C203.276 78.8186 202.455 79.039 201.62 79.039C200.784 79.039 199.963 78.8186 199.24 78.4C199.863 79.2609 200.211 80.2901 200.238 81.3525C200.265 82.4149 199.97 83.4606 199.392 84.352C198.242 86.2666 196.902 88.0598 195.392 89.704C195.392 89.704 195.816 94.768 194.936 95.36C194.056 95.952 191.656 95.064 191.616 93.576C191.576 92.088 190.616 89.112 190.576 87.624C190.536 86.136 189.848 82.264 189.848 82.264C189.848 82.264 183.832 79.584 187.024 76.312C190.216 73.04 196.992 70.36 196.992 70.36C196.992 70.36 197.144 64.408 201.264 62.624C205.384 60.84 214.248 58.16 214.32 61.136C214.432 62.6676 214.157 64.2029 213.52 65.6C213.52 65.6 220.952 65.304 226.136 70.4C231.32 75.496 231.144 80.224 228.464 80.224C225.784 80.224 224.912 80.816 224.912 80.816C224.912 80.816 230.04 83.792 227.4 85.28C224.76 86.768 222.04 84.9841 222.04 84.9841C222.04 84.9841 223.176 82.9041 219.832 80.184C216.488 77.4641 204.456 72.712 204.456 72.712Z" fill="#263238" stroke="#263238" stroke-linecap="round" stroke-linejoin="round"/>
<path d="M102.944 373.6C126.065 373.6 144.808 369.374 144.808 364.16C144.808 358.946 126.065 354.72 102.944 354.72C79.8232 354.72 61.0801 358.946 61.0801 364.16C61.0801 369.374 79.8232 373.6 102.944 373.6Z" fill="#263238" stroke="#263238" stroke-linecap="round" stroke-linejoin="round"/>
<path d="M130.512 168.904V176.552L141.632 181.648C141.632 181.648 142.792 176.552 141.864 167.512L130.512 168.904Z" fill="#999999" stroke="#263238" stroke-linecap="round" stroke-linejoin="round"/>
<path d="M75.3203 352.432C72.7751 354.617 70.3703 356.96 68.1203 359.448C64.9203 363.056 64.2963 366.648 67.2723 368.368C70.2483 370.088 74.9203 369.64 80.0163 366.456C85.1123 363.272 84.9043 361.992 87.8803 360.936C90.8563 359.88 92.7683 357.736 92.7683 354.344C92.7683 350.952 81.9283 350.52 79.5923 350.344C77.2563 350.168 75.3203 352.432 75.3203 352.432Z" fill="white" stroke="#263238" stroke-linecap="round" stroke-linejoin="round"/>
<path d="M92.7439 354.344C92.7439 354.344 87.9439 356.472 85.6159 358.408C83.2879 360.344 78.6479 367.312 73.2239 367.312C70.4618 367.314 67.7454 366.606 65.3359 365.256C65.3395 365.9 65.5196 366.531 65.8567 367.079C66.1939 367.628 66.6751 368.074 67.2479 368.368C70.2239 370.064 74.8959 369.64 79.9919 366.456C85.0879 363.272 84.8799 361.992 87.8559 360.936C90.8319 359.88 92.7439 357.744 92.7439 354.344Z" stroke="#263238" stroke-linecap="round" stroke-linejoin="round"/>
<path d="M129.232 352.432C131.777 354.617 134.182 356.96 136.432 359.448C139.632 363.056 140.256 366.648 137.28 368.368C134.304 370.088 129.632 369.64 124.536 366.456C119.44 363.272 119.648 361.992 116.672 360.936C113.696 359.88 111.784 357.736 111.784 354.344C111.784 350.952 122.624 350.52 124.96 350.344C127.296 350.168 129.232 352.432 129.232 352.432Z" fill="white" stroke="#263238" stroke-linecap="round" stroke-linejoin="round"/>
<path d="M111.808 354.344C111.808 354.344 116.608 356.472 118.936 358.408C121.264 360.344 125.904 367.312 131.328 367.312C134.09 367.314 136.807 366.606 139.216 365.256C139.213 365.9 139.032 366.531 138.695 367.079C138.358 367.628 137.877 368.074 137.304 368.368C134.328 370.064 129.656 369.64 124.56 366.456C119.464 363.272 119.672 361.992 116.696 360.936C113.72 359.88 111.808 357.744 111.808 354.344Z" stroke="#263238" stroke-linecap="round" stroke-linejoin="round"/>
<path d="M69.1602 231.76C69.1602 231.76 70.4322 279.56 71.0722 286.576C71.7122 293.592 73.6002 309.52 73.6002 310.4C73.6002 311.28 74.6562 346.52 74.6562 346.52L72.7442 349.72L73.3842 354.184L81.8802 355.88C86.1282 356.728 91.6562 358.008 92.5042 357.16C93.3522 356.312 93.5682 354.608 93.9922 352.272C94.4162 349.936 95.2642 345.68 94.4162 342.288C93.5682 338.896 95.4802 302.768 95.6962 301.92C95.9122 301.072 100.8 266.176 100.8 266.176C100.8 266.176 104 294.864 106.32 303.568C108.64 312.272 107.808 325.24 108.656 330.336C109.504 335.432 111.208 352.648 111.424 353.92C111.64 355.192 112.056 357.12 112.056 357.12C112.056 357.12 122.68 355.632 124.592 354.776C126.531 354.062 128.52 353.495 130.544 353.08C130.544 353.08 131.176 340.968 130.328 336.08C129.71 332.645 129.355 329.169 129.264 325.68C129.264 324.192 130.328 277.032 130.328 277.032L129.264 231.352C129.264 231.352 100.584 234.328 89.5362 232.2C78.4882 230.072 69.3762 228.8 69.3762 228.8L69.1602 231.76Z" fill="#458FF6" stroke="#263238" stroke-linecap="round" stroke-linejoin="round"/>
<path d="M89.5522 232.184C78.5042 230.064 69.3762 228.8 69.3762 228.8L69.1602 231.768C69.1602 231.768 69.2322 234.512 69.3522 238.768C74.4162 240.184 84.7042 242.672 94.6482 242.672C105.16 242.672 121.904 239.472 129.44 237.944L129.28 231.344C129.28 231.344 100.6 234.312 89.5522 232.184Z" fill="#263238" stroke="#263238" stroke-linecap="round" stroke-linejoin="round"/>
<path d="M126.456 339.832C126.592 341.296 126.68 342.136 126.68 342.136" stroke="#263238" stroke-linecap="round" stroke-linejoin="round"/>
<path d="M123.2 242.976C123.2 242.976 124 284.032 124 299.528C124 310.248 125.296 326.52 126.096 335.528" stroke="#263238" stroke-linecap="round" stroke-linejoin="round"/>
<path d="M80.2002 240.656L82.1362 285.2" stroke="#263238" stroke-linecap="round" stroke-linejoin="round"/>
<path d="M81.7441 288.68V296.04" stroke="#263238" stroke-linecap="round" stroke-linejoin="round"/>
<path d="M91.8161 119.552C90.7701 119.558 89.7405 119.812 88.8125 120.295C87.8846 120.778 87.085 121.475 86.4801 122.328C85.157 124.074 83.6848 125.701 82.0801 127.192L63.0801 137.392L64.9361 209.92L65.6321 234.72C65.6321 234.72 80.2241 239.584 94.1281 239.584C108.032 239.584 132.824 233.984 132.824 233.984C132.824 233.984 130.744 137.36 131.44 137.36C132.136 137.36 117.768 124.88 111.28 121.6C104.792 118.32 91.8161 119.552 91.8161 119.552Z" fill="#458FF6" stroke="#263238" stroke-linecap="round" stroke-linejoin="round"/>
<path d="M86.4004 128.32C86.4004 128.32 93.7604 141.88 96.8644 148.08C99.9684 154.28 105.76 163.2 105.76 163.2L115.448 137.248" stroke="#263238" stroke-linecap="round" stroke-linejoin="round"/>
<path d="M91.8401 214.328L91.4641 203.504L69.6001 202.232C69.6001 202.232 69.8161 218.168 70.2401 219.032" stroke="#263238" stroke-linecap="round" stroke-linejoin="round"/>
<path d="M92.104 221.992L92 218.952" stroke="#263238" stroke-linecap="round" stroke-linejoin="round"/>
<path d="M118.024 220.288L117.384 202.448C117.384 202.448 125.032 203.08 131.408 198.832" stroke="#263238" stroke-linecap="round" stroke-linejoin="round"/>
<path d="M85.2402 159.936C85.9122 162.056 87.9602 163.304 89.8082 162.712C91.6562 162.12 92.5922 159.92 91.9122 157.8C91.2322 155.68 89.1922 154.432 87.3442 155.024C85.4962 155.616 84.5602 157.816 85.2402 159.936Z" stroke="#263238" stroke-linecap="round" stroke-linejoin="round"/>
<path d="M85.4564 122.816C85.4564 122.816 83.0004 132.256 88.5844 157.88" stroke="#263238" stroke-width="2" stroke-linecap="round" stroke-linejoin="round"/>
<path d="M90.3042 158.76C90.1396 159.092 89.8832 159.37 89.5654 159.56C89.2476 159.751 88.8819 159.846 88.5115 159.835C88.1412 159.824 87.7818 159.707 87.4761 159.497C87.1704 159.288 86.9312 158.995 86.7868 158.654C86.6424 158.313 86.599 157.937 86.6617 157.572C86.7244 157.207 86.8905 156.868 87.1404 156.594C87.3903 156.32 87.7134 156.124 88.0714 156.029C88.4295 155.934 88.8073 155.943 89.1602 156.056C89.6684 156.265 90.0735 156.667 90.2877 157.173C90.5019 157.679 90.5078 158.249 90.3042 158.76Z" stroke="#263238" stroke-linecap="round" stroke-linejoin="round"/>
<path d="M130.512 136C130.512 136 133.984 138.552 134.216 139.48C134.448 140.408 146.264 168.672 146.264 168.672L129.12 171.2L129.352 154.512" fill="#458FF6"/>
<path d="M130.512 136C130.512 136 133.984 138.552 134.216 139.48C134.448 140.408 146.264 168.672 146.264 168.672L129.12 171.2L129.352 154.512" stroke="#263238" stroke-linecap="round" stroke-linejoin="round"/>
<path d="M65.4002 136.464C65.4002 136.464 61.4562 136.928 60.5282 139.936C59.6002 142.944 52.8882 173.536 52.8882 173.536L77.4482 171.2L75.1282 148.256" fill="#458FF6"/>
<path d="M65.4002 136.464C65.4002 136.464 61.4562 136.928 60.5282 139.936C59.6002 142.944 52.8882 173.536 52.8882 173.536L77.4482 171.2L75.1282 148.256" stroke="#263238" stroke-linecap="round" stroke-linejoin="round"/>
<path d="M112.84 121.376C112.84 121.376 118.928 124.848 119.528 133.488C120.128 142.128 119.528 144.32 119.528 144.32" stroke="#263238" stroke-width="2" stroke-linecap="round" stroke-linejoin="round"/>
<path d="M122.28 155.384C122.28 155.384 121.736 165.6 120.624 168.552C119.512 171.504 115.112 175 111.624 175.56" stroke="#263238" stroke-linecap="round" stroke-linejoin="round"/>
<path d="M114.4 154.28C114.4 154.28 113.912 166.064 113.864 168.256C113.816 170.448 116.024 174.264 119.192 177.92" stroke="#263238" stroke-linecap="round" stroke-linejoin="round"/>
<path d="M120.101 179.204L120.194 179.128C120.63 178.775 120.696 178.135 120.343 177.699L119.895 177.146C119.541 176.71 118.901 176.643 118.465 176.997L118.372 177.072C117.936 177.426 117.87 178.066 118.223 178.501L118.672 179.054C119.025 179.49 119.665 179.557 120.101 179.204Z" fill="#263238"/>
<path d="M110.372 175.933L110.394 176.051C110.498 176.603 111.03 176.965 111.581 176.86L112.281 176.728C112.832 176.623 113.194 176.092 113.09 175.54L113.068 175.423C112.963 174.871 112.431 174.509 111.88 174.613L111.181 174.746C110.629 174.85 110.267 175.382 110.372 175.933Z" fill="#263238"/>
<path d="M122.4 156.16L122.168 147.576C122.146 146.681 121.792 145.825 121.173 145.177C120.555 144.53 119.717 144.135 118.824 144.072C117.875 144.001 116.937 144.309 116.214 144.928C115.492 145.547 115.044 146.427 114.968 147.376L114.248 156.08" stroke="#263238" stroke-width="2" stroke-linecap="round" stroke-linejoin="round"/>
<path d="M142.328 175.856L136.8 174.696L117.336 171.456L90.0404 166.256L83.5684 163.4C83.5684 163.4 77.4484 155.4 76.9204 154.6C76.3924 153.8 69.4724 156.592 69.7204 157.656C69.9684 158.72 70.7844 169.352 71.3204 170.024C71.8564 170.696 77.8324 170.688 77.8324 170.688C77.8324 170.688 106.344 184.448 107.528 184.952C123.984 191.888 131.92 191.824 134.728 192.28C137.536 192.736 139.368 191.6 140.984 189.744C142.6 187.888 142.328 175.856 142.328 175.856Z" fill="#999999" stroke="#263238" stroke-linecap="round" stroke-linejoin="round"/>
<path d="M76.0882 154.488C76.0882 154.488 72.7682 154.624 67.8482 157.944C66.0162 159.184 65.0562 160.072 65.0562 160.608C65.161 161.246 65.3409 161.869 65.5922 162.464C68.782 160.928 72.1225 159.727 75.5602 158.88" fill="#999999"/>
<path d="M76.0882 154.488C76.0882 154.488 72.7682 154.624 67.8482 157.944C66.0162 159.184 65.0562 160.072 65.0562 160.608C65.161 161.246 65.3409 161.869 65.5922 162.464C68.782 160.928 72.1225 159.727 75.5602 158.88" stroke="#263238" stroke-linecap="round" stroke-linejoin="round"/>
<path d="M77.4164 163C77.4164 163 68.3844 165.256 66.9204 165.528C65.4564 165.8 65.1924 164.328 65.1924 163.8C65.1924 163.272 65.5924 162.464 67.1844 161.672C68.7764 160.88 76.7844 158.744 76.7844 158.744" fill="#999999"/>
<path d="M77.4164 163C77.4164 163 68.3844 165.256 66.9204 165.528C65.4564 165.8 65.1924 164.328 65.1924 163.8C65.1924 163.272 65.5924 162.464 67.1844 161.672C68.7764 160.88 76.7844 158.744 76.7844 158.744" stroke="#263238" stroke-linecap="round" stroke-linejoin="round"/>
<path d="M78.3523 167.12C78.3523 167.12 67.8483 168.184 67.0483 167.52C66.8035 167.253 66.6178 166.938 66.5034 166.595C66.3889 166.252 66.3483 165.888 66.3843 165.528L75.8243 163.528" fill="#999999"/>
<path d="M78.3523 167.12C78.3523 167.12 67.8483 168.184 67.0483 167.52C66.8035 167.253 66.6178 166.938 66.5034 166.595C66.3889 166.252 66.3483 165.888 66.3843 165.528L75.8243 163.528" stroke="#263238" stroke-linecap="round" stroke-linejoin="round"/>
<path d="M75.4243 167.648L67.3203 168.048C67.3203 168.048 67.7123 169.248 68.1203 169.376C70.0402 169.85 71.9963 170.163 73.9683 170.312C75.2615 170.354 76.55 170.488 77.8243 170.712" fill="#999999"/>
<path d="M75.4243 167.648L67.3203 168.048C67.3203 168.048 67.7123 169.248 68.1203 169.376C70.0402 169.85 71.9963 170.163 73.9683 170.312C75.2615 170.354 76.55 170.488 77.8243 170.712" stroke="#263238" stroke-linecap="round" stroke-linejoin="round"/>
<path d="M57.9844 173.072C57.9844 173.072 61.6884 189.072 62.6164 190.224C63.5444 191.376 71.1924 190.224 78.8404 187.904C86.4884 185.584 118.928 171.688 118.928 171.688L123.56 172.608C123.56 172.608 121.704 166.816 118.464 166.584C115.224 166.352 77.4484 171.2 77.4484 171.2L57.9844 173.072Z" fill="#999999" stroke="#263238" stroke-linecap="round" stroke-linejoin="round"/>
<path d="M90.4004 109.352C90.4004 109.352 90.4004 109.696 90.4004 110.28C90.4724 113.328 90.7684 123.008 91.5444 125.344C92.4724 128.12 104.984 151.528 105.944 149.672C106.904 147.816 112.664 122.56 112.664 122.56V112.6C112.664 112.6 109.648 115.144 104.088 115.144C98.5284 115.144 90.4004 109.352 90.4004 109.352Z" fill="#999999" stroke="#263238" stroke-linecap="round" stroke-linejoin="round"/>
<path d="M108.96 123.08C110.258 122.288 111.498 121.406 112.672 120.44V112.6C112.672 112.6 109.656 115.144 104.096 115.144C98.5364 115.144 90.4004 109.352 90.4004 109.352C90.4004 109.352 90.4004 109.696 90.4004 110.28C90.4004 111.352 90.4804 113.248 90.5764 115.36C90.7958 115.712 91.0419 116.046 91.3124 116.36C92.9124 118.208 100.576 122.848 102.432 123.312C104.288 123.776 106.872 124.232 108.96 123.08Z" fill="#263238" stroke="#263238" stroke-linecap="round" stroke-linejoin="round"/>
<path d="M118.232 95.912C118.232 95.912 121.936 93.824 121.936 97.768C121.936 101.712 118.464 106.344 118.464 106.344L118.232 95.912Z" fill="#999999" stroke="#263238" stroke-linecap="round" stroke-linejoin="round"/>
<path d="M85.0962 96.144C85.0962 96.144 79.9922 94.752 79.9922 99.392C79.9922 104.032 84.6322 107.032 84.6322 107.032H87.8322C87.8322 107.032 89.6882 111.672 91.3122 113.52C92.9362 115.368 100.576 120.008 102.432 120.472C104.288 120.936 106.832 121.4 108.92 120.24C111.543 118.605 113.961 116.66 116.12 114.448C117.048 113.296 118.672 105.416 118.672 105.416C118.672 105.416 119.136 91.28 118.208 86.416C117.28 81.552 111.256 73.904 102.912 72.976C94.5682 72.048 86.6882 78.768 85.5362 84.096C84.3842 89.424 85.0962 96.144 85.0962 96.144Z" fill="#999999" stroke="#263238" stroke-linecap="round" stroke-linejoin="round"/>
<path d="M100.152 99.856C100.152 99.856 98.5522 103.096 101.312 104.024C104.072 104.952 107.568 104.72 108.264 103.328C108.96 101.936 107.8 100.32 107.8 100.32" stroke="#263238" stroke-linecap="round" stroke-linejoin="round"/>
<path d="M97.376 105.648C97.376 105.648 103.168 110.512 111.048 105.88" stroke="#263238" stroke-linecap="round" stroke-linejoin="round"/>
<path d="M100.616 110.048C100.616 110.048 105.488 112.832 108.728 109.584" stroke="#263238" stroke-linecap="round" stroke-linejoin="round"/>
<path d="M97.8402 97.072C98.4808 97.072 99.0002 96.241 99.0002 95.216C99.0002 94.1909 98.4808 93.36 97.8402 93.36C97.1995 93.36 96.6802 94.1909 96.6802 95.216C96.6802 96.241 97.1995 97.072 97.8402 97.072Z" fill="#263238"/>
<path d="M110.352 94.984C110.352 96.008 109.832 96.84 109.192 96.84C108.552 96.84 108.032 96.04 108.032 94.984C108.032 93.928 108.552 93.136 109.192 93.136C109.832 93.136 110.352 93.96 110.352 94.984Z" fill="#263238"/>
<path d="M94.5923 92.672C94.5923 92.672 95.7523 90.816 100.192 91.512" stroke="#263238" stroke-linecap="round" stroke-linejoin="round"/>
<path d="M107.336 91.744C107.336 91.744 109.424 88.496 112.672 91.744" stroke="#263238" stroke-linecap="round" stroke-linejoin="round"/>
<path d="M118.232 86.4C117.931 85.0239 117.41 83.7056 116.688 82.496C116.418 83.7786 116.324 85.092 116.408 86.4C116.744 88.096 117.936 90.464 117.936 91.648C117.936 92.832 117.76 97.576 118.608 96.904C118.692 96.8152 118.76 96.7123 118.808 96.6C118.861 93.1906 118.669 89.7817 118.232 86.4Z" fill="#263238" stroke="#263238" stroke-linecap="round" stroke-linejoin="round"/>
<path d="M106.584 76.8C108.072 76.7212 109.553 76.5422 111.016 76.264C108.653 74.4946 105.867 73.3748 102.936 73.016C94.5924 72.088 86.7124 78.808 85.5604 84.136C84.4084 89.464 85.0964 96.184 85.0964 96.184C85.0964 96.184 86.9364 97.464 87.6164 96.112C88.2964 94.76 87.6164 92.552 88.2964 90.184C88.9764 87.816 89.9844 86.624 90.1524 84.76C90.3204 82.896 89.1364 80.192 89.8164 78.664C90.4964 77.136 94.7284 74.264 97.4404 75.28C100.358 76.3852 103.466 76.9018 106.584 76.8Z" fill="#263238" stroke="#263238" stroke-linecap="round" stroke-linejoin="round"/>
</svg>
